M48
METRIC,LZ,000.000
;FILE_FORMAT=3:3
;TYPE=PLATED
;Layer: PTH_Through
;EasyEDA v6.5.14, 2022-08-20 14:37:37
;4645136cb0f74b4096413293ac8c450d,6126cb6f80e34288b1b51c63ee1abbf7,10
;Gerber Generator version 0.2
;Holesize 1 = 0.306 mm
T01C0.306
;Holesize 2 = 1.050 mm
T02C1.050
%
G05
G90
T01
X071120Y086360
X072644Y087884
X072644Y084836
X074168Y086360
X071882Y087122
X073406Y085598
X071882Y085598
X073406Y087122
X072644Y086233
X055843Y091186
X059817Y091160
X061087Y091160
X062357Y091160
X075277Y091405
X076222Y090523
X069243Y090981
X066703Y088568
X066679Y086736
X065663Y085094
X065988Y083641
X066877Y082752
X068330Y082427
X076982Y083243
X079502Y080189
X064187Y080010
X058547Y091160
X074422Y080772
X047068Y089916
X053008Y089916
X054610Y083380
X057023Y080824
X050959Y080010
X069219Y081538
X044069Y086614
X044069Y085725
X077616Y088326
X075565Y086741
X078309Y086877
X077343Y086487
X065786Y091821
X066675Y091821
X073279Y089027
X072517Y089662
X069804Y085806
X069596Y086741
X067818Y088265
X070104Y087376
X068453Y088900
X070612Y088011
X069977Y082296
X071253Y084168
X071820Y083538
X079502Y085090
X079502Y085979
X079502Y084074
X078105Y085598
X077089Y081788
X074468Y084628
X075680Y082919
X073902Y084062
X075114Y082353
X073336Y083496
X074549Y081788
X072771Y082931
X076482Y091665
X081534Y082879
X049392Y088704
X057023Y079958
X045847Y081661
X059346Y088767
X059347Y080010
X058547Y078613
X050800Y091440
X048768Y093472
X054864Y089916
X037084Y089916
X037084Y086868
X037084Y084836
X037084Y081788
X040640Y081280
X051534Y082530
X048768Y077216
X048260Y082296
X052832Y080264
X056388Y077216
X053848Y077216
X051308Y077216
X046228Y077216
X043688Y077216
X041148Y077216
X061468Y077216
X066548Y077216
X084328Y077216
X081788Y077216
X079248Y077216
X076708Y077216
X074168Y077216
X071628Y077216
X056134Y083566
X057658Y082550
X084328Y094488
X081788Y094488
X079248Y094488
X038608Y094488
X041148Y094488
X043688Y094488
X046228Y094488
X048768Y094488
X051308Y094488
X044958Y092710
X046228Y093218
X045212Y090932
X053848Y094488
X056388Y094488
X058928Y094488
X061468Y094488
X066548Y094488
X071628Y094488
X074168Y094488
X076708Y094488
X071505Y088074
X070623Y085050
X074422Y087630
X075033Y085617
X072136Y093218
X049530Y090932
X045720Y082804
X085598Y078994
X081534Y081534
X069088Y094996
X064008Y094996
X085635Y086106
X073710Y088200
X071946Y088893
X078309Y089586
X078309Y091350
X081774Y092106
X082593Y087129
X048636Y085176
X050211Y087129
X051849Y085113
X054810Y087003
X054810Y085050
X056133Y084987
X056133Y087003
X051849Y087003
X058149Y087003
X058149Y088767
X060291Y087003
X057645Y084924
X062244Y087003
X063252Y082656
X062357Y084100
X064386Y086373
T02
X085598Y076835
X083058Y076835
X080518Y076835
X077978Y076835
X075438Y076835
X072898Y076835
X070358Y076835
X067818Y076835
X065278Y076835
X062738Y076835
X060198Y076835
X057658Y076835
X055118Y076835
X052578Y076835
X050038Y076835
X047498Y076835
X044958Y076835
X042418Y076835
X039878Y076835
X037338Y076835
X085598Y094615
X083058Y094615
X080518Y094615
X077978Y094615
X075438Y094615
X072898Y094615
X070358Y094615
X067818Y094615
X065278Y094615
X062738Y094615
X060198Y094615
X057658Y094615
X055118Y094615
X052578Y094615
X050038Y094615
X047498Y094615
X044958Y094615
X042418Y094615
X039878Y094615
X037338Y094615
X088138Y094615
X088138Y092075
X088138Y089535
X088138Y086995
X088138Y084455
X088138Y081915
X088138Y079375
X088138Y076835
X037338Y028575
X037338Y031115
X037338Y033655
X037338Y036195
X037338Y038735
X037338Y041275
X037338Y043815
X037338Y046355
X037338Y048895
X037338Y051435
X037338Y053975
X037338Y056515
X037338Y059055
X037338Y061595
X037338Y064135
X037338Y066675
X037338Y069215
X037338Y071755
X037338Y074295
X039878Y074295
X039878Y071755
X039878Y069215
X039878Y066675
X039878Y064135
X039878Y061595
X039878Y059055
X039878Y056515
X039878Y053975
X039878Y051435
X039878Y048895
X039878Y046355
X039878Y043815
X039878Y041275
X039878Y038735
X039878Y036195
X039878Y033655
X039878Y031115
X039878Y028575
X044958Y028575
X044958Y031115
X044958Y033655
X044958Y036195
X044958Y038735
X044958Y041275
X044958Y043815
X044958Y046355
X044958Y048895
X044958Y051435
X044958Y053975
X044958Y056515
X044958Y059055
X044958Y061595
X044958Y064135
X044958Y066675
X044958Y069215
X044958Y071755
X044958Y074295
X042418Y074295
X042418Y071755
X042418Y069215
X042418Y066675
X042418Y064135
X042418Y061595
X042418Y059055
X042418Y056515
X042418Y053975
X042418Y051435
X042418Y048895
X042418Y046355
X042418Y043815
X042418Y041275
X042418Y038735
X042418Y036195
X042418Y033655
X042418Y031115
X042418Y028575
X052578Y028575
X052578Y031115
X052578Y033655
X052578Y036195
X052578Y038735
X052578Y041275
X052578Y043815
X052578Y046355
X052578Y048895
X052578Y051435
X052578Y053975
X052578Y056515
X052578Y059055
X052578Y061595
X052578Y064135
X052578Y066675
X052578Y069215
X052578Y071755
X052578Y074295
X055118Y074295
X055118Y071755
X055118Y069215
X055118Y066675
X055118Y064135
X055118Y061595
X055118Y059055
X055118Y056515
X055118Y053975
X055118Y051435
X055118Y048895
X055118Y046355
X055118Y043815
X055118Y041275
X055118Y038735
X055118Y036195
X055118Y033655
X055118Y031115
X055118Y028575
X050038Y028575
X050038Y031115
X050038Y033655
X050038Y036195
X050038Y038735
X050038Y041275
X050038Y043815
X050038Y046355
X050038Y048895
X050038Y051435
X050038Y053975
X050038Y056515
X050038Y059055
X050038Y061595
X050038Y064135
X050038Y066675
X050038Y069215
X050038Y071755
X050038Y074295
X047498Y074295
X047498Y071755
X047498Y069215
X047498Y066675
X047498Y064135
X047498Y061595
X047498Y059055
X047498Y056515
X047498Y053975
X047498Y051435
X047498Y048895
X047498Y046355
X047498Y043815
X047498Y041275
X047498Y038735
X047498Y036195
X047498Y033655
X047498Y031115
X047498Y028575
X067818Y028575
X067818Y031115
X067818Y033655
X067818Y036195
X067818Y038735
X067818Y041275
X067818Y043815
X067818Y046355
X067818Y048895
X067818Y051435
X067818Y053975
X067818Y056515
X067818Y059055
X067818Y061595
X067818Y064135
X067818Y066675
X067818Y069215
X067818Y071755
X067818Y074295
X070358Y074295
X070358Y071755
X070358Y069215
X070358Y066675
X070358Y064135
X070358Y061595
X070358Y059055
X070358Y056515
X070358Y053975
X070358Y051435
X070358Y048895
X070358Y046355
X070358Y043815
X070358Y041275
X070358Y038735
X070358Y036195
X070358Y033655
X070358Y031115
X070358Y028575
X075438Y028575
X075438Y031115
X075438Y033655
X075438Y036195
X075438Y038735
X075438Y041275
X075438Y043815
X075438Y046355
X075438Y048895
X075438Y051435
X075438Y053975
X075438Y056515
X075438Y059055
X075438Y061595
X075438Y064135
X075438Y066675
X075438Y069215
X075438Y071755
X075438Y074295
X072898Y074295
X072898Y071755
X072898Y069215
X072898Y066675
X072898Y064135
X072898Y061595
X072898Y059055
X072898Y056515
X072898Y053975
X072898Y051435
X072898Y048895
X072898Y046355
X072898Y043815
X072898Y041275
X072898Y038735
X072898Y036195
X072898Y033655
X072898Y031115
X072898Y028575
X062738Y028575
X062738Y031115
X062738Y033655
X062738Y036195
X062738Y038735
X062738Y041275
X062738Y043815
X062738Y046355
X062738Y048895
X062738Y051435
X062738Y053975
X062738Y056515
X062738Y059055
X062738Y061595
X062738Y064135
X062738Y066675
X062738Y069215
X062738Y071755
X062738Y074295
X065278Y074295
X065278Y071755
X065278Y069215
X065278Y066675
X065278Y064135
X065278Y061595
X065278Y059055
X065278Y056515
X065278Y053975
X065278Y051435
X065278Y048895
X065278Y046355
X065278Y043815
X065278Y041275
X065278Y038735
X065278Y036195
X065278Y033655
X065278Y031115
X065278Y028575
X060198Y028575
X060198Y031115
X060198Y033655
X060198Y036195
X060198Y038735
X060198Y041275
X060198Y043815
X060198Y046355
X060198Y048895
X060198Y051435
X060198Y053975
X060198Y056515
X060198Y059055
X060198Y061595
X060198Y064135
X060198Y066675
X060198Y069215
X060198Y071755
X060198Y074295
X057658Y074295
X057658Y071755
X057658Y069215
X057658Y066675
X057658Y064135
X057658Y061595
X057658Y059055
X057658Y056515
X057658Y053975
X057658Y051435
X057658Y048895
X057658Y046355
X057658Y043815
X057658Y041275
X057658Y038735
X057658Y036195
X057658Y033655
X057658Y031115
X057658Y028575
X088138Y028575
X088138Y031115
X088138Y033655
X088138Y036195
X088138Y038735
X088138Y041275
X088138Y043815
X088138Y046355
X088138Y048895
X088138Y051435
X088138Y053975
X088138Y056515
X088138Y059055
X088138Y061595
X088138Y064135
X088138Y066675
X088138Y069215
X088138Y071755
X088138Y074295
X090678Y074295
X090678Y071755
X090678Y069215
X090678Y066675
X090678Y064135
X090678Y061595
X090678Y059055
X090678Y056515
X090678Y053975
X090678Y051435
X090678Y048895
X090678Y046355
X090678Y043815
X090678Y041275
X090678Y038735
X090678Y036195
X090678Y033655
X090678Y031115
X090678Y028575
X095758Y028575
X095758Y031115
X095758Y033655
X095758Y036195
X095758Y038735
X095758Y041275
X095758Y043815
X095758Y046355
X095758Y048895
X095758Y051435
X095758Y053975
X095758Y056515
X095758Y059055
X095758Y061595
X095758Y064135
X095758Y066675
X095758Y069215
X095758Y071755
X095758Y074295
X093218Y074295
X093218Y071755
X093218Y069215
X093218Y066675
X093218Y064135
X093218Y061595
X093218Y059055
X093218Y056515
X093218Y053975
X093218Y051435
X093218Y048895
X093218Y046355
X093218Y043815
X093218Y041275
X093218Y038735
X093218Y036195
X093218Y033655
X093218Y031115
X093218Y028575
X083058Y028575
X083058Y031115
X083058Y033655
X083058Y036195
X083058Y038735
X083058Y041275
X083058Y043815
X083058Y046355
X083058Y048895
X083058Y051435
X083058Y053975
X083058Y056515
X083058Y059055
X083058Y061595
X083058Y064135
X083058Y066675
X083058Y069215
X083058Y071755
X083058Y074295
X085598Y074295
X085598Y071755
X085598Y069215
X085598Y066675
X085598Y064135
X085598Y061595
X085598Y059055
X085598Y056515
X085598Y053975
X085598Y051435
X085598Y048895
X085598Y046355
X085598Y043815
X085598Y041275
X085598Y038735
X085598Y036195
X085598Y033655
X085598Y031115
X085598Y028575
X080518Y028575
X080518Y031115
X080518Y033655
X080518Y036195
X080518Y038735
X080518Y041275
X080518Y043815
X080518Y046355
X080518Y048895
X080518Y051435
X080518Y053975
X080518Y056515
X080518Y059055
X080518Y061595
X080518Y064135
X080518Y066675
X080518Y069215
X080518Y071755
X080518Y074295
X077978Y074295
X077978Y071755
X077978Y069215
X077978Y066675
X077978Y064135
X077978Y061595
X077978Y059055
X077978Y056515
X077978Y053975
X077978Y051435
X077978Y048895
X077978Y046355
X077978Y043815
X077978Y041275
X077978Y038735
X077978Y036195
X077978Y033655
X077978Y031115
X077978Y028575
X098298Y028575
X098298Y031115
X098298Y033655
X098298Y036195
X098298Y038735
X098298Y041275
X098298Y043815
X098298Y046355
X098298Y048895
X098298Y051435
X098298Y053975
X098298Y056515
X098298Y059055
X098298Y061595
X098298Y064135
X098298Y066675
X098298Y069215
X098298Y071755
X098298Y074295
X100838Y028575
X100838Y031115
X100838Y033655
X100838Y036195
X100838Y038735
X100838Y041275
X100838Y043815
X100838Y046355
X100838Y048895
X100838Y051435
X100838Y053975
X100838Y056515
X100838Y059055
X100838Y061595
X100838Y064135
X100838Y066675
X100838Y069215
X100838Y071755
X100838Y074295
X103378Y028575
X103378Y031115
X103378Y033655
X103378Y036195
X103378Y038735
X103378Y041275
X103378Y043815
X103378Y046355
X103378Y048895
X103378Y051435
X103378Y053975
X103378Y056515
X103378Y059055
X103378Y061595
X103378Y064135
X103378Y066675
X103378Y069215
X103378Y071755
X103378Y074295
X090678Y076835
X090678Y079375
X090678Y081915
X090678Y084455
X090678Y086995
X090678Y089535
X090678Y092075
X090678Y094615
X095758Y094615
X095758Y092075
X095758Y089535
X095758Y086995
X095758Y084455
X095758Y081915
X095758Y079375
X095758Y076835
X093218Y076835
X093218Y079375
X093218Y081915
X093218Y084455
X093218Y086995
X093218Y089535
X093218Y092075
X093218Y094615
X100838Y094615
X100838Y092075
X100838Y089535
X100838Y086995
X100838Y084455
X100838Y081915
X100838Y079375
X100838Y076835
X103378Y076835
X103378Y079375
X103378Y081915
X103378Y084455
X103378Y086995
X103378Y089535
X103378Y092075
X103378Y094615
X098298Y094615
X098298Y092075
X098298Y089535
X098298Y086995
X098298Y084455
X098298Y081915
X098298Y079375
X098298Y076835
M30
