G04 Layer: BottomSolderMaskLayer*
G04 EasyEDA v6.5.14, 2022-08-20 14:37:37*
G04 4645136cb0f74b4096413293ac8c450d,6126cb6f80e34288b1b51c63ee1abbf7,10*
G04 Gerber Generator version 0.2*
G04 Scale: 100 percent, Rotated: No, Reflected: No *
G04 Dimensions in millimeters *
G04 leading zeros omitted , absolute positions ,4 integer and 5 decimal *
%FSLAX45Y45*%
%MOMM*%

%AMMACRO1*1,1,$1,$2,$3*1,1,$1,$4,$5*1,1,$1,0-$2,0-$3*1,1,$1,0-$4,0-$5*20,1,$1,$2,$3,$4,$5,0*20,1,$1,$4,$5,0-$2,0-$3,0*20,1,$1,0-$2,0-$3,0-$4,0-$5,0*20,1,$1,0-$4,0-$5,$2,$3,0*4,1,4,$2,$3,$4,$5,0-$2,0-$3,0-$4,0-$5,$2,$3,0*%
%ADD10C,1.7016*%
%ADD11MACRO1,0.1016X-0.8X0.8X0.8X0.8*%

%LPD*%
D10*
G01*
X8559800Y7683474D03*
G01*
X8305800Y7683474D03*
G01*
X8051800Y7683474D03*
G01*
X7797800Y7683474D03*
G01*
X7543800Y7683474D03*
G01*
X7289800Y7683474D03*
G01*
X7035800Y7683474D03*
G01*
X6781800Y7683474D03*
G01*
X6527800Y7683474D03*
G01*
X6273800Y7683474D03*
G01*
X6019800Y7683474D03*
G01*
X5765800Y7683474D03*
G01*
X5511800Y7683474D03*
G01*
X5257800Y7683474D03*
G01*
X5003800Y7683474D03*
G01*
X4749800Y7683474D03*
G01*
X4495800Y7683474D03*
G01*
X4241800Y7683474D03*
G01*
X3987800Y7683474D03*
D11*
G01*
X3733787Y7683484D03*
D10*
G01*
X8559800Y9461474D03*
G01*
X8305800Y9461474D03*
G01*
X8051800Y9461474D03*
G01*
X7797800Y9461474D03*
G01*
X7543800Y9461474D03*
G01*
X7289800Y9461474D03*
G01*
X7035800Y9461474D03*
G01*
X6781800Y9461474D03*
G01*
X6527800Y9461474D03*
G01*
X6273800Y9461474D03*
G01*
X6019800Y9461474D03*
G01*
X5765800Y9461474D03*
G01*
X5511800Y9461474D03*
G01*
X5257800Y9461474D03*
G01*
X5003800Y9461474D03*
G01*
X4749800Y9461474D03*
G01*
X4495800Y9461474D03*
G01*
X4241800Y9461474D03*
G01*
X3987800Y9461474D03*
D11*
G01*
X3733787Y9461482D03*
D10*
G01*
X8813774Y9461474D03*
G01*
X8813774Y9207474D03*
G01*
X8813774Y8953474D03*
G01*
X8813774Y8699474D03*
G01*
X8813774Y8445474D03*
G01*
X8813774Y8191474D03*
G01*
X8813774Y7937474D03*
G01*
X8813774Y7683474D03*
G01*
X3733800Y2857500D03*
G01*
X3733800Y3111500D03*
G01*
X3733800Y3365500D03*
G01*
X3733800Y3619500D03*
G01*
X3733800Y3873500D03*
G01*
X3733800Y4127500D03*
G01*
X3733800Y4381500D03*
G01*
X3733800Y4635500D03*
G01*
X3733800Y4889500D03*
G01*
X3733800Y5143500D03*
G01*
X3733800Y5397500D03*
G01*
X3733800Y5651500D03*
G01*
X3733800Y5905474D03*
G01*
X3733800Y6159474D03*
G01*
X3733800Y6413474D03*
G01*
X3733800Y6667474D03*
G01*
X3733800Y6921474D03*
G01*
X3733800Y7175474D03*
G01*
X3733800Y7429474D03*
G01*
X3987800Y7429474D03*
G01*
X3987800Y7175474D03*
G01*
X3987800Y6921474D03*
G01*
X3987800Y6667474D03*
G01*
X3987800Y6413474D03*
G01*
X3987800Y6159474D03*
G01*
X3987800Y5905474D03*
G01*
X3987800Y5651500D03*
G01*
X3987800Y5397500D03*
G01*
X3987800Y5143500D03*
G01*
X3987800Y4889500D03*
G01*
X3987800Y4635500D03*
G01*
X3987800Y4381500D03*
G01*
X3987800Y4127500D03*
G01*
X3987800Y3873500D03*
G01*
X3987800Y3619500D03*
G01*
X3987800Y3365500D03*
G01*
X3987800Y3111500D03*
G01*
X3987800Y2857500D03*
G01*
X4495800Y2857500D03*
G01*
X4495800Y3111500D03*
G01*
X4495800Y3365500D03*
G01*
X4495800Y3619500D03*
G01*
X4495800Y3873500D03*
G01*
X4495800Y4127500D03*
G01*
X4495800Y4381500D03*
G01*
X4495800Y4635500D03*
G01*
X4495800Y4889500D03*
G01*
X4495800Y5143500D03*
G01*
X4495800Y5397500D03*
G01*
X4495800Y5651500D03*
G01*
X4495800Y5905474D03*
G01*
X4495800Y6159474D03*
G01*
X4495800Y6413474D03*
G01*
X4495800Y6667474D03*
G01*
X4495800Y6921474D03*
G01*
X4495800Y7175474D03*
G01*
X4495800Y7429474D03*
G01*
X4241800Y7429474D03*
G01*
X4241800Y7175474D03*
G01*
X4241800Y6921474D03*
G01*
X4241800Y6667474D03*
G01*
X4241800Y6413474D03*
G01*
X4241800Y6159474D03*
G01*
X4241800Y5905474D03*
G01*
X4241800Y5651500D03*
G01*
X4241800Y5397500D03*
G01*
X4241800Y5143500D03*
G01*
X4241800Y4889500D03*
G01*
X4241800Y4635500D03*
G01*
X4241800Y4381500D03*
G01*
X4241800Y4127500D03*
G01*
X4241800Y3873500D03*
G01*
X4241800Y3619500D03*
G01*
X4241800Y3365500D03*
G01*
X4241800Y3111500D03*
G01*
X4241800Y2857500D03*
G01*
X5257800Y2857500D03*
G01*
X5257800Y3111500D03*
G01*
X5257800Y3365500D03*
G01*
X5257800Y3619500D03*
G01*
X5257800Y3873500D03*
G01*
X5257800Y4127500D03*
G01*
X5257800Y4381500D03*
G01*
X5257800Y4635500D03*
G01*
X5257800Y4889500D03*
G01*
X5257800Y5143500D03*
G01*
X5257800Y5397500D03*
G01*
X5257800Y5651500D03*
G01*
X5257800Y5905474D03*
G01*
X5257800Y6159474D03*
G01*
X5257800Y6413474D03*
G01*
X5257800Y6667474D03*
G01*
X5257800Y6921474D03*
G01*
X5257800Y7175474D03*
G01*
X5257800Y7429474D03*
G01*
X5511800Y7429474D03*
G01*
X5511800Y7175474D03*
G01*
X5511800Y6921474D03*
G01*
X5511800Y6667474D03*
G01*
X5511800Y6413474D03*
G01*
X5511800Y6159474D03*
G01*
X5511800Y5905474D03*
G01*
X5511800Y5651500D03*
G01*
X5511800Y5397500D03*
G01*
X5511800Y5143500D03*
G01*
X5511800Y4889500D03*
G01*
X5511800Y4635500D03*
G01*
X5511800Y4381500D03*
G01*
X5511800Y4127500D03*
G01*
X5511800Y3873500D03*
G01*
X5511800Y3619500D03*
G01*
X5511800Y3365500D03*
G01*
X5511800Y3111500D03*
G01*
X5511800Y2857500D03*
G01*
X5003800Y2857500D03*
G01*
X5003800Y3111500D03*
G01*
X5003800Y3365500D03*
G01*
X5003800Y3619500D03*
G01*
X5003800Y3873500D03*
G01*
X5003800Y4127500D03*
G01*
X5003800Y4381500D03*
G01*
X5003800Y4635500D03*
G01*
X5003800Y4889500D03*
G01*
X5003800Y5143500D03*
G01*
X5003800Y5397500D03*
G01*
X5003800Y5651500D03*
G01*
X5003800Y5905474D03*
G01*
X5003800Y6159474D03*
G01*
X5003800Y6413474D03*
G01*
X5003800Y6667474D03*
G01*
X5003800Y6921474D03*
G01*
X5003800Y7175474D03*
G01*
X5003800Y7429474D03*
G01*
X4749800Y7429474D03*
G01*
X4749800Y7175474D03*
G01*
X4749800Y6921474D03*
G01*
X4749800Y6667474D03*
G01*
X4749800Y6413474D03*
G01*
X4749800Y6159474D03*
G01*
X4749800Y5905474D03*
G01*
X4749800Y5651500D03*
G01*
X4749800Y5397500D03*
G01*
X4749800Y5143500D03*
G01*
X4749800Y4889500D03*
G01*
X4749800Y4635500D03*
G01*
X4749800Y4381500D03*
G01*
X4749800Y4127500D03*
G01*
X4749800Y3873500D03*
G01*
X4749800Y3619500D03*
G01*
X4749800Y3365500D03*
G01*
X4749800Y3111500D03*
G01*
X4749800Y2857500D03*
G01*
X6781774Y2857500D03*
G01*
X6781774Y3111500D03*
G01*
X6781774Y3365500D03*
G01*
X6781774Y3619500D03*
G01*
X6781774Y3873500D03*
G01*
X6781774Y4127500D03*
G01*
X6781774Y4381500D03*
G01*
X6781774Y4635500D03*
G01*
X6781774Y4889500D03*
G01*
X6781774Y5143500D03*
G01*
X6781774Y5397500D03*
G01*
X6781774Y5651500D03*
G01*
X6781774Y5905474D03*
G01*
X6781774Y6159474D03*
G01*
X6781774Y6413474D03*
G01*
X6781774Y6667474D03*
G01*
X6781774Y6921474D03*
G01*
X6781774Y7175474D03*
G01*
X6781774Y7429474D03*
G01*
X7035774Y7429474D03*
G01*
X7035774Y7175474D03*
G01*
X7035774Y6921474D03*
G01*
X7035774Y6667474D03*
G01*
X7035774Y6413474D03*
G01*
X7035774Y6159474D03*
G01*
X7035774Y5905474D03*
G01*
X7035774Y5651500D03*
G01*
X7035774Y5397500D03*
G01*
X7035774Y5143500D03*
G01*
X7035774Y4889500D03*
G01*
X7035774Y4635500D03*
G01*
X7035774Y4381500D03*
G01*
X7035774Y4127500D03*
G01*
X7035774Y3873500D03*
G01*
X7035774Y3619500D03*
G01*
X7035774Y3365500D03*
G01*
X7035774Y3111500D03*
G01*
X7035774Y2857500D03*
G01*
X7543774Y2857500D03*
G01*
X7543774Y3111500D03*
G01*
X7543774Y3365500D03*
G01*
X7543774Y3619500D03*
G01*
X7543774Y3873500D03*
G01*
X7543774Y4127500D03*
G01*
X7543774Y4381500D03*
G01*
X7543774Y4635500D03*
G01*
X7543774Y4889500D03*
G01*
X7543774Y5143500D03*
G01*
X7543774Y5397500D03*
G01*
X7543774Y5651500D03*
G01*
X7543774Y5905474D03*
G01*
X7543774Y6159474D03*
G01*
X7543774Y6413474D03*
G01*
X7543774Y6667474D03*
G01*
X7543774Y6921474D03*
G01*
X7543774Y7175474D03*
G01*
X7543774Y7429474D03*
G01*
X7289774Y7429474D03*
G01*
X7289774Y7175474D03*
G01*
X7289774Y6921474D03*
G01*
X7289774Y6667474D03*
G01*
X7289774Y6413474D03*
G01*
X7289774Y6159474D03*
G01*
X7289774Y5905474D03*
G01*
X7289774Y5651500D03*
G01*
X7289774Y5397500D03*
G01*
X7289774Y5143500D03*
G01*
X7289774Y4889500D03*
G01*
X7289774Y4635500D03*
G01*
X7289774Y4381500D03*
G01*
X7289774Y4127500D03*
G01*
X7289774Y3873500D03*
G01*
X7289774Y3619500D03*
G01*
X7289774Y3365500D03*
G01*
X7289774Y3111500D03*
G01*
X7289774Y2857500D03*
G01*
X6273800Y2857500D03*
G01*
X6273800Y3111500D03*
G01*
X6273800Y3365500D03*
G01*
X6273800Y3619500D03*
G01*
X6273800Y3873500D03*
G01*
X6273800Y4127500D03*
G01*
X6273800Y4381500D03*
G01*
X6273800Y4635500D03*
G01*
X6273800Y4889500D03*
G01*
X6273800Y5143500D03*
G01*
X6273800Y5397500D03*
G01*
X6273800Y5651500D03*
G01*
X6273800Y5905474D03*
G01*
X6273800Y6159474D03*
G01*
X6273800Y6413474D03*
G01*
X6273800Y6667474D03*
G01*
X6273800Y6921474D03*
G01*
X6273800Y7175474D03*
G01*
X6273800Y7429474D03*
G01*
X6527800Y7429474D03*
G01*
X6527800Y7175474D03*
G01*
X6527800Y6921474D03*
G01*
X6527800Y6667474D03*
G01*
X6527800Y6413474D03*
G01*
X6527800Y6159474D03*
G01*
X6527800Y5905474D03*
G01*
X6527800Y5651500D03*
G01*
X6527800Y5397500D03*
G01*
X6527800Y5143500D03*
G01*
X6527800Y4889500D03*
G01*
X6527800Y4635500D03*
G01*
X6527800Y4381500D03*
G01*
X6527800Y4127500D03*
G01*
X6527800Y3873500D03*
G01*
X6527800Y3619500D03*
G01*
X6527800Y3365500D03*
G01*
X6527800Y3111500D03*
G01*
X6527800Y2857500D03*
G01*
X6019800Y2857500D03*
G01*
X6019800Y3111500D03*
G01*
X6019800Y3365500D03*
G01*
X6019800Y3619500D03*
G01*
X6019800Y3873500D03*
G01*
X6019800Y4127500D03*
G01*
X6019800Y4381500D03*
G01*
X6019800Y4635500D03*
G01*
X6019800Y4889500D03*
G01*
X6019800Y5143500D03*
G01*
X6019800Y5397500D03*
G01*
X6019800Y5651500D03*
G01*
X6019800Y5905474D03*
G01*
X6019800Y6159474D03*
G01*
X6019800Y6413474D03*
G01*
X6019800Y6667474D03*
G01*
X6019800Y6921474D03*
G01*
X6019800Y7175474D03*
G01*
X6019800Y7429474D03*
G01*
X5765800Y7429474D03*
G01*
X5765800Y7175474D03*
G01*
X5765800Y6921474D03*
G01*
X5765800Y6667474D03*
G01*
X5765800Y6413474D03*
G01*
X5765800Y6159474D03*
G01*
X5765800Y5905474D03*
G01*
X5765800Y5651500D03*
G01*
X5765800Y5397500D03*
G01*
X5765800Y5143500D03*
G01*
X5765800Y4889500D03*
G01*
X5765800Y4635500D03*
G01*
X5765800Y4381500D03*
G01*
X5765800Y4127500D03*
G01*
X5765800Y3873500D03*
G01*
X5765800Y3619500D03*
G01*
X5765800Y3365500D03*
G01*
X5765800Y3111500D03*
G01*
X5765800Y2857500D03*
G01*
X8813774Y2857500D03*
G01*
X8813774Y3111500D03*
G01*
X8813774Y3365500D03*
G01*
X8813774Y3619500D03*
G01*
X8813774Y3873500D03*
G01*
X8813774Y4127500D03*
G01*
X8813774Y4381500D03*
G01*
X8813774Y4635500D03*
G01*
X8813774Y4889500D03*
G01*
X8813774Y5143500D03*
G01*
X8813774Y5397500D03*
G01*
X8813774Y5651500D03*
G01*
X8813774Y5905474D03*
G01*
X8813774Y6159474D03*
G01*
X8813774Y6413474D03*
G01*
X8813774Y6667474D03*
G01*
X8813774Y6921474D03*
G01*
X8813774Y7175474D03*
G01*
X8813774Y7429474D03*
G01*
X9067774Y7429474D03*
G01*
X9067774Y7175474D03*
G01*
X9067774Y6921474D03*
G01*
X9067774Y6667474D03*
G01*
X9067774Y6413474D03*
G01*
X9067774Y6159474D03*
G01*
X9067774Y5905474D03*
G01*
X9067774Y5651500D03*
G01*
X9067774Y5397500D03*
G01*
X9067774Y5143500D03*
G01*
X9067774Y4889500D03*
G01*
X9067774Y4635500D03*
G01*
X9067774Y4381500D03*
G01*
X9067774Y4127500D03*
G01*
X9067774Y3873500D03*
G01*
X9067774Y3619500D03*
G01*
X9067774Y3365500D03*
G01*
X9067774Y3111500D03*
G01*
X9067774Y2857500D03*
G01*
X9575774Y2857500D03*
G01*
X9575774Y3111500D03*
G01*
X9575774Y3365500D03*
G01*
X9575774Y3619500D03*
G01*
X9575774Y3873500D03*
G01*
X9575774Y4127500D03*
G01*
X9575774Y4381500D03*
G01*
X9575774Y4635500D03*
G01*
X9575774Y4889500D03*
G01*
X9575774Y5143500D03*
G01*
X9575774Y5397500D03*
G01*
X9575774Y5651500D03*
G01*
X9575774Y5905474D03*
G01*
X9575774Y6159474D03*
G01*
X9575774Y6413474D03*
G01*
X9575774Y6667474D03*
G01*
X9575774Y6921474D03*
G01*
X9575774Y7175474D03*
G01*
X9575774Y7429474D03*
G01*
X9321774Y7429474D03*
G01*
X9321774Y7175474D03*
G01*
X9321774Y6921474D03*
G01*
X9321774Y6667474D03*
G01*
X9321774Y6413474D03*
G01*
X9321774Y6159474D03*
G01*
X9321774Y5905474D03*
G01*
X9321774Y5651500D03*
G01*
X9321774Y5397500D03*
G01*
X9321774Y5143500D03*
G01*
X9321774Y4889500D03*
G01*
X9321774Y4635500D03*
G01*
X9321774Y4381500D03*
G01*
X9321774Y4127500D03*
G01*
X9321774Y3873500D03*
G01*
X9321774Y3619500D03*
G01*
X9321774Y3365500D03*
G01*
X9321774Y3111500D03*
G01*
X9321774Y2857500D03*
G01*
X8305774Y2857500D03*
G01*
X8305774Y3111500D03*
G01*
X8305774Y3365500D03*
G01*
X8305774Y3619500D03*
G01*
X8305774Y3873500D03*
G01*
X8305774Y4127500D03*
G01*
X8305774Y4381500D03*
G01*
X8305774Y4635500D03*
G01*
X8305774Y4889500D03*
G01*
X8305774Y5143500D03*
G01*
X8305774Y5397500D03*
G01*
X8305774Y5651500D03*
G01*
X8305774Y5905474D03*
G01*
X8305774Y6159474D03*
G01*
X8305774Y6413474D03*
G01*
X8305774Y6667474D03*
G01*
X8305774Y6921474D03*
G01*
X8305774Y7175474D03*
G01*
X8305774Y7429474D03*
G01*
X8559774Y7429474D03*
G01*
X8559774Y7175474D03*
G01*
X8559774Y6921474D03*
G01*
X8559774Y6667474D03*
G01*
X8559774Y6413474D03*
G01*
X8559774Y6159474D03*
G01*
X8559774Y5905474D03*
G01*
X8559774Y5651500D03*
G01*
X8559774Y5397500D03*
G01*
X8559774Y5143500D03*
G01*
X8559774Y4889500D03*
G01*
X8559774Y4635500D03*
G01*
X8559774Y4381500D03*
G01*
X8559774Y4127500D03*
G01*
X8559774Y3873500D03*
G01*
X8559774Y3619500D03*
G01*
X8559774Y3365500D03*
G01*
X8559774Y3111500D03*
G01*
X8559774Y2857500D03*
G01*
X8051774Y2857500D03*
G01*
X8051774Y3111500D03*
G01*
X8051774Y3365500D03*
G01*
X8051774Y3619500D03*
G01*
X8051774Y3873500D03*
G01*
X8051774Y4127500D03*
G01*
X8051774Y4381500D03*
G01*
X8051774Y4635500D03*
G01*
X8051774Y4889500D03*
G01*
X8051774Y5143500D03*
G01*
X8051774Y5397500D03*
G01*
X8051774Y5651500D03*
G01*
X8051774Y5905474D03*
G01*
X8051774Y6159474D03*
G01*
X8051774Y6413474D03*
G01*
X8051774Y6667474D03*
G01*
X8051774Y6921474D03*
G01*
X8051774Y7175474D03*
G01*
X8051774Y7429474D03*
G01*
X7797774Y7429474D03*
G01*
X7797774Y7175474D03*
G01*
X7797774Y6921474D03*
G01*
X7797774Y6667474D03*
G01*
X7797774Y6413474D03*
G01*
X7797774Y6159474D03*
G01*
X7797774Y5905474D03*
G01*
X7797774Y5651500D03*
G01*
X7797774Y5397500D03*
G01*
X7797774Y5143500D03*
G01*
X7797774Y4889500D03*
G01*
X7797774Y4635500D03*
G01*
X7797774Y4381500D03*
G01*
X7797774Y4127500D03*
G01*
X7797774Y3873500D03*
G01*
X7797774Y3619500D03*
G01*
X7797774Y3365500D03*
G01*
X7797774Y3111500D03*
G01*
X7797774Y2857500D03*
G01*
X9829774Y2857500D03*
G01*
X9829774Y3111500D03*
G01*
X9829774Y3365500D03*
G01*
X9829774Y3619500D03*
G01*
X9829774Y3873500D03*
G01*
X9829774Y4127500D03*
G01*
X9829774Y4381500D03*
G01*
X9829774Y4635500D03*
G01*
X9829774Y4889500D03*
G01*
X9829774Y5143500D03*
G01*
X9829774Y5397500D03*
G01*
X9829774Y5651500D03*
G01*
X9829774Y5905474D03*
G01*
X9829774Y6159474D03*
G01*
X9829774Y6413474D03*
G01*
X9829774Y6667474D03*
G01*
X9829774Y6921474D03*
G01*
X9829774Y7175474D03*
G01*
X9829774Y7429474D03*
G01*
X10083774Y2857500D03*
G01*
X10083774Y3111500D03*
G01*
X10083774Y3365500D03*
G01*
X10083774Y3619500D03*
G01*
X10083774Y3873500D03*
G01*
X10083774Y4127500D03*
G01*
X10083774Y4381500D03*
G01*
X10083774Y4635500D03*
G01*
X10083774Y4889500D03*
G01*
X10083774Y5143500D03*
G01*
X10083774Y5397500D03*
G01*
X10083774Y5651500D03*
G01*
X10083774Y5905474D03*
G01*
X10083774Y6159474D03*
G01*
X10083774Y6413474D03*
G01*
X10083774Y6667474D03*
G01*
X10083774Y6921474D03*
G01*
X10083774Y7175474D03*
G01*
X10083774Y7429474D03*
G01*
X10337774Y2857500D03*
G01*
X10337774Y3111500D03*
G01*
X10337774Y3365500D03*
G01*
X10337774Y3619500D03*
G01*
X10337774Y3873500D03*
G01*
X10337774Y4127500D03*
G01*
X10337774Y4381500D03*
G01*
X10337774Y4635500D03*
G01*
X10337774Y4889500D03*
G01*
X10337774Y5143500D03*
G01*
X10337774Y5397500D03*
G01*
X10337774Y5651500D03*
G01*
X10337774Y5905474D03*
G01*
X10337774Y6159474D03*
G01*
X10337774Y6413474D03*
G01*
X10337774Y6667474D03*
G01*
X10337774Y6921474D03*
G01*
X10337774Y7175474D03*
G01*
X10337774Y7429474D03*
G01*
X9067774Y7683474D03*
G01*
X9067774Y7937474D03*
G01*
X9067774Y8191474D03*
G01*
X9067774Y8445474D03*
G01*
X9067774Y8699474D03*
G01*
X9067774Y8953474D03*
G01*
X9067774Y9207474D03*
G01*
X9067774Y9461474D03*
G01*
X9575774Y9461474D03*
G01*
X9575774Y9207474D03*
G01*
X9575774Y8953474D03*
G01*
X9575774Y8699474D03*
G01*
X9575774Y8445474D03*
G01*
X9575774Y8191474D03*
G01*
X9575774Y7937474D03*
G01*
X9575774Y7683474D03*
G01*
X9321774Y7683474D03*
G01*
X9321774Y7937474D03*
G01*
X9321774Y8191474D03*
G01*
X9321774Y8445474D03*
G01*
X9321774Y8699474D03*
G01*
X9321774Y8953474D03*
G01*
X9321774Y9207474D03*
G01*
X9321774Y9461474D03*
G01*
X10083774Y9461474D03*
G01*
X10083774Y9207474D03*
G01*
X10083774Y8953474D03*
G01*
X10083774Y8699474D03*
G01*
X10083774Y8445474D03*
G01*
X10083774Y8191474D03*
G01*
X10083774Y7937474D03*
G01*
X10083774Y7683474D03*
G01*
X10337774Y7683474D03*
G01*
X10337774Y7937474D03*
G01*
X10337774Y8191474D03*
G01*
X10337774Y8445474D03*
G01*
X10337774Y8699474D03*
G01*
X10337774Y8953474D03*
G01*
X10337774Y9207474D03*
G01*
X10337774Y9461474D03*
G01*
X9829774Y9461474D03*
G01*
X9829774Y9207474D03*
G01*
X9829774Y8953474D03*
G01*
X9829774Y8699474D03*
G01*
X9829774Y8445474D03*
G01*
X9829774Y8191474D03*
G01*
X9829774Y7937474D03*
G01*
X9829774Y7683474D03*
M02*
