G04 Layer: TopSilkscreenLayer*
G04 EasyEDA v6.5.14, 2022-08-20 14:37:37*
G04 4645136cb0f74b4096413293ac8c450d,6126cb6f80e34288b1b51c63ee1abbf7,10*
G04 Gerber Generator version 0.2*
G04 Scale: 100 percent, Rotated: No, Reflected: No *
G04 Dimensions in millimeters *
G04 leading zeros omitted , absolute positions ,4 integer and 5 decimal *
%FSLAX45Y45*%
%MOMM*%

%ADD10C,0.2030*%
%ADD11C,0.1524*%
%ADD12C,0.1520*%
%ADD13C,0.2540*%
%ADD14C,0.2032*%
%ADD15C,0.2030*%
%ADD16C,0.1270*%
%ADD17C,0.1520*%
%ADD18C,0.3000*%
%ADD19C,0.2000*%
%ADD20C,0.0106*%

%LPD*%
D10*
X4546605Y8232145D02*
G01*
X4546605Y8133593D01*
X4546605Y8232145D02*
G01*
X4588769Y8232145D01*
X4602993Y8227319D01*
X4607565Y8222747D01*
X4612391Y8213349D01*
X4612391Y8199379D01*
X4607565Y8189981D01*
X4602993Y8185155D01*
X4588769Y8180583D01*
X4546605Y8180583D01*
X4643125Y8232145D02*
G01*
X4666747Y8133593D01*
X4690115Y8232145D02*
G01*
X4666747Y8133593D01*
X4690115Y8232145D02*
G01*
X4713483Y8133593D01*
X4737105Y8232145D02*
G01*
X4713483Y8133593D01*
X4768093Y8232145D02*
G01*
X4768093Y8133593D01*
X4768093Y8232145D02*
G01*
X4810257Y8232145D01*
X4824227Y8227319D01*
X4829053Y8222747D01*
X4833625Y8213349D01*
X4833625Y8203951D01*
X4829053Y8194553D01*
X4824227Y8189981D01*
X4810257Y8185155D01*
X4768093Y8185155D01*
X4800859Y8185155D02*
G01*
X4833625Y8133593D01*
X5930389Y8232139D02*
G01*
X5892797Y8133587D01*
X5930389Y8232139D02*
G01*
X5967727Y8133587D01*
X5906767Y8166354D02*
G01*
X5953757Y8166354D01*
X6069073Y8208771D02*
G01*
X6064501Y8218170D01*
X6055103Y8227313D01*
X6045705Y8232139D01*
X6026909Y8232139D01*
X6017511Y8227313D01*
X6008113Y8218170D01*
X6003541Y8208771D01*
X5998715Y8194547D01*
X5998715Y8171179D01*
X6003541Y8156955D01*
X6008113Y8147812D01*
X6017511Y8138413D01*
X6026909Y8133587D01*
X6045705Y8133587D01*
X6055103Y8138413D01*
X6064501Y8147812D01*
X6069073Y8156955D01*
X6133081Y8232139D02*
G01*
X6133081Y8133587D01*
X6100061Y8232139D02*
G01*
X6165847Y8232139D01*
X4305289Y7934947D02*
G01*
X4305289Y8033456D01*
X4336249Y7934947D02*
G01*
X4336249Y8033456D01*
X4336249Y7934947D02*
G01*
X4369087Y7934947D01*
X4383158Y7939638D01*
X4392541Y7949018D01*
X4397230Y7958401D01*
X4401921Y7972473D01*
X4401921Y7995927D01*
X4397230Y8010001D01*
X4392541Y8019381D01*
X4383158Y8028764D01*
X4369087Y8033456D01*
X4336249Y8033456D01*
X8252429Y8839083D02*
G01*
X8350981Y8839083D01*
X8252429Y8839083D02*
G01*
X8252429Y8881501D01*
X8257255Y8895471D01*
X8261827Y8900043D01*
X8271225Y8904869D01*
X8280623Y8904869D01*
X8290021Y8900043D01*
X8294593Y8895471D01*
X8299419Y8881501D01*
X8299419Y8839083D01*
X8299419Y8872103D02*
G01*
X8350981Y8904869D01*
X8266399Y9001389D02*
G01*
X8257255Y8991991D01*
X8252429Y8978021D01*
X8252429Y8959225D01*
X8257255Y8945255D01*
X8266399Y8935857D01*
X8275797Y8935857D01*
X8285195Y8940429D01*
X8290021Y8945255D01*
X8294593Y8954653D01*
X8303991Y8982847D01*
X8308817Y8991991D01*
X8313389Y8996817D01*
X8322787Y9001389D01*
X8336757Y9001389D01*
X8346155Y8991991D01*
X8350981Y8978021D01*
X8350981Y8959225D01*
X8346155Y8945255D01*
X8336757Y8935857D01*
X8252429Y9065397D02*
G01*
X8350981Y9065397D01*
X8252429Y9032377D02*
G01*
X8252429Y9098163D01*
X7048469Y7990862D02*
G01*
X7048469Y7892310D01*
X7048469Y7990862D02*
G01*
X7086061Y7892310D01*
X7123399Y7990862D02*
G01*
X7086061Y7892310D01*
X7123399Y7990862D02*
G01*
X7123399Y7892310D01*
X7191979Y7990862D02*
G01*
X7154387Y7892310D01*
X7191979Y7990862D02*
G01*
X7229571Y7892310D01*
X7168611Y7925076D02*
G01*
X7215347Y7925076D01*
X7316693Y7990862D02*
G01*
X7316693Y7892310D01*
X7316693Y7943872D02*
G01*
X7307295Y7953270D01*
X7297897Y7958096D01*
X7283927Y7958096D01*
X7274529Y7953270D01*
X7265131Y7943872D01*
X7260559Y7929902D01*
X7260559Y7920504D01*
X7265131Y7906280D01*
X7274529Y7897136D01*
X7283927Y7892310D01*
X7297897Y7892310D01*
X7307295Y7897136D01*
X7316693Y7906280D01*
X7375875Y7990862D02*
G01*
X7366477Y7986036D01*
X7357079Y7976892D01*
X7352507Y7967494D01*
X7347681Y7953270D01*
X7347681Y7929902D01*
X7352507Y7915678D01*
X7357079Y7906280D01*
X7366477Y7897136D01*
X7375875Y7892310D01*
X7394671Y7892310D01*
X7404069Y7897136D01*
X7413467Y7906280D01*
X7418039Y7915678D01*
X7422865Y7929902D01*
X7422865Y7953270D01*
X7418039Y7967494D01*
X7413467Y7976892D01*
X7404069Y7986036D01*
X7394671Y7990862D01*
X7375875Y7990862D01*
X6976866Y9237471D02*
G01*
X6976866Y9242044D01*
X6981692Y9251442D01*
X6986264Y9256013D01*
X6995662Y9260839D01*
X7014458Y9260839D01*
X7023856Y9256013D01*
X7028682Y9251442D01*
X7033254Y9242044D01*
X7033254Y9232645D01*
X7028682Y9223247D01*
X7019284Y9209278D01*
X6972294Y9162287D01*
X7038080Y9162287D01*
X7106406Y9260839D02*
G01*
X7068814Y9162287D01*
X7106406Y9260839D02*
G01*
X7143998Y9162287D01*
X7083038Y9195054D02*
G01*
X7130028Y9195054D01*
X7174986Y9260839D02*
G01*
X7174986Y9162287D01*
X7174986Y9260839D02*
G01*
X7217150Y9260839D01*
X7231120Y9256013D01*
X7235946Y9251442D01*
X7240518Y9242044D01*
X7240518Y9232645D01*
X7235946Y9223247D01*
X7231120Y9218676D01*
X7217150Y9213850D01*
X7174986Y9213850D01*
X7207752Y9213850D02*
G01*
X7240518Y9162287D01*
X7341864Y9237471D02*
G01*
X7337292Y9246870D01*
X7327894Y9256013D01*
X7318496Y9260839D01*
X7299700Y9260839D01*
X7290302Y9256013D01*
X7280904Y9246870D01*
X7276332Y9237471D01*
X7271506Y9223247D01*
X7271506Y9199879D01*
X7276332Y9185655D01*
X7280904Y9176258D01*
X7290302Y9167113D01*
X7299700Y9162287D01*
X7318496Y9162287D01*
X7327894Y9167113D01*
X7337292Y9176258D01*
X7341864Y9185655D01*
X3790193Y7978150D02*
G01*
X3790193Y7879598D01*
X3790193Y7931160D02*
G01*
X3780795Y7940558D01*
X3771397Y7945384D01*
X3757173Y7945384D01*
X3747775Y7940558D01*
X3738377Y7931160D01*
X3733805Y7917190D01*
X3733805Y7907792D01*
X3738377Y7893822D01*
X3747775Y7884424D01*
X3757173Y7879598D01*
X3771397Y7879598D01*
X3780795Y7884424D01*
X3790193Y7893822D01*
X3820927Y7917190D02*
G01*
X3877315Y7917190D01*
X3877315Y7926588D01*
X3872743Y7935986D01*
X3867917Y7940558D01*
X3858519Y7945384D01*
X3844549Y7945384D01*
X3835151Y7940558D01*
X3825753Y7931160D01*
X3820927Y7917190D01*
X3820927Y7907792D01*
X3825753Y7893822D01*
X3835151Y7884424D01*
X3844549Y7879598D01*
X3858519Y7879598D01*
X3867917Y7884424D01*
X3877315Y7893822D01*
X3908303Y7945384D02*
G01*
X3936497Y7879598D01*
X3964691Y7945384D02*
G01*
X3936497Y7879598D01*
X4067815Y7978150D02*
G01*
X4067815Y7879598D01*
X4114805Y7945384D02*
G01*
X4067815Y7898394D01*
X4086611Y7917190D02*
G01*
X4119377Y7879598D01*
X4150365Y7978150D02*
G01*
X4154937Y7973324D01*
X4159763Y7978150D01*
X4154937Y7982722D01*
X4150365Y7978150D01*
X4154937Y7945384D02*
G01*
X4154937Y7879598D01*
X4204721Y7978150D02*
G01*
X4204721Y7898394D01*
X4209547Y7884424D01*
X4218945Y7879598D01*
X4228343Y7879598D01*
X4190751Y7945384D02*
G01*
X4223517Y7945384D01*
X8252426Y8077202D02*
G01*
X8350978Y8077202D01*
X8252426Y8077202D02*
G01*
X8252426Y8119366D01*
X8257252Y8133590D01*
X8261824Y8138162D01*
X8271222Y8142734D01*
X8280620Y8142734D01*
X8290018Y8138162D01*
X8294590Y8133590D01*
X8299416Y8119366D01*
X8299416Y8077202D02*
G01*
X8299416Y8119366D01*
X8303988Y8133590D01*
X8308814Y8138162D01*
X8318212Y8142734D01*
X8332182Y8142734D01*
X8341580Y8138162D01*
X8346152Y8133590D01*
X8350978Y8119366D01*
X8350978Y8077202D01*
X8252426Y8201916D02*
G01*
X8257252Y8192518D01*
X8266396Y8183120D01*
X8275794Y8178548D01*
X8290018Y8173722D01*
X8313386Y8173722D01*
X8327610Y8178548D01*
X8336754Y8183120D01*
X8346152Y8192518D01*
X8350978Y8201916D01*
X8350978Y8220712D01*
X8346152Y8230110D01*
X8336754Y8239508D01*
X8327610Y8244080D01*
X8313386Y8248906D01*
X8290018Y8248906D01*
X8275794Y8244080D01*
X8266396Y8239508D01*
X8257252Y8230110D01*
X8252426Y8220712D01*
X8252426Y8201916D01*
X8252426Y8308088D02*
G01*
X8257252Y8298690D01*
X8266396Y8289292D01*
X8275794Y8284466D01*
X8290018Y8279894D01*
X8313386Y8279894D01*
X8327610Y8284466D01*
X8336754Y8289292D01*
X8346152Y8298690D01*
X8350978Y8308088D01*
X8350978Y8326630D01*
X8346152Y8336028D01*
X8336754Y8345426D01*
X8327610Y8350252D01*
X8313386Y8354824D01*
X8290018Y8354824D01*
X8275794Y8350252D01*
X8266396Y8345426D01*
X8257252Y8336028D01*
X8252426Y8326630D01*
X8252426Y8308088D01*
X8252426Y8418578D02*
G01*
X8350978Y8418578D01*
X8252426Y8385812D02*
G01*
X8252426Y8451598D01*
X3733827Y9273527D02*
G01*
X3733827Y9174975D01*
X3733827Y9273527D02*
G01*
X3775991Y9273527D01*
X3789961Y9268955D01*
X3794787Y9264129D01*
X3799359Y9254731D01*
X3799359Y9245333D01*
X3794787Y9235935D01*
X3789961Y9231363D01*
X3775991Y9226537D01*
X3733827Y9226537D01*
X3766593Y9226537D02*
G01*
X3799359Y9174975D01*
X3830347Y9273527D02*
G01*
X3830347Y9174975D01*
X3830347Y9273527D02*
G01*
X3872765Y9273527D01*
X3886735Y9268955D01*
X3891307Y9264129D01*
X3896133Y9254731D01*
X3896133Y9240761D01*
X3891307Y9231363D01*
X3886735Y9226537D01*
X3872765Y9221965D01*
X3830347Y9221965D01*
X3931693Y9250159D02*
G01*
X3931693Y9254731D01*
X3936519Y9264129D01*
X3941091Y9268955D01*
X3950489Y9273527D01*
X3969285Y9273527D01*
X3978683Y9268955D01*
X3983255Y9264129D01*
X3988081Y9254731D01*
X3988081Y9245333D01*
X3983255Y9235935D01*
X3973857Y9221965D01*
X3927121Y9174975D01*
X3992653Y9174975D01*
X4051835Y9273527D02*
G01*
X4037865Y9268955D01*
X4028467Y9254731D01*
X4023641Y9231363D01*
X4023641Y9217139D01*
X4028467Y9193771D01*
X4037865Y9179801D01*
X4051835Y9174975D01*
X4061233Y9174975D01*
X4075203Y9179801D01*
X4084601Y9193771D01*
X4089427Y9217139D01*
X4089427Y9231363D01*
X4084601Y9254731D01*
X4075203Y9268955D01*
X4061233Y9273527D01*
X4051835Y9273527D01*
X4167151Y9273527D02*
G01*
X4120415Y9207741D01*
X4190773Y9207741D01*
X4167151Y9273527D02*
G01*
X4167151Y9174975D01*
X4249701Y9273527D02*
G01*
X4235731Y9268955D01*
X4226333Y9254731D01*
X4221761Y9231363D01*
X4221761Y9217139D01*
X4226333Y9193771D01*
X4235731Y9179801D01*
X4249701Y9174975D01*
X4259099Y9174975D01*
X4273323Y9179801D01*
X4282721Y9193771D01*
X4287293Y9217139D01*
X4287293Y9231363D01*
X4282721Y9254731D01*
X4273323Y9268955D01*
X4259099Y9273527D01*
X4249701Y9273527D01*
X5220042Y8081164D02*
G01*
X5215470Y8081164D01*
X5206580Y8085736D01*
X5202008Y8090308D01*
X5197436Y8099198D01*
X5197436Y8117486D01*
X5202008Y8126630D01*
X5206580Y8131202D01*
X5215470Y8135774D01*
X5224614Y8135774D01*
X5233758Y8131202D01*
X5247474Y8122058D01*
X5292940Y8076592D01*
X5292940Y8140092D01*
X5197436Y8197496D02*
G01*
X5202008Y8183780D01*
X5215470Y8174890D01*
X5238330Y8170318D01*
X5252046Y8170318D01*
X5274652Y8174890D01*
X5288368Y8183780D01*
X5292940Y8197496D01*
X5292940Y8206640D01*
X5288368Y8220102D01*
X5274652Y8229246D01*
X5252046Y8233818D01*
X5238330Y8233818D01*
X5215470Y8229246D01*
X5202008Y8220102D01*
X5197436Y8206640D01*
X5197436Y8197496D01*
X5220042Y8268362D02*
G01*
X5215470Y8268362D01*
X5206580Y8272934D01*
X5202008Y8277506D01*
X5197436Y8286650D01*
X5197436Y8304684D01*
X5202008Y8313828D01*
X5206580Y8318400D01*
X5215470Y8322972D01*
X5224614Y8322972D01*
X5233758Y8318400D01*
X5247474Y8309256D01*
X5292940Y8263790D01*
X5292940Y8327544D01*
X5220042Y8362088D02*
G01*
X5215470Y8362088D01*
X5206580Y8366660D01*
X5202008Y8371232D01*
X5197436Y8380122D01*
X5197436Y8398410D01*
X5202008Y8407554D01*
X5206580Y8412126D01*
X5215470Y8416698D01*
X5224614Y8416698D01*
X5233758Y8412126D01*
X5247474Y8402982D01*
X5292940Y8357516D01*
X5292940Y8421016D01*
D11*
X4317992Y9068798D02*
G01*
X4317992Y8959832D01*
X4317992Y9068798D02*
G01*
X4364728Y9068798D01*
X4380222Y9063718D01*
X4385556Y9058384D01*
X4390636Y9047970D01*
X4390636Y9037556D01*
X4385556Y9027142D01*
X4380222Y9022062D01*
X4364728Y9016982D01*
X4317992Y9016982D01*
X4354314Y9016982D02*
G01*
X4390636Y8959832D01*
X4492490Y9032476D02*
G01*
X4487410Y9016982D01*
X4476996Y9006568D01*
X4461502Y9001234D01*
X4456168Y9001234D01*
X4440674Y9006568D01*
X4430260Y9016982D01*
X4424926Y9032476D01*
X4424926Y9037556D01*
X4430260Y9053304D01*
X4440674Y9063718D01*
X4456168Y9068798D01*
X4461502Y9068798D01*
X4476996Y9063718D01*
X4487410Y9053304D01*
X4492490Y9032476D01*
X4492490Y9006568D01*
X4487410Y8980406D01*
X4476996Y8964912D01*
X4461502Y8959832D01*
X4451088Y8959832D01*
X4435340Y8964912D01*
X4430260Y8975326D01*
X8039077Y8560808D02*
G01*
X8039077Y8451842D01*
X8039077Y8560808D02*
G01*
X8085813Y8560808D01*
X8101307Y8555728D01*
X8106641Y8550394D01*
X8111721Y8539980D01*
X8111721Y8529566D01*
X8106641Y8519152D01*
X8101307Y8514072D01*
X8085813Y8508992D01*
X8039077Y8508992D01*
X8075399Y8508992D02*
G01*
X8111721Y8451842D01*
X8172173Y8560808D02*
G01*
X8156425Y8555728D01*
X8151345Y8545314D01*
X8151345Y8534900D01*
X8156425Y8524486D01*
X8166839Y8519152D01*
X8187667Y8514072D01*
X8203161Y8508992D01*
X8213575Y8498578D01*
X8218909Y8488164D01*
X8218909Y8472416D01*
X8213575Y8462002D01*
X8208495Y8456922D01*
X8192747Y8451842D01*
X8172173Y8451842D01*
X8156425Y8456922D01*
X8151345Y8462002D01*
X8146011Y8472416D01*
X8146011Y8488164D01*
X8151345Y8498578D01*
X8161759Y8508992D01*
X8177253Y8514072D01*
X8198081Y8519152D01*
X8208495Y8524486D01*
X8213575Y8534900D01*
X8213575Y8545314D01*
X8208495Y8555728D01*
X8192747Y8560808D01*
X8172173Y8560808D01*
X8051789Y8205210D02*
G01*
X8051789Y8096244D01*
X8051789Y8205210D02*
G01*
X8098525Y8205210D01*
X8114019Y8200130D01*
X8119353Y8194796D01*
X8124433Y8184382D01*
X8124433Y8173968D01*
X8119353Y8163554D01*
X8114019Y8158474D01*
X8098525Y8153394D01*
X8051789Y8153394D01*
X8088111Y8153394D02*
G01*
X8124433Y8096244D01*
X8221207Y8189716D02*
G01*
X8215873Y8200130D01*
X8200379Y8205210D01*
X8189965Y8205210D01*
X8174471Y8200130D01*
X8164057Y8184382D01*
X8158723Y8158474D01*
X8158723Y8132566D01*
X8164057Y8111738D01*
X8174471Y8101324D01*
X8189965Y8096244D01*
X8195299Y8096244D01*
X8210793Y8101324D01*
X8221207Y8111738D01*
X8226287Y8127232D01*
X8226287Y8132566D01*
X8221207Y8148060D01*
X8210793Y8158474D01*
X8195299Y8163554D01*
X8189965Y8163554D01*
X8174471Y8158474D01*
X8164057Y8148060D01*
X8158723Y8132566D01*
X7771378Y7886679D02*
G01*
X7880344Y7886679D01*
X7771378Y7886679D02*
G01*
X7771378Y7933415D01*
X7776458Y7948909D01*
X7781792Y7954243D01*
X7792206Y7959323D01*
X7802620Y7959323D01*
X7813034Y7954243D01*
X7818114Y7948909D01*
X7823194Y7933415D01*
X7823194Y7886679D01*
X7823194Y7923001D02*
G01*
X7880344Y7959323D01*
X7792206Y7993613D02*
G01*
X7786872Y8004027D01*
X7771378Y8019775D01*
X7880344Y8019775D01*
X7771378Y8085053D02*
G01*
X7776458Y8069559D01*
X7792206Y8059145D01*
X7818114Y8054065D01*
X7833608Y8054065D01*
X7859770Y8059145D01*
X7875264Y8069559D01*
X7880344Y8085053D01*
X7880344Y8095467D01*
X7875264Y8111215D01*
X7859770Y8121629D01*
X7833608Y8126709D01*
X7818114Y8126709D01*
X7792206Y8121629D01*
X7776458Y8111215D01*
X7771378Y8095467D01*
X7771378Y8085053D01*
X5219682Y8764003D02*
G01*
X5219682Y8686025D01*
X5224762Y8670531D01*
X5235176Y8660117D01*
X5250924Y8655037D01*
X5261338Y8655037D01*
X5276832Y8660117D01*
X5287246Y8670531D01*
X5292326Y8686025D01*
X5292326Y8764003D01*
X5337030Y8764003D02*
G01*
X5394180Y8764003D01*
X5363192Y8722347D01*
X5378686Y8722347D01*
X5389100Y8717267D01*
X5394180Y8712187D01*
X5399514Y8696439D01*
X5399514Y8686025D01*
X5394180Y8670531D01*
X5383766Y8660117D01*
X5368272Y8655037D01*
X5352778Y8655037D01*
X5337030Y8660117D01*
X5331950Y8665197D01*
X5326616Y8675611D01*
X4662660Y8636500D02*
G01*
X4657326Y8646914D01*
X4646912Y8657328D01*
X4636752Y8662408D01*
X4615924Y8662408D01*
X4605510Y8657328D01*
X4595096Y8646914D01*
X4589762Y8636500D01*
X4584682Y8620752D01*
X4584682Y8594844D01*
X4589762Y8579350D01*
X4595096Y8568936D01*
X4605510Y8558522D01*
X4615924Y8553442D01*
X4636752Y8553442D01*
X4646912Y8558522D01*
X4657326Y8568936D01*
X4662660Y8579350D01*
X4696950Y8641580D02*
G01*
X4707364Y8646914D01*
X4722858Y8662408D01*
X4722858Y8553442D01*
X4824712Y8626086D02*
G01*
X4819632Y8610592D01*
X4809218Y8600178D01*
X4793470Y8594844D01*
X4788390Y8594844D01*
X4772642Y8600178D01*
X4762482Y8610592D01*
X4757148Y8626086D01*
X4757148Y8631166D01*
X4762482Y8646914D01*
X4772642Y8657328D01*
X4788390Y8662408D01*
X4793470Y8662408D01*
X4809218Y8657328D01*
X4819632Y8646914D01*
X4824712Y8626086D01*
X4824712Y8600178D01*
X4819632Y8574016D01*
X4809218Y8558522D01*
X4793470Y8553442D01*
X4783056Y8553442D01*
X4767562Y8558522D01*
X4762482Y8568936D01*
X5386565Y8560302D02*
G01*
X5381231Y8570716D01*
X5370817Y8581130D01*
X5360657Y8586210D01*
X5339829Y8586210D01*
X5329415Y8581130D01*
X5319001Y8570716D01*
X5313667Y8560302D01*
X5308587Y8544554D01*
X5308587Y8518646D01*
X5313667Y8503152D01*
X5319001Y8492738D01*
X5329415Y8482324D01*
X5339829Y8477244D01*
X5360657Y8477244D01*
X5370817Y8482324D01*
X5381231Y8492738D01*
X5386565Y8503152D01*
X5425935Y8560302D02*
G01*
X5425935Y8565382D01*
X5431269Y8575796D01*
X5436349Y8581130D01*
X5446763Y8586210D01*
X5467591Y8586210D01*
X5478005Y8581130D01*
X5483085Y8575796D01*
X5488419Y8565382D01*
X5488419Y8554968D01*
X5483085Y8544554D01*
X5472671Y8529060D01*
X5420855Y8477244D01*
X5493499Y8477244D01*
X5538203Y8586210D02*
G01*
X5595353Y8586210D01*
X5564111Y8544554D01*
X5579859Y8544554D01*
X5590273Y8539474D01*
X5595353Y8534394D01*
X5600687Y8518646D01*
X5600687Y8508232D01*
X5595353Y8492738D01*
X5584939Y8482324D01*
X5569445Y8477244D01*
X5553697Y8477244D01*
X5538203Y8482324D01*
X5533123Y8487404D01*
X5527789Y8497818D01*
X5637758Y8648692D02*
G01*
X5715736Y8648692D01*
X5731230Y8653772D01*
X5741644Y8664186D01*
X5746724Y8679934D01*
X5746724Y8690348D01*
X5741644Y8705842D01*
X5731230Y8716256D01*
X5715736Y8721336D01*
X5637758Y8721336D01*
X5637758Y8807696D02*
G01*
X5710402Y8755626D01*
X5710402Y8833604D01*
X5637758Y8807696D02*
G01*
X5746724Y8807696D01*
X4334383Y8475413D02*
G01*
X4334383Y8366447D01*
X4334383Y8475413D02*
G01*
X4370704Y8475413D01*
X4386452Y8470333D01*
X4396613Y8459919D01*
X4401947Y8449505D01*
X4407027Y8433757D01*
X4407027Y8407849D01*
X4401947Y8392355D01*
X4396613Y8381941D01*
X4386452Y8371527D01*
X4370704Y8366447D01*
X4334383Y8366447D01*
X4451731Y8475413D02*
G01*
X4508881Y8475413D01*
X4477893Y8433757D01*
X4493386Y8433757D01*
X4503800Y8428677D01*
X4508881Y8423597D01*
X4514215Y8407849D01*
X4514215Y8397435D01*
X4508881Y8381941D01*
X4498466Y8371527D01*
X4482972Y8366447D01*
X4467479Y8366447D01*
X4451731Y8371527D01*
X4446650Y8376607D01*
X4441316Y8387021D01*
X7771376Y8788389D02*
G01*
X7880342Y8861033D01*
X7771376Y8861033D02*
G01*
X7880342Y8788389D01*
X7792204Y8895323D02*
G01*
X7786870Y8905737D01*
X7771376Y8921485D01*
X7880342Y8921485D01*
X6951479Y8043130D02*
G01*
X6940344Y8046722D01*
X6925617Y8046722D01*
X6914840Y8043130D01*
X6900113Y8028404D01*
X6896341Y8017449D01*
X6896341Y8002719D01*
X6899932Y7991584D01*
X6907476Y7976857D01*
X6925797Y7958538D01*
X6940344Y7951172D01*
X6951479Y7947581D01*
X6966206Y7947581D01*
X6977164Y7951353D01*
X6991891Y7966080D01*
X6995482Y7976857D01*
X6995482Y7991584D01*
X6991891Y8002719D01*
X6972134Y8070969D02*
G01*
X6975726Y8082104D01*
X6975726Y8104017D01*
X7052777Y8026966D01*
D12*
X7422299Y9234759D02*
G01*
X7412598Y9237990D01*
X7400028Y9237990D01*
X7390328Y9234759D01*
X7377396Y9221825D01*
X7374343Y9212308D01*
X7374163Y9199554D01*
X7377396Y9189857D01*
X7383863Y9176926D01*
X7399848Y9160939D01*
X7412779Y9154474D01*
X7422479Y9151241D01*
X7435410Y9151241D01*
X7444927Y9154294D01*
X7457861Y9167225D01*
X7461092Y9176926D01*
X7460914Y9189676D01*
X7457681Y9199377D01*
X7446726Y9259183D02*
G01*
X7443492Y9262417D01*
X7440439Y9271937D01*
X7440439Y9278401D01*
X7443670Y9288101D01*
X7456604Y9301032D01*
X7466121Y9304086D01*
X7472588Y9304086D01*
X7482108Y9301032D01*
X7488572Y9294566D01*
X7491806Y9284868D01*
X7495039Y9268703D01*
X7495039Y9204403D01*
X7540119Y9249486D01*
D11*
X7951962Y8674574D02*
G01*
X7946628Y8684986D01*
X7936214Y8695400D01*
X7926054Y8700482D01*
X7905226Y8700482D01*
X7894812Y8695400D01*
X7884398Y8684986D01*
X7879064Y8674574D01*
X7873984Y8658826D01*
X7873984Y8632916D01*
X7879064Y8617424D01*
X7884398Y8607008D01*
X7894812Y8596594D01*
X7905226Y8591516D01*
X7926054Y8591516D01*
X7936214Y8596594D01*
X7946628Y8607008D01*
X7951962Y8617424D01*
X8048482Y8700482D02*
G01*
X7996666Y8700482D01*
X7991332Y8653744D01*
X7996666Y8658826D01*
X8012160Y8664158D01*
X8027654Y8664158D01*
X8043402Y8658826D01*
X8053816Y8648666D01*
X8058896Y8632916D01*
X8058896Y8622502D01*
X8053816Y8607008D01*
X8043402Y8596594D01*
X8027654Y8591516D01*
X8012160Y8591516D01*
X7996666Y8596594D01*
X7991332Y8601676D01*
X7986252Y8612088D01*
X8256765Y9271490D02*
G01*
X8251431Y9281904D01*
X8241017Y9292318D01*
X8230857Y9297398D01*
X8210029Y9297398D01*
X8199615Y9292318D01*
X8189201Y9281904D01*
X8183867Y9271490D01*
X8178787Y9255742D01*
X8178787Y9229834D01*
X8183867Y9214340D01*
X8189201Y9203926D01*
X8199615Y9193512D01*
X8210029Y9188432D01*
X8230857Y9188432D01*
X8241017Y9193512D01*
X8251431Y9203926D01*
X8256765Y9214340D01*
X8353285Y9281904D02*
G01*
X8348205Y9292318D01*
X8332457Y9297398D01*
X8322297Y9297398D01*
X8306549Y9292318D01*
X8296135Y9276570D01*
X8291055Y9250662D01*
X8291055Y9224754D01*
X8296135Y9203926D01*
X8306549Y9193512D01*
X8322297Y9188432D01*
X8327377Y9188432D01*
X8342871Y9193512D01*
X8353285Y9203926D01*
X8358619Y9219420D01*
X8358619Y9224754D01*
X8353285Y9240248D01*
X8342871Y9250662D01*
X8327377Y9255742D01*
X8322297Y9255742D01*
X8306549Y9250662D01*
X8296135Y9240248D01*
X8291055Y9224754D01*
D12*
X6392819Y8563744D02*
G01*
X6381683Y8567338D01*
X6366957Y8567338D01*
X6355821Y8563744D01*
X6341272Y8549198D01*
X6337681Y8538062D01*
X6337681Y8523335D01*
X6341272Y8512197D01*
X6348636Y8497651D01*
X6366957Y8479330D01*
X6381683Y8471788D01*
X6392638Y8468375D01*
X6407368Y8468375D01*
X6418503Y8471966D01*
X6433050Y8486515D01*
X6436644Y8497651D01*
X6436644Y8512378D01*
X6433230Y8523335D01*
X6413294Y8591763D02*
G01*
X6417066Y8602720D01*
X6416885Y8624811D01*
X6494117Y8547580D01*
X6455862Y8634331D02*
G01*
X6459634Y8645286D01*
X6459453Y8667379D01*
X6536682Y8590147D01*
D11*
X6430243Y8948887D02*
G01*
X6433835Y8960022D01*
X6433835Y8974752D01*
X6430243Y8985526D01*
X6415516Y9000253D01*
X6404559Y9004025D01*
X6389832Y9004025D01*
X6378696Y9000434D01*
X6363970Y8992890D01*
X6345648Y8974571D01*
X6338285Y8960022D01*
X6334693Y8948887D01*
X6334693Y8934160D01*
X6338465Y8923205D01*
X6353192Y8908475D01*
X6363970Y8904884D01*
X6378696Y8904884D01*
X6389832Y8908475D01*
X6458082Y8928232D02*
G01*
X6469217Y8924640D01*
X6491130Y8924640D01*
X6414079Y8847589D01*
X6522740Y8893030D02*
G01*
X6563151Y8852618D01*
X6511604Y8845255D01*
X6522740Y8834120D01*
X6526512Y8823164D01*
X6526512Y8815979D01*
X6518968Y8801252D01*
X6511604Y8793888D01*
X6497055Y8786525D01*
X6482328Y8786525D01*
X6467779Y8793888D01*
X6456644Y8805024D01*
X6449280Y8819573D01*
X6449280Y8826756D01*
X6452872Y8837891D01*
D12*
X7773253Y9105036D02*
G01*
X7820489Y9057800D01*
X7773253Y9105036D02*
G01*
X7793548Y9125330D01*
X7802529Y9129641D01*
X7807017Y9129821D01*
X7813664Y9127487D01*
X7818153Y9122996D01*
X7820489Y9116352D01*
X7820489Y9111681D01*
X7815999Y9102879D01*
X7795704Y9082585D01*
X7811508Y9098389D02*
G01*
X7851919Y9089229D01*
X7833240Y9142394D02*
G01*
X7830906Y9144728D01*
X7828572Y9151373D01*
X7828749Y9155864D01*
X7830906Y9162689D01*
X7839885Y9171668D01*
X7846710Y9173824D01*
X7851020Y9173824D01*
X7857845Y9171668D01*
X7862336Y9167180D01*
X7864492Y9160355D01*
X7866827Y9149039D01*
X7866827Y9104137D01*
X7898256Y9135569D01*
D11*
X5638805Y8281390D02*
G01*
X5638805Y8172424D01*
X5638805Y8281390D02*
G01*
X5685541Y8281390D01*
X5701035Y8276310D01*
X5706369Y8270976D01*
X5711449Y8260562D01*
X5711449Y8250148D01*
X5706369Y8239734D01*
X5701035Y8234654D01*
X5685541Y8229574D01*
X5638805Y8229574D01*
X5675127Y8229574D02*
G01*
X5711449Y8172424D01*
X5745739Y8260562D02*
G01*
X5756153Y8265896D01*
X5771901Y8281390D01*
X5771901Y8172424D01*
X6471617Y8133339D02*
G01*
X6548668Y8056288D01*
X6471617Y8133339D02*
G01*
X6504665Y8166387D01*
X6519212Y8173750D01*
X6526756Y8173750D01*
X6537711Y8169978D01*
X6545074Y8162615D01*
X6548846Y8151660D01*
X6548668Y8144296D01*
X6541302Y8129747D01*
X6508257Y8096699D01*
X6533939Y8122384D02*
G01*
X6600035Y8107657D01*
X6554594Y8216318D02*
G01*
X6595005Y8256729D01*
X6602549Y8205360D01*
X6613504Y8216318D01*
X6624462Y8220090D01*
X6631645Y8220090D01*
X6646552Y8212724D01*
X6653916Y8205360D01*
X6661101Y8190633D01*
X6661101Y8175906D01*
X6653735Y8161357D01*
X6642780Y8150402D01*
X6628053Y8142859D01*
X6620868Y8142859D01*
X6609732Y8146450D01*
X6380358Y8225017D02*
G01*
X6457408Y8147966D01*
X6380358Y8225017D02*
G01*
X6413406Y8258065D01*
X6427955Y8265429D01*
X6435496Y8265429D01*
X6446453Y8261657D01*
X6453817Y8254293D01*
X6457589Y8243336D01*
X6457408Y8235972D01*
X6450045Y8221426D01*
X6416997Y8188378D01*
X6442682Y8214062D02*
G01*
X6508775Y8199333D01*
X6492791Y8337450D02*
G01*
X6507340Y8249264D01*
X6562478Y8304403D01*
X6492791Y8337450D02*
G01*
X6569842Y8260400D01*
X4965687Y8192500D02*
G01*
X4965687Y8083534D01*
X4965687Y8192500D02*
G01*
X5012423Y8192500D01*
X5027917Y8187420D01*
X5033251Y8182086D01*
X5038331Y8171672D01*
X5038331Y8161258D01*
X5033251Y8150844D01*
X5027917Y8145764D01*
X5012423Y8140684D01*
X4965687Y8140684D01*
X5002009Y8140684D02*
G01*
X5038331Y8083534D01*
X5135105Y8192500D02*
G01*
X5083035Y8192500D01*
X5077955Y8145764D01*
X5083035Y8150844D01*
X5098783Y8156178D01*
X5114277Y8156178D01*
X5129771Y8150844D01*
X5140185Y8140684D01*
X5145519Y8124936D01*
X5145519Y8114522D01*
X5140185Y8099028D01*
X5129771Y8088614D01*
X5114277Y8083534D01*
X5098783Y8083534D01*
X5083035Y8088614D01*
X5077955Y8093694D01*
X5072621Y8104108D01*
X6247361Y8077194D02*
G01*
X6356327Y8077194D01*
X6247361Y8077194D02*
G01*
X6247361Y8123930D01*
X6252441Y8139424D01*
X6257775Y8144758D01*
X6268189Y8149838D01*
X6278603Y8149838D01*
X6289017Y8144758D01*
X6294097Y8139424D01*
X6299177Y8123930D01*
X6299177Y8077194D01*
X6299177Y8113516D02*
G01*
X6356327Y8149838D01*
X6247361Y8257026D02*
G01*
X6356327Y8204956D01*
X6247361Y8184128D02*
G01*
X6247361Y8257026D01*
X5627847Y9271505D02*
G01*
X5622513Y9281919D01*
X5612099Y9292333D01*
X5601939Y9297413D01*
X5581111Y9297413D01*
X5570697Y9292333D01*
X5560283Y9281919D01*
X5554949Y9271505D01*
X5549869Y9255757D01*
X5549869Y9229849D01*
X5554949Y9214355D01*
X5560283Y9203941D01*
X5570697Y9193527D01*
X5581111Y9188447D01*
X5601939Y9188447D01*
X5612099Y9193527D01*
X5622513Y9203941D01*
X5627847Y9214355D01*
X5672551Y9297413D02*
G01*
X5729701Y9297413D01*
X5698459Y9255757D01*
X5713953Y9255757D01*
X5724367Y9250677D01*
X5729701Y9245597D01*
X5734781Y9229849D01*
X5734781Y9219435D01*
X5729701Y9203941D01*
X5719287Y9193527D01*
X5703539Y9188447D01*
X5688045Y9188447D01*
X5672551Y9193527D01*
X5667217Y9198607D01*
X5662137Y9209021D01*
X7585946Y8161467D02*
G01*
X7589535Y8172602D01*
X7589537Y8187329D01*
X7585946Y8198106D01*
X7571216Y8212836D01*
X7560261Y8216607D01*
X7545534Y8216605D01*
X7534396Y8213013D01*
X7519670Y8205472D01*
X7501351Y8187148D01*
X7493985Y8172602D01*
X7490396Y8161467D01*
X7490393Y8146740D01*
X7494168Y8135782D01*
X7508895Y8121055D01*
X7519670Y8117464D01*
X7534396Y8117464D01*
X7545534Y8121055D01*
X7665151Y8118899D02*
G01*
X7577145Y8104172D01*
X7632283Y8049036D01*
X7665151Y8118899D02*
G01*
X7588100Y8041850D01*
X6481051Y9088574D02*
G01*
X6484642Y9099710D01*
X6484642Y9114436D01*
X6481051Y9125214D01*
X6466324Y9139941D01*
X6455366Y9143712D01*
X6440639Y9143712D01*
X6429504Y9140121D01*
X6414777Y9132577D01*
X6396456Y9114256D01*
X6389093Y9099710D01*
X6385501Y9088574D01*
X6385501Y9073845D01*
X6389273Y9062890D01*
X6404000Y9048163D01*
X6414777Y9044569D01*
X6429504Y9044569D01*
X6440639Y9048163D01*
X6574985Y9031279D02*
G01*
X6461295Y8990868D01*
X6523619Y9082646D02*
G01*
X6574985Y9031279D01*
X7801853Y8453574D02*
G01*
X7805447Y8464712D01*
X7805447Y8479439D01*
X7801853Y8490214D01*
X7787126Y8504943D01*
X7776171Y8508715D01*
X7761442Y8508715D01*
X7750307Y8505121D01*
X7735580Y8497580D01*
X7717261Y8479259D01*
X7709895Y8464712D01*
X7706304Y8453574D01*
X7706304Y8438847D01*
X7710076Y8427892D01*
X7724802Y8413165D01*
X7735580Y8409571D01*
X7750307Y8409571D01*
X7761442Y8413165D01*
X7862740Y8429330D02*
G01*
X7848193Y8436693D01*
X7837058Y8433099D01*
X7829694Y8425736D01*
X7826100Y8414600D01*
X7829694Y8403465D01*
X7840649Y8385324D01*
X7848193Y8370597D01*
X7848193Y8355871D01*
X7844421Y8344915D01*
X7833286Y8333778D01*
X7822328Y8330008D01*
X7814965Y8330186D01*
X7800418Y8337550D01*
X7785689Y8352279D01*
X7778325Y8366826D01*
X7778148Y8374189D01*
X7781917Y8385147D01*
X7793055Y8396282D01*
X7804010Y8400054D01*
X7818737Y8400054D01*
X7833464Y8392510D01*
X7851604Y8381555D01*
X7862740Y8377961D01*
X7873875Y8381555D01*
X7881238Y8388918D01*
X7884833Y8400054D01*
X7877469Y8414600D01*
X7862740Y8429330D01*
X6798558Y9075872D02*
G01*
X6802153Y9087007D01*
X6802153Y9101736D01*
X6798558Y9112511D01*
X6783831Y9127241D01*
X6772876Y9131010D01*
X6758147Y9131010D01*
X6747012Y9127418D01*
X6732285Y9119875D01*
X6713966Y9101556D01*
X6706600Y9087007D01*
X6703009Y9075872D01*
X6703009Y9061145D01*
X6706781Y9050190D01*
X6721508Y9035460D01*
X6732285Y9031869D01*
X6747012Y9031869D01*
X6758147Y9035460D01*
X6863217Y8996486D02*
G01*
X6848490Y8989303D01*
X6833763Y8989303D01*
X6819033Y8996486D01*
X6815442Y9000078D01*
X6808078Y9014985D01*
X6808078Y9029715D01*
X6815442Y9044261D01*
X6819033Y9047853D01*
X6833763Y9055397D01*
X6848490Y9055397D01*
X6863217Y9047853D01*
X6866808Y9044261D01*
X6874172Y9029715D01*
X6874172Y9014985D01*
X6863217Y8996486D01*
X6844898Y8978168D01*
X6822627Y8963439D01*
X6804306Y8959847D01*
X6789757Y8967210D01*
X6782394Y8974574D01*
X6775030Y8989123D01*
X6778622Y9000258D01*
D12*
X7767533Y9241787D02*
G01*
X7760708Y9243941D01*
X7751729Y9243941D01*
X7744904Y9241787D01*
X7735923Y9232806D01*
X7733766Y9225981D01*
X7733766Y9217002D01*
X7735923Y9210177D01*
X7740413Y9201376D01*
X7751729Y9190060D01*
X7760528Y9185569D01*
X7767353Y9183415D01*
X7776514Y9183235D01*
X7783159Y9185569D01*
X7792138Y9194551D01*
X7794475Y9201195D01*
X7794294Y9210354D01*
X7792138Y9217179D01*
X7780106Y9259028D02*
G01*
X7782440Y9265673D01*
X7782260Y9279143D01*
X7829496Y9231909D01*
X7810639Y9307522D02*
G01*
X7806148Y9298360D01*
X7808302Y9287225D01*
X7817464Y9273755D01*
X7824109Y9267111D01*
X7837578Y9257952D01*
X7848894Y9255615D01*
X7857876Y9260286D01*
X7862364Y9264777D01*
X7867035Y9273755D01*
X7864701Y9285071D01*
X7855539Y9298541D01*
X7848894Y9305185D01*
X7835425Y9314347D01*
X7824289Y9316501D01*
X7815127Y9312010D01*
X7810639Y9307522D01*
X6570543Y8004868D02*
G01*
X6559585Y8008640D01*
X6544858Y8008640D01*
X6533723Y8005048D01*
X6518996Y7990321D01*
X6515402Y7979186D01*
X6515402Y7964457D01*
X6519174Y7953502D01*
X6526359Y7938775D01*
X6544678Y7920454D01*
X6559585Y7913090D01*
X6570362Y7909499D01*
X6585089Y7909499D01*
X6596225Y7913090D01*
X6610951Y7927817D01*
X6614546Y7938952D01*
X6614546Y7953682D01*
X6610951Y7964457D01*
X6591018Y8032887D02*
G01*
X6594789Y8043844D01*
X6594609Y8065935D01*
X6671838Y7988703D01*
X6641127Y8075455D02*
G01*
X6637355Y8079226D01*
X6633583Y8090181D01*
X6633763Y8097545D01*
X6637355Y8108680D01*
X6652082Y8123407D01*
X6663039Y8126821D01*
X6670403Y8127001D01*
X6681358Y8123229D01*
X6688721Y8115863D01*
X6692493Y8104908D01*
X6696085Y8086590D01*
X6696085Y8012950D01*
X6747631Y8064497D01*
D11*
X4436813Y8798521D02*
G01*
X4532701Y8798521D01*
X4532701Y8930642D01*
X4436813Y8930642D01*
X4351571Y8798521D02*
G01*
X4255683Y8798521D01*
X4255683Y8930642D01*
X4351571Y8930642D01*
X8610612Y8560722D02*
G01*
X8531603Y8560722D01*
X8486360Y8660442D02*
G01*
X8407351Y8660442D01*
X8407351Y8560722D02*
G01*
X8486360Y8560722D01*
X8392111Y8645202D02*
G01*
X8392111Y8575962D01*
X8531603Y8660442D02*
G01*
X8610612Y8660442D01*
X8625852Y8645202D02*
G01*
X8625852Y8575962D01*
X8000044Y8356612D02*
G01*
X8000044Y8277603D01*
X7900324Y8232360D02*
G01*
X7900324Y8153351D01*
X8000044Y8153351D02*
G01*
X8000044Y8232360D01*
X7915564Y8138111D02*
G01*
X7984804Y8138111D01*
X7900324Y8277603D02*
G01*
X7900324Y8356612D01*
X7915564Y8371852D02*
G01*
X7984804Y8371852D01*
X8103524Y8353803D02*
G01*
X8103524Y8425606D01*
X8203244Y8425606D01*
X8203244Y8353803D01*
X8103524Y8308560D02*
G01*
X8103524Y8236757D01*
X8203244Y8236757D01*
X8203244Y8308560D01*
D13*
X8652098Y8079981D02*
G01*
X8658981Y8079981D01*
X8502096Y8079981D02*
G01*
X8515868Y8079981D01*
X8358982Y8079981D02*
G01*
X8365865Y8079981D01*
X8652098Y8429983D02*
G01*
X8658981Y8429983D01*
X8502096Y8429983D02*
G01*
X8515868Y8429983D01*
X8358982Y8429983D02*
G01*
X8365865Y8429983D01*
X8658981Y8079981D02*
G01*
X8658981Y8429983D01*
X8358982Y8079981D02*
G01*
X8358982Y8429983D01*
X8652098Y8791181D02*
G01*
X8658981Y8791181D01*
X8502096Y8791181D02*
G01*
X8515868Y8791181D01*
X8358982Y8791181D02*
G01*
X8365865Y8791181D01*
X8652098Y9141183D02*
G01*
X8658981Y9141183D01*
X8502096Y9141183D02*
G01*
X8515868Y9141183D01*
X8358982Y9141183D02*
G01*
X8365865Y9141183D01*
X8658981Y8791181D02*
G01*
X8658981Y9141183D01*
X8358982Y8791181D02*
G01*
X8358982Y9141183D01*
D11*
X8103524Y7998205D02*
G01*
X8103524Y8070009D01*
X8203244Y8070009D01*
X8203244Y7998205D01*
X8103524Y7952963D02*
G01*
X8103524Y7881160D01*
X8203244Y7881160D01*
X8203244Y7952963D01*
X8000044Y7952963D02*
G01*
X8000044Y7881160D01*
X7900324Y7881160D01*
X7900324Y7952963D01*
X8000044Y7998205D02*
G01*
X8000044Y8070009D01*
X7900324Y8070009D01*
X7900324Y7998205D01*
X5160932Y9324202D02*
G01*
X5160932Y8658961D01*
X4866652Y8658961D01*
X4866652Y9324202D01*
X5160932Y9324202D01*
D13*
X4254492Y8074642D02*
G01*
X4254492Y8308322D01*
X4457692Y8308322D01*
X4457692Y8074642D01*
X4254492Y8074642D01*
D11*
X4635670Y8298121D02*
G01*
X4784168Y8298121D01*
X4784168Y8516642D02*
G01*
X4635670Y8516642D01*
X4620430Y8501402D02*
G01*
X4620430Y8313361D01*
X5117909Y8298121D02*
G01*
X4969410Y8298121D01*
X4969410Y8516642D02*
G01*
X5117909Y8516642D01*
X5133149Y8501402D02*
G01*
X5133149Y8313361D01*
X5351729Y8419904D02*
G01*
X5351729Y8271405D01*
X5570250Y8271405D02*
G01*
X5570250Y8419904D01*
X5555010Y8435144D02*
G01*
X5366969Y8435144D01*
X5351729Y7937665D02*
G01*
X5351729Y8086163D01*
X5570250Y8086163D02*
G01*
X5570250Y7937665D01*
X5555010Y7922425D02*
G01*
X5366969Y7922425D01*
D14*
X8686787Y7810484D02*
G01*
X8686787Y7823184D01*
X3606787Y7823184D01*
X3606787Y7556484D01*
X8686787Y7556484D01*
X8686787Y7810484D01*
X8686787Y9588482D02*
G01*
X8686787Y9601182D01*
X3606787Y9601182D01*
X3606787Y9334482D01*
X8686787Y9334482D01*
X8686787Y9588482D01*
D13*
X7235774Y8152015D02*
G01*
X7242622Y8158863D01*
X7279261Y8158863D01*
X7294316Y8173918D02*
G01*
X7213866Y8173923D01*
X7294316Y8173918D02*
G01*
X7254095Y8133694D01*
X7708839Y8668893D02*
G01*
X7741991Y8635738D01*
X7749065Y8628667D01*
X7708841Y8588443D01*
X7213866Y9083418D02*
G01*
X7254090Y9123639D01*
X7294313Y9083418D01*
X6799343Y8588446D02*
G01*
X6759120Y8628669D01*
X6799343Y8668893D01*
X7254095Y8133694D02*
G01*
X7213866Y8173923D01*
D11*
X5781316Y8545342D02*
G01*
X5781316Y8980622D01*
X6309057Y8980622D01*
X6309057Y8545342D01*
X5781316Y8545342D01*
D13*
X4863520Y7914624D02*
G01*
X4863520Y8087344D01*
X4863520Y8087344D02*
G01*
X4716200Y8087344D01*
X4863520Y7914624D02*
G01*
X4716200Y7914624D01*
X4657780Y8087344D02*
G01*
X4540940Y8087344D01*
X4655240Y7914624D02*
G01*
X4540940Y7914624D01*
X4540940Y7914624D02*
G01*
X4505380Y7950184D01*
X4505380Y8051784D01*
X4540940Y8087344D01*
D15*
X4694610Y7960344D02*
G01*
X4694610Y8039084D01*
X4694610Y8000189D02*
G01*
X4677074Y8000189D01*
D13*
X6196319Y7914624D02*
G01*
X6196319Y8087344D01*
X6196319Y8087344D02*
G01*
X6048999Y8087344D01*
X6196319Y7914624D02*
G01*
X6048999Y7914624D01*
X5990579Y8087344D02*
G01*
X5873739Y8087344D01*
X5988039Y7914624D02*
G01*
X5873739Y7914624D01*
X5873739Y7914624D02*
G01*
X5838179Y7950184D01*
X5838179Y8051784D01*
X5873739Y8087344D01*
D15*
X6027409Y7960344D02*
G01*
X6027409Y8039084D01*
X6027409Y8000189D02*
G01*
X6009873Y8000189D01*
D13*
X3610813Y8192726D02*
G01*
X3574745Y8167834D01*
X3557727Y8192726D01*
X3598621Y8220666D01*
X3610813Y8222698D01*
X3610813Y8259782D01*
X3557727Y8259782D01*
X3557727Y8874716D01*
X3610813Y8874716D01*
X3610813Y8912816D01*
X3598621Y8914848D01*
X3557727Y8942788D01*
X3574745Y8967680D01*
X3610813Y8942788D01*
X3938760Y8942786D02*
G01*
X3969471Y8942786D01*
X3610693Y8942786D02*
G01*
X3712532Y8942786D01*
X3938760Y8192787D02*
G01*
X3969471Y8192787D01*
X3610693Y8192787D02*
G01*
X3712532Y8192787D01*
X3610693Y8222787D02*
G01*
X3610693Y8192787D01*
X3610693Y8874787D02*
G01*
X3610693Y8259787D01*
X3610693Y8942786D02*
G01*
X3610693Y8912786D01*
D16*
X4473704Y8740970D02*
G01*
X4333704Y8740970D01*
X4473704Y8520971D02*
G01*
X4333704Y8520971D01*
X4333704Y8520971D02*
G01*
X4333704Y8529205D01*
X4333704Y8732735D02*
G01*
X4333704Y8740970D01*
X4473704Y8520971D02*
G01*
X4473704Y8529205D01*
X4473704Y8732735D02*
G01*
X4473704Y8740970D01*
D17*
X8204169Y8724882D02*
G01*
X8254969Y8724882D01*
X8254969Y8775682D01*
D11*
X8232350Y8750536D02*
G01*
X7899356Y8750536D01*
X7899369Y9156682D01*
X8064469Y9156682D01*
X8229569Y9156682D01*
X8229569Y9156682D01*
X8232350Y8750536D01*
X6776267Y8078678D02*
G01*
X6832135Y8134545D01*
X6934639Y8096023D02*
G01*
X6990506Y8151893D01*
X6919993Y8222406D02*
G01*
X6864126Y8166536D01*
X6990506Y8173445D02*
G01*
X6941548Y8222406D01*
X6902648Y8064032D02*
G01*
X6846780Y8008165D01*
X6825228Y8008165D02*
G01*
X6776267Y8057126D01*
X7673403Y9215691D02*
G01*
X7617536Y9159821D01*
X7515031Y9198343D02*
G01*
X7459164Y9142476D01*
X7529677Y9071963D02*
G01*
X7585544Y9127830D01*
X7459164Y9120924D02*
G01*
X7508123Y9071963D01*
X7547023Y9230334D02*
G01*
X7602890Y9286204D01*
X7624442Y9286204D02*
G01*
X7673403Y9237243D01*
X8102554Y8598822D02*
G01*
X8181563Y8598822D01*
X8181563Y8698542D02*
G01*
X8102554Y8698542D01*
X8087314Y8683299D02*
G01*
X8087314Y8614062D01*
X8305815Y8598822D02*
G01*
X8226806Y8598822D01*
X8226806Y8698542D02*
G01*
X8305815Y8698542D01*
X8321055Y8683299D02*
G01*
X8321055Y8614062D01*
X7924754Y9195722D02*
G01*
X8003763Y9195722D01*
X8003763Y9295442D02*
G01*
X7924754Y9295442D01*
X7909514Y9280202D02*
G01*
X7909514Y9210962D01*
X8128015Y9195722D02*
G01*
X8049006Y9195722D01*
X8049006Y9295442D02*
G01*
X8128015Y9295442D01*
X8143255Y9280202D02*
G01*
X8143255Y9210962D01*
X6491180Y8363762D02*
G01*
X6547048Y8419630D01*
X6476535Y8490143D02*
G01*
X6420667Y8434275D01*
X6420667Y8412723D02*
G01*
X6469628Y8363762D01*
X6634909Y8507488D02*
G01*
X6579039Y8451621D01*
X6508526Y8522134D02*
G01*
X6564396Y8578001D01*
X6585948Y8578001D02*
G01*
X6634909Y8529043D01*
X6522267Y8748788D02*
G01*
X6578135Y8692921D01*
X6648648Y8763434D02*
G01*
X6592780Y8819301D01*
X6571228Y8819301D02*
G01*
X6522267Y8770340D01*
X6665996Y8605062D02*
G01*
X6610126Y8660930D01*
X6680639Y8731443D02*
G01*
X6736509Y8675575D01*
X6736509Y8654021D02*
G01*
X6687548Y8605062D01*
X7717124Y9041333D02*
G01*
X7767896Y9092105D01*
X7838409Y9021592D01*
X7787637Y8970820D01*
X7685133Y9009341D02*
G01*
X7634361Y8958569D01*
X7704874Y8888056D01*
X7755646Y8938828D01*
X5752150Y8016463D02*
G01*
X5752150Y7944660D01*
X5652429Y7944660D01*
X5652429Y8016463D01*
X5752150Y8061705D02*
G01*
X5752150Y8133509D01*
X5652429Y8133509D01*
X5652429Y8061705D01*
X6737548Y8254530D02*
G01*
X6686773Y8203758D01*
X6616260Y8274270D01*
X6667035Y8325043D01*
X6769539Y8286521D02*
G01*
X6820311Y8337293D01*
X6749798Y8407806D01*
X6699026Y8357034D01*
X6648645Y8343430D02*
G01*
X6597873Y8292658D01*
X6527360Y8363170D01*
X6578132Y8413943D01*
X6680636Y8375421D02*
G01*
X6731411Y8426193D01*
X6660898Y8496706D01*
X6610123Y8445934D01*
X5029969Y7951124D02*
G01*
X4958166Y7951124D01*
X4958166Y8050844D01*
X5029969Y8050844D01*
X5075212Y7951124D02*
G01*
X5147015Y7951124D01*
X5147015Y8050844D01*
X5075212Y8050844D01*
X6352766Y7951124D02*
G01*
X6280962Y7951124D01*
X6280962Y8050844D01*
X6352766Y8050844D01*
X6398008Y7951124D02*
G01*
X6469811Y7951124D01*
X6469811Y8050844D01*
X6398008Y8050844D01*
X5537159Y9168442D02*
G01*
X5616168Y9168442D01*
X5661411Y9068722D02*
G01*
X5740420Y9068722D01*
X5740420Y9168442D02*
G01*
X5661411Y9168442D01*
X5755660Y9083962D02*
G01*
X5755660Y9153202D01*
X5616168Y9068722D02*
G01*
X5537159Y9068722D01*
X5521919Y9083962D02*
G01*
X5521919Y9153202D01*
X7517292Y7931561D02*
G01*
X7461425Y7987431D01*
X7499946Y8089935D02*
G01*
X7444077Y8145800D01*
X7373564Y8075287D02*
G01*
X7429433Y8019422D01*
X7422525Y8145800D02*
G01*
X7373564Y8096839D01*
X7531938Y8057944D02*
G01*
X7587805Y8002074D01*
X7587802Y7980519D02*
G01*
X7538844Y7931561D01*
X6595181Y9002504D02*
G01*
X6651048Y8946634D01*
X6612526Y8844130D02*
G01*
X6668396Y8788262D01*
X6738909Y8858775D02*
G01*
X6683039Y8914643D01*
X6689948Y8788262D02*
G01*
X6738909Y8837223D01*
X6580535Y8876121D02*
G01*
X6524668Y8931991D01*
X6524668Y8953543D02*
G01*
X6573629Y9002504D01*
X7773291Y8178662D02*
G01*
X7717421Y8234530D01*
X7755943Y8337034D02*
G01*
X7700076Y8392901D01*
X7629563Y8322388D02*
G01*
X7685430Y8266521D01*
X7678524Y8392901D02*
G01*
X7629563Y8343943D01*
X7787934Y8305043D02*
G01*
X7843804Y8249175D01*
X7843804Y8227623D02*
G01*
X7794843Y8178662D01*
X6849178Y9243801D02*
G01*
X6905045Y9187934D01*
X6866524Y9085430D02*
G01*
X6922391Y9029562D01*
X6992904Y9100075D02*
G01*
X6937037Y9155943D01*
X6943943Y9029562D02*
G01*
X6992904Y9078523D01*
X6834532Y9117421D02*
G01*
X6778665Y9173288D01*
X6778665Y9194843D02*
G01*
X6827624Y9243801D01*
X7767906Y9127487D02*
G01*
X7712039Y9071620D01*
X7609535Y9110141D02*
G01*
X7553665Y9054274D01*
X7624178Y8983761D02*
G01*
X7680048Y9039628D01*
X7553665Y9032720D02*
G01*
X7602626Y8983761D01*
X7641526Y9142133D02*
G01*
X7697393Y9198000D01*
X7718945Y9198000D02*
G01*
X7767906Y9149039D01*
X6687367Y8167578D02*
G01*
X6743235Y8223445D01*
X6845739Y8184923D02*
G01*
X6901606Y8240791D01*
X6831093Y8311304D02*
G01*
X6775226Y8255436D01*
X6901606Y8262345D02*
G01*
X6852648Y8311304D01*
X6813748Y8152932D02*
G01*
X6757880Y8097065D01*
X6736328Y8097065D02*
G01*
X6687367Y8146026D01*
G75*
G01*
X8407352Y8660442D02*
G03*
X8392112Y8645202I0J-15240D01*
G75*
G01*
X8392112Y8575962D02*
G03*
X8407352Y8560722I15240J0D01*
G75*
G01*
X8610613Y8660442D02*
G02*
X8625853Y8645202I0J-15240D01*
G75*
G01*
X8625853Y8575962D02*
G02*
X8610613Y8560722I-15240J0D01*
G75*
G01*
X7900325Y8153352D02*
G03*
X7915565Y8138112I15240J0D01*
G75*
G01*
X7984805Y8138112D02*
G03*
X8000045Y8153352I0J15240D01*
G75*
G01*
X7900325Y8356613D02*
G02*
X7915565Y8371853I15240J0D01*
G75*
G01*
X7984805Y8371853D02*
G02*
X8000045Y8356613I0J-15240D01*
G75*
G01*
X4635670Y8516643D02*
G03*
X4620430Y8501403I0J-15240D01*
G75*
G01*
X4620430Y8313362D02*
G03*
X4635670Y8298122I15240J0D01*
G75*
G01*
X5117910Y8516643D02*
G02*
X5133149Y8501403I-1J-15240D01*
G75*
G01*
X5133149Y8313362D02*
G02*
X5117910Y8298122I-15240J0D01*
G75*
G01*
X5570250Y8419904D02*
G03*
X5555010Y8435144I-15240J0D01*
G75*
G01*
X5366969Y8435144D02*
G03*
X5351729Y8419904I0J-15240D01*
G75*
G01*
X5570250Y7937665D02*
G02*
X5555010Y7922425I-15240J0D01*
G75*
G01*
X5366969Y7922425D02*
G02*
X5351729Y7937665I0J15240D01*
G75*
G01*
X6990507Y8151894D02*
G03*
X6990507Y8173446I-10777J10776D01*
G75*
G01*
X6941548Y8222407D02*
G03*
X6919994Y8222407I-10777J-10776D01*
G75*
G01*
X6846781Y8008165D02*
G02*
X6825229Y8008165I-10776J10777D01*
G75*
G01*
X6776268Y8057126D02*
G02*
X6776268Y8078678I10777J10776D01*
G75*
G01*
X7459165Y9142476D02*
G03*
X7459165Y9120924I10776J-10776D01*
G75*
G01*
X7508123Y9071963D02*
G03*
X7529678Y9071963I10777J10775D01*
G75*
G01*
X7602891Y9286204D02*
G02*
X7624442Y9286204I10776J-10776D01*
G75*
G01*
X7673403Y9237243D02*
G02*
X7673403Y9215692I-10776J-10776D01*
G75*
G01*
X8102554Y8698542D02*
G03*
X8087314Y8683300I0J-15240D01*
G75*
G01*
X8087314Y8614062D02*
G03*
X8102554Y8598822I15240J0D01*
G75*
G01*
X8305815Y8698542D02*
G02*
X8321055Y8683300I0J-15240D01*
G75*
G01*
X8321055Y8614062D02*
G02*
X8305815Y8598822I-15240J0D01*
G75*
G01*
X7924754Y9295442D02*
G03*
X7909514Y9280202I0J-15240D01*
G75*
G01*
X7909514Y9210962D02*
G03*
X7924754Y9195722I15240J0D01*
G75*
G01*
X8128015Y9295442D02*
G02*
X8143255Y9280202I0J-15240D01*
G75*
G01*
X8143255Y9210962D02*
G02*
X8128015Y9195722I-15240J0D01*
G75*
G01*
X6420668Y8434276D02*
G03*
X6420668Y8412724I10777J-10776D01*
G75*
G01*
X6469629Y8363763D02*
G03*
X6491181Y8363763I10776J10776D01*
G75*
G01*
X6564396Y8578002D02*
G02*
X6585948Y8578002I10776J-10777D01*
G75*
G01*
X6634909Y8529043D02*
G02*
X6634909Y8507489I-10775J-10777D01*
G75*
G01*
X6592781Y8819302D02*
G03*
X6571229Y8819302I-10776J-10777D01*
G75*
G01*
X6522268Y8770341D02*
G03*
X6522268Y8748789I10777J-10776D01*
G75*
G01*
X6736509Y8675576D02*
G02*
X6736509Y8654021I-10775J-10777D01*
G75*
G01*
X6687548Y8605063D02*
G02*
X6665996Y8605063I-10776J10776D01*
G75*
G01*
X5740420Y9068722D02*
G03*
X5755660Y9083962I0J15240D01*
G75*
G01*
X5755660Y9153202D02*
G03*
X5740420Y9168442I-15240J0D01*
G75*
G01*
X5537159Y9068722D02*
G02*
X5521919Y9083962I0J15240D01*
G75*
G01*
X5521919Y9153202D02*
G02*
X5537159Y9168442I15240J0D01*
G75*
G01*
X7444077Y8145800D02*
G03*
X7422525Y8145800I-10776J-10776D01*
G75*
G01*
X7373564Y8096839D02*
G03*
X7373564Y8075287I10777J-10776D01*
G75*
G01*
X7587806Y8002074D02*
G02*
X7587803Y7980520I-10777J-10776D01*
G75*
G01*
X7538844Y7931561D02*
G02*
X7517293Y7931561I-10775J10777D01*
G75*
G01*
X6668397Y8788263D02*
G03*
X6689949Y8788263I10776J10777D01*
G75*
G01*
X6738910Y8837224D02*
G03*
X6738910Y8858776I-10777J10776D01*
G75*
G01*
X6524668Y8931991D02*
G02*
X6524668Y8953543I10777J10776D01*
G75*
G01*
X6573629Y9002504D02*
G02*
X6595181Y9002504I10776J-10776D01*
G75*
G01*
X7700076Y8392902D02*
G03*
X7678524Y8392902I-10776J-10777D01*
G75*
G01*
X7629563Y8343943D02*
G03*
X7629563Y8322389I10775J-10777D01*
G75*
G01*
X7843804Y8249176D02*
G02*
X7843804Y8227624I-10776J-10776D01*
G75*
G01*
X7794843Y8178663D02*
G02*
X7773292Y8178663I-10776J10777D01*
G75*
G01*
X6922392Y9029563D02*
G03*
X6943943Y9029563I10775J10777D01*
G75*
G01*
X6992904Y9078524D02*
G03*
X6992904Y9100076I-10776J10776D01*
G75*
G01*
X6778666Y9173289D02*
G02*
X6778666Y9194843I10775J10777D01*
G75*
G01*
X6827624Y9243802D02*
G02*
X6849179Y9243802I10777J-10776D01*
G75*
G01*
X7553665Y9054275D02*
G03*
X7553665Y9032720I10776J-10778D01*
G75*
G01*
X7602626Y8983762D02*
G03*
X7624178Y8983762I10776J10776D01*
G75*
G01*
X7697394Y9198000D02*
G02*
X7718946Y9198000I10776J-10776D01*
G75*
G01*
X7767907Y9149039D02*
G02*
X7767907Y9127487I-10777J-10776D01*
G75*
G01*
X6901607Y8240791D02*
G03*
X6901607Y8262346I-10776J10777D01*
G75*
G01*
X6852648Y8311304D02*
G03*
X6831094Y8311304I-10777J-10775D01*
G75*
G01*
X6757881Y8097065D02*
G02*
X6736329Y8097065I-10776J10777D01*
G75*
G01*
X6687368Y8146026D02*
G02*
X6687368Y8167578I10777J10776D01*
D18*
G75*
G01
X8384286Y7962875D02*
G03X8384286Y7962875I-15011J0D01*
G75*
G01
X8384286Y8674075D02*
G03X8384286Y8674075I-15011J0D01*
D13*
G75*
G01
X7287971Y8084185D02*
G03X7287971Y8084185I-12700J0D01*
D18*
G75*
G01
X5869711Y8620582D02*
G03X5869711Y8620582I-15011J0D01*
G75*
G01
X5792978Y8409965D02*
G03X5792978Y8409965I-15011J0D01*
D19*
G75*
G01
X4512716Y8516976D02*
G03X4512716Y8516976I-10008J0D01*
M02*
