G04 Layer: InnerLayer2*
G04 EasyEDA v6.5.14, 2022-08-20 14:37:37*
G04 4645136cb0f74b4096413293ac8c450d,6126cb6f80e34288b1b51c63ee1abbf7,10*
G04 Gerber Generator version 0.2*
G04 Scale: 100 percent, Rotated: No, Reflected: No *
G04 Dimensions in millimeters *
G04 leading zeros omitted , absolute positions ,4 integer and 5 decimal *
%FSLAX45Y45*%
%MOMM*%

%ADD10C,0.3000*%
%ADD11C,0.2000*%
%ADD12C,0.5000*%
%ADD13C,1.6000*%
%ADD14R,1.6000X1.6000*%
%ADD15C,0.6100*%
%ADD16C,0.0159*%

%LPD*%
G36*
X5796635Y9339478D02*
G01*
X5792673Y9340291D01*
X5789320Y9342577D01*
X5787136Y9346031D01*
X5786475Y9350044D01*
X5787440Y9353956D01*
X5789879Y9357207D01*
X5793384Y9359290D01*
X5806287Y9363659D01*
X5818733Y9369806D01*
X5830265Y9377476D01*
X5840679Y9386620D01*
X5849772Y9397034D01*
X5857494Y9408515D01*
X5863590Y9420961D01*
X5868060Y9434068D01*
X5870752Y9447682D01*
X5871667Y9461500D01*
X5870752Y9475317D01*
X5868060Y9488881D01*
X5863590Y9501987D01*
X5857494Y9514433D01*
X5849772Y9525965D01*
X5840679Y9536379D01*
X5830265Y9545472D01*
X5818733Y9553194D01*
X5815431Y9554819D01*
X5811926Y9557664D01*
X5810046Y9561728D01*
X5810046Y9566198D01*
X5812028Y9570262D01*
X5815533Y9573056D01*
X5819952Y9574072D01*
X5965647Y9574072D01*
X5970016Y9573056D01*
X5973572Y9570262D01*
X5975502Y9566198D01*
X5975553Y9561728D01*
X5973622Y9557664D01*
X5970117Y9554819D01*
X5966866Y9553194D01*
X5955334Y9545472D01*
X5944920Y9536379D01*
X5935776Y9525965D01*
X5928106Y9514433D01*
X5921959Y9501987D01*
X5917488Y9488881D01*
X5914796Y9475317D01*
X5913882Y9461500D01*
X5914796Y9447682D01*
X5917488Y9434068D01*
X5921959Y9420961D01*
X5928106Y9408515D01*
X5935776Y9397034D01*
X5944920Y9386620D01*
X5955334Y9377476D01*
X5966866Y9369806D01*
X5979261Y9363659D01*
X5992215Y9359290D01*
X5995720Y9357207D01*
X5998108Y9353956D01*
X5999073Y9350044D01*
X5998413Y9346031D01*
X5996228Y9342577D01*
X5992926Y9340291D01*
X5988913Y9339478D01*
G37*

%LPD*%
G36*
X5542635Y9339478D02*
G01*
X5538673Y9340291D01*
X5535320Y9342577D01*
X5533136Y9346031D01*
X5532475Y9350044D01*
X5533440Y9353956D01*
X5535879Y9357207D01*
X5539384Y9359290D01*
X5552287Y9363659D01*
X5564733Y9369806D01*
X5576265Y9377476D01*
X5586679Y9386620D01*
X5595772Y9397034D01*
X5603494Y9408515D01*
X5609590Y9420961D01*
X5614060Y9434068D01*
X5616752Y9447682D01*
X5617667Y9461500D01*
X5616752Y9475317D01*
X5614060Y9488881D01*
X5609590Y9501987D01*
X5603494Y9514433D01*
X5595772Y9525965D01*
X5586679Y9536379D01*
X5576265Y9545472D01*
X5564733Y9553194D01*
X5561431Y9554819D01*
X5557926Y9557664D01*
X5556046Y9561728D01*
X5556046Y9566198D01*
X5558028Y9570262D01*
X5561533Y9573056D01*
X5565952Y9574072D01*
X5711647Y9574072D01*
X5716016Y9573056D01*
X5719572Y9570262D01*
X5721502Y9566198D01*
X5721553Y9561728D01*
X5719622Y9557664D01*
X5716117Y9554819D01*
X5712866Y9553194D01*
X5701334Y9545472D01*
X5690920Y9536379D01*
X5681776Y9525965D01*
X5674106Y9514433D01*
X5667959Y9501987D01*
X5663488Y9488881D01*
X5660796Y9475317D01*
X5659882Y9461500D01*
X5660796Y9447682D01*
X5663488Y9434068D01*
X5667959Y9420961D01*
X5674106Y9408515D01*
X5681776Y9397034D01*
X5690920Y9386620D01*
X5701334Y9377476D01*
X5712866Y9369806D01*
X5725261Y9363659D01*
X5738215Y9359290D01*
X5741720Y9357207D01*
X5744108Y9353956D01*
X5745073Y9350044D01*
X5744413Y9346031D01*
X5742228Y9342577D01*
X5738926Y9340291D01*
X5734913Y9339478D01*
G37*

%LPD*%
G36*
X6050635Y9339478D02*
G01*
X6046673Y9340291D01*
X6043320Y9342577D01*
X6041136Y9346031D01*
X6040475Y9350044D01*
X6041440Y9353956D01*
X6043879Y9357207D01*
X6047384Y9359290D01*
X6060287Y9363659D01*
X6072733Y9369806D01*
X6084265Y9377476D01*
X6094679Y9386620D01*
X6103772Y9397034D01*
X6111494Y9408515D01*
X6117590Y9420961D01*
X6122060Y9434068D01*
X6124752Y9447682D01*
X6125667Y9461500D01*
X6124752Y9475317D01*
X6122060Y9488881D01*
X6117590Y9501987D01*
X6111494Y9514433D01*
X6103772Y9525965D01*
X6094679Y9536379D01*
X6084265Y9545472D01*
X6072733Y9553194D01*
X6069431Y9554819D01*
X6065926Y9557664D01*
X6064046Y9561728D01*
X6064046Y9566198D01*
X6066028Y9570262D01*
X6069533Y9573056D01*
X6073952Y9574072D01*
X6219647Y9574072D01*
X6224016Y9573056D01*
X6227572Y9570262D01*
X6229502Y9566198D01*
X6229553Y9561728D01*
X6227622Y9557664D01*
X6224117Y9554819D01*
X6220866Y9553194D01*
X6209334Y9545472D01*
X6198920Y9536379D01*
X6189776Y9525965D01*
X6182106Y9514433D01*
X6175959Y9501987D01*
X6171488Y9488881D01*
X6168796Y9475317D01*
X6167882Y9461500D01*
X6168796Y9447682D01*
X6171488Y9434068D01*
X6175959Y9420961D01*
X6182106Y9408515D01*
X6189776Y9397034D01*
X6198920Y9386620D01*
X6209334Y9377476D01*
X6220866Y9369806D01*
X6233261Y9363659D01*
X6246215Y9359290D01*
X6249720Y9357207D01*
X6252108Y9353956D01*
X6253073Y9350044D01*
X6252413Y9346031D01*
X6250228Y9342577D01*
X6246926Y9340291D01*
X6242913Y9339478D01*
G37*

%LPD*%
G36*
X6558635Y9339478D02*
G01*
X6554673Y9340291D01*
X6551320Y9342577D01*
X6549135Y9346031D01*
X6548475Y9350044D01*
X6549440Y9353956D01*
X6551879Y9357207D01*
X6555384Y9359290D01*
X6568287Y9363659D01*
X6580733Y9369806D01*
X6592265Y9377476D01*
X6602679Y9386620D01*
X6611772Y9397034D01*
X6619494Y9408515D01*
X6625590Y9420961D01*
X6630060Y9434068D01*
X6632752Y9447682D01*
X6633667Y9461500D01*
X6632752Y9475317D01*
X6630060Y9488881D01*
X6625590Y9501987D01*
X6619494Y9514433D01*
X6611772Y9525965D01*
X6602679Y9536379D01*
X6592265Y9545472D01*
X6580733Y9553194D01*
X6577431Y9554819D01*
X6573926Y9557664D01*
X6572046Y9561728D01*
X6572046Y9566198D01*
X6574028Y9570262D01*
X6577533Y9573056D01*
X6581952Y9574072D01*
X6727647Y9574072D01*
X6732016Y9573056D01*
X6735572Y9570262D01*
X6737502Y9566198D01*
X6737553Y9561728D01*
X6735622Y9557664D01*
X6732117Y9554819D01*
X6728866Y9553194D01*
X6717334Y9545472D01*
X6706920Y9536379D01*
X6697776Y9525965D01*
X6690106Y9514433D01*
X6683959Y9501987D01*
X6679488Y9488881D01*
X6676796Y9475317D01*
X6675881Y9461500D01*
X6676796Y9447682D01*
X6679488Y9434068D01*
X6683959Y9420961D01*
X6690106Y9408515D01*
X6697776Y9397034D01*
X6706920Y9386620D01*
X6717334Y9377476D01*
X6728866Y9369806D01*
X6741261Y9363659D01*
X6754215Y9359290D01*
X6757720Y9357207D01*
X6760108Y9353956D01*
X6761073Y9350044D01*
X6760413Y9346031D01*
X6758228Y9342577D01*
X6754926Y9340291D01*
X6750913Y9339478D01*
G37*

%LPD*%
G36*
X5064861Y9339478D02*
G01*
X5061000Y9340240D01*
X5057698Y9342475D01*
X5055463Y9345777D01*
X5054701Y9349638D01*
X5054701Y9362998D01*
X5055260Y9366250D01*
X5056784Y9369196D01*
X5059222Y9371431D01*
X5068265Y9377476D01*
X5078679Y9386620D01*
X5087772Y9397034D01*
X5095494Y9408515D01*
X5101590Y9420961D01*
X5106060Y9434068D01*
X5108752Y9447682D01*
X5109667Y9461500D01*
X5108752Y9475317D01*
X5106060Y9488881D01*
X5101590Y9501987D01*
X5095494Y9514433D01*
X5087772Y9525965D01*
X5078679Y9536379D01*
X5068265Y9545472D01*
X5056733Y9553194D01*
X5053431Y9554819D01*
X5049926Y9557664D01*
X5048046Y9561728D01*
X5048046Y9566198D01*
X5050028Y9570262D01*
X5053533Y9573056D01*
X5057952Y9574072D01*
X5203647Y9574072D01*
X5208016Y9573056D01*
X5211572Y9570262D01*
X5212537Y9568281D01*
X5214416Y9571075D01*
X5217718Y9573310D01*
X5221579Y9574072D01*
X5293969Y9574072D01*
X5297881Y9573310D01*
X5301183Y9571075D01*
X5303062Y9568281D01*
X5304028Y9570262D01*
X5307533Y9573056D01*
X5311952Y9574072D01*
X5457647Y9574072D01*
X5462016Y9573056D01*
X5465572Y9570262D01*
X5467502Y9566198D01*
X5467553Y9561728D01*
X5465622Y9557664D01*
X5462117Y9554819D01*
X5458866Y9553194D01*
X5447334Y9545472D01*
X5436920Y9536379D01*
X5427776Y9525965D01*
X5420106Y9514433D01*
X5413959Y9501987D01*
X5409488Y9488881D01*
X5406796Y9475317D01*
X5405882Y9461500D01*
X5406796Y9447682D01*
X5409488Y9434068D01*
X5413959Y9420961D01*
X5420106Y9408515D01*
X5427776Y9397034D01*
X5436920Y9386620D01*
X5447334Y9377476D01*
X5458866Y9369806D01*
X5471261Y9363659D01*
X5484215Y9359290D01*
X5487720Y9357207D01*
X5490108Y9353956D01*
X5491073Y9350044D01*
X5490413Y9346031D01*
X5488228Y9342577D01*
X5484926Y9340291D01*
X5480913Y9339478D01*
G37*

%LPC*%
G36*
X5304129Y9366554D02*
G01*
X5310733Y9369806D01*
X5322265Y9377476D01*
X5332679Y9386620D01*
X5341772Y9397034D01*
X5349494Y9408515D01*
X5352745Y9415119D01*
X5304129Y9415119D01*
G37*
G36*
X5211419Y9366554D02*
G01*
X5211419Y9415119D01*
X5162854Y9415119D01*
X5166106Y9408515D01*
X5173776Y9397034D01*
X5182920Y9386620D01*
X5193334Y9377476D01*
X5204866Y9369806D01*
G37*
G36*
X5162854Y9507829D02*
G01*
X5211419Y9507829D01*
X5211419Y9557512D01*
X5208117Y9554819D01*
X5204866Y9553194D01*
X5193334Y9545472D01*
X5182920Y9536379D01*
X5173776Y9525965D01*
X5166106Y9514433D01*
G37*
G36*
X5304129Y9507829D02*
G01*
X5352745Y9507829D01*
X5349494Y9514433D01*
X5341772Y9525965D01*
X5332679Y9536379D01*
X5322265Y9545472D01*
X5310733Y9553194D01*
X5307431Y9554819D01*
X5304129Y9557512D01*
G37*

%LPD*%
G36*
X6304635Y9339478D02*
G01*
X6300673Y9340291D01*
X6297320Y9342577D01*
X6295136Y9346031D01*
X6294475Y9350044D01*
X6295440Y9353956D01*
X6297879Y9357207D01*
X6301384Y9359290D01*
X6314287Y9363659D01*
X6326733Y9369806D01*
X6338265Y9377476D01*
X6348679Y9386620D01*
X6357772Y9397034D01*
X6365494Y9408515D01*
X6371590Y9420961D01*
X6376060Y9434068D01*
X6378752Y9447682D01*
X6379667Y9461500D01*
X6378752Y9475317D01*
X6376060Y9488881D01*
X6371590Y9501987D01*
X6365494Y9514433D01*
X6357772Y9525965D01*
X6348679Y9536379D01*
X6338265Y9545472D01*
X6326733Y9553194D01*
X6323431Y9554819D01*
X6319926Y9557664D01*
X6318046Y9561728D01*
X6318046Y9566198D01*
X6320028Y9570262D01*
X6323533Y9573056D01*
X6327952Y9574072D01*
X6473647Y9574072D01*
X6478016Y9573056D01*
X6481572Y9570262D01*
X6483502Y9566198D01*
X6483553Y9561728D01*
X6481622Y9557664D01*
X6478117Y9554819D01*
X6474866Y9553194D01*
X6463334Y9545472D01*
X6452920Y9536379D01*
X6443776Y9525965D01*
X6436106Y9514433D01*
X6429959Y9501987D01*
X6425488Y9488881D01*
X6422796Y9475317D01*
X6421882Y9461500D01*
X6422796Y9447682D01*
X6425488Y9434068D01*
X6429959Y9420961D01*
X6436106Y9408515D01*
X6443776Y9397034D01*
X6452920Y9386620D01*
X6463334Y9377476D01*
X6474866Y9369806D01*
X6487261Y9363659D01*
X6500215Y9359290D01*
X6503720Y9357207D01*
X6506108Y9353956D01*
X6507073Y9350044D01*
X6506413Y9346031D01*
X6504228Y9342577D01*
X6500926Y9340291D01*
X6496913Y9339478D01*
G37*

%LPD*%
G36*
X8259318Y9296298D02*
G01*
X8255406Y9297060D01*
X8252104Y9299244D01*
X8148421Y9402978D01*
X8146135Y9406483D01*
X8145475Y9410598D01*
X8146491Y9414611D01*
X8149590Y9420961D01*
X8154060Y9434068D01*
X8156752Y9447682D01*
X8157667Y9461500D01*
X8156752Y9475317D01*
X8154060Y9488881D01*
X8149590Y9501987D01*
X8143494Y9514433D01*
X8135772Y9525965D01*
X8126679Y9536379D01*
X8116265Y9545472D01*
X8104733Y9553194D01*
X8101431Y9554819D01*
X8097926Y9557664D01*
X8096046Y9561728D01*
X8096046Y9566198D01*
X8098028Y9570262D01*
X8101533Y9573056D01*
X8105952Y9574072D01*
X8251647Y9574072D01*
X8256016Y9573056D01*
X8259572Y9570262D01*
X8261502Y9566198D01*
X8261553Y9561728D01*
X8259622Y9557664D01*
X8256117Y9554819D01*
X8252866Y9553194D01*
X8241334Y9545472D01*
X8230920Y9536379D01*
X8221776Y9525965D01*
X8214106Y9514433D01*
X8207959Y9501987D01*
X8203488Y9488881D01*
X8200796Y9475317D01*
X8199881Y9461500D01*
X8200796Y9447682D01*
X8203488Y9434068D01*
X8207959Y9420961D01*
X8214106Y9408515D01*
X8221776Y9397034D01*
X8230920Y9386620D01*
X8241334Y9377476D01*
X8252866Y9369806D01*
X8263940Y9364319D01*
X8266938Y9362033D01*
X8268919Y9358833D01*
X8269630Y9355175D01*
X8269478Y9306407D01*
X8268665Y9302546D01*
X8266480Y9299244D01*
X8263178Y9297060D01*
G37*

%LPD*%
G36*
X7660944Y9095994D02*
G01*
X7657896Y9096502D01*
X7655153Y9097822D01*
X7650429Y9101124D01*
X7641539Y9105290D01*
X7632039Y9107830D01*
X7622235Y9108694D01*
X7612430Y9107830D01*
X7602931Y9105290D01*
X7594041Y9101124D01*
X7591399Y9099296D01*
X7587335Y9097619D01*
X7582916Y9097772D01*
X7579004Y9099804D01*
X7576362Y9103309D01*
X7575397Y9107627D01*
X7576362Y9111894D01*
X7580731Y9121241D01*
X7583271Y9130741D01*
X7584135Y9140545D01*
X7583271Y9150350D01*
X7580731Y9159849D01*
X7576566Y9168739D01*
X7570927Y9176766D01*
X7563967Y9183725D01*
X7555941Y9189364D01*
X7547051Y9193530D01*
X7537551Y9196070D01*
X7527747Y9196933D01*
X7517942Y9196070D01*
X7508443Y9193530D01*
X7499553Y9189364D01*
X7495794Y9186722D01*
X7493050Y9185351D01*
X7489952Y9184894D01*
X7290308Y9184894D01*
X7286650Y9184538D01*
X7282535Y9184995D01*
X7278979Y9187027D01*
X7276490Y9190278D01*
X7275525Y9194292D01*
X7276236Y9198356D01*
X7278471Y9201810D01*
X7319009Y9242348D01*
X7322312Y9244533D01*
X7326172Y9245346D01*
X7671155Y9245346D01*
X7675067Y9244533D01*
X7678369Y9242348D01*
X7692491Y9228124D01*
X7694675Y9224873D01*
X7695438Y9220962D01*
X7695438Y9124492D01*
X7694675Y9120632D01*
X7692440Y9117330D01*
X7674102Y9098991D01*
X7670800Y9096756D01*
X7666939Y9095994D01*
G37*

%LPD*%
G36*
X8152434Y8628989D02*
G01*
X8148523Y8629751D01*
X8145221Y8631936D01*
X7919567Y8857589D01*
X7913319Y8862669D01*
X7906664Y8866073D01*
X7899298Y8868054D01*
X7893405Y8868511D01*
X7809280Y8868511D01*
X7805369Y8869273D01*
X7802067Y8871458D01*
X7797800Y8875776D01*
X7789773Y8881364D01*
X7780883Y8885529D01*
X7771384Y8888069D01*
X7761579Y8888933D01*
X7751775Y8888069D01*
X7742275Y8885529D01*
X7733385Y8881364D01*
X7725359Y8875776D01*
X7718399Y8868816D01*
X7712760Y8860739D01*
X7708595Y8851849D01*
X7706055Y8842349D01*
X7705191Y8832545D01*
X7706055Y8822791D01*
X7708595Y8813292D01*
X7712760Y8804402D01*
X7718399Y8796324D01*
X7725359Y8789365D01*
X7733385Y8783777D01*
X7742275Y8779611D01*
X7751775Y8777071D01*
X7761579Y8776208D01*
X7771384Y8777071D01*
X7780883Y8779611D01*
X7789773Y8783777D01*
X7797800Y8789365D01*
X7802118Y8793734D01*
X7805420Y8795918D01*
X7809331Y8796680D01*
X7874711Y8796680D01*
X7878622Y8795918D01*
X7881924Y8793734D01*
X7934807Y8740800D01*
X7936992Y8737498D01*
X7937804Y8733637D01*
X7936992Y8729726D01*
X7934807Y8726424D01*
X7931505Y8724239D01*
X7927644Y8723477D01*
X7878724Y8723477D01*
X7874863Y8724239D01*
X7871561Y8726424D01*
X7867142Y8730894D01*
X7859064Y8736482D01*
X7850174Y8740648D01*
X7840675Y8743188D01*
X7830921Y8744051D01*
X7821117Y8743188D01*
X7811617Y8740648D01*
X7802727Y8736482D01*
X7794650Y8730894D01*
X7787690Y8723934D01*
X7782102Y8715857D01*
X7777937Y8706967D01*
X7777073Y8703818D01*
X7775041Y8699906D01*
X7771587Y8697264D01*
X7767269Y8696299D01*
X7763002Y8697264D01*
X7753553Y8701633D01*
X7744053Y8704173D01*
X7734300Y8705037D01*
X7724495Y8704173D01*
X7714996Y8701633D01*
X7706106Y8697468D01*
X7698028Y8691880D01*
X7691069Y8684920D01*
X7685481Y8676843D01*
X7682534Y8670544D01*
X7680198Y8667394D01*
X7676896Y8665311D01*
X7673035Y8664702D01*
X7669225Y8665514D01*
X7666024Y8667750D01*
X7663891Y8671001D01*
X7663129Y8674811D01*
X7663129Y9004046D01*
X7663942Y9007906D01*
X7666126Y9011208D01*
X7669428Y9013393D01*
X7673289Y9014206D01*
X7687564Y9014206D01*
X7696047Y9015018D01*
X7703718Y9017355D01*
X7710779Y9021114D01*
X7717332Y9026550D01*
X7764881Y9074099D01*
X7770317Y9080652D01*
X7774076Y9087713D01*
X7776413Y9095384D01*
X7777225Y9103868D01*
X7777225Y9241536D01*
X7776413Y9249867D01*
X7774127Y9257588D01*
X7770368Y9264650D01*
X7764983Y9271254D01*
X7721752Y9314738D01*
X7715199Y9320123D01*
X7708138Y9323933D01*
X7700467Y9326270D01*
X7691881Y9327134D01*
X7305548Y9327134D01*
X7297064Y9326321D01*
X7289393Y9323984D01*
X7282332Y9320225D01*
X7275779Y9314789D01*
X7102856Y9141917D01*
X7099553Y9139682D01*
X7095693Y9138920D01*
X6982561Y9138920D01*
X6978650Y9139682D01*
X6975348Y9141917D01*
X6973163Y9145219D01*
X6972401Y9149080D01*
X6972401Y9288119D01*
X6971588Y9297416D01*
X6969302Y9305950D01*
X6965543Y9314027D01*
X6960463Y9321292D01*
X6954164Y9327540D01*
X6946900Y9332620D01*
X6938873Y9336379D01*
X6930339Y9338665D01*
X6921042Y9339478D01*
X6812635Y9339478D01*
X6808673Y9340291D01*
X6805320Y9342577D01*
X6803136Y9346031D01*
X6802475Y9350044D01*
X6803440Y9353956D01*
X6805879Y9357207D01*
X6809384Y9359290D01*
X6822287Y9363659D01*
X6834733Y9369806D01*
X6846265Y9377476D01*
X6856679Y9386620D01*
X6865772Y9397034D01*
X6873494Y9408515D01*
X6879590Y9420961D01*
X6884060Y9434068D01*
X6886752Y9447682D01*
X6887667Y9461500D01*
X6886752Y9475317D01*
X6884060Y9488881D01*
X6879590Y9501987D01*
X6873494Y9514433D01*
X6865772Y9525965D01*
X6856679Y9536379D01*
X6846265Y9545472D01*
X6834733Y9553194D01*
X6831431Y9554819D01*
X6827926Y9557664D01*
X6826046Y9561728D01*
X6826046Y9566198D01*
X6828028Y9570262D01*
X6831533Y9573056D01*
X6835952Y9574072D01*
X6981647Y9574072D01*
X6986016Y9573056D01*
X6989572Y9570262D01*
X6991502Y9566198D01*
X6991553Y9561728D01*
X6989622Y9557664D01*
X6986117Y9554819D01*
X6982866Y9553194D01*
X6971334Y9545472D01*
X6960920Y9536379D01*
X6951776Y9525965D01*
X6944106Y9514433D01*
X6937959Y9501987D01*
X6933488Y9488881D01*
X6930796Y9475317D01*
X6929881Y9461500D01*
X6930796Y9447682D01*
X6933488Y9434068D01*
X6937959Y9420961D01*
X6944106Y9408515D01*
X6951776Y9397034D01*
X6960920Y9386620D01*
X6971334Y9377476D01*
X6982866Y9369806D01*
X6995261Y9363659D01*
X7008368Y9359188D01*
X7021982Y9356496D01*
X7035800Y9355582D01*
X7049617Y9356496D01*
X7063181Y9359188D01*
X7076287Y9363659D01*
X7088733Y9369806D01*
X7100265Y9377476D01*
X7110679Y9386620D01*
X7119772Y9397034D01*
X7127494Y9408515D01*
X7133590Y9420961D01*
X7138060Y9434068D01*
X7140752Y9447682D01*
X7141667Y9461500D01*
X7140752Y9475317D01*
X7138060Y9488881D01*
X7133590Y9501987D01*
X7127494Y9514433D01*
X7119772Y9525965D01*
X7110679Y9536379D01*
X7100265Y9545472D01*
X7088733Y9553194D01*
X7085431Y9554819D01*
X7081926Y9557664D01*
X7080046Y9561728D01*
X7080046Y9566198D01*
X7082028Y9570262D01*
X7085533Y9573056D01*
X7089952Y9574072D01*
X7235647Y9574072D01*
X7240016Y9573056D01*
X7243572Y9570262D01*
X7245502Y9566198D01*
X7245553Y9561728D01*
X7243622Y9557664D01*
X7240117Y9554819D01*
X7236866Y9553194D01*
X7225334Y9545472D01*
X7214920Y9536379D01*
X7205776Y9525965D01*
X7198106Y9514433D01*
X7191959Y9501987D01*
X7187488Y9488881D01*
X7184796Y9475317D01*
X7183881Y9461500D01*
X7184796Y9447682D01*
X7187488Y9434068D01*
X7191959Y9420961D01*
X7198106Y9408515D01*
X7205776Y9397034D01*
X7214920Y9386620D01*
X7225334Y9377476D01*
X7236866Y9369806D01*
X7249261Y9363659D01*
X7262368Y9359188D01*
X7275982Y9356496D01*
X7289800Y9355582D01*
X7303617Y9356496D01*
X7317181Y9359188D01*
X7330287Y9363659D01*
X7342733Y9369806D01*
X7354265Y9377476D01*
X7364679Y9386620D01*
X7373772Y9397034D01*
X7381494Y9408515D01*
X7387590Y9420961D01*
X7392060Y9434068D01*
X7394752Y9447682D01*
X7395667Y9461500D01*
X7394752Y9475317D01*
X7392060Y9488881D01*
X7387590Y9501987D01*
X7381494Y9514433D01*
X7373772Y9525965D01*
X7364679Y9536379D01*
X7354265Y9545472D01*
X7342733Y9553194D01*
X7339431Y9554819D01*
X7335926Y9557664D01*
X7334046Y9561728D01*
X7334046Y9566198D01*
X7336028Y9570262D01*
X7339533Y9573056D01*
X7343952Y9574072D01*
X7489647Y9574072D01*
X7494016Y9573056D01*
X7497572Y9570262D01*
X7499502Y9566198D01*
X7499553Y9561728D01*
X7497622Y9557664D01*
X7494117Y9554819D01*
X7490866Y9553194D01*
X7479334Y9545472D01*
X7468920Y9536379D01*
X7459776Y9525965D01*
X7452106Y9514433D01*
X7445959Y9501987D01*
X7441488Y9488881D01*
X7438796Y9475317D01*
X7437881Y9461500D01*
X7438796Y9447682D01*
X7441488Y9434068D01*
X7445959Y9420961D01*
X7452106Y9408515D01*
X7459776Y9397034D01*
X7468920Y9386620D01*
X7479334Y9377476D01*
X7490866Y9369806D01*
X7503261Y9363659D01*
X7516368Y9359188D01*
X7529982Y9356496D01*
X7543800Y9355582D01*
X7557617Y9356496D01*
X7571181Y9359188D01*
X7584287Y9363659D01*
X7596733Y9369806D01*
X7608265Y9377476D01*
X7618679Y9386620D01*
X7627772Y9397034D01*
X7635494Y9408515D01*
X7641590Y9420961D01*
X7646060Y9434068D01*
X7648752Y9447682D01*
X7649667Y9461500D01*
X7648752Y9475317D01*
X7646060Y9488881D01*
X7641590Y9501987D01*
X7635494Y9514433D01*
X7627772Y9525965D01*
X7618679Y9536379D01*
X7608265Y9545472D01*
X7596733Y9553194D01*
X7593431Y9554819D01*
X7589926Y9557664D01*
X7588046Y9561728D01*
X7588046Y9566198D01*
X7590028Y9570262D01*
X7593533Y9573056D01*
X7597952Y9574072D01*
X7743647Y9574072D01*
X7748016Y9573056D01*
X7751572Y9570262D01*
X7753502Y9566198D01*
X7753553Y9561728D01*
X7751622Y9557664D01*
X7748117Y9554819D01*
X7744866Y9553194D01*
X7733334Y9545472D01*
X7722920Y9536379D01*
X7713776Y9525965D01*
X7706106Y9514433D01*
X7699959Y9501987D01*
X7695488Y9488881D01*
X7692796Y9475317D01*
X7691881Y9461500D01*
X7692796Y9447682D01*
X7695488Y9434068D01*
X7699959Y9420961D01*
X7706106Y9408515D01*
X7713776Y9397034D01*
X7722920Y9386620D01*
X7733334Y9377476D01*
X7744866Y9369806D01*
X7757261Y9363659D01*
X7770368Y9359188D01*
X7783982Y9356496D01*
X7797800Y9355582D01*
X7811617Y9356496D01*
X7825181Y9359188D01*
X7838287Y9363659D01*
X7850733Y9369806D01*
X7862265Y9377476D01*
X7872679Y9386620D01*
X7881772Y9397034D01*
X7889494Y9408515D01*
X7895590Y9420961D01*
X7900060Y9434068D01*
X7902752Y9447682D01*
X7903667Y9461500D01*
X7902752Y9475317D01*
X7900060Y9488881D01*
X7895590Y9501987D01*
X7889494Y9514433D01*
X7881772Y9525965D01*
X7872679Y9536379D01*
X7862265Y9545472D01*
X7850733Y9553194D01*
X7847431Y9554819D01*
X7843926Y9557664D01*
X7842046Y9561728D01*
X7842046Y9566198D01*
X7844028Y9570262D01*
X7847533Y9573056D01*
X7851952Y9574072D01*
X7997647Y9574072D01*
X8002016Y9573056D01*
X8005572Y9570262D01*
X8007502Y9566198D01*
X8007553Y9561728D01*
X8005622Y9557664D01*
X8002117Y9554819D01*
X7998866Y9553194D01*
X7987334Y9545472D01*
X7976920Y9536379D01*
X7967776Y9525965D01*
X7960106Y9514433D01*
X7953959Y9501987D01*
X7949488Y9488881D01*
X7946796Y9475317D01*
X7945881Y9461500D01*
X7946796Y9447682D01*
X7949488Y9434068D01*
X7953959Y9420961D01*
X7960106Y9408515D01*
X7967776Y9397034D01*
X7976920Y9386620D01*
X7987334Y9377476D01*
X7998866Y9369806D01*
X8011261Y9363659D01*
X8024368Y9359188D01*
X8037982Y9356496D01*
X8051800Y9355582D01*
X8065617Y9356496D01*
X8079181Y9359188D01*
X8081721Y9360052D01*
X8085429Y9360611D01*
X8089087Y9359747D01*
X8092186Y9357614D01*
X8220456Y9229394D01*
X8222640Y9226092D01*
X8223402Y9222181D01*
X8223402Y8826754D01*
X8224266Y8818778D01*
X8226552Y8811666D01*
X8230362Y8805062D01*
X8234222Y8800592D01*
X8298434Y8736380D01*
X8300618Y8733078D01*
X8301380Y8729167D01*
X8301380Y8658910D01*
X8300618Y8654999D01*
X8298434Y8651748D01*
X8278774Y8631986D01*
X8275472Y8629751D01*
X8271611Y8628989D01*
G37*

%LPD*%
G36*
X5031232Y8003743D02*
G01*
X5027015Y8004403D01*
X5023510Y8006689D01*
X4979162Y8050987D01*
X4976977Y8054289D01*
X4976215Y8058200D01*
X4976215Y8823807D01*
X4976977Y8827668D01*
X4979162Y8830970D01*
X4982362Y8834170D01*
X4988001Y8842197D01*
X4992166Y8851087D01*
X4994706Y8860586D01*
X4995570Y8870391D01*
X4994706Y8880195D01*
X4992166Y8889695D01*
X4988001Y8898585D01*
X4982362Y8906611D01*
X4975402Y8913571D01*
X4967376Y8919210D01*
X4962906Y8921292D01*
X4959756Y8923578D01*
X4957673Y8926931D01*
X4957013Y8930741D01*
X4957876Y8934551D01*
X4960061Y8937802D01*
X4963363Y8939936D01*
X4967173Y8940647D01*
X5239715Y8940647D01*
X5243626Y8939885D01*
X5246928Y8937701D01*
X5249113Y8934399D01*
X5249875Y8930487D01*
X5249875Y8498433D01*
X5250078Y8493810D01*
X5250688Y8489391D01*
X5251653Y8485073D01*
X5252974Y8480806D01*
X5254650Y8476742D01*
X5256733Y8472779D01*
X5259120Y8469020D01*
X5261813Y8465515D01*
X5264962Y8462060D01*
X5367782Y8359241D01*
X5369966Y8355939D01*
X5370779Y8352078D01*
X5369966Y8348167D01*
X5367782Y8344865D01*
X5078323Y8055457D01*
X5075428Y8053425D01*
X5067706Y8049768D01*
X5059629Y8044180D01*
X5052669Y8037220D01*
X5047081Y8029143D01*
X5042916Y8020253D01*
X5040477Y8011261D01*
X5038598Y8007502D01*
X5035296Y8004809D01*
G37*

%LPD*%
G36*
X5246471Y7788605D02*
G01*
X5242204Y7789265D01*
X5238597Y7791602D01*
X5101590Y7928609D01*
X5099304Y7932115D01*
X5098643Y7936331D01*
X5099710Y7940395D01*
X5102402Y7943646D01*
X5106162Y7945577D01*
X5115153Y7948015D01*
X5124043Y7952181D01*
X5132120Y7957769D01*
X5139080Y7964728D01*
X5144668Y7972806D01*
X5148326Y7980527D01*
X5150358Y7983423D01*
X5432602Y8265718D01*
X5435904Y8267903D01*
X5439765Y8268665D01*
X5443677Y8267903D01*
X5446979Y8265718D01*
X5647842Y8064804D01*
X5649874Y8061909D01*
X5653481Y8054187D01*
X5659628Y8045399D01*
X5660999Y8042605D01*
X5661456Y8038592D01*
X5660999Y8035544D01*
X5659628Y8032750D01*
X5653481Y8023961D01*
X5649315Y8015071D01*
X5646775Y8005572D01*
X5645912Y7995767D01*
X5646775Y7986014D01*
X5649315Y7976514D01*
X5653481Y7967624D01*
X5659120Y7959547D01*
X5666028Y7952638D01*
X5668213Y7949336D01*
X5669026Y7945475D01*
X5668213Y7941564D01*
X5666028Y7938262D01*
X5662726Y7936077D01*
X5658866Y7935315D01*
X5436108Y7935315D01*
X5428132Y7934452D01*
X5421020Y7932166D01*
X5414416Y7928356D01*
X5409946Y7924495D01*
X5277002Y7791602D01*
X5273395Y7789265D01*
X5269128Y7788605D01*
X5257800Y7789367D01*
G37*

%LPD*%
G36*
X6125870Y7629398D02*
G01*
X6121654Y7630922D01*
X6118555Y7634071D01*
X6117082Y7638288D01*
X6117539Y7642707D01*
X6122060Y7656068D01*
X6124752Y7669682D01*
X6125667Y7683500D01*
X6124752Y7697317D01*
X6122060Y7710881D01*
X6117590Y7723987D01*
X6111494Y7736433D01*
X6105652Y7745120D01*
X6104280Y7748320D01*
X6104026Y7751775D01*
X6104940Y7755128D01*
X6106922Y7757972D01*
X6171387Y7822438D01*
X6174689Y7824622D01*
X6178600Y7825384D01*
X6971792Y7825384D01*
X6979767Y7826248D01*
X6986879Y7828534D01*
X6993483Y7832344D01*
X6997953Y7836204D01*
X7390993Y8229244D01*
X7396073Y8235492D01*
X7399477Y8242147D01*
X7401458Y8249513D01*
X7401915Y8255406D01*
X7401915Y8316722D01*
X7401052Y8324697D01*
X7398715Y8331962D01*
X7396124Y8336686D01*
X7395006Y8340191D01*
X7395159Y8343798D01*
X7396632Y8347151D01*
X7399172Y8349792D01*
X7402423Y8351367D01*
X7409484Y8353247D01*
X7418374Y8357412D01*
X7426452Y8363000D01*
X7433411Y8369960D01*
X7438999Y8378037D01*
X7443165Y8386927D01*
X7445705Y8396427D01*
X7446772Y8401304D01*
X7448803Y8404199D01*
X7451699Y8406231D01*
X7456576Y8407298D01*
X7466075Y8409838D01*
X7474966Y8414004D01*
X7482992Y8419592D01*
X7489952Y8426551D01*
X7495590Y8434628D01*
X7499756Y8443518D01*
X7502296Y8453018D01*
X7503159Y8462772D01*
X7502296Y8472576D01*
X7499756Y8482076D01*
X7495590Y8490966D01*
X7489952Y8499043D01*
X7482992Y8506002D01*
X7474966Y8511590D01*
X7466075Y8515756D01*
X7456576Y8518296D01*
X7446772Y8519160D01*
X7436967Y8518296D01*
X7427468Y8515756D01*
X7418578Y8511590D01*
X7410551Y8506002D01*
X7403592Y8499043D01*
X7397953Y8490966D01*
X7393787Y8482076D01*
X7391247Y8472576D01*
X7390231Y8467699D01*
X7388199Y8464804D01*
X7385303Y8462772D01*
X7380427Y8461705D01*
X7370927Y8459165D01*
X7362037Y8454999D01*
X7353960Y8449411D01*
X7347000Y8442452D01*
X7341412Y8434374D01*
X7337247Y8425484D01*
X7334707Y8415985D01*
X7333640Y8411108D01*
X7331608Y8408212D01*
X7328712Y8406180D01*
X7323836Y8405164D01*
X7314336Y8402624D01*
X7305446Y8398459D01*
X7297420Y8392820D01*
X7290460Y8385860D01*
X7284821Y8377834D01*
X7280656Y8368944D01*
X7278116Y8359444D01*
X7277100Y8354568D01*
X7275068Y8351672D01*
X7272172Y8349640D01*
X7267295Y8348573D01*
X7257796Y8346033D01*
X7252766Y8343696D01*
X7248652Y8342731D01*
X7244486Y8343544D01*
X7241031Y8345982D01*
X7238847Y8349589D01*
X7237475Y8363559D01*
X7234936Y8373059D01*
X7230770Y8381949D01*
X7225182Y8390026D01*
X7218222Y8396986D01*
X7210145Y8402574D01*
X7201255Y8406739D01*
X7187336Y8410295D01*
X7184440Y8412327D01*
X7182408Y8415223D01*
X7181494Y8418626D01*
X7180783Y8426551D01*
X7178243Y8436051D01*
X7174077Y8444941D01*
X7168489Y8453018D01*
X7161530Y8459978D01*
X7153452Y8465566D01*
X7144562Y8469731D01*
X7135063Y8472271D01*
X7125309Y8473135D01*
X7115505Y8472271D01*
X7106005Y8469731D01*
X7097115Y8465566D01*
X7089038Y8459978D01*
X7082078Y8453018D01*
X7076490Y8444941D01*
X7072325Y8436051D01*
X7069785Y8426551D01*
X7068921Y8416747D01*
X7069785Y8406993D01*
X7072325Y8397494D01*
X7076490Y8388603D01*
X7082078Y8380526D01*
X7089038Y8373567D01*
X7097115Y8367979D01*
X7106005Y8363813D01*
X7119924Y8360257D01*
X7122820Y8358225D01*
X7124852Y8355330D01*
X7125766Y8351926D01*
X7126478Y8344001D01*
X7129018Y8334502D01*
X7133183Y8325612D01*
X7138771Y8317534D01*
X7145731Y8310575D01*
X7153808Y8304987D01*
X7162698Y8300821D01*
X7172198Y8298281D01*
X7182002Y8297418D01*
X7191756Y8298281D01*
X7201255Y8300821D01*
X7206284Y8303158D01*
X7210196Y8304123D01*
X7214158Y8303463D01*
X7217562Y8301329D01*
X7219899Y8298027D01*
X7220762Y8294116D01*
X7220762Y8291931D01*
X7220051Y8287969D01*
X7217816Y8284565D01*
X6896912Y7963662D01*
X6893610Y7961477D01*
X6889699Y7960715D01*
X6477812Y7960715D01*
X6473850Y7961528D01*
X6470497Y7963814D01*
X6468313Y7967218D01*
X6467652Y7971231D01*
X6468618Y7975142D01*
X6471666Y7981696D01*
X6474206Y7991195D01*
X6475069Y8000949D01*
X6474206Y8010753D01*
X6471666Y8020253D01*
X6467500Y8029143D01*
X6461861Y8037220D01*
X6454902Y8044180D01*
X6446875Y8049768D01*
X6437985Y8053933D01*
X6428486Y8056473D01*
X6418681Y8057337D01*
X6413500Y8056880D01*
X6409182Y8057489D01*
X6405473Y8059826D01*
X6350355Y8114893D01*
X6344107Y8119973D01*
X6337452Y8123377D01*
X6330086Y8125358D01*
X6324193Y8125815D01*
X5906008Y8125815D01*
X5898032Y8124952D01*
X5890920Y8122666D01*
X5884316Y8118856D01*
X5879846Y8114995D01*
X5772912Y8008112D01*
X5769356Y8005775D01*
X5765190Y8005114D01*
X5761126Y8006232D01*
X5757824Y8008874D01*
X5755894Y8012633D01*
X5755284Y8015071D01*
X5751118Y8023961D01*
X5744972Y8032750D01*
X5743600Y8035544D01*
X5743143Y8039557D01*
X5743600Y8042605D01*
X5744972Y8045399D01*
X5751118Y8054187D01*
X5755284Y8063077D01*
X5757824Y8072577D01*
X5758688Y8082330D01*
X5757824Y8092135D01*
X5755284Y8101634D01*
X5751118Y8110524D01*
X5745480Y8118602D01*
X5738520Y8125561D01*
X5730494Y8131149D01*
X5722721Y8134807D01*
X5719826Y8136839D01*
X5519877Y8336788D01*
X5517845Y8339683D01*
X5516930Y8343087D01*
X5516524Y8347811D01*
X5513984Y8357311D01*
X5509818Y8366201D01*
X5504180Y8374278D01*
X5497220Y8381238D01*
X5489194Y8386825D01*
X5481421Y8390483D01*
X5478526Y8392515D01*
X5354675Y8516366D01*
X5352491Y8519617D01*
X5351729Y8523528D01*
X5351729Y8965641D01*
X5352643Y8969908D01*
X5353761Y8972296D01*
X5356301Y8981795D01*
X5357164Y8991549D01*
X5356301Y9001353D01*
X5353761Y9010853D01*
X5349595Y9019743D01*
X5344007Y9027820D01*
X5337048Y9034780D01*
X5328970Y9040368D01*
X5320080Y9044533D01*
X5310581Y9047073D01*
X5300827Y9047937D01*
X5291023Y9047073D01*
X5281523Y9044533D01*
X5279136Y9043416D01*
X5274868Y9042501D01*
X4854244Y9042501D01*
X4850333Y9043263D01*
X4847031Y9045448D01*
X4844846Y9048750D01*
X4844084Y9052661D01*
X4844846Y9056522D01*
X4847031Y9059824D01*
X5021935Y9234678D01*
X5025186Y9236913D01*
X5029098Y9237675D01*
X5793638Y9237675D01*
X5797499Y9236913D01*
X5800801Y9234678D01*
X5803036Y9231376D01*
X5803798Y9227515D01*
X5803798Y9141917D01*
X5802833Y9137650D01*
X5801715Y9135262D01*
X5799175Y9125762D01*
X5798312Y9115958D01*
X5799175Y9106204D01*
X5801715Y9096705D01*
X5805881Y9087815D01*
X5811520Y9079738D01*
X5818479Y9072778D01*
X5826506Y9067190D01*
X5835396Y9063024D01*
X5844895Y9060484D01*
X5854700Y9059621D01*
X5864504Y9060484D01*
X5874004Y9063024D01*
X5882894Y9067190D01*
X5890920Y9072778D01*
X5897880Y9079738D01*
X5903518Y9087815D01*
X5907684Y9096705D01*
X5908395Y9099397D01*
X5910427Y9103258D01*
X5913882Y9105950D01*
X5918200Y9106916D01*
X5922518Y9105950D01*
X5925972Y9103258D01*
X5928004Y9099397D01*
X5928715Y9096705D01*
X5932881Y9087815D01*
X5938520Y9079738D01*
X5945479Y9072778D01*
X5953506Y9067190D01*
X5962396Y9063024D01*
X5971895Y9060484D01*
X5981700Y9059621D01*
X5991504Y9060484D01*
X6001004Y9063024D01*
X6009894Y9067190D01*
X6017920Y9072778D01*
X6024880Y9079738D01*
X6030518Y9087815D01*
X6034684Y9096705D01*
X6035395Y9099397D01*
X6037427Y9103258D01*
X6040882Y9105950D01*
X6045200Y9106916D01*
X6049518Y9105950D01*
X6052972Y9103258D01*
X6055004Y9099397D01*
X6055715Y9096705D01*
X6059881Y9087815D01*
X6065520Y9079738D01*
X6072479Y9072778D01*
X6080506Y9067190D01*
X6089396Y9063024D01*
X6098895Y9060484D01*
X6108700Y9059621D01*
X6118504Y9060484D01*
X6128004Y9063024D01*
X6136894Y9067190D01*
X6144920Y9072778D01*
X6151880Y9079738D01*
X6157518Y9087815D01*
X6161684Y9096705D01*
X6162395Y9099397D01*
X6164427Y9103258D01*
X6167882Y9105950D01*
X6172200Y9106916D01*
X6176518Y9105950D01*
X6179972Y9103258D01*
X6182004Y9099397D01*
X6182715Y9096705D01*
X6186881Y9087815D01*
X6192520Y9079738D01*
X6199479Y9072778D01*
X6207506Y9067190D01*
X6216396Y9063024D01*
X6225895Y9060484D01*
X6235700Y9059621D01*
X6245504Y9060484D01*
X6255004Y9063024D01*
X6263894Y9067190D01*
X6271920Y9072778D01*
X6278880Y9079738D01*
X6284518Y9087815D01*
X6288684Y9096705D01*
X6291224Y9106204D01*
X6292088Y9115958D01*
X6291224Y9125762D01*
X6288684Y9135262D01*
X6284518Y9144152D01*
X6278880Y9152229D01*
X6271920Y9159189D01*
X6263894Y9164777D01*
X6255004Y9168942D01*
X6245504Y9171482D01*
X6235700Y9172346D01*
X6225895Y9171482D01*
X6216396Y9168942D01*
X6207506Y9164777D01*
X6199479Y9159189D01*
X6192520Y9152229D01*
X6186881Y9144152D01*
X6182715Y9135262D01*
X6182004Y9132570D01*
X6179972Y9128709D01*
X6176518Y9126016D01*
X6172200Y9125051D01*
X6167882Y9126016D01*
X6164427Y9128709D01*
X6162395Y9132570D01*
X6161684Y9135262D01*
X6157518Y9144152D01*
X6151880Y9152229D01*
X6144920Y9159189D01*
X6136894Y9164777D01*
X6128004Y9168942D01*
X6118504Y9171482D01*
X6108700Y9172346D01*
X6098895Y9171482D01*
X6089396Y9168942D01*
X6080506Y9164777D01*
X6072479Y9159189D01*
X6065520Y9152229D01*
X6059881Y9144152D01*
X6055715Y9135262D01*
X6055004Y9132570D01*
X6052972Y9128709D01*
X6049518Y9126016D01*
X6045200Y9125051D01*
X6040882Y9126016D01*
X6037427Y9128709D01*
X6035395Y9132570D01*
X6034684Y9135262D01*
X6030518Y9144152D01*
X6024880Y9152229D01*
X6017920Y9159189D01*
X6009894Y9164777D01*
X6001004Y9168942D01*
X5991504Y9171482D01*
X5981700Y9172346D01*
X5971895Y9171482D01*
X5962396Y9168942D01*
X5953506Y9164777D01*
X5945479Y9159189D01*
X5938520Y9152229D01*
X5932881Y9144152D01*
X5928715Y9135262D01*
X5928004Y9132570D01*
X5925972Y9128709D01*
X5922518Y9126016D01*
X5918200Y9125051D01*
X5913882Y9126016D01*
X5910427Y9128709D01*
X5908395Y9132570D01*
X5906566Y9137650D01*
X5905601Y9141917D01*
X5905601Y9227515D01*
X5906363Y9231376D01*
X5908598Y9234678D01*
X5911900Y9236913D01*
X5915761Y9237675D01*
X6860438Y9237675D01*
X6864299Y9236913D01*
X6867601Y9234678D01*
X6869785Y9231376D01*
X6870598Y9227515D01*
X6870598Y9119108D01*
X6869785Y9115247D01*
X6867601Y9111945D01*
X6671309Y8915654D01*
X6668465Y8913622D01*
X6665010Y8912707D01*
X6660540Y8912352D01*
X6651040Y8909812D01*
X6642150Y8905646D01*
X6634124Y8900007D01*
X6627164Y8893048D01*
X6621525Y8885021D01*
X6617360Y8876131D01*
X6614820Y8866632D01*
X6613956Y8856827D01*
X6614820Y8847023D01*
X6617360Y8837523D01*
X6621525Y8828633D01*
X6627012Y8820810D01*
X6628434Y8817965D01*
X6628841Y8814816D01*
X6627622Y8716822D01*
X6626859Y8713063D01*
X6619138Y8701836D01*
X6614972Y8692946D01*
X6612432Y8683447D01*
X6611569Y8673642D01*
X6612432Y8663838D01*
X6614972Y8654338D01*
X6617665Y8648547D01*
X6618630Y8644585D01*
X6617970Y8640622D01*
X6615785Y8637168D01*
X6612432Y8634882D01*
X6608470Y8634069D01*
X6546189Y8634069D01*
X6537706Y8633256D01*
X6530035Y8630920D01*
X6522974Y8627160D01*
X6516420Y8621776D01*
X6473037Y8578342D01*
X6467602Y8571788D01*
X6463842Y8564727D01*
X6461506Y8557056D01*
X6460693Y8548573D01*
X6460693Y8473998D01*
X6461506Y8465515D01*
X6463842Y8457844D01*
X6467602Y8450783D01*
X6473037Y8444179D01*
X6516420Y8400796D01*
X6522974Y8395411D01*
X6530035Y8391652D01*
X6537248Y8389467D01*
X6540703Y8387638D01*
X6543192Y8384641D01*
X6544411Y8380984D01*
X6544106Y8377072D01*
X6543243Y8373872D01*
X6542379Y8364067D01*
X6543243Y8354263D01*
X6545783Y8344763D01*
X6549948Y8335873D01*
X6555587Y8327847D01*
X6562547Y8320887D01*
X6570573Y8315248D01*
X6579463Y8311083D01*
X6588963Y8308543D01*
X6598767Y8307679D01*
X6608572Y8308543D01*
X6618071Y8311083D01*
X6623964Y8313826D01*
X6627926Y8314791D01*
X6631990Y8314080D01*
X6635445Y8311845D01*
X6637680Y8308390D01*
X6638391Y8304326D01*
X6637426Y8300364D01*
X6634683Y8294471D01*
X6632143Y8284972D01*
X6631279Y8275167D01*
X6632143Y8265363D01*
X6634683Y8255863D01*
X6638848Y8246973D01*
X6644487Y8238947D01*
X6651447Y8231987D01*
X6659473Y8226348D01*
X6668363Y8222183D01*
X6677863Y8219643D01*
X6687667Y8218779D01*
X6697472Y8219643D01*
X6706971Y8222183D01*
X6715861Y8226348D01*
X6723888Y8231987D01*
X6730847Y8238947D01*
X6736486Y8246973D01*
X6740652Y8255914D01*
X6742582Y8259622D01*
X6745884Y8262213D01*
X6749948Y8263280D01*
X6754063Y8262620D01*
X6757619Y8260334D01*
X6774180Y8243722D01*
X6776212Y8240826D01*
X6777126Y8237423D01*
X6777532Y8232952D01*
X6780072Y8223453D01*
X6784238Y8214563D01*
X6789826Y8206486D01*
X6796786Y8199526D01*
X6804863Y8193938D01*
X6813753Y8189772D01*
X6823252Y8187232D01*
X6833057Y8186369D01*
X6842810Y8187232D01*
X6852310Y8189772D01*
X6858203Y8192516D01*
X6862216Y8193481D01*
X6866280Y8192770D01*
X6869684Y8190484D01*
X6871970Y8187080D01*
X6872681Y8183016D01*
X6871716Y8179003D01*
X6868972Y8173110D01*
X6866432Y8163610D01*
X6865569Y8153806D01*
X6866432Y8144052D01*
X6868972Y8134553D01*
X6873138Y8125663D01*
X6878726Y8117586D01*
X6885686Y8110626D01*
X6893763Y8105038D01*
X6902653Y8100872D01*
X6912152Y8098332D01*
X6921957Y8097469D01*
X6931710Y8098332D01*
X6941210Y8100872D01*
X6950100Y8105038D01*
X6958177Y8110626D01*
X6965137Y8117586D01*
X6970725Y8125663D01*
X6974890Y8134553D01*
X6977430Y8144052D01*
X6978294Y8153806D01*
X6977481Y8163001D01*
X6978091Y8167370D01*
X6980428Y8171078D01*
X6984136Y8173415D01*
X6988505Y8174024D01*
X6997700Y8173212D01*
X7007453Y8174075D01*
X7016953Y8176615D01*
X7025843Y8180781D01*
X7033920Y8186369D01*
X7040880Y8193328D01*
X7046468Y8201406D01*
X7050633Y8210296D01*
X7053173Y8219795D01*
X7054037Y8229549D01*
X7053173Y8239353D01*
X7050633Y8248853D01*
X7046468Y8257743D01*
X7040880Y8265820D01*
X7033920Y8272780D01*
X7025843Y8278368D01*
X7016953Y8282533D01*
X7007453Y8285073D01*
X6997700Y8285937D01*
X6987895Y8285073D01*
X6973062Y8280958D01*
X6969099Y8281619D01*
X6965645Y8283803D01*
X6963359Y8287105D01*
X6962546Y8291068D01*
X6962394Y8343493D01*
X6961581Y8351875D01*
X6959244Y8359546D01*
X6955485Y8366607D01*
X6950049Y8373160D01*
X6815074Y8508187D01*
X6812889Y8511438D01*
X6812127Y8515350D01*
X6812889Y8519210D01*
X6815074Y8522512D01*
X6823049Y8530488D01*
X6828485Y8537092D01*
X6832244Y8544153D01*
X6834581Y8551824D01*
X6835394Y8560257D01*
X6835394Y8627516D01*
X6836156Y8631428D01*
X6838391Y8634730D01*
X6885940Y8682278D01*
X6889394Y8684564D01*
X6893407Y8685276D01*
X6897420Y8684310D01*
X6900722Y8681872D01*
X6902754Y8678316D01*
X6904075Y8664295D01*
X6906615Y8654796D01*
X6910781Y8645906D01*
X6916420Y8637828D01*
X6923379Y8630869D01*
X6930948Y8625586D01*
X6933692Y8622741D01*
X6935114Y8619032D01*
X6935012Y8615070D01*
X6933438Y8611463D01*
X6931558Y8608771D01*
X6927392Y8599881D01*
X6924852Y8590381D01*
X6923989Y8580577D01*
X6924852Y8570772D01*
X6927392Y8561273D01*
X6931558Y8552383D01*
X6937197Y8544356D01*
X6944156Y8537397D01*
X6952183Y8531758D01*
X6961073Y8527592D01*
X6970572Y8525052D01*
X6980377Y8524189D01*
X6990181Y8525052D01*
X6999681Y8527592D01*
X7008571Y8531758D01*
X7016597Y8537397D01*
X7023557Y8544356D01*
X7029196Y8552383D01*
X7033361Y8561273D01*
X7035901Y8570772D01*
X7036765Y8580577D01*
X7035901Y8590381D01*
X7033361Y8599881D01*
X7029196Y8608771D01*
X7023557Y8616797D01*
X7016597Y8623757D01*
X7009028Y8629040D01*
X7006285Y8631936D01*
X7004862Y8635644D01*
X7004964Y8639606D01*
X7006539Y8643213D01*
X7008418Y8645906D01*
X7012584Y8654796D01*
X7015124Y8664295D01*
X7015988Y8673998D01*
X7017156Y8677960D01*
X7019798Y8681110D01*
X7023455Y8682939D01*
X7029653Y8684615D01*
X7038543Y8688781D01*
X7046620Y8694369D01*
X7053580Y8701328D01*
X7059168Y8709406D01*
X7063333Y8718296D01*
X7065873Y8727795D01*
X7066737Y8737498D01*
X7067905Y8741460D01*
X7070547Y8744610D01*
X7074204Y8746439D01*
X7080453Y8748115D01*
X7089343Y8752281D01*
X7097420Y8757869D01*
X7104380Y8764828D01*
X7109968Y8772906D01*
X7114133Y8781796D01*
X7116673Y8791295D01*
X7117537Y8801049D01*
X7116673Y8810853D01*
X7114133Y8820353D01*
X7109968Y8829243D01*
X7104380Y8837320D01*
X7097420Y8844280D01*
X7089343Y8849868D01*
X7075728Y8856218D01*
X7073087Y8859520D01*
X7071969Y8863584D01*
X7072630Y8867749D01*
X7074966Y8871305D01*
X7177989Y8974378D01*
X7181443Y8976614D01*
X7185507Y8977325D01*
X7189470Y8976360D01*
X7192772Y8973921D01*
X7194854Y8970365D01*
X7196175Y8956395D01*
X7198715Y8946896D01*
X7202881Y8938006D01*
X7208469Y8929928D01*
X7215428Y8922969D01*
X7223506Y8917381D01*
X7232396Y8913215D01*
X7241895Y8910675D01*
X7251700Y8909812D01*
X7260590Y8910574D01*
X7264552Y8910167D01*
X7268006Y8908237D01*
X7270496Y8905138D01*
X7271613Y8901328D01*
X7272375Y8892895D01*
X7274915Y8883396D01*
X7279081Y8874506D01*
X7284669Y8866428D01*
X7291628Y8859469D01*
X7299706Y8853881D01*
X7308596Y8849715D01*
X7318095Y8847175D01*
X7327900Y8846312D01*
X7337653Y8847175D01*
X7347153Y8849715D01*
X7356043Y8853881D01*
X7364120Y8859469D01*
X7371080Y8866428D01*
X7376668Y8874506D01*
X7380833Y8883396D01*
X7383373Y8892895D01*
X7384237Y8902649D01*
X7383373Y8912453D01*
X7380833Y8921953D01*
X7376668Y8930843D01*
X7371080Y8938920D01*
X7364120Y8945880D01*
X7356043Y8951468D01*
X7347153Y8955633D01*
X7337653Y8958173D01*
X7327900Y8959037D01*
X7318959Y8958275D01*
X7314996Y8958681D01*
X7311542Y8960612D01*
X7309053Y8963710D01*
X7307935Y8967520D01*
X7307173Y8975953D01*
X7304633Y8985453D01*
X7300468Y8994343D01*
X7294880Y9002420D01*
X7287920Y9009380D01*
X7279843Y9014968D01*
X7270953Y9019133D01*
X7261453Y9021673D01*
X7247483Y9022994D01*
X7243927Y9025077D01*
X7241489Y9028379D01*
X7240524Y9032341D01*
X7241235Y9036405D01*
X7243470Y9039860D01*
X7303770Y9100108D01*
X7307072Y9102293D01*
X7310932Y9103055D01*
X7481570Y9103055D01*
X7485481Y9102293D01*
X7488783Y9100108D01*
X7491526Y9097365D01*
X7499553Y9091726D01*
X7508443Y9087561D01*
X7517942Y9085021D01*
X7527747Y9084157D01*
X7537551Y9085021D01*
X7547051Y9087561D01*
X7555941Y9091726D01*
X7558582Y9093606D01*
X7562646Y9095282D01*
X7567066Y9095079D01*
X7570978Y9093047D01*
X7573619Y9089542D01*
X7574584Y9085275D01*
X7573619Y9080957D01*
X7569250Y9071610D01*
X7566710Y9062110D01*
X7565847Y9052306D01*
X7566710Y9042552D01*
X7569250Y9033052D01*
X7573416Y9024162D01*
X7579512Y9015476D01*
X7580833Y9012682D01*
X7581341Y9009634D01*
X7581341Y8738768D01*
X7580630Y8735161D01*
X7578699Y8732012D01*
X7575803Y8729726D01*
X7572248Y8728710D01*
X7568539Y8728964D01*
X7566253Y8729573D01*
X7556500Y8730437D01*
X7546695Y8729573D01*
X7537196Y8727033D01*
X7528306Y8722868D01*
X7520228Y8717280D01*
X7513269Y8710320D01*
X7507681Y8702243D01*
X7503515Y8693353D01*
X7500975Y8683853D01*
X7500112Y8674049D01*
X7500975Y8664295D01*
X7503515Y8654796D01*
X7507681Y8645906D01*
X7513269Y8637828D01*
X7520228Y8630869D01*
X7528306Y8625281D01*
X7537196Y8621115D01*
X7546695Y8618575D01*
X7556500Y8617712D01*
X7566253Y8618575D01*
X7568539Y8619185D01*
X7572248Y8619439D01*
X7575803Y8618423D01*
X7578699Y8616137D01*
X7580630Y8612987D01*
X7581341Y8609380D01*
X7581341Y8400745D01*
X7582153Y8392261D01*
X7584490Y8384590D01*
X7588250Y8377529D01*
X7593685Y8370976D01*
X7607350Y8357260D01*
X7609586Y8353907D01*
X7610348Y8349945D01*
X7609484Y8346033D01*
X7607198Y8342731D01*
X7603744Y8340598D01*
X7599781Y8339937D01*
X7595870Y8340852D01*
X7587284Y8344865D01*
X7577785Y8347405D01*
X7568031Y8348268D01*
X7558227Y8347405D01*
X7548727Y8344865D01*
X7539837Y8340699D01*
X7531760Y8335111D01*
X7524800Y8328152D01*
X7519212Y8320074D01*
X7515047Y8311184D01*
X7512507Y8301685D01*
X7511440Y8296808D01*
X7509408Y8293912D01*
X7506512Y8291880D01*
X7501636Y8290814D01*
X7492136Y8288274D01*
X7483246Y8284108D01*
X7475220Y8278520D01*
X7468260Y8271560D01*
X7462621Y8263483D01*
X7458456Y8254593D01*
X7455916Y8245094D01*
X7454900Y8240268D01*
X7452868Y8237372D01*
X7449972Y8235340D01*
X7445095Y8234273D01*
X7435596Y8231733D01*
X7426706Y8227568D01*
X7418628Y8221980D01*
X7411669Y8215020D01*
X7406081Y8206943D01*
X7401915Y8198053D01*
X7399375Y8188553D01*
X7398512Y8178749D01*
X7399375Y8168995D01*
X7401915Y8159496D01*
X7406081Y8150606D01*
X7411669Y8142528D01*
X7413802Y8140446D01*
X7416190Y8136737D01*
X7416749Y8132368D01*
X7415428Y8128152D01*
X7412431Y8124901D01*
X7405928Y8120380D01*
X7398969Y8113420D01*
X7393381Y8105343D01*
X7389215Y8096453D01*
X7386675Y8086953D01*
X7385812Y8077149D01*
X7386675Y8067395D01*
X7389215Y8057896D01*
X7393381Y8049006D01*
X7398969Y8040928D01*
X7405928Y8033969D01*
X7414006Y8028381D01*
X7422896Y8024215D01*
X7432395Y8021675D01*
X7442200Y8020812D01*
X7451953Y8021675D01*
X7461453Y8024215D01*
X7470343Y8028381D01*
X7478420Y8033969D01*
X7485380Y8040928D01*
X7490968Y8049006D01*
X7495133Y8057896D01*
X7497673Y8067395D01*
X7498080Y8071866D01*
X7498994Y8075269D01*
X7501026Y8078165D01*
X7648600Y8225739D01*
X7652156Y8228025D01*
X7656423Y8228685D01*
X7659979Y8227669D01*
X7658963Y8231225D01*
X7659624Y8235492D01*
X7661909Y8239048D01*
X7688021Y8265210D01*
X7691729Y8267547D01*
X7696098Y8268106D01*
X7698181Y8267953D01*
X7707934Y8268817D01*
X7717434Y8271357D01*
X7726324Y8275523D01*
X7735011Y8281568D01*
X7737805Y8282940D01*
X7740853Y8283397D01*
X7808925Y8283397D01*
X7812786Y8282635D01*
X7816088Y8280450D01*
X7906308Y8190230D01*
X7908493Y8186928D01*
X7909255Y8183016D01*
X7909255Y8061553D01*
X7908798Y8058505D01*
X7907426Y8055711D01*
X7901381Y8047024D01*
X7897215Y8038134D01*
X7894675Y8028635D01*
X7893812Y8018830D01*
X7894675Y8009077D01*
X7897215Y7999577D01*
X7901381Y7990687D01*
X7906969Y7982610D01*
X7913928Y7975650D01*
X7922006Y7970062D01*
X7930896Y7965897D01*
X7940395Y7963357D01*
X7950200Y7962493D01*
X7959953Y7963357D01*
X7969453Y7965897D01*
X7978343Y7970062D01*
X7986420Y7975650D01*
X7993380Y7982610D01*
X7998968Y7990687D01*
X8003133Y7999577D01*
X8005673Y8009077D01*
X8006537Y8018830D01*
X8005673Y8028635D01*
X8003133Y8038134D01*
X7998968Y8047024D01*
X7992922Y8055711D01*
X7991551Y8058454D01*
X7991094Y8061502D01*
X7991094Y8203692D01*
X7990281Y8212175D01*
X7987944Y8219795D01*
X7984134Y8226907D01*
X7978749Y8233460D01*
X7859318Y8352891D01*
X7852765Y8358276D01*
X7845704Y8362086D01*
X7838033Y8364372D01*
X7829550Y8365236D01*
X7740853Y8365236D01*
X7737805Y8365693D01*
X7735011Y8367064D01*
X7726324Y8373109D01*
X7717434Y8377275D01*
X7707934Y8379815D01*
X7703464Y8380222D01*
X7700060Y8381136D01*
X7697165Y8383168D01*
X7666126Y8414207D01*
X7663942Y8417509D01*
X7663129Y8421370D01*
X7663129Y8622538D01*
X7663891Y8626348D01*
X7666024Y8629599D01*
X7669225Y8631834D01*
X7673035Y8632647D01*
X7676896Y8632037D01*
X7680198Y8629954D01*
X7682534Y8626805D01*
X7685481Y8620506D01*
X7691069Y8612428D01*
X7698028Y8605469D01*
X7706106Y8599881D01*
X7714996Y8595715D01*
X7724495Y8593175D01*
X7734300Y8592312D01*
X7744053Y8593175D01*
X7745882Y8593632D01*
X7749692Y8593937D01*
X7753350Y8592769D01*
X7756296Y8590381D01*
X7758175Y8587028D01*
X7758684Y8583269D01*
X7754975Y8569553D01*
X7754112Y8559749D01*
X7754975Y8549995D01*
X7757515Y8540496D01*
X7761681Y8531606D01*
X7767269Y8523528D01*
X7774228Y8516569D01*
X7782306Y8510981D01*
X7791196Y8506815D01*
X7800695Y8504275D01*
X7810500Y8503412D01*
X7820253Y8504275D01*
X7829753Y8506815D01*
X7838643Y8510981D01*
X7846720Y8516569D01*
X7853680Y8523528D01*
X7859268Y8531606D01*
X7863433Y8540496D01*
X7865973Y8549995D01*
X7866837Y8559749D01*
X7865973Y8569553D01*
X7863433Y8579053D01*
X7859268Y8587943D01*
X7853680Y8596020D01*
X7846720Y8602980D01*
X7838643Y8608568D01*
X7830769Y8612276D01*
X7827264Y8614968D01*
X7825231Y8618829D01*
X7825028Y8623249D01*
X7826705Y8627313D01*
X7829956Y8630259D01*
X7834172Y8631580D01*
X7840675Y8632190D01*
X7850174Y8634730D01*
X7859064Y8638895D01*
X7867142Y8644483D01*
X7871307Y8648700D01*
X7874609Y8650884D01*
X7878470Y8651646D01*
X7900009Y8651646D01*
X7903921Y8650884D01*
X7907172Y8648700D01*
X7909407Y8645398D01*
X7910169Y8641486D01*
X7909407Y8637625D01*
X7901381Y8626043D01*
X7897215Y8617153D01*
X7894675Y8607653D01*
X7893812Y8597849D01*
X7894675Y8588095D01*
X7897215Y8578596D01*
X7901381Y8569706D01*
X7906969Y8561628D01*
X7910220Y8557310D01*
X7910982Y8553399D01*
X7910220Y8549538D01*
X7906969Y8545220D01*
X7901381Y8537143D01*
X7897215Y8528253D01*
X7894675Y8518753D01*
X7893812Y8508949D01*
X7894675Y8499195D01*
X7897215Y8489696D01*
X7901381Y8480806D01*
X7906969Y8472728D01*
X7914386Y8465362D01*
X7916570Y8462060D01*
X7917332Y8458149D01*
X7916570Y8454288D01*
X7914386Y8450986D01*
X7906969Y8443620D01*
X7901381Y8435543D01*
X7897215Y8426653D01*
X7894675Y8417153D01*
X7893812Y8407349D01*
X7894675Y8397595D01*
X7897215Y8388096D01*
X7901381Y8379206D01*
X7906969Y8371128D01*
X7913928Y8364169D01*
X7922006Y8358581D01*
X7930896Y8354415D01*
X7940395Y8351875D01*
X7950200Y8351012D01*
X7959953Y8351875D01*
X7969453Y8354415D01*
X7978343Y8358581D01*
X7986420Y8364169D01*
X7993380Y8371128D01*
X7998968Y8379206D01*
X8003133Y8388096D01*
X8005673Y8397595D01*
X8006537Y8407349D01*
X8005673Y8417153D01*
X8003133Y8426653D01*
X7998968Y8435543D01*
X7993380Y8443620D01*
X7985963Y8450986D01*
X7983778Y8454288D01*
X7983016Y8458149D01*
X7983778Y8462060D01*
X7985963Y8465362D01*
X7993380Y8472728D01*
X7998968Y8480806D01*
X8003133Y8489696D01*
X8005673Y8499195D01*
X8006537Y8508949D01*
X8005673Y8518753D01*
X8003133Y8528253D01*
X7998968Y8537143D01*
X7993380Y8545220D01*
X7990128Y8549538D01*
X7989366Y8553399D01*
X7990128Y8557310D01*
X7993380Y8561628D01*
X7998968Y8569706D01*
X8003133Y8578596D01*
X8005114Y8585962D01*
X8007045Y8589721D01*
X8010296Y8592362D01*
X8014411Y8593480D01*
X8018576Y8592820D01*
X8022132Y8590534D01*
X8132724Y8479942D01*
X8138972Y8474862D01*
X8145627Y8471458D01*
X8152993Y8469477D01*
X8158886Y8469020D01*
X8309102Y8469020D01*
X8317077Y8469884D01*
X8324189Y8472170D01*
X8330793Y8475980D01*
X8335264Y8479840D01*
X8397595Y8542172D01*
X8402675Y8548420D01*
X8406079Y8555075D01*
X8408060Y8562441D01*
X8408517Y8568334D01*
X8408517Y8777732D01*
X8407654Y8785707D01*
X8405368Y8792819D01*
X8401558Y8799423D01*
X8397697Y8803894D01*
X8342985Y8858656D01*
X8340750Y8861958D01*
X8339988Y8865870D01*
X8340242Y8948572D01*
X8341106Y8952636D01*
X8343544Y8955989D01*
X8347100Y8958122D01*
X8351266Y8958630D01*
X8355228Y8957462D01*
X8358428Y8954770D01*
X8360257Y8951010D01*
X8361425Y8946388D01*
X8365439Y8937193D01*
X8370925Y8928760D01*
X8377732Y8921394D01*
X8385708Y8915196D01*
X8394547Y8910421D01*
X8404047Y8907170D01*
X8413953Y8905494D01*
X8424011Y8905494D01*
X8433917Y8907170D01*
X8443417Y8910421D01*
X8452256Y8915196D01*
X8460232Y8921394D01*
X8467039Y8928760D01*
X8472525Y8937193D01*
X8476538Y8946388D01*
X8479028Y8956141D01*
X8479840Y8966149D01*
X8479028Y8976207D01*
X8476538Y8985961D01*
X8472525Y8995156D01*
X8467039Y9003588D01*
X8460232Y9010954D01*
X8452256Y9017152D01*
X8443417Y9021927D01*
X8433917Y9025178D01*
X8424011Y9026855D01*
X8413953Y9026855D01*
X8404047Y9025178D01*
X8394547Y9021927D01*
X8385708Y9017152D01*
X8377732Y9010954D01*
X8370925Y9003588D01*
X8365439Y8995156D01*
X8361425Y8985961D01*
X8360359Y8981744D01*
X8358530Y8977985D01*
X8355330Y8975293D01*
X8351316Y8974124D01*
X8347202Y8974632D01*
X8343595Y8976766D01*
X8341156Y8980170D01*
X8340344Y8984284D01*
X8341410Y9354972D01*
X8342122Y9358630D01*
X8344103Y9361779D01*
X8347100Y9364065D01*
X8358733Y9369806D01*
X8370265Y9377476D01*
X8380679Y9386620D01*
X8389772Y9397034D01*
X8397494Y9408515D01*
X8403590Y9420961D01*
X8408060Y9434068D01*
X8410752Y9447682D01*
X8411667Y9461500D01*
X8410752Y9475317D01*
X8408060Y9488881D01*
X8403590Y9501987D01*
X8397494Y9514433D01*
X8389772Y9525965D01*
X8380679Y9536379D01*
X8370265Y9545472D01*
X8358733Y9553194D01*
X8355431Y9554819D01*
X8351926Y9557664D01*
X8350046Y9561728D01*
X8350046Y9566198D01*
X8352028Y9570262D01*
X8355533Y9573056D01*
X8359952Y9574072D01*
X8505647Y9574072D01*
X8510016Y9573056D01*
X8513572Y9570262D01*
X8515502Y9566198D01*
X8515553Y9561728D01*
X8513622Y9557664D01*
X8510117Y9554819D01*
X8506866Y9553194D01*
X8495334Y9545472D01*
X8484920Y9536379D01*
X8475776Y9525965D01*
X8468106Y9514433D01*
X8461959Y9501987D01*
X8457488Y9488881D01*
X8454796Y9475317D01*
X8453882Y9461500D01*
X8454796Y9447682D01*
X8457488Y9434068D01*
X8461959Y9420961D01*
X8468106Y9408515D01*
X8475776Y9397034D01*
X8484920Y9386620D01*
X8495334Y9377476D01*
X8506866Y9369806D01*
X8519261Y9363659D01*
X8532368Y9359188D01*
X8545982Y9356496D01*
X8559800Y9355582D01*
X8573617Y9356496D01*
X8587181Y9359188D01*
X8600287Y9363659D01*
X8612733Y9369806D01*
X8624265Y9377476D01*
X8634679Y9386620D01*
X8643772Y9397034D01*
X8651494Y9408515D01*
X8657590Y9420961D01*
X8662060Y9434068D01*
X8664752Y9447682D01*
X8665667Y9461500D01*
X8664752Y9475317D01*
X8662060Y9488881D01*
X8657590Y9501987D01*
X8651494Y9514433D01*
X8643772Y9525965D01*
X8634679Y9536379D01*
X8624265Y9545472D01*
X8612733Y9553194D01*
X8609431Y9554819D01*
X8605926Y9557664D01*
X8604046Y9561728D01*
X8604046Y9566198D01*
X8606028Y9570262D01*
X8609533Y9573056D01*
X8613952Y9574072D01*
X8702040Y9574072D01*
X8705900Y9573310D01*
X8709202Y9571075D01*
X8711387Y9567824D01*
X8712200Y9563912D01*
X8712200Y9492589D01*
X8708796Y9475317D01*
X8707882Y9461500D01*
X8708796Y9447682D01*
X8712200Y9430359D01*
X8712200Y9238589D01*
X8708796Y9221317D01*
X8707882Y9207500D01*
X8708796Y9193682D01*
X8712200Y9176359D01*
X8712200Y8984589D01*
X8708796Y8967317D01*
X8707882Y8953500D01*
X8708796Y8939682D01*
X8712200Y8922359D01*
X8712200Y8730589D01*
X8708796Y8713317D01*
X8707882Y8699500D01*
X8708796Y8685682D01*
X8712200Y8668359D01*
X8712200Y8476589D01*
X8708796Y8459317D01*
X8707882Y8445500D01*
X8708796Y8431682D01*
X8712200Y8414359D01*
X8712200Y8222589D01*
X8708796Y8205317D01*
X8707882Y8191500D01*
X8708796Y8177682D01*
X8712200Y8160359D01*
X8712200Y7968589D01*
X8708796Y7951317D01*
X8707882Y7937500D01*
X8708796Y7923682D01*
X8712200Y7906359D01*
X8712200Y7714589D01*
X8708796Y7697317D01*
X8707882Y7683500D01*
X8708796Y7669682D01*
X8712200Y7652359D01*
X8712200Y7640777D01*
X8711539Y7637221D01*
X8709660Y7634122D01*
X8706815Y7631836D01*
X8703360Y7630718D01*
X8699754Y7630871D01*
X8693607Y7632293D01*
X8684514Y7632700D01*
X8675471Y7631480D01*
X8670290Y7629804D01*
X8665870Y7629398D01*
X8661654Y7630922D01*
X8658555Y7634071D01*
X8657082Y7638288D01*
X8657539Y7642707D01*
X8662060Y7656068D01*
X8664752Y7669682D01*
X8665667Y7683500D01*
X8664752Y7697317D01*
X8662060Y7710881D01*
X8657590Y7723987D01*
X8651494Y7736433D01*
X8643772Y7747965D01*
X8634679Y7758379D01*
X8624265Y7767472D01*
X8612733Y7775194D01*
X8600287Y7781290D01*
X8587181Y7785760D01*
X8573617Y7788452D01*
X8559800Y7789367D01*
X8545982Y7788452D01*
X8532368Y7785760D01*
X8519261Y7781290D01*
X8506866Y7775194D01*
X8495334Y7767472D01*
X8484920Y7758379D01*
X8475776Y7747965D01*
X8468106Y7736433D01*
X8461959Y7723987D01*
X8457488Y7710881D01*
X8454796Y7697317D01*
X8453882Y7683500D01*
X8454796Y7669682D01*
X8457488Y7656068D01*
X8461959Y7642910D01*
X8462518Y7639100D01*
X8461552Y7635392D01*
X8459317Y7632242D01*
X8456066Y7630210D01*
X8452256Y7629499D01*
X8439607Y7632293D01*
X8430514Y7632700D01*
X8421471Y7631480D01*
X8416290Y7629804D01*
X8411870Y7629398D01*
X8407654Y7630922D01*
X8404555Y7634071D01*
X8403082Y7638288D01*
X8403539Y7642707D01*
X8408060Y7656068D01*
X8410752Y7669682D01*
X8411667Y7683500D01*
X8410752Y7697317D01*
X8408060Y7710881D01*
X8403590Y7723987D01*
X8397494Y7736433D01*
X8389772Y7747965D01*
X8380679Y7758379D01*
X8370265Y7767472D01*
X8358733Y7775194D01*
X8346287Y7781290D01*
X8333181Y7785760D01*
X8319617Y7788452D01*
X8305800Y7789367D01*
X8291982Y7788452D01*
X8278368Y7785760D01*
X8265261Y7781290D01*
X8252866Y7775194D01*
X8241334Y7767472D01*
X8230920Y7758379D01*
X8221776Y7747965D01*
X8214106Y7736433D01*
X8207959Y7723987D01*
X8203488Y7710881D01*
X8200796Y7697317D01*
X8199881Y7683500D01*
X8200796Y7669682D01*
X8203488Y7656068D01*
X8207959Y7642910D01*
X8208518Y7639100D01*
X8207552Y7635392D01*
X8205317Y7632293D01*
X8202066Y7630210D01*
X8198307Y7629499D01*
X8185607Y7632293D01*
X8176514Y7632700D01*
X8167471Y7631480D01*
X8162290Y7629804D01*
X8157870Y7629398D01*
X8153653Y7630922D01*
X8150555Y7634071D01*
X8149081Y7638288D01*
X8149539Y7642707D01*
X8154060Y7656068D01*
X8156752Y7669682D01*
X8157667Y7683500D01*
X8156752Y7697317D01*
X8154060Y7710881D01*
X8149590Y7723987D01*
X8143494Y7736433D01*
X8135772Y7747965D01*
X8126679Y7758379D01*
X8116265Y7767472D01*
X8104733Y7775194D01*
X8092287Y7781290D01*
X8079181Y7785760D01*
X8065617Y7788452D01*
X8051800Y7789367D01*
X8037982Y7788452D01*
X8024368Y7785760D01*
X8011261Y7781290D01*
X7998866Y7775194D01*
X7987334Y7767472D01*
X7976920Y7758379D01*
X7967776Y7747965D01*
X7960106Y7736433D01*
X7953959Y7723987D01*
X7949488Y7710881D01*
X7946796Y7697317D01*
X7945881Y7683500D01*
X7946796Y7669682D01*
X7949488Y7656068D01*
X7953959Y7642910D01*
X7954518Y7639100D01*
X7953552Y7635392D01*
X7951317Y7632293D01*
X7948066Y7630210D01*
X7944307Y7629499D01*
X7931607Y7632293D01*
X7922514Y7632700D01*
X7913471Y7631480D01*
X7908290Y7629804D01*
X7903870Y7629398D01*
X7899653Y7630922D01*
X7896555Y7634071D01*
X7895081Y7638288D01*
X7895539Y7642707D01*
X7900060Y7656068D01*
X7902752Y7669682D01*
X7903667Y7683500D01*
X7902752Y7697317D01*
X7900060Y7710881D01*
X7895590Y7723987D01*
X7889494Y7736433D01*
X7881772Y7747965D01*
X7872679Y7758379D01*
X7862265Y7767472D01*
X7850733Y7775194D01*
X7838287Y7781290D01*
X7825181Y7785760D01*
X7811617Y7788452D01*
X7797800Y7789367D01*
X7783982Y7788452D01*
X7770368Y7785760D01*
X7757261Y7781290D01*
X7744866Y7775194D01*
X7733334Y7767472D01*
X7722920Y7758379D01*
X7713776Y7747965D01*
X7706106Y7736433D01*
X7699959Y7723987D01*
X7695488Y7710881D01*
X7692796Y7697317D01*
X7691881Y7683500D01*
X7692796Y7669682D01*
X7695488Y7656068D01*
X7699959Y7642910D01*
X7700518Y7639100D01*
X7699552Y7635392D01*
X7697317Y7632293D01*
X7694066Y7630210D01*
X7690307Y7629499D01*
X7677607Y7632293D01*
X7668514Y7632700D01*
X7659471Y7631480D01*
X7654290Y7629804D01*
X7649870Y7629398D01*
X7645653Y7630922D01*
X7642555Y7634071D01*
X7641081Y7638288D01*
X7641539Y7642707D01*
X7646060Y7656068D01*
X7648752Y7669682D01*
X7649667Y7683500D01*
X7648752Y7697317D01*
X7646060Y7710881D01*
X7641590Y7723987D01*
X7635494Y7736433D01*
X7627772Y7747965D01*
X7618679Y7758379D01*
X7608265Y7767472D01*
X7596733Y7775194D01*
X7584287Y7781290D01*
X7571181Y7785760D01*
X7557617Y7788452D01*
X7543800Y7789367D01*
X7529982Y7788452D01*
X7516368Y7785760D01*
X7503261Y7781290D01*
X7490866Y7775194D01*
X7479334Y7767472D01*
X7468920Y7758379D01*
X7459776Y7747965D01*
X7452106Y7736433D01*
X7445959Y7723987D01*
X7441488Y7710881D01*
X7438796Y7697317D01*
X7437881Y7683500D01*
X7438796Y7669682D01*
X7441488Y7656068D01*
X7445959Y7642910D01*
X7446518Y7639100D01*
X7445552Y7635392D01*
X7443317Y7632293D01*
X7440066Y7630210D01*
X7436307Y7629499D01*
X7423607Y7632293D01*
X7414514Y7632700D01*
X7405471Y7631480D01*
X7400290Y7629804D01*
X7395870Y7629398D01*
X7391653Y7630922D01*
X7388555Y7634071D01*
X7387081Y7638288D01*
X7387539Y7642707D01*
X7392060Y7656068D01*
X7394752Y7669682D01*
X7395667Y7683500D01*
X7394752Y7697317D01*
X7392060Y7710881D01*
X7387590Y7723987D01*
X7381494Y7736433D01*
X7373772Y7747965D01*
X7364679Y7758379D01*
X7354265Y7767472D01*
X7342733Y7775194D01*
X7330287Y7781290D01*
X7317181Y7785760D01*
X7303617Y7788452D01*
X7289800Y7789367D01*
X7275982Y7788452D01*
X7262368Y7785760D01*
X7249261Y7781290D01*
X7236866Y7775194D01*
X7225334Y7767472D01*
X7214920Y7758379D01*
X7205776Y7747965D01*
X7198106Y7736433D01*
X7191959Y7723987D01*
X7187488Y7710881D01*
X7184796Y7697317D01*
X7183881Y7683500D01*
X7184796Y7669682D01*
X7187488Y7656068D01*
X7191959Y7642910D01*
X7192518Y7639100D01*
X7191552Y7635392D01*
X7189317Y7632293D01*
X7186066Y7630210D01*
X7182307Y7629499D01*
X7169607Y7632293D01*
X7160514Y7632700D01*
X7151471Y7631480D01*
X7146290Y7629804D01*
X7141870Y7629398D01*
X7137653Y7630922D01*
X7134555Y7634071D01*
X7133081Y7638288D01*
X7133539Y7642707D01*
X7138060Y7656068D01*
X7140752Y7669682D01*
X7141667Y7683500D01*
X7140752Y7697317D01*
X7138060Y7710881D01*
X7133590Y7723987D01*
X7127494Y7736433D01*
X7119772Y7747965D01*
X7110679Y7758379D01*
X7100265Y7767472D01*
X7088733Y7775194D01*
X7076287Y7781290D01*
X7063181Y7785760D01*
X7049617Y7788452D01*
X7035800Y7789367D01*
X7021982Y7788452D01*
X7008368Y7785760D01*
X6995261Y7781290D01*
X6982866Y7775194D01*
X6971334Y7767472D01*
X6960920Y7758379D01*
X6951776Y7747965D01*
X6944106Y7736433D01*
X6937959Y7723987D01*
X6933488Y7710881D01*
X6930796Y7697317D01*
X6929881Y7683500D01*
X6930796Y7669682D01*
X6933488Y7656068D01*
X6937959Y7642910D01*
X6938518Y7639100D01*
X6937552Y7635392D01*
X6935317Y7632293D01*
X6932066Y7630210D01*
X6928307Y7629499D01*
X6915607Y7632293D01*
X6906514Y7632700D01*
X6897471Y7631480D01*
X6892290Y7629804D01*
X6887870Y7629398D01*
X6883653Y7630922D01*
X6880555Y7634071D01*
X6879081Y7638288D01*
X6879539Y7642707D01*
X6884060Y7656068D01*
X6886752Y7669682D01*
X6887667Y7683500D01*
X6886752Y7697317D01*
X6884060Y7710881D01*
X6879590Y7723987D01*
X6873494Y7736433D01*
X6865772Y7747965D01*
X6856679Y7758379D01*
X6846265Y7767472D01*
X6834733Y7775194D01*
X6822287Y7781290D01*
X6809181Y7785760D01*
X6795617Y7788452D01*
X6781800Y7789367D01*
X6767982Y7788452D01*
X6754368Y7785760D01*
X6741261Y7781290D01*
X6728866Y7775194D01*
X6717334Y7767472D01*
X6706920Y7758379D01*
X6697776Y7747965D01*
X6690106Y7736433D01*
X6683959Y7723987D01*
X6679488Y7710881D01*
X6676796Y7697317D01*
X6675881Y7683500D01*
X6676796Y7669682D01*
X6679488Y7656068D01*
X6683959Y7642910D01*
X6684518Y7639100D01*
X6683552Y7635392D01*
X6681317Y7632293D01*
X6678066Y7630210D01*
X6674307Y7629499D01*
X6661607Y7632293D01*
X6652514Y7632700D01*
X6643471Y7631480D01*
X6638290Y7629804D01*
X6633870Y7629398D01*
X6629653Y7630922D01*
X6626555Y7634071D01*
X6625081Y7638288D01*
X6625539Y7642707D01*
X6630060Y7656068D01*
X6632752Y7669682D01*
X6633667Y7683500D01*
X6632752Y7697317D01*
X6630060Y7710881D01*
X6625590Y7723987D01*
X6619494Y7736433D01*
X6611772Y7747965D01*
X6602679Y7758379D01*
X6592265Y7767472D01*
X6580733Y7775194D01*
X6568287Y7781290D01*
X6555181Y7785760D01*
X6541617Y7788452D01*
X6527800Y7789367D01*
X6513982Y7788452D01*
X6500368Y7785760D01*
X6487261Y7781290D01*
X6474866Y7775194D01*
X6463334Y7767472D01*
X6452920Y7758379D01*
X6443776Y7747965D01*
X6436106Y7736433D01*
X6429959Y7723987D01*
X6425488Y7710881D01*
X6422796Y7697317D01*
X6421882Y7683500D01*
X6422796Y7669682D01*
X6425488Y7656068D01*
X6429959Y7642910D01*
X6430518Y7639100D01*
X6429552Y7635392D01*
X6427317Y7632293D01*
X6424066Y7630210D01*
X6420307Y7629499D01*
X6407607Y7632293D01*
X6398514Y7632700D01*
X6389471Y7631480D01*
X6384290Y7629804D01*
X6379870Y7629398D01*
X6375654Y7630922D01*
X6372555Y7634071D01*
X6371082Y7638288D01*
X6371539Y7642707D01*
X6376060Y7656068D01*
X6378752Y7669682D01*
X6379667Y7683500D01*
X6378752Y7697317D01*
X6376060Y7710881D01*
X6371590Y7723987D01*
X6365494Y7736433D01*
X6357772Y7747965D01*
X6348679Y7758379D01*
X6338265Y7767472D01*
X6326733Y7775194D01*
X6314287Y7781290D01*
X6301181Y7785760D01*
X6287617Y7788452D01*
X6273800Y7789367D01*
X6259982Y7788452D01*
X6246368Y7785760D01*
X6233261Y7781290D01*
X6220866Y7775194D01*
X6209334Y7767472D01*
X6198920Y7758379D01*
X6189776Y7747965D01*
X6182106Y7736433D01*
X6175959Y7723987D01*
X6171488Y7710881D01*
X6168796Y7697317D01*
X6167882Y7683500D01*
X6168796Y7669682D01*
X6171488Y7656068D01*
X6175959Y7642910D01*
X6176518Y7639100D01*
X6175552Y7635392D01*
X6173317Y7632293D01*
X6170066Y7630210D01*
X6166307Y7629499D01*
X6153607Y7632293D01*
X6144514Y7632700D01*
X6135471Y7631480D01*
X6130290Y7629804D01*
G37*

%LPC*%
G36*
X7708900Y8122412D02*
G01*
X7718653Y8123275D01*
X7728153Y8125815D01*
X7737043Y8129981D01*
X7745120Y8135569D01*
X7752080Y8142528D01*
X7757668Y8150606D01*
X7761833Y8159496D01*
X7764373Y8168995D01*
X7765237Y8178749D01*
X7764373Y8188553D01*
X7761833Y8198053D01*
X7757668Y8206943D01*
X7752080Y8215020D01*
X7745120Y8221980D01*
X7737043Y8227568D01*
X7728153Y8231733D01*
X7718653Y8234273D01*
X7708900Y8235137D01*
X7699095Y8234273D01*
X7689596Y8231733D01*
X7680706Y8227568D01*
X7674914Y8223554D01*
X7671003Y8221878D01*
X7666736Y8221980D01*
X7664653Y8222996D01*
X7665669Y8220913D01*
X7665770Y8216646D01*
X7664094Y8212734D01*
X7660081Y8206943D01*
X7655915Y8198053D01*
X7653375Y8188553D01*
X7652512Y8178749D01*
X7653375Y8168995D01*
X7655915Y8159496D01*
X7660081Y8150606D01*
X7665669Y8142528D01*
X7672628Y8135569D01*
X7680706Y8129981D01*
X7689596Y8125815D01*
X7699095Y8123275D01*
G37*
G36*
X8593937Y8194294D02*
G01*
X8603996Y8194294D01*
X8613902Y8195970D01*
X8623401Y8199221D01*
X8632240Y8203996D01*
X8640216Y8210194D01*
X8647023Y8217560D01*
X8652510Y8225993D01*
X8656523Y8235188D01*
X8659012Y8244941D01*
X8659825Y8254949D01*
X8659012Y8265007D01*
X8656523Y8274761D01*
X8652510Y8283956D01*
X8647023Y8292388D01*
X8640216Y8299754D01*
X8632240Y8305952D01*
X8623401Y8310727D01*
X8613902Y8313978D01*
X8603996Y8315655D01*
X8593937Y8315655D01*
X8584031Y8313978D01*
X8574532Y8310727D01*
X8565692Y8305952D01*
X8557717Y8299754D01*
X8550910Y8292388D01*
X8545423Y8283956D01*
X8541410Y8274761D01*
X8538921Y8265007D01*
X8538108Y8254949D01*
X8538921Y8244941D01*
X8541410Y8235188D01*
X8545423Y8225993D01*
X8550910Y8217560D01*
X8557717Y8210194D01*
X8565692Y8203996D01*
X8574532Y8199221D01*
X8584031Y8195970D01*
G37*
G36*
X8413953Y8194294D02*
G01*
X8424011Y8194294D01*
X8433917Y8195970D01*
X8443417Y8199221D01*
X8452256Y8203996D01*
X8460232Y8210194D01*
X8467039Y8217560D01*
X8472525Y8225993D01*
X8476538Y8235188D01*
X8479028Y8244941D01*
X8479840Y8254949D01*
X8479028Y8265007D01*
X8476538Y8274761D01*
X8472525Y8283956D01*
X8467039Y8292388D01*
X8460232Y8299754D01*
X8452256Y8305952D01*
X8443417Y8310727D01*
X8433917Y8313978D01*
X8424011Y8315655D01*
X8413953Y8315655D01*
X8404047Y8313978D01*
X8394547Y8310727D01*
X8385708Y8305952D01*
X8377732Y8299754D01*
X8370925Y8292388D01*
X8365439Y8283956D01*
X8361425Y8274761D01*
X8358936Y8265007D01*
X8358124Y8254949D01*
X8358936Y8244941D01*
X8361425Y8235188D01*
X8365439Y8225993D01*
X8370925Y8217560D01*
X8377732Y8210194D01*
X8385708Y8203996D01*
X8394547Y8199221D01*
X8404047Y8195970D01*
G37*
G36*
X8153400Y8231530D02*
G01*
X8163153Y8232394D01*
X8172653Y8234934D01*
X8181543Y8239099D01*
X8189620Y8244687D01*
X8196580Y8251647D01*
X8202168Y8259724D01*
X8206333Y8268614D01*
X8208873Y8278114D01*
X8209737Y8287867D01*
X8208873Y8297672D01*
X8206333Y8307171D01*
X8202168Y8316061D01*
X8196580Y8324138D01*
X8189620Y8331098D01*
X8181543Y8336686D01*
X8172653Y8340852D01*
X8163153Y8343392D01*
X8153400Y8344255D01*
X8143595Y8343392D01*
X8134096Y8340852D01*
X8125206Y8336686D01*
X8117128Y8331098D01*
X8110169Y8324138D01*
X8104581Y8316061D01*
X8100415Y8307171D01*
X8097875Y8297672D01*
X8097012Y8287867D01*
X8097875Y8278114D01*
X8100415Y8268614D01*
X8104581Y8259724D01*
X8110169Y8251647D01*
X8117128Y8244687D01*
X8125206Y8239099D01*
X8134096Y8234934D01*
X8143595Y8232394D01*
G37*
G36*
X5934608Y8820302D02*
G01*
X5944362Y8821166D01*
X5953861Y8823706D01*
X5962751Y8827871D01*
X5970828Y8833510D01*
X5977788Y8840470D01*
X5983376Y8848496D01*
X5987542Y8857386D01*
X5990082Y8866886D01*
X5990945Y8876690D01*
X5990082Y8886494D01*
X5987542Y8895994D01*
X5983376Y8904884D01*
X5977788Y8912910D01*
X5970828Y8919870D01*
X5962751Y8925509D01*
X5953861Y8929674D01*
X5944362Y8932214D01*
X5934608Y8933078D01*
X5924804Y8932214D01*
X5915304Y8929674D01*
X5906414Y8925509D01*
X5898337Y8919870D01*
X5891377Y8912910D01*
X5885789Y8904884D01*
X5881624Y8895994D01*
X5879084Y8886494D01*
X5878220Y8876690D01*
X5879084Y8866886D01*
X5881624Y8857386D01*
X5885789Y8848496D01*
X5891377Y8840470D01*
X5898337Y8833510D01*
X5906414Y8827871D01*
X5915304Y8823706D01*
X5924804Y8821166D01*
G37*
G36*
X8593937Y8905494D02*
G01*
X8603996Y8905494D01*
X8613902Y8907170D01*
X8623401Y8910421D01*
X8632240Y8915196D01*
X8640216Y8921394D01*
X8647023Y8928760D01*
X8652510Y8937193D01*
X8656523Y8946388D01*
X8659012Y8956141D01*
X8659825Y8966149D01*
X8659012Y8976207D01*
X8656523Y8985961D01*
X8652510Y8995156D01*
X8647023Y9003588D01*
X8640216Y9010954D01*
X8632240Y9017152D01*
X8623401Y9021927D01*
X8613902Y9025178D01*
X8603996Y9026855D01*
X8593937Y9026855D01*
X8584031Y9025178D01*
X8574532Y9021927D01*
X8565692Y9017152D01*
X8557717Y9010954D01*
X8550910Y9003588D01*
X8545423Y8995156D01*
X8541410Y8985961D01*
X8538921Y8976207D01*
X8538108Y8966149D01*
X8538921Y8956141D01*
X8541410Y8946388D01*
X8545423Y8937193D01*
X8550910Y8928760D01*
X8557717Y8921394D01*
X8565692Y8915196D01*
X8574532Y8910421D01*
X8584031Y8907170D01*
G37*

%LPD*%
G36*
X5363870Y7629398D02*
G01*
X5359654Y7630922D01*
X5356555Y7634071D01*
X5355082Y7638288D01*
X5355539Y7642707D01*
X5360060Y7656068D01*
X5362752Y7669682D01*
X5363667Y7683500D01*
X5362752Y7697317D01*
X5360060Y7710881D01*
X5355590Y7723987D01*
X5349494Y7736433D01*
X5343652Y7745120D01*
X5342280Y7748320D01*
X5342026Y7751775D01*
X5342940Y7755128D01*
X5344922Y7757972D01*
X5447487Y7860538D01*
X5450789Y7862722D01*
X5454700Y7863484D01*
X5714492Y7863484D01*
X5722467Y7864348D01*
X5729579Y7866634D01*
X5736183Y7870444D01*
X5740654Y7874304D01*
X5917387Y8051038D01*
X5920689Y8053222D01*
X5924600Y8053984D01*
X6305499Y8053984D01*
X6309410Y8053222D01*
X6312712Y8051038D01*
X6359652Y8004048D01*
X6361684Y8001152D01*
X6362598Y7997748D01*
X6363157Y7991195D01*
X6365697Y7981696D01*
X6368745Y7975142D01*
X6369710Y7971231D01*
X6369050Y7967218D01*
X6366865Y7963814D01*
X6363512Y7961528D01*
X6359550Y7960715D01*
X6058408Y7960715D01*
X6050432Y7959852D01*
X6043320Y7957566D01*
X6036716Y7953756D01*
X6032246Y7949895D01*
X5927699Y7845348D01*
X5924245Y7843113D01*
X5920232Y7842402D01*
X5916218Y7843367D01*
X5912916Y7845806D01*
X5910884Y7849362D01*
X5910376Y7853425D01*
X5911088Y7861249D01*
X5910224Y7871053D01*
X5907684Y7880553D01*
X5903518Y7889443D01*
X5897880Y7897520D01*
X5890920Y7904480D01*
X5882894Y7910068D01*
X5874004Y7914233D01*
X5864504Y7916773D01*
X5854700Y7917637D01*
X5844895Y7916773D01*
X5835396Y7914233D01*
X5826506Y7910068D01*
X5818479Y7904480D01*
X5811520Y7897520D01*
X5805881Y7889443D01*
X5801715Y7880553D01*
X5799175Y7871053D01*
X5798312Y7861249D01*
X5799175Y7851495D01*
X5801715Y7841996D01*
X5805881Y7833106D01*
X5811520Y7825028D01*
X5818479Y7818069D01*
X5826506Y7812481D01*
X5835396Y7808315D01*
X5844895Y7805775D01*
X5854700Y7804912D01*
X5862523Y7805572D01*
X5866638Y7805115D01*
X5870194Y7803083D01*
X5872632Y7799781D01*
X5873597Y7795768D01*
X5872886Y7791703D01*
X5870600Y7788300D01*
X5847384Y7765084D01*
X5844235Y7762951D01*
X5840526Y7762087D01*
X5836767Y7762697D01*
X5833516Y7764627D01*
X5830265Y7767472D01*
X5818733Y7775194D01*
X5806287Y7781290D01*
X5793181Y7785760D01*
X5779617Y7788452D01*
X5765800Y7789367D01*
X5751982Y7788452D01*
X5738368Y7785760D01*
X5725261Y7781290D01*
X5712866Y7775194D01*
X5701334Y7767472D01*
X5690920Y7758379D01*
X5681776Y7747965D01*
X5674106Y7736433D01*
X5667959Y7723987D01*
X5663488Y7710881D01*
X5660796Y7697317D01*
X5659882Y7683500D01*
X5660796Y7669682D01*
X5663488Y7656068D01*
X5667959Y7642961D01*
X5668518Y7639151D01*
X5667552Y7635392D01*
X5665317Y7632293D01*
X5662066Y7630210D01*
X5658307Y7629499D01*
X5645607Y7632293D01*
X5636514Y7632700D01*
X5627471Y7631480D01*
X5622290Y7629804D01*
X5617870Y7629398D01*
X5613654Y7630922D01*
X5610555Y7634071D01*
X5609082Y7638288D01*
X5609539Y7642707D01*
X5614060Y7656068D01*
X5616752Y7669682D01*
X5617667Y7683500D01*
X5616752Y7697317D01*
X5614060Y7710881D01*
X5609590Y7723987D01*
X5603494Y7736433D01*
X5595772Y7747965D01*
X5586679Y7758379D01*
X5576265Y7767472D01*
X5564733Y7775194D01*
X5552287Y7781290D01*
X5539181Y7785760D01*
X5525617Y7788452D01*
X5511800Y7789367D01*
X5497982Y7788452D01*
X5484368Y7785760D01*
X5471261Y7781290D01*
X5458866Y7775194D01*
X5447334Y7767472D01*
X5436920Y7758379D01*
X5427776Y7747965D01*
X5420106Y7736433D01*
X5413959Y7723987D01*
X5409488Y7710881D01*
X5406796Y7697317D01*
X5405882Y7683500D01*
X5406796Y7669682D01*
X5409488Y7656068D01*
X5413959Y7642961D01*
X5414518Y7639151D01*
X5413552Y7635392D01*
X5411317Y7632293D01*
X5408066Y7630210D01*
X5404307Y7629499D01*
X5391607Y7632293D01*
X5382514Y7632700D01*
X5373471Y7631480D01*
X5368290Y7629804D01*
G37*

%LPD*%
G36*
X4093870Y7629398D02*
G01*
X4089654Y7630922D01*
X4086555Y7634071D01*
X4085082Y7638288D01*
X4085539Y7642707D01*
X4090060Y7656068D01*
X4092752Y7669682D01*
X4093667Y7683500D01*
X4092752Y7697317D01*
X4090060Y7710881D01*
X4085590Y7723987D01*
X4079494Y7736433D01*
X4071772Y7747965D01*
X4062679Y7758379D01*
X4052265Y7767472D01*
X4040733Y7775194D01*
X4028287Y7781290D01*
X4015181Y7785760D01*
X4001617Y7788452D01*
X3987800Y7789367D01*
X3973982Y7788452D01*
X3960368Y7785760D01*
X3947261Y7781290D01*
X3934866Y7775194D01*
X3923334Y7767472D01*
X3912920Y7758379D01*
X3903776Y7747965D01*
X3896106Y7736433D01*
X3889959Y7723987D01*
X3885488Y7710881D01*
X3882796Y7697317D01*
X3881882Y7683500D01*
X3882796Y7669682D01*
X3885488Y7656068D01*
X3889959Y7642961D01*
X3890518Y7639151D01*
X3889552Y7635392D01*
X3887317Y7632293D01*
X3884066Y7630210D01*
X3880307Y7629499D01*
X3867607Y7632293D01*
X3858514Y7632700D01*
X3851198Y7631734D01*
X3846931Y7632039D01*
X3843172Y7634122D01*
X3840581Y7637576D01*
X3839718Y7641793D01*
X3839718Y7762900D01*
X3839006Y7769250D01*
X3837076Y7774686D01*
X3833977Y7779613D01*
X3829913Y7783677D01*
X3824986Y7786776D01*
X3819550Y7788656D01*
X3813200Y7789367D01*
X3654348Y7789367D01*
X3648049Y7788656D01*
X3646220Y7788046D01*
X3642410Y7787487D01*
X3638651Y7788402D01*
X3635501Y7790637D01*
X3633419Y7793837D01*
X3632708Y7797647D01*
X3632708Y9347352D01*
X3633419Y9351111D01*
X3635501Y9354362D01*
X3638651Y9356598D01*
X3642410Y9357461D01*
X3646220Y9356902D01*
X3648049Y9356293D01*
X3654348Y9355582D01*
X3687419Y9355582D01*
X3687419Y9415119D01*
X3642868Y9415119D01*
X3638956Y9415881D01*
X3635654Y9418116D01*
X3633470Y9421418D01*
X3632708Y9425279D01*
X3632708Y9497669D01*
X3633470Y9501581D01*
X3635654Y9504832D01*
X3638956Y9507067D01*
X3642868Y9507829D01*
X3687419Y9507829D01*
X3687419Y9563912D01*
X3688232Y9567824D01*
X3690416Y9571075D01*
X3693718Y9573310D01*
X3697579Y9574072D01*
X3769969Y9574072D01*
X3773881Y9573310D01*
X3777183Y9571075D01*
X3779367Y9567824D01*
X3780129Y9563912D01*
X3780129Y9507829D01*
X3839718Y9507829D01*
X3839718Y9540900D01*
X3839006Y9547250D01*
X3837076Y9552686D01*
X3833418Y9558528D01*
X3831945Y9562541D01*
X3832301Y9566859D01*
X3834384Y9570618D01*
X3837838Y9573158D01*
X3842004Y9574072D01*
X3933647Y9574072D01*
X3938015Y9573056D01*
X3941572Y9570262D01*
X3943502Y9566198D01*
X3943553Y9561728D01*
X3941622Y9557664D01*
X3938117Y9554819D01*
X3934866Y9553194D01*
X3923334Y9545472D01*
X3912920Y9536379D01*
X3903776Y9525965D01*
X3896106Y9514433D01*
X3889959Y9501987D01*
X3885488Y9488881D01*
X3882796Y9475317D01*
X3881882Y9461500D01*
X3882796Y9447682D01*
X3885488Y9434068D01*
X3889959Y9420961D01*
X3896106Y9408515D01*
X3903776Y9397034D01*
X3912920Y9386620D01*
X3923334Y9377476D01*
X3934866Y9369806D01*
X3947261Y9363659D01*
X3960368Y9359188D01*
X3973982Y9356496D01*
X3987800Y9355582D01*
X4001617Y9356496D01*
X4015181Y9359188D01*
X4028287Y9363659D01*
X4040733Y9369806D01*
X4052265Y9377476D01*
X4062679Y9386620D01*
X4071772Y9397034D01*
X4079494Y9408515D01*
X4085590Y9420961D01*
X4090060Y9434068D01*
X4092752Y9447682D01*
X4093667Y9461500D01*
X4092752Y9475317D01*
X4090060Y9488881D01*
X4085590Y9501987D01*
X4079494Y9514433D01*
X4071772Y9525965D01*
X4062679Y9536379D01*
X4052265Y9545472D01*
X4040733Y9553194D01*
X4037431Y9554819D01*
X4033926Y9557664D01*
X4032046Y9561728D01*
X4032046Y9566198D01*
X4034028Y9570262D01*
X4037533Y9573056D01*
X4041952Y9574072D01*
X4187647Y9574072D01*
X4192015Y9573056D01*
X4195572Y9570262D01*
X4196537Y9568281D01*
X4198416Y9571075D01*
X4201718Y9573310D01*
X4205579Y9574072D01*
X4277969Y9574072D01*
X4281881Y9573310D01*
X4285183Y9571075D01*
X4287062Y9568281D01*
X4288028Y9570262D01*
X4291533Y9573056D01*
X4295952Y9574072D01*
X4441647Y9574072D01*
X4446016Y9573056D01*
X4449572Y9570262D01*
X4451502Y9566198D01*
X4451553Y9561728D01*
X4449622Y9557664D01*
X4446117Y9554819D01*
X4442866Y9553194D01*
X4431334Y9545472D01*
X4420920Y9536379D01*
X4411776Y9525965D01*
X4404106Y9514433D01*
X4397959Y9501987D01*
X4393488Y9488881D01*
X4390796Y9475317D01*
X4389882Y9461500D01*
X4390796Y9447682D01*
X4393488Y9434068D01*
X4397959Y9420961D01*
X4404106Y9408515D01*
X4411776Y9397034D01*
X4420920Y9386620D01*
X4431334Y9377476D01*
X4442866Y9369806D01*
X4455261Y9363659D01*
X4468368Y9359188D01*
X4481982Y9356496D01*
X4495800Y9355582D01*
X4509617Y9356496D01*
X4523181Y9359188D01*
X4536287Y9363659D01*
X4548733Y9369806D01*
X4560265Y9377476D01*
X4570679Y9386620D01*
X4579772Y9397034D01*
X4587494Y9408515D01*
X4593590Y9420961D01*
X4598060Y9434068D01*
X4600752Y9447682D01*
X4601667Y9461500D01*
X4600752Y9475317D01*
X4598060Y9488881D01*
X4593590Y9501987D01*
X4587494Y9514433D01*
X4579772Y9525965D01*
X4570679Y9536379D01*
X4560265Y9545472D01*
X4548733Y9553194D01*
X4545431Y9554819D01*
X4541926Y9557664D01*
X4540046Y9561728D01*
X4540046Y9566198D01*
X4542028Y9570262D01*
X4545533Y9573056D01*
X4549952Y9574072D01*
X4695647Y9574072D01*
X4700016Y9573056D01*
X4703572Y9570262D01*
X4704537Y9568281D01*
X4706416Y9571075D01*
X4709718Y9573310D01*
X4713579Y9574072D01*
X4785969Y9574072D01*
X4789881Y9573310D01*
X4793183Y9571075D01*
X4795062Y9568281D01*
X4796028Y9570262D01*
X4799533Y9573056D01*
X4803952Y9574072D01*
X4949647Y9574072D01*
X4954016Y9573056D01*
X4957572Y9570262D01*
X4959502Y9566198D01*
X4959553Y9561728D01*
X4957622Y9557664D01*
X4954117Y9554819D01*
X4950866Y9553194D01*
X4939334Y9545472D01*
X4928920Y9536379D01*
X4919776Y9525965D01*
X4912106Y9514433D01*
X4905959Y9501987D01*
X4901488Y9488881D01*
X4898796Y9475317D01*
X4897882Y9461500D01*
X4898796Y9447682D01*
X4901488Y9434068D01*
X4905959Y9420961D01*
X4912106Y9408515D01*
X4919776Y9397034D01*
X4928920Y9386620D01*
X4939334Y9377476D01*
X4948377Y9371431D01*
X4950815Y9369145D01*
X4952339Y9366250D01*
X4952898Y9362998D01*
X4952898Y9313875D01*
X4952136Y9309963D01*
X4949901Y9306712D01*
X4689246Y9046057D01*
X4686350Y9044025D01*
X4678629Y9040368D01*
X4670552Y9034780D01*
X4663592Y9027820D01*
X4658004Y9019743D01*
X4653838Y9010853D01*
X4651298Y9001353D01*
X4650435Y8991549D01*
X4651298Y8981795D01*
X4653838Y8972296D01*
X4658004Y8963406D01*
X4663592Y8955328D01*
X4670552Y8948369D01*
X4678629Y8942781D01*
X4687519Y8938615D01*
X4697018Y8936075D01*
X4706823Y8935212D01*
X4716576Y8936075D01*
X4726076Y8938615D01*
X4728464Y8939733D01*
X4732731Y8940647D01*
X4911191Y8940647D01*
X4915001Y8939936D01*
X4918303Y8937802D01*
X4920488Y8934551D01*
X4921351Y8930741D01*
X4920691Y8926931D01*
X4918608Y8923578D01*
X4915458Y8921292D01*
X4910988Y8919210D01*
X4902962Y8913571D01*
X4896002Y8906611D01*
X4890363Y8898585D01*
X4886198Y8889695D01*
X4883658Y8880195D01*
X4882794Y8870391D01*
X4883658Y8860586D01*
X4886198Y8851087D01*
X4890363Y8842197D01*
X4896002Y8834170D01*
X4901438Y8828735D01*
X4903622Y8825433D01*
X4904384Y8821572D01*
X4904384Y8039608D01*
X4905248Y8031632D01*
X4907534Y8024520D01*
X4911344Y8017916D01*
X4915204Y8013446D01*
X5170627Y7757972D01*
X5172659Y7755128D01*
X5173573Y7751775D01*
X5173319Y7748320D01*
X5171897Y7745120D01*
X5166106Y7736433D01*
X5159959Y7723987D01*
X5155488Y7710881D01*
X5152796Y7697317D01*
X5151882Y7683500D01*
X5152796Y7669682D01*
X5155488Y7656068D01*
X5159959Y7642961D01*
X5160518Y7639151D01*
X5159552Y7635392D01*
X5157317Y7632293D01*
X5154066Y7630210D01*
X5150307Y7629499D01*
X5137607Y7632293D01*
X5128514Y7632700D01*
X5119471Y7631480D01*
X5114290Y7629804D01*
X5109870Y7629398D01*
X5105654Y7630922D01*
X5102555Y7634071D01*
X5101082Y7638288D01*
X5101539Y7642707D01*
X5106060Y7656068D01*
X5108752Y7669682D01*
X5109667Y7683500D01*
X5108752Y7697317D01*
X5106060Y7710881D01*
X5101590Y7723987D01*
X5095494Y7736433D01*
X5087772Y7747965D01*
X5078679Y7758379D01*
X5068265Y7767472D01*
X5056733Y7775194D01*
X5044287Y7781290D01*
X5031181Y7785760D01*
X5017617Y7788452D01*
X5003800Y7789367D01*
X4989982Y7788452D01*
X4976368Y7785760D01*
X4963261Y7781290D01*
X4950866Y7775194D01*
X4939334Y7767472D01*
X4928920Y7758379D01*
X4919776Y7747965D01*
X4912106Y7736433D01*
X4905959Y7723987D01*
X4901488Y7710881D01*
X4898796Y7697317D01*
X4897882Y7683500D01*
X4898796Y7669682D01*
X4901488Y7656068D01*
X4905959Y7642961D01*
X4906518Y7639151D01*
X4905552Y7635392D01*
X4903317Y7632293D01*
X4900066Y7630210D01*
X4896307Y7629499D01*
X4883607Y7632293D01*
X4874514Y7632700D01*
X4865471Y7631480D01*
X4860290Y7629804D01*
X4855870Y7629398D01*
X4851654Y7630922D01*
X4848555Y7634071D01*
X4847082Y7638288D01*
X4847539Y7642707D01*
X4852060Y7656068D01*
X4854752Y7669682D01*
X4855667Y7683500D01*
X4854752Y7697317D01*
X4852060Y7710881D01*
X4847590Y7723987D01*
X4841494Y7736433D01*
X4833772Y7747965D01*
X4824679Y7758379D01*
X4814265Y7767472D01*
X4802733Y7775194D01*
X4790287Y7781290D01*
X4777181Y7785760D01*
X4763617Y7788452D01*
X4749800Y7789367D01*
X4735982Y7788452D01*
X4722368Y7785760D01*
X4709261Y7781290D01*
X4696866Y7775194D01*
X4685334Y7767472D01*
X4674920Y7758379D01*
X4665776Y7747965D01*
X4658106Y7736433D01*
X4651959Y7723987D01*
X4647488Y7710881D01*
X4644796Y7697317D01*
X4643882Y7683500D01*
X4644796Y7669682D01*
X4647488Y7656068D01*
X4651959Y7642961D01*
X4652518Y7639151D01*
X4651552Y7635392D01*
X4649317Y7632293D01*
X4646066Y7630210D01*
X4642307Y7629499D01*
X4629607Y7632293D01*
X4620514Y7632700D01*
X4611471Y7631480D01*
X4606290Y7629804D01*
X4601870Y7629398D01*
X4597654Y7630922D01*
X4594555Y7634071D01*
X4593082Y7638288D01*
X4593539Y7642707D01*
X4598060Y7656068D01*
X4600752Y7669682D01*
X4601667Y7683500D01*
X4600752Y7697317D01*
X4598060Y7710881D01*
X4593590Y7723987D01*
X4587494Y7736433D01*
X4579772Y7747965D01*
X4570679Y7758379D01*
X4560265Y7767472D01*
X4548733Y7775194D01*
X4536287Y7781290D01*
X4523181Y7785760D01*
X4509617Y7788452D01*
X4495800Y7789367D01*
X4481982Y7788452D01*
X4468368Y7785760D01*
X4455261Y7781290D01*
X4442866Y7775194D01*
X4431334Y7767472D01*
X4420920Y7758379D01*
X4411776Y7747965D01*
X4404106Y7736433D01*
X4397959Y7723987D01*
X4393488Y7710881D01*
X4390796Y7697317D01*
X4389882Y7683500D01*
X4390796Y7669682D01*
X4393488Y7656068D01*
X4397959Y7642961D01*
X4398518Y7639151D01*
X4397552Y7635392D01*
X4395317Y7632293D01*
X4392066Y7630210D01*
X4388307Y7629499D01*
X4375607Y7632293D01*
X4366514Y7632700D01*
X4357471Y7631480D01*
X4352290Y7629804D01*
X4347870Y7629398D01*
X4343654Y7630922D01*
X4340555Y7634071D01*
X4339082Y7638288D01*
X4339539Y7642707D01*
X4344060Y7656068D01*
X4346752Y7669682D01*
X4347667Y7683500D01*
X4346752Y7697317D01*
X4344060Y7710881D01*
X4339590Y7723987D01*
X4333494Y7736433D01*
X4325772Y7747965D01*
X4316679Y7758379D01*
X4306265Y7767472D01*
X4294733Y7775194D01*
X4283354Y7780781D01*
X4280357Y7783017D01*
X4278376Y7786217D01*
X4277715Y7789875D01*
X4277715Y7880299D01*
X4278477Y7884210D01*
X4280662Y7887512D01*
X4520387Y8127238D01*
X4523689Y8129422D01*
X4527600Y8130184D01*
X4536998Y8130184D01*
X4540859Y8129422D01*
X4544161Y8127238D01*
X4548479Y8122920D01*
X4556506Y8117281D01*
X4565396Y8113115D01*
X4574895Y8110575D01*
X4584700Y8109712D01*
X4594504Y8110575D01*
X4604004Y8113115D01*
X4612894Y8117281D01*
X4620920Y8122920D01*
X4627880Y8129879D01*
X4633518Y8137906D01*
X4637684Y8146796D01*
X4640224Y8156295D01*
X4641088Y8166100D01*
X4640224Y8175904D01*
X4637684Y8185403D01*
X4633518Y8194294D01*
X4627880Y8202320D01*
X4620920Y8209280D01*
X4612894Y8214918D01*
X4604004Y8219084D01*
X4594504Y8221624D01*
X4584700Y8222488D01*
X4574895Y8221624D01*
X4565396Y8219084D01*
X4556506Y8214918D01*
X4548479Y8209280D01*
X4544161Y8204962D01*
X4540859Y8202777D01*
X4536998Y8202015D01*
X4509008Y8202015D01*
X4501032Y8201152D01*
X4493920Y8198866D01*
X4487316Y8195056D01*
X4482846Y8191195D01*
X4216806Y7925155D01*
X4211726Y7918907D01*
X4208322Y7912252D01*
X4206341Y7904886D01*
X4205884Y7898993D01*
X4205884Y7789925D01*
X4205224Y7786217D01*
X4203242Y7783068D01*
X4200245Y7780781D01*
X4188866Y7775194D01*
X4177334Y7767472D01*
X4166920Y7758379D01*
X4157776Y7747965D01*
X4150106Y7736433D01*
X4143959Y7723987D01*
X4139488Y7710881D01*
X4136796Y7697317D01*
X4135882Y7683500D01*
X4136796Y7669682D01*
X4139488Y7656068D01*
X4143959Y7642961D01*
X4144518Y7639151D01*
X4143552Y7635392D01*
X4141317Y7632293D01*
X4138066Y7630210D01*
X4134307Y7629499D01*
X4121607Y7632293D01*
X4112514Y7632700D01*
X4103471Y7631480D01*
X4098290Y7629804D01*
G37*

%LPC*%
G36*
X4406900Y8516112D02*
G01*
X4416704Y8516975D01*
X4426204Y8519515D01*
X4435094Y8523681D01*
X4443120Y8529269D01*
X4450080Y8536228D01*
X4455718Y8544306D01*
X4459884Y8553196D01*
X4462424Y8562695D01*
X4463288Y8572449D01*
X4462424Y8582253D01*
X4459884Y8591753D01*
X4455718Y8600643D01*
X4446828Y8613038D01*
X4446066Y8616899D01*
X4446828Y8620810D01*
X4455718Y8633206D01*
X4459884Y8642096D01*
X4462424Y8651595D01*
X4463288Y8661349D01*
X4462424Y8671153D01*
X4459884Y8680653D01*
X4455718Y8689543D01*
X4450080Y8697620D01*
X4443120Y8704580D01*
X4435094Y8710168D01*
X4426204Y8714333D01*
X4416704Y8716873D01*
X4406900Y8717737D01*
X4397095Y8716873D01*
X4387596Y8714333D01*
X4378706Y8710168D01*
X4370679Y8704580D01*
X4363720Y8697620D01*
X4358081Y8689543D01*
X4353915Y8680653D01*
X4351375Y8671153D01*
X4350512Y8661349D01*
X4351375Y8651595D01*
X4353915Y8642096D01*
X4358081Y8633206D01*
X4366971Y8620810D01*
X4367733Y8616899D01*
X4366971Y8613038D01*
X4358081Y8600643D01*
X4353915Y8591753D01*
X4351375Y8582253D01*
X4350512Y8572449D01*
X4351375Y8562695D01*
X4353915Y8553196D01*
X4358081Y8544306D01*
X4363720Y8536228D01*
X4370679Y8529269D01*
X4378706Y8523681D01*
X4387596Y8519515D01*
X4397095Y8516975D01*
G37*
G36*
X3780129Y9355582D02*
G01*
X3813200Y9355582D01*
X3819550Y9356293D01*
X3824986Y9358172D01*
X3829913Y9361271D01*
X3833977Y9365386D01*
X3837076Y9370263D01*
X3839006Y9375749D01*
X3839718Y9382048D01*
X3839718Y9415119D01*
X3780129Y9415119D01*
G37*
G36*
X4195419Y9366554D02*
G01*
X4195419Y9415119D01*
X4146854Y9415119D01*
X4150106Y9408515D01*
X4157776Y9397034D01*
X4166920Y9386620D01*
X4177334Y9377476D01*
X4188866Y9369806D01*
G37*
G36*
X4796129Y9366554D02*
G01*
X4802733Y9369806D01*
X4814265Y9377476D01*
X4824679Y9386620D01*
X4833772Y9397034D01*
X4841494Y9408515D01*
X4844745Y9415119D01*
X4796129Y9415119D01*
G37*
G36*
X4288129Y9366554D02*
G01*
X4294733Y9369806D01*
X4306265Y9377476D01*
X4316679Y9386620D01*
X4325772Y9397034D01*
X4333494Y9408515D01*
X4336745Y9415119D01*
X4288129Y9415119D01*
G37*
G36*
X4703419Y9366554D02*
G01*
X4703419Y9415119D01*
X4654854Y9415119D01*
X4658106Y9408515D01*
X4665776Y9397034D01*
X4674920Y9386620D01*
X4685334Y9377476D01*
X4696866Y9369806D01*
G37*
G36*
X4288129Y9507829D02*
G01*
X4336745Y9507829D01*
X4333494Y9514433D01*
X4325772Y9525965D01*
X4316679Y9536379D01*
X4306265Y9545472D01*
X4294733Y9553194D01*
X4291431Y9554819D01*
X4288129Y9557512D01*
G37*
G36*
X4654854Y9507829D02*
G01*
X4703419Y9507829D01*
X4703419Y9557512D01*
X4700117Y9554819D01*
X4696866Y9553194D01*
X4685334Y9545472D01*
X4674920Y9536379D01*
X4665776Y9525965D01*
X4658106Y9514433D01*
G37*
G36*
X4796129Y9507829D02*
G01*
X4844745Y9507829D01*
X4841494Y9514433D01*
X4833772Y9525965D01*
X4824679Y9536379D01*
X4814265Y9545472D01*
X4802733Y9553194D01*
X4799431Y9554819D01*
X4796129Y9557512D01*
G37*
G36*
X4146854Y9507829D02*
G01*
X4195419Y9507829D01*
X4195419Y9557512D01*
X4192117Y9554819D01*
X4188866Y9553194D01*
X4177334Y9545472D01*
X4166920Y9536379D01*
X4157776Y9525965D01*
X4150106Y9514433D01*
G37*

%LPD*%
D10*
X6833031Y8242731D02*
G01*
X6646379Y8429383D01*
X6545686Y8429383D01*
X6501587Y8473483D01*
X6501587Y8549083D01*
X6545686Y8593183D01*
X6646486Y8593183D01*
X6671685Y8618382D01*
X6671685Y8669888D01*
X6667931Y8673642D01*
D11*
X7830820Y8687562D02*
G01*
X7975854Y8687562D01*
X8158479Y8504936D01*
X8309609Y8504936D01*
X8372602Y8567928D01*
X8372602Y8778239D01*
X8304022Y8846820D01*
X8305800Y9448800D01*
X7761477Y8832595D02*
G01*
X7893811Y8832595D01*
X8133334Y8593074D01*
X8290813Y8593074D01*
X8314690Y8617204D01*
X8337295Y8639810D01*
X8337295Y8748268D01*
X8259318Y8826245D01*
X8259318Y9241281D01*
X8051800Y9448800D01*
D10*
X6924293Y9098026D02*
G01*
X7116825Y9098026D01*
X7305040Y9286239D01*
X7530084Y9286239D01*
X7692390Y9286239D01*
X7736331Y9242044D01*
X7736331Y9103360D01*
X7688072Y9055100D01*
X7625079Y9055100D01*
X7622286Y9052305D01*
D11*
X7333741Y8349742D02*
G01*
X7366000Y8317229D01*
X7366000Y8255000D01*
X6972300Y7861300D01*
X6159500Y7861300D01*
X6019800Y7721600D01*
X4584700Y8166100D02*
G01*
X4508500Y8166100D01*
X4241800Y7899400D01*
X4241800Y7721600D01*
X5257800Y7721600D02*
G01*
X5435600Y7899400D01*
X5715000Y7899400D01*
X5905500Y8089900D01*
X6324600Y8089900D01*
X6413500Y8001000D01*
X6418579Y8001000D01*
X7277100Y8293100D02*
G01*
X6908800Y7924800D01*
X6057900Y7924800D01*
X5854700Y7721600D01*
X5765800Y7721600D01*
X4939182Y8870391D02*
G01*
X4940300Y8869273D01*
X4940300Y8039100D01*
X5257800Y7721600D01*
D10*
X6670293Y8856726D02*
G01*
X6668008Y8673592D01*
X6924319Y9098127D02*
G01*
X6911644Y9098127D01*
X6670344Y8856827D01*
X6566331Y8509431D02*
G01*
X6744136Y8509431D01*
X6794487Y8559782D01*
X6794487Y8648684D01*
X7289784Y9143982D01*
X7524310Y9143982D01*
X7527747Y9140545D01*
X7698155Y8324316D02*
G01*
X7622235Y8400237D01*
X7622235Y9052331D01*
X6566408Y8509508D02*
G01*
X6755891Y8509508D01*
X6921500Y8343900D01*
X6922008Y8153908D01*
X7698155Y8324316D02*
G01*
X7689316Y8324316D01*
X7442174Y8077174D01*
X7698155Y8324316D02*
G01*
X7830052Y8324316D01*
X7950184Y8204184D01*
X7950184Y8018866D01*
D12*
X5003800Y9288576D02*
G01*
X6921487Y9288576D01*
X6921487Y9100959D01*
X6924319Y9098127D01*
X5003800Y9448774D02*
G01*
X5003800Y9288576D01*
X4706797Y8991574D01*
X5854700Y9115983D02*
G01*
X5854700Y9283682D01*
X6921487Y9100959D02*
G01*
X6924319Y9098127D01*
X5461000Y8338032D02*
G01*
X5461000Y8323656D01*
X5702300Y8082356D01*
X5461000Y8338032D02*
G01*
X5432933Y8338032D01*
X5095875Y8000974D01*
X5300802Y8991574D02*
G01*
X5300802Y8498230D01*
X5461000Y8338032D01*
X4706797Y8991574D02*
G01*
X5300802Y8991574D01*
D13*
G01*
X8559800Y7683474D03*
G01*
X8305800Y7683474D03*
G01*
X8051800Y7683474D03*
G01*
X7797800Y7683474D03*
G01*
X7543800Y7683474D03*
G01*
X7289800Y7683474D03*
G01*
X7035800Y7683474D03*
G01*
X6781800Y7683474D03*
G01*
X6527800Y7683474D03*
G01*
X6273800Y7683474D03*
G01*
X6019800Y7683474D03*
G01*
X5765800Y7683474D03*
G01*
X5511800Y7683474D03*
G01*
X5257800Y7683474D03*
G01*
X5003800Y7683474D03*
G01*
X4749800Y7683474D03*
G01*
X4495800Y7683474D03*
G01*
X4241800Y7683474D03*
G01*
X3987800Y7683474D03*
D14*
G01*
X3733800Y7683474D03*
D13*
G01*
X8559800Y9461474D03*
G01*
X8305800Y9461474D03*
G01*
X8051800Y9461474D03*
G01*
X7797800Y9461474D03*
G01*
X7543800Y9461474D03*
G01*
X7289800Y9461474D03*
G01*
X7035800Y9461474D03*
G01*
X6781800Y9461474D03*
G01*
X6527800Y9461474D03*
G01*
X6273800Y9461474D03*
G01*
X6019800Y9461474D03*
G01*
X5765800Y9461474D03*
G01*
X5511800Y9461474D03*
G01*
X5257800Y9461474D03*
G01*
X5003800Y9461474D03*
G01*
X4749800Y9461474D03*
G01*
X4495800Y9461474D03*
G01*
X4241800Y9461474D03*
G01*
X3987800Y9461474D03*
D14*
G01*
X3733800Y9461474D03*
D13*
G01*
X8813774Y9461474D03*
G01*
X8813774Y9207474D03*
G01*
X8813774Y8953474D03*
G01*
X8813774Y8699474D03*
G01*
X8813774Y8445474D03*
G01*
X8813774Y8191474D03*
G01*
X8813774Y7937474D03*
G01*
X8813774Y7683474D03*
G01*
X3733800Y2857500D03*
G01*
X3733800Y3111500D03*
G01*
X3733800Y3365500D03*
G01*
X3733800Y3619500D03*
G01*
X3733800Y3873500D03*
G01*
X3733800Y4127500D03*
G01*
X3733800Y4381500D03*
G01*
X3733800Y4635500D03*
G01*
X3733800Y4889500D03*
G01*
X3733800Y5143500D03*
G01*
X3733800Y5397500D03*
G01*
X3733800Y5651500D03*
G01*
X3733800Y5905474D03*
G01*
X3733800Y6159474D03*
G01*
X3733800Y6413474D03*
G01*
X3733800Y6667474D03*
G01*
X3733800Y6921474D03*
G01*
X3733800Y7175474D03*
G01*
X3733800Y7429474D03*
G01*
X3987800Y7429474D03*
G01*
X3987800Y7175474D03*
G01*
X3987800Y6921474D03*
G01*
X3987800Y6667474D03*
G01*
X3987800Y6413474D03*
G01*
X3987800Y6159474D03*
G01*
X3987800Y5905474D03*
G01*
X3987800Y5651500D03*
G01*
X3987800Y5397500D03*
G01*
X3987800Y5143500D03*
G01*
X3987800Y4889500D03*
G01*
X3987800Y4635500D03*
G01*
X3987800Y4381500D03*
G01*
X3987800Y4127500D03*
G01*
X3987800Y3873500D03*
G01*
X3987800Y3619500D03*
G01*
X3987800Y3365500D03*
G01*
X3987800Y3111500D03*
G01*
X3987800Y2857500D03*
G01*
X4495800Y2857500D03*
G01*
X4495800Y3111500D03*
G01*
X4495800Y3365500D03*
G01*
X4495800Y3619500D03*
G01*
X4495800Y3873500D03*
G01*
X4495800Y4127500D03*
G01*
X4495800Y4381500D03*
G01*
X4495800Y4635500D03*
G01*
X4495800Y4889500D03*
G01*
X4495800Y5143500D03*
G01*
X4495800Y5397500D03*
G01*
X4495800Y5651500D03*
G01*
X4495800Y5905474D03*
G01*
X4495800Y6159474D03*
G01*
X4495800Y6413474D03*
G01*
X4495800Y6667474D03*
G01*
X4495800Y6921474D03*
G01*
X4495800Y7175474D03*
G01*
X4495800Y7429474D03*
G01*
X4241800Y7429474D03*
G01*
X4241800Y7175474D03*
G01*
X4241800Y6921474D03*
G01*
X4241800Y6667474D03*
G01*
X4241800Y6413474D03*
G01*
X4241800Y6159474D03*
G01*
X4241800Y5905474D03*
G01*
X4241800Y5651500D03*
G01*
X4241800Y5397500D03*
G01*
X4241800Y5143500D03*
G01*
X4241800Y4889500D03*
G01*
X4241800Y4635500D03*
G01*
X4241800Y4381500D03*
G01*
X4241800Y4127500D03*
G01*
X4241800Y3873500D03*
G01*
X4241800Y3619500D03*
G01*
X4241800Y3365500D03*
G01*
X4241800Y3111500D03*
G01*
X4241800Y2857500D03*
G01*
X5257800Y2857500D03*
G01*
X5257800Y3111500D03*
G01*
X5257800Y3365500D03*
G01*
X5257800Y3619500D03*
G01*
X5257800Y3873500D03*
G01*
X5257800Y4127500D03*
G01*
X5257800Y4381500D03*
G01*
X5257800Y4635500D03*
G01*
X5257800Y4889500D03*
G01*
X5257800Y5143500D03*
G01*
X5257800Y5397500D03*
G01*
X5257800Y5651500D03*
G01*
X5257800Y5905474D03*
G01*
X5257800Y6159474D03*
G01*
X5257800Y6413474D03*
G01*
X5257800Y6667474D03*
G01*
X5257800Y6921474D03*
G01*
X5257800Y7175474D03*
G01*
X5257800Y7429474D03*
G01*
X5511800Y7429474D03*
G01*
X5511800Y7175474D03*
G01*
X5511800Y6921474D03*
G01*
X5511800Y6667474D03*
G01*
X5511800Y6413474D03*
G01*
X5511800Y6159474D03*
G01*
X5511800Y5905474D03*
G01*
X5511800Y5651500D03*
G01*
X5511800Y5397500D03*
G01*
X5511800Y5143500D03*
G01*
X5511800Y4889500D03*
G01*
X5511800Y4635500D03*
G01*
X5511800Y4381500D03*
G01*
X5511800Y4127500D03*
G01*
X5511800Y3873500D03*
G01*
X5511800Y3619500D03*
G01*
X5511800Y3365500D03*
G01*
X5511800Y3111500D03*
G01*
X5511800Y2857500D03*
G01*
X5003800Y2857500D03*
G01*
X5003800Y3111500D03*
G01*
X5003800Y3365500D03*
G01*
X5003800Y3619500D03*
G01*
X5003800Y3873500D03*
G01*
X5003800Y4127500D03*
G01*
X5003800Y4381500D03*
G01*
X5003800Y4635500D03*
G01*
X5003800Y4889500D03*
G01*
X5003800Y5143500D03*
G01*
X5003800Y5397500D03*
G01*
X5003800Y5651500D03*
G01*
X5003800Y5905474D03*
G01*
X5003800Y6159474D03*
G01*
X5003800Y6413474D03*
G01*
X5003800Y6667474D03*
G01*
X5003800Y6921474D03*
G01*
X5003800Y7175474D03*
G01*
X5003800Y7429474D03*
G01*
X4749800Y7429474D03*
G01*
X4749800Y7175474D03*
G01*
X4749800Y6921474D03*
G01*
X4749800Y6667474D03*
G01*
X4749800Y6413474D03*
G01*
X4749800Y6159474D03*
G01*
X4749800Y5905474D03*
G01*
X4749800Y5651500D03*
G01*
X4749800Y5397500D03*
G01*
X4749800Y5143500D03*
G01*
X4749800Y4889500D03*
G01*
X4749800Y4635500D03*
G01*
X4749800Y4381500D03*
G01*
X4749800Y4127500D03*
G01*
X4749800Y3873500D03*
G01*
X4749800Y3619500D03*
G01*
X4749800Y3365500D03*
G01*
X4749800Y3111500D03*
G01*
X4749800Y2857500D03*
G01*
X6781774Y2857500D03*
G01*
X6781774Y3111500D03*
G01*
X6781774Y3365500D03*
G01*
X6781774Y3619500D03*
G01*
X6781774Y3873500D03*
G01*
X6781774Y4127500D03*
G01*
X6781774Y4381500D03*
G01*
X6781774Y4635500D03*
G01*
X6781774Y4889500D03*
G01*
X6781774Y5143500D03*
G01*
X6781774Y5397500D03*
G01*
X6781774Y5651500D03*
G01*
X6781774Y5905474D03*
G01*
X6781774Y6159474D03*
G01*
X6781774Y6413474D03*
G01*
X6781774Y6667474D03*
G01*
X6781774Y6921474D03*
G01*
X6781774Y7175474D03*
G01*
X6781774Y7429474D03*
G01*
X7035774Y7429474D03*
G01*
X7035774Y7175474D03*
G01*
X7035774Y6921474D03*
G01*
X7035774Y6667474D03*
G01*
X7035774Y6413474D03*
G01*
X7035774Y6159474D03*
G01*
X7035774Y5905474D03*
G01*
X7035774Y5651500D03*
G01*
X7035774Y5397500D03*
G01*
X7035774Y5143500D03*
G01*
X7035774Y4889500D03*
G01*
X7035774Y4635500D03*
G01*
X7035774Y4381500D03*
G01*
X7035774Y4127500D03*
G01*
X7035774Y3873500D03*
G01*
X7035774Y3619500D03*
G01*
X7035774Y3365500D03*
G01*
X7035774Y3111500D03*
G01*
X7035774Y2857500D03*
G01*
X7543774Y2857500D03*
G01*
X7543774Y3111500D03*
G01*
X7543774Y3365500D03*
G01*
X7543774Y3619500D03*
G01*
X7543774Y3873500D03*
G01*
X7543774Y4127500D03*
G01*
X7543774Y4381500D03*
G01*
X7543774Y4635500D03*
G01*
X7543774Y4889500D03*
G01*
X7543774Y5143500D03*
G01*
X7543774Y5397500D03*
G01*
X7543774Y5651500D03*
G01*
X7543774Y5905474D03*
G01*
X7543774Y6159474D03*
G01*
X7543774Y6413474D03*
G01*
X7543774Y6667474D03*
G01*
X7543774Y6921474D03*
G01*
X7543774Y7175474D03*
G01*
X7543774Y7429474D03*
G01*
X7289774Y7429474D03*
G01*
X7289774Y7175474D03*
G01*
X7289774Y6921474D03*
G01*
X7289774Y6667474D03*
G01*
X7289774Y6413474D03*
G01*
X7289774Y6159474D03*
G01*
X7289774Y5905474D03*
G01*
X7289774Y5651500D03*
G01*
X7289774Y5397500D03*
G01*
X7289774Y5143500D03*
G01*
X7289774Y4889500D03*
G01*
X7289774Y4635500D03*
G01*
X7289774Y4381500D03*
G01*
X7289774Y4127500D03*
G01*
X7289774Y3873500D03*
G01*
X7289774Y3619500D03*
G01*
X7289774Y3365500D03*
G01*
X7289774Y3111500D03*
G01*
X7289774Y2857500D03*
G01*
X6273800Y2857500D03*
G01*
X6273800Y3111500D03*
G01*
X6273800Y3365500D03*
G01*
X6273800Y3619500D03*
G01*
X6273800Y3873500D03*
G01*
X6273800Y4127500D03*
G01*
X6273800Y4381500D03*
G01*
X6273800Y4635500D03*
G01*
X6273800Y4889500D03*
G01*
X6273800Y5143500D03*
G01*
X6273800Y5397500D03*
G01*
X6273800Y5651500D03*
G01*
X6273800Y5905474D03*
G01*
X6273800Y6159474D03*
G01*
X6273800Y6413474D03*
G01*
X6273800Y6667474D03*
G01*
X6273800Y6921474D03*
G01*
X6273800Y7175474D03*
G01*
X6273800Y7429474D03*
G01*
X6527800Y7429474D03*
G01*
X6527800Y7175474D03*
G01*
X6527800Y6921474D03*
G01*
X6527800Y6667474D03*
G01*
X6527800Y6413474D03*
G01*
X6527800Y6159474D03*
G01*
X6527800Y5905474D03*
G01*
X6527800Y5651500D03*
G01*
X6527800Y5397500D03*
G01*
X6527800Y5143500D03*
G01*
X6527800Y4889500D03*
G01*
X6527800Y4635500D03*
G01*
X6527800Y4381500D03*
G01*
X6527800Y4127500D03*
G01*
X6527800Y3873500D03*
G01*
X6527800Y3619500D03*
G01*
X6527800Y3365500D03*
G01*
X6527800Y3111500D03*
G01*
X6527800Y2857500D03*
G01*
X6019800Y2857500D03*
G01*
X6019800Y3111500D03*
G01*
X6019800Y3365500D03*
G01*
X6019800Y3619500D03*
G01*
X6019800Y3873500D03*
G01*
X6019800Y4127500D03*
G01*
X6019800Y4381500D03*
G01*
X6019800Y4635500D03*
G01*
X6019800Y4889500D03*
G01*
X6019800Y5143500D03*
G01*
X6019800Y5397500D03*
G01*
X6019800Y5651500D03*
G01*
X6019800Y5905474D03*
G01*
X6019800Y6159474D03*
G01*
X6019800Y6413474D03*
G01*
X6019800Y6667474D03*
G01*
X6019800Y6921474D03*
G01*
X6019800Y7175474D03*
G01*
X6019800Y7429474D03*
G01*
X5765800Y7429474D03*
G01*
X5765800Y7175474D03*
G01*
X5765800Y6921474D03*
G01*
X5765800Y6667474D03*
G01*
X5765800Y6413474D03*
G01*
X5765800Y6159474D03*
G01*
X5765800Y5905474D03*
G01*
X5765800Y5651500D03*
G01*
X5765800Y5397500D03*
G01*
X5765800Y5143500D03*
G01*
X5765800Y4889500D03*
G01*
X5765800Y4635500D03*
G01*
X5765800Y4381500D03*
G01*
X5765800Y4127500D03*
G01*
X5765800Y3873500D03*
G01*
X5765800Y3619500D03*
G01*
X5765800Y3365500D03*
G01*
X5765800Y3111500D03*
G01*
X5765800Y2857500D03*
G01*
X8813774Y2857500D03*
G01*
X8813774Y3111500D03*
G01*
X8813774Y3365500D03*
G01*
X8813774Y3619500D03*
G01*
X8813774Y3873500D03*
G01*
X8813774Y4127500D03*
G01*
X8813774Y4381500D03*
G01*
X8813774Y4635500D03*
G01*
X8813774Y4889500D03*
G01*
X8813774Y5143500D03*
G01*
X8813774Y5397500D03*
G01*
X8813774Y5651500D03*
G01*
X8813774Y5905474D03*
G01*
X8813774Y6159474D03*
G01*
X8813774Y6413474D03*
G01*
X8813774Y6667474D03*
G01*
X8813774Y6921474D03*
G01*
X8813774Y7175474D03*
G01*
X8813774Y7429474D03*
G01*
X9067774Y7429474D03*
G01*
X9067774Y7175474D03*
G01*
X9067774Y6921474D03*
G01*
X9067774Y6667474D03*
G01*
X9067774Y6413474D03*
G01*
X9067774Y6159474D03*
G01*
X9067774Y5905474D03*
G01*
X9067774Y5651500D03*
G01*
X9067774Y5397500D03*
G01*
X9067774Y5143500D03*
G01*
X9067774Y4889500D03*
G01*
X9067774Y4635500D03*
G01*
X9067774Y4381500D03*
G01*
X9067774Y4127500D03*
G01*
X9067774Y3873500D03*
G01*
X9067774Y3619500D03*
G01*
X9067774Y3365500D03*
G01*
X9067774Y3111500D03*
G01*
X9067774Y2857500D03*
G01*
X9575774Y2857500D03*
G01*
X9575774Y3111500D03*
G01*
X9575774Y3365500D03*
G01*
X9575774Y3619500D03*
G01*
X9575774Y3873500D03*
G01*
X9575774Y4127500D03*
G01*
X9575774Y4381500D03*
G01*
X9575774Y4635500D03*
G01*
X9575774Y4889500D03*
G01*
X9575774Y5143500D03*
G01*
X9575774Y5397500D03*
G01*
X9575774Y5651500D03*
G01*
X9575774Y5905474D03*
G01*
X9575774Y6159474D03*
G01*
X9575774Y6413474D03*
G01*
X9575774Y6667474D03*
G01*
X9575774Y6921474D03*
G01*
X9575774Y7175474D03*
G01*
X9575774Y7429474D03*
G01*
X9321774Y7429474D03*
G01*
X9321774Y7175474D03*
G01*
X9321774Y6921474D03*
G01*
X9321774Y6667474D03*
G01*
X9321774Y6413474D03*
G01*
X9321774Y6159474D03*
G01*
X9321774Y5905474D03*
G01*
X9321774Y5651500D03*
G01*
X9321774Y5397500D03*
G01*
X9321774Y5143500D03*
G01*
X9321774Y4889500D03*
G01*
X9321774Y4635500D03*
G01*
X9321774Y4381500D03*
G01*
X9321774Y4127500D03*
G01*
X9321774Y3873500D03*
G01*
X9321774Y3619500D03*
G01*
X9321774Y3365500D03*
G01*
X9321774Y3111500D03*
G01*
X9321774Y2857500D03*
G01*
X8305774Y2857500D03*
G01*
X8305774Y3111500D03*
G01*
X8305774Y3365500D03*
G01*
X8305774Y3619500D03*
G01*
X8305774Y3873500D03*
G01*
X8305774Y4127500D03*
G01*
X8305774Y4381500D03*
G01*
X8305774Y4635500D03*
G01*
X8305774Y4889500D03*
G01*
X8305774Y5143500D03*
G01*
X8305774Y5397500D03*
G01*
X8305774Y5651500D03*
G01*
X8305774Y5905474D03*
G01*
X8305774Y6159474D03*
G01*
X8305774Y6413474D03*
G01*
X8305774Y6667474D03*
G01*
X8305774Y6921474D03*
G01*
X8305774Y7175474D03*
G01*
X8305774Y7429474D03*
G01*
X8559774Y7429474D03*
G01*
X8559774Y7175474D03*
G01*
X8559774Y6921474D03*
G01*
X8559774Y6667474D03*
G01*
X8559774Y6413474D03*
G01*
X8559774Y6159474D03*
G01*
X8559774Y5905474D03*
G01*
X8559774Y5651500D03*
G01*
X8559774Y5397500D03*
G01*
X8559774Y5143500D03*
G01*
X8559774Y4889500D03*
G01*
X8559774Y4635500D03*
G01*
X8559774Y4381500D03*
G01*
X8559774Y4127500D03*
G01*
X8559774Y3873500D03*
G01*
X8559774Y3619500D03*
G01*
X8559774Y3365500D03*
G01*
X8559774Y3111500D03*
G01*
X8559774Y2857500D03*
G01*
X8051774Y2857500D03*
G01*
X8051774Y3111500D03*
G01*
X8051774Y3365500D03*
G01*
X8051774Y3619500D03*
G01*
X8051774Y3873500D03*
G01*
X8051774Y4127500D03*
G01*
X8051774Y4381500D03*
G01*
X8051774Y4635500D03*
G01*
X8051774Y4889500D03*
G01*
X8051774Y5143500D03*
G01*
X8051774Y5397500D03*
G01*
X8051774Y5651500D03*
G01*
X8051774Y5905474D03*
G01*
X8051774Y6159474D03*
G01*
X8051774Y6413474D03*
G01*
X8051774Y6667474D03*
G01*
X8051774Y6921474D03*
G01*
X8051774Y7175474D03*
G01*
X8051774Y7429474D03*
G01*
X7797774Y7429474D03*
G01*
X7797774Y7175474D03*
G01*
X7797774Y6921474D03*
G01*
X7797774Y6667474D03*
G01*
X7797774Y6413474D03*
G01*
X7797774Y6159474D03*
G01*
X7797774Y5905474D03*
G01*
X7797774Y5651500D03*
G01*
X7797774Y5397500D03*
G01*
X7797774Y5143500D03*
G01*
X7797774Y4889500D03*
G01*
X7797774Y4635500D03*
G01*
X7797774Y4381500D03*
G01*
X7797774Y4127500D03*
G01*
X7797774Y3873500D03*
G01*
X7797774Y3619500D03*
G01*
X7797774Y3365500D03*
G01*
X7797774Y3111500D03*
G01*
X7797774Y2857500D03*
G01*
X9829774Y2857500D03*
G01*
X9829774Y3111500D03*
G01*
X9829774Y3365500D03*
G01*
X9829774Y3619500D03*
G01*
X9829774Y3873500D03*
G01*
X9829774Y4127500D03*
G01*
X9829774Y4381500D03*
G01*
X9829774Y4635500D03*
G01*
X9829774Y4889500D03*
G01*
X9829774Y5143500D03*
G01*
X9829774Y5397500D03*
G01*
X9829774Y5651500D03*
G01*
X9829774Y5905474D03*
G01*
X9829774Y6159474D03*
G01*
X9829774Y6413474D03*
G01*
X9829774Y6667474D03*
G01*
X9829774Y6921474D03*
G01*
X9829774Y7175474D03*
G01*
X9829774Y7429474D03*
G01*
X10083774Y2857500D03*
G01*
X10083774Y3111500D03*
G01*
X10083774Y3365500D03*
G01*
X10083774Y3619500D03*
G01*
X10083774Y3873500D03*
G01*
X10083774Y4127500D03*
G01*
X10083774Y4381500D03*
G01*
X10083774Y4635500D03*
G01*
X10083774Y4889500D03*
G01*
X10083774Y5143500D03*
G01*
X10083774Y5397500D03*
G01*
X10083774Y5651500D03*
G01*
X10083774Y5905474D03*
G01*
X10083774Y6159474D03*
G01*
X10083774Y6413474D03*
G01*
X10083774Y6667474D03*
G01*
X10083774Y6921474D03*
G01*
X10083774Y7175474D03*
G01*
X10083774Y7429474D03*
G01*
X10337774Y2857500D03*
G01*
X10337774Y3111500D03*
G01*
X10337774Y3365500D03*
G01*
X10337774Y3619500D03*
G01*
X10337774Y3873500D03*
G01*
X10337774Y4127500D03*
G01*
X10337774Y4381500D03*
G01*
X10337774Y4635500D03*
G01*
X10337774Y4889500D03*
G01*
X10337774Y5143500D03*
G01*
X10337774Y5397500D03*
G01*
X10337774Y5651500D03*
G01*
X10337774Y5905474D03*
G01*
X10337774Y6159474D03*
G01*
X10337774Y6413474D03*
G01*
X10337774Y6667474D03*
G01*
X10337774Y6921474D03*
G01*
X10337774Y7175474D03*
G01*
X10337774Y7429474D03*
G01*
X9067774Y7683474D03*
G01*
X9067774Y7937474D03*
G01*
X9067774Y8191474D03*
G01*
X9067774Y8445474D03*
G01*
X9067774Y8699474D03*
G01*
X9067774Y8953474D03*
G01*
X9067774Y9207474D03*
G01*
X9067774Y9461474D03*
G01*
X9575774Y9461474D03*
G01*
X9575774Y9207474D03*
G01*
X9575774Y8953474D03*
G01*
X9575774Y8699474D03*
G01*
X9575774Y8445474D03*
G01*
X9575774Y8191474D03*
G01*
X9575774Y7937474D03*
G01*
X9575774Y7683474D03*
G01*
X9321774Y7683474D03*
G01*
X9321774Y7937474D03*
G01*
X9321774Y8191474D03*
G01*
X9321774Y8445474D03*
G01*
X9321774Y8699474D03*
G01*
X9321774Y8953474D03*
G01*
X9321774Y9207474D03*
G01*
X9321774Y9461474D03*
G01*
X10083774Y9461474D03*
G01*
X10083774Y9207474D03*
G01*
X10083774Y8953474D03*
G01*
X10083774Y8699474D03*
G01*
X10083774Y8445474D03*
G01*
X10083774Y8191474D03*
G01*
X10083774Y7937474D03*
G01*
X10083774Y7683474D03*
G01*
X10337774Y7683474D03*
G01*
X10337774Y7937474D03*
G01*
X10337774Y8191474D03*
G01*
X10337774Y8445474D03*
G01*
X10337774Y8699474D03*
G01*
X10337774Y8953474D03*
G01*
X10337774Y9207474D03*
G01*
X10337774Y9461474D03*
G01*
X9829774Y9461474D03*
G01*
X9829774Y9207474D03*
G01*
X9829774Y8953474D03*
G01*
X9829774Y8699474D03*
G01*
X9829774Y8445474D03*
G01*
X9829774Y8191474D03*
G01*
X9829774Y7937474D03*
G01*
X9829774Y7683474D03*
D15*
G01*
X7111974Y8635974D03*
G01*
X7264374Y8788374D03*
G01*
X7264374Y8483574D03*
G01*
X7416774Y8635974D03*
G01*
X7188174Y8712174D03*
G01*
X7340574Y8559774D03*
G01*
X7188174Y8559774D03*
G01*
X7340574Y8712174D03*
G01*
X7264374Y8623274D03*
G01*
X5584291Y9118574D03*
G01*
X5981700Y9115983D03*
G01*
X6108700Y9115983D03*
G01*
X6235700Y9115983D03*
G01*
X7527747Y9140545D03*
G01*
X7622235Y9052331D03*
G01*
X6924319Y9098127D03*
G01*
X6670344Y8856827D03*
G01*
X6667931Y8673642D03*
G01*
X6566331Y8509431D03*
G01*
X6598767Y8364067D03*
G01*
X6687667Y8275167D03*
G01*
X6833031Y8242731D03*
G01*
X7698155Y8324316D03*
G01*
X7950174Y8018856D03*
G01*
X6418681Y8000974D03*
G01*
X5854700Y9115983D03*
G01*
X7442174Y8077174D03*
G01*
X4706797Y8991574D03*
G01*
X5300802Y8991574D03*
G01*
X5461000Y8338032D03*
G01*
X5702300Y8082356D03*
G01*
X5095875Y8000974D03*
G01*
X6921931Y8153831D03*
G01*
X4406900Y8661374D03*
G01*
X4406900Y8572474D03*
G01*
X7761579Y8832570D03*
G01*
X7556474Y8674074D03*
G01*
X7830896Y8687688D03*
G01*
X7734274Y8648674D03*
G01*
X6578600Y9182074D03*
G01*
X6667500Y9182074D03*
G01*
X7327874Y8902674D03*
G01*
X7251674Y8966174D03*
G01*
X6980377Y8580577D03*
G01*
X6959600Y8674074D03*
G01*
X6781800Y8826474D03*
G01*
X7010374Y8737574D03*
G01*
X6845300Y8889974D03*
G01*
X7061174Y8801074D03*
G01*
X6997674Y8229574D03*
G01*
X7125284Y8416772D03*
G01*
X7181977Y8353780D03*
G01*
X7950174Y8508974D03*
G01*
X7950174Y8597874D03*
G01*
X7950174Y8407374D03*
G01*
X7810474Y8559774D03*
G01*
X7708874Y8178774D03*
G01*
X7446772Y8462797D03*
G01*
X7568006Y8291906D03*
G01*
X7390206Y8406206D03*
G01*
X7511440Y8235314D03*
G01*
X7333640Y8349640D03*
G01*
X7454874Y8178774D03*
G01*
X7277074Y8293074D03*
G01*
X7648193Y9166479D03*
G01*
X8153374Y8287893D03*
G01*
X4939182Y8870391D03*
G01*
X5702300Y7995793D03*
G01*
X4584700Y8166100D03*
G01*
X5934583Y8876690D03*
G01*
X5934709Y8000974D03*
G01*
X5854700Y7861274D03*
G01*
X5080000Y9143974D03*
G01*
X4876800Y9347174D03*
G01*
X5486400Y8991574D03*
G01*
X3708400Y8991574D03*
G01*
X3708400Y8686774D03*
G01*
X3708400Y8483574D03*
G01*
X3708400Y8178774D03*
G01*
X4064000Y8127974D03*
G01*
X5153380Y8252993D03*
G01*
X4876800Y7721574D03*
G01*
X4826000Y8229574D03*
G01*
X5283200Y8026374D03*
G01*
X5638800Y7721574D03*
G01*
X5384800Y7721574D03*
G01*
X5130800Y7721574D03*
G01*
X4622800Y7721574D03*
G01*
X4368800Y7721574D03*
G01*
X4114800Y7721574D03*
G01*
X6146800Y7721574D03*
G01*
X6654800Y7721574D03*
G01*
X8432774Y7721574D03*
G01*
X8178774Y7721574D03*
G01*
X7924774Y7721574D03*
G01*
X7670774Y7721574D03*
G01*
X7416774Y7721574D03*
G01*
X7162774Y7721574D03*
G01*
X5613400Y8356574D03*
G01*
X5765800Y8254974D03*
G01*
X8432774Y9448774D03*
G01*
X8178774Y9448774D03*
G01*
X7924774Y9448774D03*
G01*
X3860800Y9448774D03*
G01*
X4114800Y9448774D03*
G01*
X4368800Y9448774D03*
G01*
X4622800Y9448774D03*
G01*
X4876800Y9448774D03*
G01*
X5130800Y9448774D03*
G01*
X4495800Y9270974D03*
G01*
X4622800Y9321774D03*
G01*
X4521200Y9093174D03*
G01*
X5384800Y9448774D03*
G01*
X5638800Y9448774D03*
G01*
X5892800Y9448774D03*
G01*
X6146800Y9448774D03*
G01*
X6654800Y9448774D03*
G01*
X7162774Y9448774D03*
G01*
X7416774Y9448774D03*
G01*
X7670774Y9448774D03*
G01*
X7150481Y8807373D03*
G01*
X7062292Y8504986D03*
G01*
X7442174Y8762974D03*
G01*
X7503286Y8561679D03*
G01*
X7213574Y9321774D03*
G01*
X4953000Y9093174D03*
G01*
X4572000Y8280374D03*
G01*
X8559774Y7899374D03*
G01*
X8153374Y8153374D03*
G01*
X6908800Y9499574D03*
G01*
X6400800Y9499574D03*
G01*
X8563483Y8610574D03*
G01*
X7370978Y8819972D03*
G01*
X7194575Y8889288D03*
G01*
X7830896Y8958579D03*
G01*
X7830896Y9134983D03*
G01*
X8177377Y9210573D03*
G01*
X8259292Y8712885D03*
G01*
X4863591Y8517585D03*
G01*
X5021097Y8712885D03*
G01*
X5184902Y8511286D03*
G01*
X5480989Y8700287D03*
G01*
X5480989Y8504986D03*
G01*
X5613298Y8498687D03*
G01*
X5613298Y8700287D03*
G01*
X5184902Y8700287D03*
G01*
X5814898Y8700287D03*
G01*
X5814898Y8876690D03*
G01*
X6029096Y8700287D03*
G01*
X5764479Y8492388D03*
G01*
X6224397Y8700287D03*
G01*
X6325184Y8265591D03*
G01*
X6235700Y8409965D03*
G01*
X6438595Y8637270D03*
M02*
