G04 Layer: TopLayer*
G04 EasyEDA v6.5.14, 2022-08-20 14:37:37*
G04 4645136cb0f74b4096413293ac8c450d,6126cb6f80e34288b1b51c63ee1abbf7,10*
G04 Gerber Generator version 0.2*
G04 Scale: 100 percent, Rotated: No, Reflected: No *
G04 Dimensions in millimeters *
G04 leading zeros omitted , absolute positions ,4 integer and 5 decimal *
%FSLAX45Y45*%
%MOMM*%

%AMMACRO1*21,1,$1,$2,0,0,$3*%
%AMMACRO2*4,1,4,-0.635,-0.3175,-0.635,0.3175,0.635,0.3175,0.635,-0.3175,-0.635,-0.3175,0*%
%ADD10C,0.2000*%
%ADD11C,0.3000*%
%ADD12C,0.6000*%
%ADD13C,0.4000*%
%ADD14MACRO1,0.864X0.8065X90.0000*%
%ADD15MACRO1,0.54X0.7901X-90.0000*%
%ADD16MACRO1,0.54X0.7901X0.0000*%
%ADD17R,0.5400X0.7901*%
%ADD18MACRO1,0.54X0.5656X0.0000*%
%ADD19R,0.5400X0.5657*%
%ADD20R,0.9000X1.2500*%
%ADD21R,2.5000X1.1000*%
%ADD22MACRO1,3.6X2.34X90.0000*%
%ADD23MACRO2*%
%ADD24MACRO1,1.728X1.485X-90.0000*%
%ADD25MACRO1,1.728X1.485X0.0000*%
%ADD26R,1.7280X1.4850*%
%ADD27MACRO1,1.1X0.2X134.9991*%
%ADD28MACRO1,1.1X0.2X135.0000*%
%ADD29MACRO1,1.1X0.2X135.0009*%
%ADD30MACRO1,1.1X0.2X-135.0000*%
%ADD31MACRO1,1.1X0.2X-134.9991*%
%ADD32MACRO1,1.1X0.2X-135.0009*%
%ADD33MACRO1,1.1X0.2X-45.0000*%
%ADD34MACRO1,1.1X0.2X-45.0009*%
%ADD35MACRO1,1.1X0.2X44.9991*%
%ADD36MACRO1,1.1X0.2X45.0000*%
%ADD37MACRO1,1.1X0.2X45.0009*%
%ADD38MACRO1,3.1X3.1X135.0000*%
%ADD39O,0.6299962X2.2500082*%
%ADD40R,0.8000X0.8000*%
%ADD41R,1.8000X1.8000*%
%ADD42R,1.6000X2.1000*%
%ADD43R,1.3500X0.4000*%
%ADD44R,0.7000X0.4200*%
%ADD45R,1.2000X1.4000*%
%ADD46MACRO1,0.54X0.7901X135.0000*%
%ADD47MACRO1,0.54X0.7901X135.0019*%
%ADD48MACRO1,0.54X0.7901X-45.0000*%
%ADD49MACRO1,0.54X0.7901X-44.9981*%
%ADD50MACRO1,0.54X0.7901X-135.0000*%
%ADD51MACRO1,0.54X0.5656X-45.0019*%
%ADD52MACRO1,0.54X0.5656X-45.0000*%
%ADD53MACRO1,0.54X0.5656X135.0000*%
%ADD54MACRO1,0.54X0.5656X134.9981*%
%ADD55MACRO1,0.54X0.5656X90.0000*%
%ADD56MACRO1,0.54X0.7901X90.0000*%
%ADD57MACRO1,0.54X0.7901X-134.9981*%
%ADD58MACRO1,0.54X0.7901X45.0000*%
%ADD59C,1.6000*%
%ADD60R,1.6000X1.6000*%
%ADD61C,0.6100*%
%ADD62C,0.0144*%

%LPD*%
G36*
X6411722Y9454540D02*
G01*
X6407962Y9455353D01*
X6404762Y9457537D01*
X6388354Y9473895D01*
X6383782Y9477857D01*
X6381242Y9479432D01*
X6378244Y9482277D01*
X6376619Y9486087D01*
X6376060Y9488881D01*
X6371590Y9501987D01*
X6365494Y9514433D01*
X6357772Y9525965D01*
X6348679Y9536379D01*
X6338265Y9545472D01*
X6326733Y9553194D01*
X6323431Y9554819D01*
X6319926Y9557664D01*
X6318046Y9561728D01*
X6318046Y9566198D01*
X6320028Y9570262D01*
X6323533Y9573056D01*
X6327952Y9574072D01*
X6473647Y9574072D01*
X6478016Y9573056D01*
X6481572Y9570262D01*
X6483502Y9566198D01*
X6483553Y9561728D01*
X6481622Y9557664D01*
X6478117Y9554819D01*
X6474866Y9553194D01*
X6463334Y9545472D01*
X6452920Y9536379D01*
X6443776Y9525965D01*
X6436106Y9514433D01*
X6429959Y9501987D01*
X6425488Y9488881D01*
X6422796Y9475317D01*
X6422085Y9464040D01*
X6421069Y9460331D01*
X6418783Y9457232D01*
X6415532Y9455200D01*
G37*

%LPD*%
G36*
X6920585Y9441434D02*
G01*
X6916572Y9442145D01*
X6913168Y9444380D01*
X6889800Y9467799D01*
X6887718Y9470796D01*
X6884060Y9488881D01*
X6879590Y9501987D01*
X6873494Y9514433D01*
X6865772Y9525965D01*
X6856679Y9536379D01*
X6846265Y9545472D01*
X6834733Y9553194D01*
X6831431Y9554819D01*
X6827926Y9557664D01*
X6826046Y9561728D01*
X6826046Y9566198D01*
X6828028Y9570262D01*
X6831533Y9573056D01*
X6835952Y9574072D01*
X6981647Y9574072D01*
X6986016Y9573056D01*
X6989572Y9570262D01*
X6991502Y9566198D01*
X6991553Y9561728D01*
X6989622Y9557664D01*
X6986117Y9554819D01*
X6982866Y9553194D01*
X6971334Y9545472D01*
X6960920Y9536379D01*
X6951776Y9525965D01*
X6944106Y9514433D01*
X6937959Y9501987D01*
X6933488Y9488881D01*
X6930796Y9475317D01*
X6929881Y9461500D01*
X6930491Y9452254D01*
X6929932Y9448190D01*
X6927850Y9444736D01*
X6924548Y9442348D01*
G37*

%LPD*%
G36*
X7417917Y9376206D02*
G01*
X7413752Y9376867D01*
X7410196Y9379153D01*
X7386421Y9402927D01*
X7384135Y9406432D01*
X7383424Y9410547D01*
X7384491Y9414611D01*
X7387590Y9420961D01*
X7392060Y9434068D01*
X7394752Y9447682D01*
X7395667Y9461500D01*
X7394752Y9475317D01*
X7392060Y9488881D01*
X7387590Y9501987D01*
X7381494Y9514433D01*
X7373772Y9525965D01*
X7364679Y9536379D01*
X7354265Y9545472D01*
X7342733Y9553194D01*
X7339431Y9554819D01*
X7335926Y9557664D01*
X7334046Y9561728D01*
X7334046Y9566198D01*
X7336028Y9570262D01*
X7339533Y9573056D01*
X7343952Y9574072D01*
X7489647Y9574072D01*
X7494016Y9573056D01*
X7497572Y9570262D01*
X7499502Y9566198D01*
X7499553Y9561728D01*
X7497622Y9557664D01*
X7494117Y9554819D01*
X7490866Y9553194D01*
X7479334Y9545472D01*
X7468920Y9536379D01*
X7459776Y9525965D01*
X7452106Y9514433D01*
X7445959Y9501987D01*
X7441488Y9488881D01*
X7438796Y9475317D01*
X7437881Y9461500D01*
X7438796Y9447682D01*
X7441488Y9434068D01*
X7445959Y9420961D01*
X7449108Y9414611D01*
X7450124Y9410547D01*
X7449464Y9406432D01*
X7447178Y9402927D01*
X7429906Y9385655D01*
X7425283Y9379966D01*
X7421981Y9377324D01*
G37*

%LPD*%
G36*
X6153200Y9370415D02*
G01*
X6149289Y9371177D01*
X6145987Y9373362D01*
X6116421Y9402978D01*
X6114135Y9406483D01*
X6113475Y9410598D01*
X6114491Y9414611D01*
X6117590Y9420961D01*
X6122060Y9434068D01*
X6124752Y9447682D01*
X6125667Y9461500D01*
X6124752Y9475317D01*
X6122060Y9488881D01*
X6117590Y9501987D01*
X6111494Y9514433D01*
X6103772Y9525965D01*
X6094679Y9536379D01*
X6084265Y9545472D01*
X6072733Y9553194D01*
X6069431Y9554819D01*
X6065926Y9557664D01*
X6064046Y9561728D01*
X6064046Y9566198D01*
X6066028Y9570262D01*
X6069533Y9573056D01*
X6073952Y9574072D01*
X6219647Y9574072D01*
X6224016Y9573056D01*
X6227572Y9570262D01*
X6229502Y9566198D01*
X6229553Y9561728D01*
X6227622Y9557664D01*
X6224117Y9554819D01*
X6220866Y9553194D01*
X6209334Y9545472D01*
X6198920Y9536379D01*
X6189776Y9525965D01*
X6182106Y9514433D01*
X6175959Y9501987D01*
X6171488Y9488881D01*
X6168796Y9475317D01*
X6167882Y9461500D01*
X6168796Y9447682D01*
X6171488Y9434068D01*
X6175959Y9420961D01*
X6182106Y9408515D01*
X6189776Y9397034D01*
X6198362Y9387281D01*
X6200292Y9383928D01*
X6200851Y9380118D01*
X6199936Y9376359D01*
X6197701Y9373209D01*
X6194501Y9371126D01*
X6190691Y9370415D01*
G37*

%LPD*%
G36*
X6661150Y9370364D02*
G01*
X6657289Y9371177D01*
X6653987Y9373362D01*
X6624421Y9402927D01*
X6622135Y9406432D01*
X6621424Y9410547D01*
X6622491Y9414611D01*
X6625590Y9420961D01*
X6630060Y9434068D01*
X6632752Y9447682D01*
X6633667Y9461500D01*
X6632752Y9475317D01*
X6630060Y9488881D01*
X6625590Y9501987D01*
X6619494Y9514433D01*
X6611772Y9525965D01*
X6602679Y9536379D01*
X6592265Y9545472D01*
X6580733Y9553194D01*
X6577431Y9554819D01*
X6573926Y9557664D01*
X6572046Y9561728D01*
X6572046Y9566198D01*
X6574028Y9570262D01*
X6577533Y9573056D01*
X6581952Y9574072D01*
X6727647Y9574072D01*
X6732016Y9573056D01*
X6735572Y9570262D01*
X6737502Y9566198D01*
X6737553Y9561728D01*
X6735622Y9557664D01*
X6732117Y9554819D01*
X6728866Y9553194D01*
X6717334Y9545472D01*
X6706920Y9536379D01*
X6697776Y9525965D01*
X6690106Y9514433D01*
X6683959Y9501987D01*
X6679488Y9488881D01*
X6676796Y9475317D01*
X6675881Y9461500D01*
X6676796Y9447682D01*
X6679488Y9434068D01*
X6683959Y9420961D01*
X6690106Y9408515D01*
X6697776Y9397034D01*
X6706362Y9387230D01*
X6708292Y9383928D01*
X6708851Y9380118D01*
X6707987Y9376359D01*
X6705752Y9373209D01*
X6702501Y9371126D01*
X6698691Y9370364D01*
G37*

%LPD*%
G36*
X4180281Y9339630D02*
G01*
X4176369Y9340392D01*
X4173067Y9342577D01*
X4092397Y9423298D01*
X4090263Y9426397D01*
X4089400Y9430004D01*
X4092752Y9447682D01*
X4093667Y9461500D01*
X4092752Y9475317D01*
X4090060Y9488881D01*
X4085590Y9501987D01*
X4079494Y9514433D01*
X4071772Y9525965D01*
X4062679Y9536379D01*
X4052265Y9545472D01*
X4040733Y9553194D01*
X4037431Y9554819D01*
X4033926Y9557664D01*
X4032046Y9561728D01*
X4032046Y9566198D01*
X4034028Y9570262D01*
X4037533Y9573056D01*
X4041952Y9574072D01*
X4187647Y9574072D01*
X4192015Y9573056D01*
X4195572Y9570262D01*
X4196537Y9568281D01*
X4198416Y9571075D01*
X4201718Y9573310D01*
X4205579Y9574072D01*
X4277969Y9574072D01*
X4281881Y9573310D01*
X4285183Y9571075D01*
X4287062Y9568281D01*
X4288028Y9570262D01*
X4291533Y9573056D01*
X4295952Y9574072D01*
X4441647Y9574072D01*
X4446016Y9573056D01*
X4449572Y9570262D01*
X4451502Y9566198D01*
X4451553Y9561728D01*
X4449622Y9557664D01*
X4446117Y9554819D01*
X4442866Y9553194D01*
X4431334Y9545472D01*
X4420920Y9536379D01*
X4411776Y9525965D01*
X4404106Y9514433D01*
X4397959Y9501987D01*
X4393488Y9488881D01*
X4390796Y9475317D01*
X4389882Y9461500D01*
X4390796Y9447682D01*
X4393641Y9433712D01*
X4394149Y9430004D01*
X4393336Y9426346D01*
X4391202Y9423247D01*
X4310532Y9342577D01*
X4307230Y9340392D01*
X4303318Y9339630D01*
G37*

%LPC*%
G36*
X4195419Y9366554D02*
G01*
X4195419Y9415119D01*
X4146854Y9415119D01*
X4150106Y9408515D01*
X4157776Y9397034D01*
X4166920Y9386620D01*
X4177334Y9377476D01*
X4188866Y9369806D01*
G37*
G36*
X4288129Y9366554D02*
G01*
X4294733Y9369806D01*
X4306265Y9377476D01*
X4316679Y9386620D01*
X4325772Y9397034D01*
X4333494Y9408515D01*
X4336745Y9415119D01*
X4288129Y9415119D01*
G37*
G36*
X4146854Y9507829D02*
G01*
X4195419Y9507829D01*
X4195419Y9557512D01*
X4192117Y9554819D01*
X4188866Y9553194D01*
X4177334Y9545472D01*
X4166920Y9536379D01*
X4157776Y9525965D01*
X4150106Y9514433D01*
G37*
G36*
X4288129Y9507829D02*
G01*
X4336745Y9507829D01*
X4333494Y9514433D01*
X4325772Y9525965D01*
X4316679Y9536379D01*
X4306265Y9545472D01*
X4294733Y9553194D01*
X4291431Y9554819D01*
X4288129Y9557512D01*
G37*

%LPD*%
G36*
X5937300Y9332315D02*
G01*
X5933389Y9333077D01*
X5930087Y9335262D01*
X5862421Y9402978D01*
X5860135Y9406483D01*
X5859475Y9410598D01*
X5860491Y9414611D01*
X5863590Y9420961D01*
X5868060Y9434068D01*
X5870752Y9447682D01*
X5871667Y9461500D01*
X5870752Y9475317D01*
X5868060Y9488881D01*
X5863590Y9501987D01*
X5857494Y9514433D01*
X5849772Y9525965D01*
X5840679Y9536379D01*
X5830265Y9545472D01*
X5818733Y9553194D01*
X5815431Y9554819D01*
X5811926Y9557664D01*
X5810046Y9561728D01*
X5810046Y9566198D01*
X5812028Y9570262D01*
X5815533Y9573056D01*
X5819952Y9574072D01*
X5965647Y9574072D01*
X5970016Y9573056D01*
X5973572Y9570262D01*
X5975502Y9566198D01*
X5975553Y9561728D01*
X5973622Y9557664D01*
X5970117Y9554819D01*
X5966866Y9553194D01*
X5955334Y9545472D01*
X5944920Y9536379D01*
X5935776Y9525965D01*
X5928106Y9514433D01*
X5921959Y9501987D01*
X5917488Y9488881D01*
X5914796Y9475317D01*
X5913882Y9461500D01*
X5914796Y9447682D01*
X5917488Y9434068D01*
X5921959Y9420961D01*
X5928106Y9408515D01*
X5935776Y9397034D01*
X5944920Y9386620D01*
X5955334Y9377476D01*
X5966866Y9369806D01*
X5979261Y9363659D01*
X5992368Y9359188D01*
X6005982Y9356496D01*
X6019800Y9355582D01*
X6033617Y9356496D01*
X6047181Y9359188D01*
X6049721Y9360052D01*
X6053429Y9360611D01*
X6057087Y9359747D01*
X6060186Y9357614D01*
X6068161Y9349638D01*
X6070346Y9346336D01*
X6071158Y9342475D01*
X6070346Y9338564D01*
X6068161Y9335262D01*
X6064859Y9333077D01*
X6060998Y9332315D01*
G37*

%LPD*%
G36*
X5721400Y9294215D02*
G01*
X5717489Y9294977D01*
X5714187Y9297162D01*
X5608421Y9402978D01*
X5606135Y9406483D01*
X5605475Y9410598D01*
X5606491Y9414611D01*
X5609590Y9420961D01*
X5614060Y9434068D01*
X5616752Y9447682D01*
X5617667Y9461500D01*
X5616752Y9475317D01*
X5614060Y9488881D01*
X5609590Y9501987D01*
X5603494Y9514433D01*
X5595772Y9525965D01*
X5586679Y9536379D01*
X5576265Y9545472D01*
X5564733Y9553194D01*
X5561431Y9554819D01*
X5557926Y9557664D01*
X5556046Y9561728D01*
X5556046Y9566198D01*
X5558028Y9570262D01*
X5561533Y9573056D01*
X5565952Y9574072D01*
X5711647Y9574072D01*
X5716016Y9573056D01*
X5719572Y9570262D01*
X5721502Y9566198D01*
X5721553Y9561728D01*
X5719622Y9557664D01*
X5716117Y9554819D01*
X5712866Y9553194D01*
X5701334Y9545472D01*
X5690920Y9536379D01*
X5681776Y9525965D01*
X5674106Y9514433D01*
X5667959Y9501987D01*
X5663488Y9488881D01*
X5660796Y9475317D01*
X5659882Y9461500D01*
X5660796Y9447682D01*
X5663488Y9434068D01*
X5667959Y9420961D01*
X5674106Y9408515D01*
X5681776Y9397034D01*
X5690920Y9386620D01*
X5701334Y9377476D01*
X5712866Y9369806D01*
X5725261Y9363659D01*
X5738368Y9359188D01*
X5751982Y9356496D01*
X5765800Y9355582D01*
X5779617Y9356496D01*
X5793181Y9359188D01*
X5795721Y9360052D01*
X5799429Y9360611D01*
X5803087Y9359747D01*
X5806186Y9357614D01*
X5852261Y9311538D01*
X5854446Y9308236D01*
X5855258Y9304375D01*
X5854446Y9300464D01*
X5852261Y9297162D01*
X5848959Y9294977D01*
X5845098Y9294215D01*
G37*

%LPD*%
G36*
X6823709Y9119006D02*
G01*
X6819798Y9119768D01*
X6816547Y9121952D01*
X6794703Y9143746D01*
X6792061Y9146997D01*
X6790944Y9151112D01*
X6791604Y9155277D01*
X6793941Y9158833D01*
X6814769Y9179661D01*
X6789369Y9205061D01*
X6787134Y9208363D01*
X6784543Y9205061D01*
X6782308Y9202775D01*
X6778345Y9197797D01*
X6775805Y9192615D01*
X6774535Y9186976D01*
X6774535Y9181185D01*
X6775805Y9175597D01*
X6779006Y9169095D01*
X6780022Y9164980D01*
X6779310Y9160814D01*
X6776923Y9157258D01*
X6773316Y9155023D01*
X6768693Y9154515D01*
X6559600Y9154515D01*
X6555689Y9155277D01*
X6552387Y9157462D01*
X6504838Y9205061D01*
X6502654Y9208363D01*
X6501841Y9212224D01*
X6502654Y9216136D01*
X6504838Y9219438D01*
X6508140Y9221622D01*
X6512001Y9222384D01*
X6777380Y9222384D01*
X6781241Y9221622D01*
X6784543Y9219438D01*
X6786778Y9216136D01*
X6789369Y9219438D01*
X6792620Y9221622D01*
X6796531Y9222384D01*
X6823964Y9222384D01*
X6827824Y9221622D01*
X6831126Y9219438D01*
X6842810Y9207703D01*
X6849465Y9214358D01*
X6852767Y9216593D01*
X6856679Y9217355D01*
X6860540Y9216593D01*
X6863842Y9214358D01*
X6886397Y9191802D01*
X6888581Y9188551D01*
X6889343Y9184640D01*
X6888581Y9180779D01*
X6886397Y9177477D01*
X6879742Y9170822D01*
X6884924Y9165590D01*
X6887108Y9162338D01*
X6887921Y9158427D01*
X6887108Y9154566D01*
X6884924Y9151264D01*
X6871208Y9137548D01*
X6867906Y9135364D01*
X6864045Y9134551D01*
X6860133Y9135364D01*
X6856831Y9137548D01*
X6851650Y9142730D01*
X6830872Y9121952D01*
X6827570Y9119768D01*
G37*

%LPD*%
G36*
X7321245Y9118498D02*
G01*
X7317384Y9119311D01*
X7314082Y9121495D01*
X7083399Y9352178D01*
X7081215Y9355328D01*
X7080402Y9359087D01*
X7081012Y9362897D01*
X7082993Y9366148D01*
X7086092Y9368485D01*
X7088733Y9369806D01*
X7100265Y9377476D01*
X7110679Y9386620D01*
X7119772Y9397034D01*
X7127494Y9408515D01*
X7133590Y9420961D01*
X7138060Y9434068D01*
X7140752Y9447682D01*
X7141667Y9461500D01*
X7140752Y9475317D01*
X7138060Y9488881D01*
X7133590Y9501987D01*
X7127494Y9514433D01*
X7119772Y9525965D01*
X7110679Y9536379D01*
X7100265Y9545472D01*
X7088733Y9553194D01*
X7085431Y9554819D01*
X7081926Y9557664D01*
X7080046Y9561728D01*
X7080046Y9566198D01*
X7082028Y9570262D01*
X7085533Y9573056D01*
X7089952Y9574072D01*
X7235647Y9574072D01*
X7240016Y9573056D01*
X7243572Y9570262D01*
X7245502Y9566198D01*
X7245553Y9561728D01*
X7243622Y9557664D01*
X7240117Y9554819D01*
X7236866Y9553194D01*
X7225334Y9545472D01*
X7214920Y9536379D01*
X7205776Y9525965D01*
X7198106Y9514433D01*
X7191959Y9501987D01*
X7187488Y9488881D01*
X7184796Y9475317D01*
X7183881Y9461500D01*
X7184796Y9447682D01*
X7187488Y9434068D01*
X7191959Y9420961D01*
X7198106Y9408515D01*
X7205776Y9397034D01*
X7214920Y9386620D01*
X7225334Y9377476D01*
X7236866Y9369806D01*
X7249261Y9363659D01*
X7262368Y9359188D01*
X7275982Y9356496D01*
X7289800Y9355582D01*
X7303617Y9356496D01*
X7317181Y9359188D01*
X7319721Y9360052D01*
X7323429Y9360611D01*
X7327087Y9359747D01*
X7330186Y9357614D01*
X7377887Y9309912D01*
X7380122Y9306610D01*
X7380884Y9302699D01*
X7380884Y9140799D01*
X7380071Y9136786D01*
X7377734Y9133433D01*
X7374280Y9131300D01*
X7370267Y9130639D01*
X7366304Y9131655D01*
X7361631Y9133890D01*
X7355992Y9135160D01*
X7350201Y9135160D01*
X7344562Y9133890D01*
X7339330Y9131401D01*
X7334351Y9127439D01*
X7328458Y9121495D01*
X7325156Y9119311D01*
G37*

%LPD*%
G36*
X7771333Y8925915D02*
G01*
X7767624Y8926626D01*
X7764424Y8928608D01*
X7762189Y8931656D01*
X7761173Y8935313D01*
X7761630Y8939072D01*
X7763357Y8942425D01*
X7766761Y8946642D01*
X7769453Y8952280D01*
X7771434Y8955024D01*
X7774228Y8957005D01*
X7779816Y8959697D01*
X7784795Y8963660D01*
X7824012Y9002877D01*
X7827975Y9007856D01*
X7830464Y9013037D01*
X7831988Y9019692D01*
X7833309Y9022842D01*
X7835544Y9025382D01*
X7838541Y9027007D01*
X7841894Y9027566D01*
X7880908Y9027566D01*
X7884769Y9026804D01*
X7888071Y9024620D01*
X7890256Y9021318D01*
X7891068Y9017406D01*
X7891068Y8994038D01*
X7891780Y8987739D01*
X7892745Y8984945D01*
X7893303Y8981186D01*
X7892440Y8977528D01*
X7890357Y8974378D01*
X7844840Y8928862D01*
X7841538Y8926677D01*
X7837627Y8925915D01*
G37*

%LPD*%
G36*
X7305548Y8399373D02*
G01*
X7301585Y8400034D01*
X7298181Y8402167D01*
X7295845Y8405469D01*
X7294981Y8409381D01*
X7295743Y8413343D01*
X7297978Y8416696D01*
X7322718Y8441436D01*
X7254087Y8510066D01*
X7188758Y8444788D01*
X7185050Y8442401D01*
X7180732Y8441842D01*
X7176516Y8443163D01*
X7173264Y8446160D01*
X7168489Y8453018D01*
X7161530Y8459978D01*
X7153452Y8465566D01*
X7144562Y8469731D01*
X7135063Y8472271D01*
X7125309Y8473135D01*
X7115505Y8472271D01*
X7106005Y8469731D01*
X7097115Y8465566D01*
X7089038Y8459978D01*
X7082078Y8453018D01*
X7076490Y8444941D01*
X7073900Y8439454D01*
X7071461Y8436152D01*
X7067905Y8434070D01*
X7063841Y8433612D01*
X7059879Y8434781D01*
X7056729Y8437372D01*
X7052818Y8442350D01*
X7039457Y8455660D01*
X7034479Y8459622D01*
X7030872Y8462010D01*
X7028484Y8465616D01*
X7024522Y8470595D01*
X7011162Y8483955D01*
X7006234Y8487918D01*
X7002576Y8490305D01*
X7000189Y8493912D01*
X6996226Y8498890D01*
X6986778Y8508390D01*
X6984441Y8511895D01*
X6983780Y8516112D01*
X6984898Y8520176D01*
X6987540Y8523478D01*
X6991299Y8525357D01*
X6999681Y8527592D01*
X7008571Y8531758D01*
X7016597Y8537397D01*
X7023557Y8544356D01*
X7029196Y8552383D01*
X7033361Y8561273D01*
X7035596Y8569756D01*
X7037527Y8573516D01*
X7040829Y8576157D01*
X7044893Y8577275D01*
X7049058Y8576614D01*
X7052614Y8574328D01*
X7066889Y8560054D01*
X7135520Y8628684D01*
X7062825Y8701379D01*
X7060539Y8704783D01*
X7059828Y8708847D01*
X7060793Y8712809D01*
X7063333Y8718296D01*
X7065873Y8727795D01*
X7066737Y8737498D01*
X7067905Y8741460D01*
X7070547Y8744610D01*
X7074204Y8746439D01*
X7080453Y8748115D01*
X7089343Y8752281D01*
X7097420Y8757869D01*
X7104380Y8764828D01*
X7109968Y8772906D01*
X7114133Y8781796D01*
X7116673Y8791295D01*
X7117537Y8801049D01*
X7116673Y8810853D01*
X7114133Y8820353D01*
X7109968Y8829243D01*
X7104380Y8837320D01*
X7096912Y8844737D01*
X7094728Y8848039D01*
X7093915Y8851950D01*
X7094728Y8855811D01*
X7096912Y8859113D01*
X7109358Y8871559D01*
X7113320Y8876538D01*
X7115708Y8880195D01*
X7119366Y8882583D01*
X7124344Y8886545D01*
X7137653Y8899855D01*
X7141616Y8904833D01*
X7144003Y8908440D01*
X7147610Y8910828D01*
X7152589Y8914790D01*
X7165949Y8928150D01*
X7169912Y8933129D01*
X7172299Y8936736D01*
X7175906Y8939123D01*
X7180884Y8943086D01*
X7183983Y8946184D01*
X7187184Y8948369D01*
X7190994Y8949182D01*
X7194803Y8948470D01*
X7198106Y8946438D01*
X7200392Y8943289D01*
X7202881Y8938006D01*
X7208469Y8929928D01*
X7215428Y8922969D01*
X7223506Y8917381D01*
X7232396Y8913215D01*
X7241895Y8910675D01*
X7251700Y8909812D01*
X7260590Y8910574D01*
X7264552Y8910167D01*
X7268006Y8908237D01*
X7270496Y8905138D01*
X7271613Y8901328D01*
X7272375Y8892895D01*
X7274509Y8884818D01*
X7274763Y8880703D01*
X7273290Y8876792D01*
X7270445Y8873794D01*
X7266584Y8872220D01*
X7262418Y8872321D01*
X7256983Y8873540D01*
X7251192Y8873540D01*
X7245553Y8872270D01*
X7240320Y8869730D01*
X7235342Y8865768D01*
X7185456Y8815882D01*
X7254087Y8747252D01*
X7322718Y8815882D01*
X7308494Y8830106D01*
X7306157Y8833764D01*
X7305548Y8838082D01*
X7306818Y8842248D01*
X7309713Y8845499D01*
X7313726Y8847277D01*
X7318044Y8847175D01*
X7327900Y8846312D01*
X7337653Y8847175D01*
X7347153Y8849715D01*
X7356043Y8853881D01*
X7364120Y8859469D01*
X7371080Y8866428D01*
X7379512Y8878570D01*
X7383068Y8880652D01*
X7387132Y8881110D01*
X7391044Y8879941D01*
X7394194Y8877350D01*
X7398816Y8871559D01*
X7412126Y8858250D01*
X7417104Y8854287D01*
X7420762Y8851900D01*
X7423150Y8848242D01*
X7427112Y8843314D01*
X7440422Y8829954D01*
X7445400Y8825992D01*
X7449007Y8823604D01*
X7451394Y8819997D01*
X7455357Y8815019D01*
X7468717Y8801658D01*
X7473696Y8797696D01*
X7477302Y8795308D01*
X7479690Y8791702D01*
X7483652Y8786723D01*
X7497013Y8773414D01*
X7501991Y8769400D01*
X7505598Y8767064D01*
X7507986Y8763406D01*
X7510729Y8759952D01*
X7513675Y8762898D01*
X7515961Y8764625D01*
X7520787Y8766098D01*
X7524851Y8766200D01*
X7528661Y8764676D01*
X7531557Y8761831D01*
X7533030Y8758021D01*
X7532979Y8753957D01*
X7531455Y8749131D01*
X7529728Y8746845D01*
X7526781Y8743899D01*
X7531150Y8740444D01*
X7533792Y8737295D01*
X7534960Y8733332D01*
X7534452Y8729268D01*
X7532420Y8725712D01*
X7520228Y8717280D01*
X7513269Y8710320D01*
X7507681Y8702243D01*
X7503515Y8693353D01*
X7500975Y8683853D01*
X7500112Y8674049D01*
X7500975Y8664244D01*
X7501077Y8659926D01*
X7499299Y8655913D01*
X7496048Y8653018D01*
X7491882Y8651748D01*
X7487564Y8652357D01*
X7483906Y8654694D01*
X7441285Y8697315D01*
X7372654Y8628684D01*
X7441285Y8560054D01*
X7491222Y8609939D01*
X7495184Y8614918D01*
X7497673Y8620150D01*
X7498994Y8625789D01*
X7498994Y8627618D01*
X7499756Y8631529D01*
X7501940Y8634831D01*
X7505242Y8637016D01*
X7509154Y8637778D01*
X7513015Y8637016D01*
X7516317Y8634831D01*
X7520228Y8630869D01*
X7528306Y8625281D01*
X7537196Y8621115D01*
X7546695Y8618575D01*
X7556500Y8617712D01*
X7566253Y8618575D01*
X7575753Y8621115D01*
X7584643Y8625281D01*
X7592720Y8630869D01*
X7599680Y8637828D01*
X7605471Y8646312D01*
X7607960Y8649614D01*
X7611465Y8651646D01*
X7615580Y8652154D01*
X7619492Y8650986D01*
X7622641Y8648344D01*
X7625080Y8645296D01*
X7634528Y8635847D01*
X7636713Y8632545D01*
X7637525Y8628684D01*
X7636713Y8624773D01*
X7634528Y8621471D01*
X7625080Y8612022D01*
X7621117Y8607044D01*
X7618730Y8603437D01*
X7615123Y8601049D01*
X7610144Y8597087D01*
X7596784Y8583726D01*
X7592822Y8578799D01*
X7590434Y8575141D01*
X7586827Y8572754D01*
X7581849Y8568791D01*
X7568539Y8555482D01*
X7564526Y8550503D01*
X7562189Y8546846D01*
X7558531Y8544509D01*
X7553553Y8540496D01*
X7540244Y8527186D01*
X7536281Y8522208D01*
X7533894Y8518601D01*
X7530236Y8516213D01*
X7525258Y8512251D01*
X7511948Y8498890D01*
X7508748Y8494877D01*
X7505903Y8492439D01*
X7502398Y8491220D01*
X7498638Y8491321D01*
X7495184Y8492794D01*
X7492492Y8495385D01*
X7489952Y8499043D01*
X7482992Y8506002D01*
X7474966Y8511590D01*
X7466075Y8515756D01*
X7456576Y8518296D01*
X7446772Y8519160D01*
X7436967Y8518296D01*
X7427468Y8515756D01*
X7418578Y8511590D01*
X7410551Y8506002D01*
X7403592Y8499043D01*
X7397953Y8490966D01*
X7393787Y8482076D01*
X7391247Y8472576D01*
X7390231Y8467699D01*
X7388199Y8464804D01*
X7385303Y8462772D01*
X7380427Y8461705D01*
X7370927Y8459165D01*
X7362037Y8454999D01*
X7353960Y8449411D01*
X7347000Y8442452D01*
X7343546Y8437473D01*
X7340447Y8434324D01*
X7339533Y8430412D01*
X7337247Y8425484D01*
X7334707Y8415985D01*
X7333640Y8411108D01*
X7331608Y8408212D01*
X7328712Y8406180D01*
X7323836Y8405164D01*
X7314336Y8402624D01*
X7309459Y8400338D01*
G37*

%LPD*%
G36*
X4093870Y7629398D02*
G01*
X4089654Y7630922D01*
X4086555Y7634071D01*
X4085082Y7638288D01*
X4085539Y7642707D01*
X4090060Y7656068D01*
X4092752Y7669682D01*
X4093667Y7683500D01*
X4092752Y7697317D01*
X4090060Y7710881D01*
X4085590Y7723987D01*
X4079494Y7736433D01*
X4071772Y7747965D01*
X4062679Y7758379D01*
X4052265Y7767472D01*
X4040733Y7775194D01*
X4028287Y7781290D01*
X4015181Y7785760D01*
X4001617Y7788452D01*
X3987800Y7789367D01*
X3973982Y7788452D01*
X3960368Y7785760D01*
X3947261Y7781290D01*
X3934866Y7775194D01*
X3923334Y7767472D01*
X3912920Y7758379D01*
X3903776Y7747965D01*
X3896106Y7736433D01*
X3889959Y7723987D01*
X3885488Y7710881D01*
X3882796Y7697317D01*
X3881882Y7683500D01*
X3882796Y7669682D01*
X3885488Y7656068D01*
X3889959Y7642961D01*
X3890518Y7639151D01*
X3889552Y7635392D01*
X3887317Y7632293D01*
X3884066Y7630210D01*
X3880307Y7629499D01*
X3867607Y7632293D01*
X3858514Y7632700D01*
X3851198Y7631734D01*
X3846931Y7632039D01*
X3843172Y7634122D01*
X3840581Y7637576D01*
X3839718Y7641793D01*
X3839718Y7759801D01*
X3840479Y7763662D01*
X3842664Y7766964D01*
X3898087Y7822387D01*
X3901389Y7824622D01*
X3905250Y7825384D01*
X5806948Y7825384D01*
X5810859Y7824622D01*
X5814161Y7822387D01*
X5818479Y7818069D01*
X5826506Y7812481D01*
X5835396Y7808315D01*
X5844895Y7805775D01*
X5854700Y7804912D01*
X5864504Y7805775D01*
X5874004Y7808315D01*
X5882894Y7812481D01*
X5890920Y7818069D01*
X5897880Y7825028D01*
X5903518Y7833106D01*
X5907684Y7841996D01*
X5910224Y7851495D01*
X5911088Y7861249D01*
X5910224Y7871053D01*
X5907684Y7880553D01*
X5903518Y7889443D01*
X5897880Y7897520D01*
X5890920Y7904480D01*
X5882894Y7910068D01*
X5874004Y7914233D01*
X5864504Y7916773D01*
X5854700Y7917637D01*
X5844895Y7916773D01*
X5835396Y7914233D01*
X5826506Y7910068D01*
X5818479Y7904480D01*
X5814161Y7900162D01*
X5810910Y7897977D01*
X5806998Y7897215D01*
X3886708Y7897215D01*
X3878732Y7896352D01*
X3871620Y7894015D01*
X3865016Y7890205D01*
X3860495Y7886395D01*
X3766515Y7792364D01*
X3763213Y7790180D01*
X3759301Y7789367D01*
X3654348Y7789367D01*
X3648049Y7788656D01*
X3646220Y7788046D01*
X3642410Y7787487D01*
X3638651Y7788402D01*
X3635501Y7790637D01*
X3633419Y7793837D01*
X3632708Y7797647D01*
X3632708Y9347352D01*
X3633419Y9351111D01*
X3635501Y9354362D01*
X3638651Y9356598D01*
X3642410Y9357461D01*
X3646220Y9356902D01*
X3648049Y9356293D01*
X3654348Y9355582D01*
X3687419Y9355582D01*
X3687419Y9415119D01*
X3642868Y9415119D01*
X3638956Y9415881D01*
X3635654Y9418116D01*
X3633470Y9421418D01*
X3632708Y9425279D01*
X3632708Y9497669D01*
X3633470Y9501581D01*
X3635654Y9504832D01*
X3638956Y9507067D01*
X3642868Y9507829D01*
X3687419Y9507829D01*
X3687419Y9563912D01*
X3688232Y9567824D01*
X3690416Y9571075D01*
X3693718Y9573310D01*
X3697579Y9574072D01*
X3769969Y9574072D01*
X3773881Y9573310D01*
X3777183Y9571075D01*
X3779367Y9567824D01*
X3780129Y9563912D01*
X3780129Y9507829D01*
X3839718Y9507829D01*
X3839718Y9540900D01*
X3839006Y9547250D01*
X3837076Y9552686D01*
X3833418Y9558528D01*
X3831945Y9562541D01*
X3832301Y9566859D01*
X3834384Y9570618D01*
X3837838Y9573158D01*
X3842004Y9574072D01*
X3933647Y9574072D01*
X3938015Y9573056D01*
X3941572Y9570262D01*
X3943502Y9566198D01*
X3943553Y9561728D01*
X3941622Y9557664D01*
X3938117Y9554819D01*
X3934866Y9553194D01*
X3923334Y9545472D01*
X3912920Y9536379D01*
X3903776Y9525965D01*
X3896106Y9514433D01*
X3889959Y9501987D01*
X3885488Y9488881D01*
X3882796Y9475317D01*
X3881882Y9461500D01*
X3882796Y9447682D01*
X3885488Y9434068D01*
X3889959Y9420961D01*
X3896106Y9408515D01*
X3903776Y9397034D01*
X3912920Y9386620D01*
X3923334Y9377476D01*
X3934866Y9369806D01*
X3947261Y9363659D01*
X3960368Y9359188D01*
X3973982Y9356496D01*
X3987800Y9355582D01*
X3996486Y9356140D01*
X4000703Y9355531D01*
X4004310Y9353194D01*
X4113225Y9244330D01*
X4116984Y9240875D01*
X4120845Y9237929D01*
X4124960Y9235287D01*
X4129278Y9233052D01*
X4133799Y9231172D01*
X4138422Y9229699D01*
X4143197Y9228632D01*
X4148023Y9228023D01*
X4153103Y9227769D01*
X4179265Y9227769D01*
X4183176Y9227007D01*
X4186478Y9224822D01*
X4188663Y9221520D01*
X4189476Y9217609D01*
X4189476Y9088983D01*
X4189679Y9083903D01*
X4190288Y9079026D01*
X4191355Y9074302D01*
X4192828Y9069628D01*
X4194708Y9065107D01*
X4196943Y9060789D01*
X4199585Y9056674D01*
X4202531Y9052814D01*
X4205986Y9049054D01*
X4304030Y8951010D01*
X4306214Y8947759D01*
X4306976Y8943848D01*
X4306214Y8939987D01*
X4304030Y8936685D01*
X4300728Y8934450D01*
X4296816Y8933688D01*
X4279138Y8933688D01*
X4272788Y8932976D01*
X4267352Y8931046D01*
X4262424Y8927998D01*
X4258360Y8923883D01*
X4255262Y8919006D01*
X4253331Y8913520D01*
X4252620Y8907221D01*
X4252620Y8821928D01*
X4253331Y8815628D01*
X4255262Y8810193D01*
X4258360Y8805265D01*
X4259884Y8803741D01*
X4262069Y8800439D01*
X4262831Y8796528D01*
X4262831Y8760002D01*
X4262526Y8757361D01*
X4258868Y8748776D01*
X4256633Y8745423D01*
X4253280Y8743188D01*
X4249318Y8742426D01*
X4182414Y8743035D01*
X4178249Y8743950D01*
X4174794Y8746540D01*
X4172762Y8750300D01*
X4172458Y8754567D01*
X4173880Y8758580D01*
X4175912Y8761780D01*
X4177792Y8767216D01*
X4178503Y8773566D01*
X4178503Y8819134D01*
X4118965Y8819134D01*
X4118965Y8754059D01*
X4118203Y8750147D01*
X4115968Y8746845D01*
X4112666Y8744661D01*
X4108805Y8743899D01*
X4036415Y8743899D01*
X4032504Y8744661D01*
X4029252Y8746845D01*
X4027017Y8750147D01*
X4026255Y8754059D01*
X4026255Y8819134D01*
X3966718Y8819134D01*
X3966718Y8773566D01*
X3967429Y8767216D01*
X3969308Y8761780D01*
X3972407Y8756853D01*
X3976471Y8752789D01*
X3981399Y8749690D01*
X3986834Y8747760D01*
X3990543Y8747353D01*
X3994454Y8746083D01*
X3997502Y8743391D01*
X3999280Y8739733D01*
X3999433Y8735669D01*
X3998010Y8731859D01*
X3996334Y8729218D01*
X3994454Y8723731D01*
X3993743Y8717432D01*
X3993743Y8678570D01*
X3994454Y8672220D01*
X3995623Y8668816D01*
X3996182Y8665464D01*
X3995623Y8662111D01*
X3994454Y8658758D01*
X3993743Y8652408D01*
X3993743Y8613546D01*
X3994454Y8607247D01*
X3995623Y8603843D01*
X3996182Y8600490D01*
X3995623Y8597138D01*
X3994454Y8593734D01*
X3993743Y8587435D01*
X3993743Y8548573D01*
X3994454Y8542223D01*
X3995623Y8538819D01*
X3996182Y8535466D01*
X3995623Y8532114D01*
X3994454Y8528710D01*
X3993743Y8522411D01*
X3993743Y8483549D01*
X3994454Y8477250D01*
X3995623Y8473846D01*
X3996182Y8470493D01*
X3995623Y8467140D01*
X3994454Y8463737D01*
X3993743Y8457438D01*
X3993743Y8454339D01*
X4050233Y8454339D01*
X4053484Y8456371D01*
X4057192Y8457082D01*
X4117086Y8457082D01*
X4120794Y8456371D01*
X4124045Y8454339D01*
X4180840Y8454339D01*
X4182821Y8458352D01*
X4186326Y8461095D01*
X4190695Y8462060D01*
X4264761Y8462060D01*
X4268622Y8461298D01*
X4271924Y8459114D01*
X4312208Y8418830D01*
X4314393Y8415528D01*
X4315155Y8411616D01*
X4315155Y8299958D01*
X4314393Y8296046D01*
X4312208Y8292744D01*
X4308906Y8290559D01*
X4304995Y8289798D01*
X4293158Y8289798D01*
X4286859Y8289086D01*
X4281373Y8287156D01*
X4276496Y8284057D01*
X4272381Y8279993D01*
X4269333Y8275066D01*
X4267403Y8269630D01*
X4266692Y8263280D01*
X4266692Y8200948D01*
X4267606Y8192312D01*
X4267403Y8188299D01*
X4270197Y8186674D01*
X4276496Y8180171D01*
X4281373Y8177072D01*
X4286859Y8175193D01*
X4293158Y8174481D01*
X4419041Y8174481D01*
X4425340Y8175193D01*
X4430826Y8177072D01*
X4435703Y8180171D01*
X4441901Y8186623D01*
X4444796Y8188248D01*
X4444644Y8193481D01*
X4445508Y8200948D01*
X4445508Y8263280D01*
X4444796Y8269630D01*
X4442866Y8275066D01*
X4439818Y8279993D01*
X4435703Y8284057D01*
X4430826Y8287156D01*
X4425340Y8289086D01*
X4419041Y8289798D01*
X4407154Y8289798D01*
X4403242Y8290559D01*
X4399991Y8292744D01*
X4397756Y8296046D01*
X4396994Y8299958D01*
X4396994Y8432292D01*
X4396181Y8440775D01*
X4393844Y8448395D01*
X4390085Y8455456D01*
X4384649Y8462060D01*
X4344416Y8502294D01*
X4342282Y8505393D01*
X4341469Y8509101D01*
X4342028Y8512810D01*
X4343908Y8516112D01*
X4346854Y8518448D01*
X4350461Y8519566D01*
X4352442Y8519769D01*
X4357928Y8521700D01*
X4365701Y8526729D01*
X4369104Y8527592D01*
X4372559Y8527237D01*
X4375708Y8525764D01*
X4378706Y8523681D01*
X4387596Y8519515D01*
X4397095Y8516975D01*
X4406900Y8516112D01*
X4416704Y8516975D01*
X4426204Y8519515D01*
X4438650Y8525154D01*
X4442561Y8525205D01*
X4446168Y8523833D01*
X4449470Y8521700D01*
X4454956Y8519820D01*
X4461256Y8519109D01*
X4530140Y8519109D01*
X4536440Y8519820D01*
X4541926Y8521700D01*
X4546803Y8524798D01*
X4550918Y8528913D01*
X4553966Y8533790D01*
X4555896Y8539276D01*
X4556607Y8545576D01*
X4556607Y8586419D01*
X4555896Y8592769D01*
X4555032Y8595156D01*
X4554474Y8598509D01*
X4555032Y8601862D01*
X4555896Y8604250D01*
X4556607Y8610600D01*
X4556607Y8614156D01*
X4514240Y8614156D01*
X4511903Y8613241D01*
X4509363Y8612936D01*
X4481982Y8612936D01*
X4479493Y8613241D01*
X4477156Y8614156D01*
X4461916Y8614156D01*
X4457598Y8615121D01*
X4454144Y8617762D01*
X4452112Y8621674D01*
X4451908Y8626094D01*
X4453585Y8630158D01*
X4455718Y8633206D01*
X4459579Y8641435D01*
X4461814Y8644534D01*
X4465066Y8646617D01*
X4468876Y8647277D01*
X4472635Y8646515D01*
X4476546Y8644890D01*
X4481220Y8643467D01*
X4485944Y8642400D01*
X4490821Y8641740D01*
X4495698Y8641537D01*
X4500524Y8641740D01*
X4505401Y8642400D01*
X4510125Y8643467D01*
X4514748Y8644890D01*
X4519879Y8647074D01*
X4523841Y8647836D01*
X4556607Y8647836D01*
X4556607Y8651443D01*
X4555896Y8657742D01*
X4555032Y8660130D01*
X4554474Y8663482D01*
X4555032Y8666886D01*
X4555896Y8669274D01*
X4556556Y8675065D01*
X4557572Y8678519D01*
X4559808Y8681415D01*
X4562856Y8683345D01*
X4566412Y8684056D01*
X4570018Y8683498D01*
X4576064Y8681364D01*
X4582363Y8680653D01*
X4640732Y8680653D01*
X4644593Y8679891D01*
X4647895Y8677706D01*
X4650130Y8674404D01*
X4650892Y8670493D01*
X4650892Y8529574D01*
X4650232Y8525916D01*
X4648301Y8522766D01*
X4645406Y8520531D01*
X4641850Y8519464D01*
X4637532Y8518956D01*
X4632096Y8517077D01*
X4627168Y8513978D01*
X4623104Y8509914D01*
X4620006Y8504986D01*
X4618075Y8499551D01*
X4617364Y8493201D01*
X4617364Y8321548D01*
X4618075Y8315248D01*
X4620006Y8309762D01*
X4623104Y8304885D01*
X4627168Y8300770D01*
X4632096Y8297722D01*
X4637532Y8295792D01*
X4643882Y8295081D01*
X4791202Y8295081D01*
X4797552Y8295792D01*
X4802987Y8297722D01*
X4807915Y8300770D01*
X4811979Y8304885D01*
X4815078Y8309762D01*
X4817008Y8315248D01*
X4817719Y8321548D01*
X4817719Y8493201D01*
X4817008Y8499551D01*
X4815078Y8504986D01*
X4811979Y8509914D01*
X4807915Y8513978D01*
X4802987Y8517077D01*
X4797552Y8518956D01*
X4791202Y8519668D01*
X4772863Y8519668D01*
X4769002Y8520480D01*
X4765700Y8522665D01*
X4763465Y8525967D01*
X4762703Y8529828D01*
X4762703Y8670493D01*
X4763465Y8674404D01*
X4765700Y8677706D01*
X4769002Y8679891D01*
X4772863Y8680653D01*
X4831232Y8680653D01*
X4837531Y8681364D01*
X4843018Y8683294D01*
X4847894Y8686393D01*
X4852009Y8690457D01*
X4855057Y8695385D01*
X4856988Y8700820D01*
X4857699Y8707170D01*
X4857699Y8816035D01*
X4856988Y8822334D01*
X4855057Y8827820D01*
X4852009Y8832697D01*
X4847894Y8836812D01*
X4843018Y8839860D01*
X4837531Y8841790D01*
X4831232Y8842502D01*
X4582363Y8842502D01*
X4576064Y8841790D01*
X4570577Y8839860D01*
X4566564Y8837371D01*
X4562754Y8835948D01*
X4558690Y8836101D01*
X4555032Y8837879D01*
X4552340Y8840927D01*
X4551070Y8844838D01*
X4550714Y8848242D01*
X4549648Y8852916D01*
X4548225Y8857538D01*
X4546346Y8862060D01*
X4544060Y8866378D01*
X4541469Y8870442D01*
X4537913Y8875014D01*
X4536287Y8877960D01*
X4535728Y8881262D01*
X4535728Y8907221D01*
X4535017Y8913520D01*
X4533138Y8919006D01*
X4530039Y8923883D01*
X4525975Y8927998D01*
X4521047Y8931046D01*
X4515612Y8932976D01*
X4509262Y8933688D01*
X4483709Y8933688D01*
X4479798Y8934450D01*
X4476496Y8936685D01*
X4304233Y9108948D01*
X4302048Y9112250D01*
X4301286Y9116110D01*
X4301286Y9217609D01*
X4302048Y9221520D01*
X4304233Y9224822D01*
X4307535Y9227007D01*
X4311446Y9227769D01*
X4330496Y9227769D01*
X4335576Y9228023D01*
X4340402Y9228632D01*
X4345178Y9229699D01*
X4349800Y9231172D01*
X4354322Y9233052D01*
X4358640Y9235287D01*
X4362754Y9237929D01*
X4366615Y9240875D01*
X4370374Y9244330D01*
X4479290Y9353194D01*
X4482896Y9355531D01*
X4487113Y9356140D01*
X4495800Y9355582D01*
X4509617Y9356496D01*
X4523181Y9359188D01*
X4536287Y9363659D01*
X4548733Y9369806D01*
X4560265Y9377476D01*
X4570679Y9386620D01*
X4579772Y9397034D01*
X4587494Y9408515D01*
X4593590Y9420961D01*
X4598060Y9434068D01*
X4600752Y9447682D01*
X4601667Y9461500D01*
X4600752Y9475317D01*
X4598060Y9488881D01*
X4593590Y9501987D01*
X4587494Y9514433D01*
X4579772Y9525965D01*
X4570679Y9536379D01*
X4560265Y9545472D01*
X4548733Y9553194D01*
X4545431Y9554819D01*
X4541926Y9557664D01*
X4540046Y9561728D01*
X4540046Y9566198D01*
X4542028Y9570262D01*
X4545533Y9573056D01*
X4549952Y9574072D01*
X4695647Y9574072D01*
X4700016Y9573056D01*
X4703572Y9570262D01*
X4704537Y9568281D01*
X4706416Y9571075D01*
X4709718Y9573310D01*
X4713579Y9574072D01*
X4785969Y9574072D01*
X4789881Y9573310D01*
X4793183Y9571075D01*
X4795062Y9568281D01*
X4796028Y9570262D01*
X4799533Y9573056D01*
X4803952Y9574072D01*
X4949647Y9574072D01*
X4954016Y9573056D01*
X4957572Y9570262D01*
X4959502Y9566198D01*
X4959553Y9561728D01*
X4957622Y9557664D01*
X4954117Y9554819D01*
X4950866Y9553194D01*
X4939334Y9545472D01*
X4928920Y9536379D01*
X4919776Y9525965D01*
X4912106Y9514433D01*
X4905959Y9501987D01*
X4901488Y9488881D01*
X4898796Y9475317D01*
X4897882Y9461500D01*
X4898796Y9447682D01*
X4901488Y9434068D01*
X4905959Y9420961D01*
X4912106Y9408515D01*
X4919776Y9397034D01*
X4928920Y9386620D01*
X4939334Y9377476D01*
X4950866Y9369806D01*
X4963261Y9363659D01*
X4976368Y9359188D01*
X4989982Y9356496D01*
X5003800Y9355582D01*
X5017617Y9356496D01*
X5031181Y9359188D01*
X5044287Y9363659D01*
X5056733Y9369806D01*
X5068265Y9377476D01*
X5078679Y9386620D01*
X5087772Y9397034D01*
X5095494Y9408515D01*
X5101590Y9420961D01*
X5106060Y9434068D01*
X5108752Y9447682D01*
X5109667Y9461500D01*
X5108752Y9475317D01*
X5106060Y9488881D01*
X5101590Y9501987D01*
X5095494Y9514433D01*
X5087772Y9525965D01*
X5078679Y9536379D01*
X5068265Y9545472D01*
X5056733Y9553194D01*
X5053431Y9554819D01*
X5049926Y9557664D01*
X5048046Y9561728D01*
X5048046Y9566198D01*
X5050028Y9570262D01*
X5053533Y9573056D01*
X5057952Y9574072D01*
X5203647Y9574072D01*
X5208016Y9573056D01*
X5211572Y9570262D01*
X5212537Y9568281D01*
X5214416Y9571075D01*
X5217718Y9573310D01*
X5221579Y9574072D01*
X5293969Y9574072D01*
X5297881Y9573310D01*
X5301183Y9571075D01*
X5303062Y9568281D01*
X5304028Y9570262D01*
X5307533Y9573056D01*
X5311952Y9574072D01*
X5457647Y9574072D01*
X5462016Y9573056D01*
X5465572Y9570262D01*
X5467502Y9566198D01*
X5467553Y9561728D01*
X5465622Y9557664D01*
X5462117Y9554819D01*
X5458866Y9553194D01*
X5447334Y9545472D01*
X5436920Y9536379D01*
X5427776Y9525965D01*
X5420106Y9514433D01*
X5413959Y9501987D01*
X5409488Y9488881D01*
X5406796Y9475317D01*
X5405882Y9461500D01*
X5406796Y9447682D01*
X5409488Y9434068D01*
X5413959Y9420961D01*
X5420106Y9408515D01*
X5427776Y9397034D01*
X5436920Y9386620D01*
X5447334Y9377476D01*
X5458866Y9369806D01*
X5471261Y9363659D01*
X5484368Y9359188D01*
X5497982Y9356496D01*
X5511800Y9355582D01*
X5525617Y9356496D01*
X5539181Y9359188D01*
X5541721Y9360052D01*
X5545429Y9360611D01*
X5549087Y9359747D01*
X5552186Y9357614D01*
X5676544Y9233306D01*
X5682792Y9228226D01*
X5689447Y9224822D01*
X5696813Y9222841D01*
X5702706Y9222384D01*
X5789066Y9222384D01*
X5792724Y9221724D01*
X5795822Y9219844D01*
X5798108Y9216898D01*
X5799175Y9213392D01*
X5798921Y9209735D01*
X5798108Y9206433D01*
X5797296Y9196578D01*
X5797296Y9164624D01*
X5796483Y9160764D01*
X5794298Y9157462D01*
X5790996Y9155277D01*
X5787136Y9154464D01*
X5763158Y9154464D01*
X5759805Y9155074D01*
X5756808Y9156700D01*
X5754573Y9159240D01*
X5752998Y9161678D01*
X5748934Y9165793D01*
X5744006Y9168892D01*
X5738571Y9170771D01*
X5732221Y9171482D01*
X5654344Y9171482D01*
X5648045Y9170771D01*
X5642152Y9168739D01*
X5638800Y9168130D01*
X5635447Y9168739D01*
X5629554Y9170771D01*
X5623204Y9171482D01*
X5610402Y9171482D01*
X5610402Y9138412D01*
X5617718Y9138412D01*
X5621629Y9137650D01*
X5624931Y9135465D01*
X5627116Y9132163D01*
X5627878Y9128252D01*
X5627878Y9108897D01*
X5627116Y9104985D01*
X5624931Y9101683D01*
X5621629Y9099499D01*
X5617718Y9098737D01*
X5610402Y9098737D01*
X5610402Y9065666D01*
X5623204Y9065666D01*
X5629554Y9066377D01*
X5635447Y9068460D01*
X5638800Y9069019D01*
X5642152Y9068460D01*
X5648045Y9066377D01*
X5654344Y9065666D01*
X5732221Y9065666D01*
X5738571Y9066377D01*
X5744006Y9068308D01*
X5748934Y9071356D01*
X5752998Y9075470D01*
X5754522Y9077909D01*
X5756808Y9080449D01*
X5759805Y9082074D01*
X5763158Y9082684D01*
X5787136Y9082684D01*
X5790996Y9081871D01*
X5794298Y9079687D01*
X5796483Y9076385D01*
X5797296Y9072524D01*
X5797296Y9035389D01*
X5798108Y9025534D01*
X5800445Y9016339D01*
X5804204Y9007652D01*
X5809437Y8999728D01*
X5815838Y8992768D01*
X5823305Y8986926D01*
X5831636Y8982456D01*
X5840628Y8979357D01*
X5849924Y8977782D01*
X5859424Y8977782D01*
X5868771Y8979357D01*
X5877712Y8982456D01*
X5886043Y8986926D01*
X5893562Y8992768D01*
X5899962Y8999728D01*
X5905144Y9007652D01*
X5908903Y9016187D01*
X5911088Y9019387D01*
X5914339Y9021521D01*
X5918200Y9022283D01*
X5922010Y9021521D01*
X5925261Y9019387D01*
X5927496Y9016187D01*
X5931204Y9007652D01*
X5936437Y8999728D01*
X5942838Y8992768D01*
X5950305Y8986926D01*
X5958636Y8982456D01*
X5967628Y8979357D01*
X5976924Y8977782D01*
X5986424Y8977782D01*
X5995771Y8979357D01*
X6004712Y8982456D01*
X6013043Y8986926D01*
X6020562Y8992768D01*
X6026962Y8999728D01*
X6032144Y9007652D01*
X6035903Y9016187D01*
X6038088Y9019387D01*
X6041339Y9021521D01*
X6045200Y9022283D01*
X6049010Y9021521D01*
X6052261Y9019387D01*
X6054496Y9016187D01*
X6058204Y9007652D01*
X6063437Y8999728D01*
X6069838Y8992768D01*
X6077305Y8986926D01*
X6085636Y8982456D01*
X6094628Y8979357D01*
X6103924Y8977782D01*
X6113424Y8977782D01*
X6122771Y8979357D01*
X6131712Y8982456D01*
X6140043Y8986926D01*
X6147562Y8992768D01*
X6153962Y8999728D01*
X6159144Y9007652D01*
X6162903Y9016187D01*
X6165088Y9019387D01*
X6168339Y9021521D01*
X6172200Y9022283D01*
X6176010Y9021521D01*
X6179261Y9019387D01*
X6181496Y9016187D01*
X6185204Y9007652D01*
X6190437Y8999728D01*
X6196838Y8992768D01*
X6204305Y8986926D01*
X6212636Y8982456D01*
X6221628Y8979357D01*
X6230924Y8977782D01*
X6240424Y8977782D01*
X6249771Y8979357D01*
X6258712Y8982456D01*
X6267043Y8986926D01*
X6274562Y8992768D01*
X6280962Y8999728D01*
X6286144Y9007652D01*
X6289954Y9016339D01*
X6292291Y9025534D01*
X6293104Y9035389D01*
X6293104Y9196578D01*
X6292291Y9206433D01*
X6291427Y9209735D01*
X6291173Y9213392D01*
X6292291Y9216898D01*
X6294526Y9219844D01*
X6297676Y9221724D01*
X6301282Y9222384D01*
X6318199Y9222384D01*
X6322110Y9221622D01*
X6325412Y9219438D01*
X6502044Y9042806D01*
X6508292Y9037726D01*
X6514947Y9034322D01*
X6522313Y9032341D01*
X6528206Y9031884D01*
X6749999Y9031884D01*
X6753910Y9031122D01*
X6757212Y9028938D01*
X6827469Y8958681D01*
X6829602Y8955430D01*
X6830415Y8951671D01*
X6829755Y8947810D01*
X6827723Y8944559D01*
X6824573Y8942273D01*
X6817106Y8938768D01*
X6809079Y8933180D01*
X6802120Y8926220D01*
X6796481Y8918143D01*
X6792315Y8909253D01*
X6789775Y8899753D01*
X6789115Y8891930D01*
X6788200Y8888526D01*
X6786168Y8885631D01*
X6783273Y8883599D01*
X6779869Y8882684D01*
X6771995Y8881973D01*
X6762496Y8879433D01*
X6753606Y8875318D01*
X6744766Y8869070D01*
X6741566Y8867597D01*
X6738061Y8867292D01*
X6734657Y8868206D01*
X6731762Y8870238D01*
X6722313Y8879636D01*
X6720331Y8882532D01*
X6719163Y8885021D01*
X6713524Y8893048D01*
X6706565Y8900007D01*
X6698538Y8905646D01*
X6696049Y8906814D01*
X6693153Y8908796D01*
X6680200Y8921800D01*
X6675221Y8925763D01*
X6669633Y8928455D01*
X6666839Y8930436D01*
X6664858Y8933180D01*
X6662166Y8938818D01*
X6658203Y8943797D01*
X6649110Y8952890D01*
X6625742Y8929522D01*
X6630924Y8924290D01*
X6633108Y8921038D01*
X6633921Y8917127D01*
X6633108Y8913266D01*
X6630924Y8909964D01*
X6617208Y8896248D01*
X6613906Y8894064D01*
X6610045Y8893251D01*
X6606133Y8894064D01*
X6602831Y8896248D01*
X6597650Y8901430D01*
X6574281Y8878062D01*
X6583375Y8868968D01*
X6588353Y8865006D01*
X6593941Y8862314D01*
X6596735Y8860332D01*
X6598716Y8857538D01*
X6601409Y8851950D01*
X6605371Y8846972D01*
X6618376Y8833967D01*
X6620408Y8831072D01*
X6621525Y8828633D01*
X6627164Y8820607D01*
X6634124Y8813647D01*
X6642150Y8808008D01*
X6644589Y8806840D01*
X6647484Y8804859D01*
X6660438Y8791905D01*
X6665417Y8787942D01*
X6670649Y8785402D01*
X6679996Y8783269D01*
X6683095Y8781135D01*
X6789420Y8674811D01*
X6791706Y8671407D01*
X6792417Y8667343D01*
X6791452Y8663381D01*
X6789013Y8660079D01*
X6785457Y8657996D01*
X6781393Y8657539D01*
X6777481Y8658707D01*
X6773062Y8661044D01*
X6765391Y8663381D01*
X6756908Y8664194D01*
X6749542Y8664194D01*
X6746189Y8664752D01*
X6743192Y8666429D01*
X6740906Y8668969D01*
X6739331Y8673338D01*
X6736842Y8678570D01*
X6732879Y8683498D01*
X6719925Y8696452D01*
X6717893Y8699347D01*
X6716725Y8701836D01*
X6711137Y8709863D01*
X6704177Y8716822D01*
X6696100Y8722461D01*
X6693662Y8723630D01*
X6690766Y8725611D01*
X6677812Y8738565D01*
X6672834Y8742527D01*
X6667195Y8745270D01*
X6664452Y8747252D01*
X6662470Y8749995D01*
X6659778Y8755634D01*
X6655765Y8760612D01*
X6646722Y8769654D01*
X6623354Y8746286D01*
X6628536Y8741105D01*
X6630720Y8737803D01*
X6631482Y8733942D01*
X6630720Y8730030D01*
X6628536Y8726728D01*
X6614820Y8713063D01*
X6611518Y8710828D01*
X6607657Y8710066D01*
X6603746Y8710828D01*
X6600444Y8713063D01*
X6595262Y8718245D01*
X6571894Y8694877D01*
X6580987Y8685784D01*
X6585915Y8681821D01*
X6591553Y8679129D01*
X6594348Y8677148D01*
X6596329Y8674354D01*
X6599021Y8668715D01*
X6602984Y8663736D01*
X6615938Y8650782D01*
X6617970Y8647887D01*
X6619138Y8645448D01*
X6624726Y8637422D01*
X6631686Y8630462D01*
X6639763Y8624824D01*
X6642201Y8623706D01*
X6645097Y8621674D01*
X6658051Y8608720D01*
X6663029Y8604707D01*
X6668211Y8602218D01*
X6673900Y8600948D01*
X6678625Y8600948D01*
X6682486Y8600135D01*
X6685788Y8597950D01*
X6689039Y8594750D01*
X6695592Y8589314D01*
X6702653Y8585555D01*
X6710324Y8583218D01*
X6718808Y8582406D01*
X6736283Y8582406D01*
X6740144Y8581593D01*
X6743446Y8579408D01*
X6757720Y8565134D01*
X6759905Y8561832D01*
X6760718Y8557971D01*
X6759905Y8554059D01*
X6757720Y8550757D01*
X6755333Y8548420D01*
X6751370Y8543442D01*
X6746951Y8534400D01*
X6743700Y8531707D01*
X6739585Y8530590D01*
X6735419Y8531250D01*
X6731812Y8533536D01*
X6718655Y8546693D01*
X6712407Y8551773D01*
X6705752Y8555177D01*
X6698386Y8557158D01*
X6692493Y8557615D01*
X6614871Y8557615D01*
X6610959Y8558377D01*
X6607657Y8560562D01*
X6593890Y8574379D01*
X6588912Y8578342D01*
X6583730Y8580831D01*
X6578041Y8582152D01*
X6572300Y8582152D01*
X6566611Y8580831D01*
X6561429Y8578342D01*
X6556451Y8574379D01*
X6543497Y8561425D01*
X6540601Y8559393D01*
X6538163Y8558225D01*
X6530085Y8552637D01*
X6523126Y8545677D01*
X6517538Y8537600D01*
X6516370Y8535162D01*
X6514338Y8532266D01*
X6501384Y8519312D01*
X6497421Y8514334D01*
X6494729Y8508695D01*
X6492748Y8505952D01*
X6489954Y8503970D01*
X6484315Y8501227D01*
X6479387Y8497265D01*
X6470294Y8488222D01*
X6493662Y8464854D01*
X6498844Y8470036D01*
X6502146Y8472220D01*
X6506057Y8472982D01*
X6509918Y8472220D01*
X6513220Y8470036D01*
X6526936Y8456320D01*
X6529120Y8453018D01*
X6529882Y8449157D01*
X6529120Y8445246D01*
X6526936Y8441944D01*
X6521754Y8436762D01*
X6550609Y8407857D01*
X6552641Y8404961D01*
X6553555Y8401558D01*
X6553250Y8398052D01*
X6551777Y8394852D01*
X6549948Y8392261D01*
X6548780Y8389772D01*
X6546799Y8386876D01*
X6541770Y8381898D01*
X6537807Y8376920D01*
X6535318Y8371687D01*
X6533997Y8366048D01*
X6533997Y8360257D01*
X6535318Y8354618D01*
X6537807Y8349437D01*
X6541770Y8344458D01*
X6548424Y8337803D01*
X6555587Y8327847D01*
X6562547Y8320887D01*
X6572503Y8313724D01*
X6579158Y8307070D01*
X6584137Y8303107D01*
X6589318Y8300618D01*
X6594957Y8299297D01*
X6600748Y8299297D01*
X6606387Y8300618D01*
X6611620Y8303107D01*
X6615582Y8306257D01*
X6619341Y8308136D01*
X6623558Y8308340D01*
X6627469Y8306866D01*
X6630466Y8303869D01*
X6631990Y8299958D01*
X6631787Y8295741D01*
X6629857Y8291982D01*
X6626707Y8288020D01*
X6624218Y8282787D01*
X6622897Y8277148D01*
X6622897Y8271357D01*
X6624218Y8265718D01*
X6626707Y8260537D01*
X6630670Y8255558D01*
X6637324Y8248903D01*
X6644487Y8238947D01*
X6651447Y8231987D01*
X6661403Y8224824D01*
X6668058Y8218170D01*
X6673037Y8214207D01*
X6678218Y8211718D01*
X6683857Y8210397D01*
X6689648Y8210397D01*
X6695287Y8211718D01*
X6700520Y8214207D01*
X6705498Y8218170D01*
X6710527Y8223199D01*
X6713423Y8225231D01*
X6715861Y8226348D01*
X6718452Y8228177D01*
X6721652Y8229650D01*
X6725158Y8229955D01*
X6728561Y8229041D01*
X6731457Y8227059D01*
X6760362Y8198154D01*
X6765544Y8203336D01*
X6768846Y8205520D01*
X6772757Y8206282D01*
X6776618Y8205520D01*
X6779920Y8203336D01*
X6793636Y8189620D01*
X6795820Y8186318D01*
X6796582Y8182457D01*
X6795820Y8178546D01*
X6793636Y8175244D01*
X6788454Y8170062D01*
X6849262Y8109254D01*
X6854444Y8114436D01*
X6857746Y8116620D01*
X6861657Y8117382D01*
X6865518Y8116620D01*
X6868820Y8114436D01*
X6882536Y8100720D01*
X6884720Y8097418D01*
X6885482Y8093557D01*
X6884720Y8089646D01*
X6882536Y8086344D01*
X6877354Y8081162D01*
X6886600Y8071916D01*
X6888784Y8068614D01*
X6889597Y8064703D01*
X6888784Y8060842D01*
X6886600Y8057540D01*
X6864045Y8034985D01*
X6860743Y8032800D01*
X6856882Y8031988D01*
X6852970Y8032800D01*
X6849668Y8034985D01*
X6840423Y8044230D01*
X6812635Y8016443D01*
X6817258Y8011820D01*
X6821525Y8008416D01*
X6824218Y8005114D01*
X6825335Y8001050D01*
X6824675Y7996834D01*
X6822389Y7993278D01*
X6818172Y7989062D01*
X6814870Y7986877D01*
X6810959Y7986115D01*
X6724700Y7986115D01*
X6720789Y7986877D01*
X6717487Y7989062D01*
X6490055Y8216493D01*
X6483807Y8221573D01*
X6477152Y8224977D01*
X6469786Y8226958D01*
X6463893Y8227415D01*
X6178600Y8227415D01*
X6174689Y8228177D01*
X6171387Y8230362D01*
X6147562Y8254187D01*
X6145377Y8257489D01*
X6144615Y8261400D01*
X6144615Y8279638D01*
X6145326Y8283295D01*
X6147308Y8286496D01*
X6153962Y8293760D01*
X6159144Y8301685D01*
X6162903Y8310219D01*
X6165088Y8313420D01*
X6168339Y8315553D01*
X6172200Y8316264D01*
X6176010Y8315553D01*
X6179261Y8313420D01*
X6181496Y8310219D01*
X6185204Y8301685D01*
X6190437Y8293760D01*
X6196838Y8286750D01*
X6204305Y8280958D01*
X6212636Y8276437D01*
X6213602Y8276132D01*
X6213602Y8347405D01*
X6176264Y8347405D01*
X6172352Y8348167D01*
X6169050Y8350351D01*
X6166866Y8353653D01*
X6166104Y8357565D01*
X6166104Y8462416D01*
X6166866Y8466328D01*
X6169050Y8469630D01*
X6172352Y8471814D01*
X6176264Y8472576D01*
X6213602Y8472576D01*
X6213602Y8543848D01*
X6212636Y8543544D01*
X6204305Y8539022D01*
X6196838Y8533180D01*
X6190437Y8526221D01*
X6185204Y8518296D01*
X6181496Y8509762D01*
X6179261Y8506561D01*
X6176010Y8504428D01*
X6172200Y8503666D01*
X6168339Y8504428D01*
X6165088Y8506561D01*
X6162903Y8509762D01*
X6159144Y8518296D01*
X6153962Y8526221D01*
X6147562Y8533180D01*
X6140043Y8539022D01*
X6131712Y8543544D01*
X6122771Y8546592D01*
X6113424Y8548166D01*
X6103924Y8548166D01*
X6094628Y8546592D01*
X6085636Y8543544D01*
X6077305Y8539022D01*
X6069838Y8533180D01*
X6063437Y8526221D01*
X6058204Y8518296D01*
X6054496Y8509762D01*
X6052261Y8506561D01*
X6049010Y8504428D01*
X6045200Y8503666D01*
X6041339Y8504428D01*
X6038088Y8506561D01*
X6035903Y8509762D01*
X6032144Y8518296D01*
X6026962Y8526221D01*
X6020562Y8533180D01*
X6013043Y8539022D01*
X6004712Y8543544D01*
X5995771Y8546592D01*
X5986424Y8548166D01*
X5976924Y8548166D01*
X5967628Y8546592D01*
X5958636Y8543544D01*
X5950305Y8539022D01*
X5942838Y8533180D01*
X5936437Y8526221D01*
X5931204Y8518296D01*
X5927496Y8509762D01*
X5925261Y8506561D01*
X5922010Y8504428D01*
X5918200Y8503666D01*
X5914339Y8504428D01*
X5911088Y8506561D01*
X5908903Y8509762D01*
X5905144Y8518296D01*
X5899962Y8526221D01*
X5893562Y8533180D01*
X5886043Y8539022D01*
X5877712Y8543544D01*
X5868771Y8546592D01*
X5859424Y8548166D01*
X5849924Y8548166D01*
X5840628Y8546592D01*
X5831636Y8543544D01*
X5823305Y8539022D01*
X5815838Y8533180D01*
X5809437Y8526221D01*
X5804204Y8518296D01*
X5800445Y8509609D01*
X5798108Y8500414D01*
X5797296Y8490559D01*
X5797296Y8329422D01*
X5798108Y8319516D01*
X5800445Y8310372D01*
X5804204Y8301685D01*
X5809437Y8293760D01*
X5816092Y8286445D01*
X5818073Y8283295D01*
X5818784Y8279587D01*
X5818784Y8192008D01*
X5819648Y8184032D01*
X5821934Y8176920D01*
X5825744Y8170316D01*
X5829604Y8165846D01*
X5905144Y8090306D01*
X5911748Y8084972D01*
X5914339Y8081721D01*
X5914694Y8080502D01*
X5917438Y8081314D01*
X5921146Y8081009D01*
X5925413Y8079841D01*
X5931306Y8079384D01*
X5950915Y8079384D01*
X5954776Y8078622D01*
X5958078Y8076438D01*
X5960262Y8073136D01*
X5961075Y8069224D01*
X5961075Y8027314D01*
X6000597Y8027314D01*
X6000597Y8040420D01*
X5999886Y8046720D01*
X5998006Y8052206D01*
X5994908Y8057083D01*
X5989929Y8062010D01*
X5987745Y8065312D01*
X5986932Y8069224D01*
X5987694Y8073085D01*
X5989929Y8076387D01*
X5993231Y8078622D01*
X5997092Y8079384D01*
X6042456Y8079384D01*
X6046368Y8078622D01*
X6049670Y8076387D01*
X6051854Y8073085D01*
X6052616Y8069224D01*
X6051854Y8065312D01*
X6049619Y8062010D01*
X6044692Y8057083D01*
X6041593Y8052206D01*
X6039662Y8046720D01*
X6038951Y8040420D01*
X6038951Y7961579D01*
X6039662Y7955229D01*
X6041593Y7949793D01*
X6044692Y7944866D01*
X6048756Y7940802D01*
X6053683Y7937703D01*
X6059119Y7935772D01*
X6065469Y7935061D01*
X6144310Y7935061D01*
X6150610Y7935772D01*
X6156096Y7937703D01*
X6160973Y7940802D01*
X6165088Y7944866D01*
X6168186Y7949793D01*
X6171234Y7959547D01*
X6173470Y7962493D01*
X6176619Y7964373D01*
X6180277Y7965084D01*
X6273495Y7965084D01*
X6276848Y7964474D01*
X6279794Y7962849D01*
X6282080Y7960309D01*
X6283604Y7957870D01*
X6287719Y7953756D01*
X6292596Y7950708D01*
X6298082Y7948777D01*
X6304381Y7948066D01*
X6359804Y7948066D01*
X6366154Y7948777D01*
X6372047Y7950860D01*
X6375400Y7951419D01*
X6378752Y7950860D01*
X6384645Y7948777D01*
X6390944Y7948066D01*
X6397802Y7948066D01*
X6400444Y7947710D01*
X6408877Y7945475D01*
X6418681Y7944612D01*
X6428486Y7945475D01*
X6436918Y7947710D01*
X6439560Y7948066D01*
X6446367Y7948066D01*
X6452717Y7948777D01*
X6458153Y7950708D01*
X6463080Y7953756D01*
X6467144Y7957870D01*
X6470243Y7962747D01*
X6472123Y7968234D01*
X6472885Y7974533D01*
X6472885Y7984845D01*
X6473190Y7987487D01*
X6475374Y7996478D01*
X6477711Y7999475D01*
X6480962Y8001457D01*
X6484772Y8002066D01*
X6488480Y8001203D01*
X6491630Y7999069D01*
X6641744Y7849006D01*
X6647992Y7843926D01*
X6654647Y7840522D01*
X6662013Y7838541D01*
X6667906Y7838084D01*
X6866636Y7838084D01*
X6874611Y7838948D01*
X6881723Y7841234D01*
X6888327Y7845044D01*
X6892798Y7848904D01*
X7179767Y8135823D01*
X7183018Y8138007D01*
X7186930Y8138820D01*
X7190841Y8138007D01*
X7194092Y8135823D01*
X7468260Y7861706D01*
X7474508Y7856626D01*
X7481163Y7853222D01*
X7488529Y7851241D01*
X7494422Y7850784D01*
X7903972Y7850784D01*
X7911947Y7851648D01*
X7919059Y7853934D01*
X7925663Y7857744D01*
X7930083Y7861503D01*
X7943799Y7875168D01*
X7947101Y7877352D01*
X7950962Y7878114D01*
X7976616Y7878114D01*
X7982915Y7878825D01*
X7988401Y7880756D01*
X7993278Y7883804D01*
X7997393Y7887919D01*
X7999730Y7891627D01*
X8002016Y7894167D01*
X8004962Y7895793D01*
X8008315Y7896402D01*
X8095234Y7896402D01*
X8098586Y7895793D01*
X8101584Y7894167D01*
X8103819Y7891627D01*
X8106156Y7887919D01*
X8110270Y7883804D01*
X8115147Y7880756D01*
X8120634Y7878825D01*
X8126933Y7878114D01*
X8179816Y7878114D01*
X8186115Y7878825D01*
X8191601Y7880756D01*
X8196478Y7883804D01*
X8200593Y7887919D01*
X8203692Y7892796D01*
X8205571Y7898282D01*
X8206282Y7904581D01*
X8206282Y7960004D01*
X8205571Y7966354D01*
X8204504Y7969351D01*
X8203946Y7973161D01*
X8204860Y7976920D01*
X8207095Y7980070D01*
X8210346Y7982153D01*
X8214106Y7982864D01*
X8243519Y7982864D01*
X8247430Y7982102D01*
X8250732Y7979918D01*
X8318144Y7912506D01*
X8324392Y7907426D01*
X8331047Y7904022D01*
X8338413Y7902041D01*
X8344306Y7901584D01*
X8470392Y7901584D01*
X8478367Y7902448D01*
X8485479Y7904734D01*
X8492083Y7908544D01*
X8496554Y7912404D01*
X8555278Y7971078D01*
X8558580Y7973314D01*
X8562441Y7974075D01*
X8628380Y7974075D01*
X8634730Y7974787D01*
X8640165Y7976717D01*
X8645093Y7979765D01*
X8649157Y7983880D01*
X8652256Y7988757D01*
X8654186Y7994243D01*
X8654897Y8000542D01*
X8654897Y8124393D01*
X8654186Y8130743D01*
X8652256Y8136178D01*
X8649157Y8141106D01*
X8645093Y8145170D01*
X8640165Y8148269D01*
X8634730Y8150199D01*
X8628380Y8150910D01*
X8539530Y8150910D01*
X8533231Y8150199D01*
X8527745Y8148269D01*
X8522868Y8145170D01*
X8518753Y8141106D01*
X8517585Y8139226D01*
X8514791Y8136280D01*
X8511032Y8134654D01*
X8506968Y8134654D01*
X8503208Y8136280D01*
X8500364Y8139226D01*
X8499195Y8141106D01*
X8495131Y8145170D01*
X8490204Y8148269D01*
X8484768Y8150199D01*
X8478418Y8150910D01*
X8389569Y8150910D01*
X8383219Y8150199D01*
X8377783Y8148269D01*
X8372856Y8145170D01*
X8368792Y8141106D01*
X8365693Y8136178D01*
X8363813Y8130743D01*
X8363102Y8124393D01*
X8363102Y8000542D01*
X8363813Y7993938D01*
X8363458Y7989824D01*
X8361425Y7986166D01*
X8358124Y7983677D01*
X8354110Y7982661D01*
X8349996Y7983372D01*
X8346541Y7985607D01*
X8288375Y8043773D01*
X8282127Y8048853D01*
X8275472Y8052257D01*
X8268106Y8054238D01*
X8262213Y8054695D01*
X8211616Y8054695D01*
X8208213Y8055254D01*
X8205266Y8056880D01*
X8202980Y8059420D01*
X8200593Y8063280D01*
X8196478Y8067344D01*
X8191601Y8070443D01*
X8186115Y8072323D01*
X8179816Y8073034D01*
X8132572Y8073034D01*
X8128711Y8073847D01*
X8125409Y8076031D01*
X8006080Y8195360D01*
X8003844Y8198662D01*
X8003082Y8202574D01*
X8003082Y8239404D01*
X8002371Y8245754D01*
X8000339Y8251647D01*
X7999730Y8255000D01*
X8000339Y8258352D01*
X8002371Y8264245D01*
X8003082Y8270544D01*
X8003082Y8283397D01*
X7970012Y8283397D01*
X7970012Y8276031D01*
X7969250Y8272170D01*
X7967065Y8268868D01*
X7963763Y8266684D01*
X7959852Y8265871D01*
X7940497Y8265871D01*
X7936585Y8266684D01*
X7933334Y8268868D01*
X7931099Y8272170D01*
X7930337Y8276031D01*
X7930337Y8283397D01*
X7897266Y8283397D01*
X7897266Y8270544D01*
X7897977Y8264245D01*
X7900060Y8258352D01*
X7900619Y8255000D01*
X7900060Y8251647D01*
X7897977Y8245754D01*
X7897266Y8239404D01*
X7897266Y8161528D01*
X7897977Y8155228D01*
X7899908Y8149742D01*
X7902956Y8144865D01*
X7907070Y8140750D01*
X7911947Y8137702D01*
X7917434Y8135772D01*
X7923733Y8135061D01*
X7960614Y8135061D01*
X7964474Y8134299D01*
X7967776Y8132064D01*
X8097520Y8002371D01*
X8099704Y7999069D01*
X8100466Y7995208D01*
X8100466Y7991144D01*
X8101177Y7984845D01*
X8102295Y7981696D01*
X8102853Y7977886D01*
X8101939Y7974177D01*
X8099704Y7971028D01*
X8096453Y7968945D01*
X8092694Y7968183D01*
X8010855Y7968183D01*
X8007096Y7968945D01*
X8003844Y7971028D01*
X8001609Y7974177D01*
X8000746Y7977886D01*
X8001304Y7981696D01*
X8002371Y7984845D01*
X8003082Y7991144D01*
X8003082Y7998053D01*
X8003438Y8000695D01*
X8005673Y8009077D01*
X8006537Y8018830D01*
X8005673Y8028635D01*
X8003438Y8037017D01*
X8003082Y8039658D01*
X8003082Y8046567D01*
X8002371Y8052917D01*
X8000492Y8058353D01*
X7997393Y8063280D01*
X7993278Y8067344D01*
X7988401Y8070443D01*
X7982915Y8072323D01*
X7976616Y8073034D01*
X7966202Y8073034D01*
X7963560Y8073390D01*
X7959953Y8074355D01*
X7950200Y8075218D01*
X7940395Y8074355D01*
X7936788Y8073390D01*
X7934147Y8073034D01*
X7923733Y8073034D01*
X7917434Y8072323D01*
X7911947Y8070443D01*
X7907070Y8067344D01*
X7902956Y8063280D01*
X7899908Y8058353D01*
X7897977Y8052917D01*
X7897266Y8046567D01*
X7897266Y8039760D01*
X7896910Y8037118D01*
X7894675Y8028635D01*
X7893812Y8018830D01*
X7894675Y8009077D01*
X7896910Y8000593D01*
X7897266Y7997952D01*
X7897266Y7991144D01*
X7897977Y7984845D01*
X7900060Y7978952D01*
X7900619Y7975600D01*
X7900060Y7972247D01*
X7897977Y7966354D01*
X7897266Y7960004D01*
X7897266Y7934401D01*
X7896504Y7930489D01*
X7894269Y7927187D01*
X7892643Y7925562D01*
X7889341Y7923377D01*
X7885480Y7922615D01*
X7558735Y7922615D01*
X7554874Y7923377D01*
X7551572Y7925562D01*
X7549388Y7928813D01*
X7548575Y7932674D01*
X7549286Y7936534D01*
X7551470Y7939836D01*
X7523632Y7967624D01*
X7500924Y7944916D01*
X7497622Y7942732D01*
X7493762Y7941970D01*
X7489850Y7942732D01*
X7486548Y7944916D01*
X7464044Y7967472D01*
X7461808Y7970774D01*
X7461046Y7974685D01*
X7461808Y7978546D01*
X7464044Y7981848D01*
X7486751Y8004556D01*
X7481570Y8009737D01*
X7479334Y8013039D01*
X7478572Y8016951D01*
X7479334Y8020812D01*
X7481570Y8024114D01*
X7495235Y8037830D01*
X7498537Y8040014D01*
X7502448Y8040776D01*
X7506309Y8040014D01*
X7509611Y8037830D01*
X7514793Y8032648D01*
X7538161Y8056016D01*
X7529118Y8065058D01*
X7524140Y8069072D01*
X7518501Y8071764D01*
X7515707Y8073745D01*
X7513777Y8076488D01*
X7511034Y8082127D01*
X7507071Y8087106D01*
X7494168Y8100059D01*
X7492136Y8102955D01*
X7490968Y8105343D01*
X7485380Y8113420D01*
X7483246Y8115503D01*
X7480858Y8119211D01*
X7480300Y8123580D01*
X7481620Y8127796D01*
X7484618Y8131048D01*
X7491120Y8135569D01*
X7498080Y8142528D01*
X7503668Y8150606D01*
X7507833Y8159496D01*
X7510373Y8168995D01*
X7511440Y8173821D01*
X7513472Y8176717D01*
X7516317Y8178749D01*
X7521244Y8179816D01*
X7530744Y8182356D01*
X7539634Y8186521D01*
X7547660Y8192109D01*
X7554620Y8199069D01*
X7560259Y8207146D01*
X7564424Y8216036D01*
X7566964Y8225536D01*
X7567980Y8230412D01*
X7570012Y8233308D01*
X7572908Y8235340D01*
X7577785Y8236407D01*
X7587284Y8238947D01*
X7596174Y8243112D01*
X7604252Y8248700D01*
X7611211Y8255660D01*
X7612837Y8257997D01*
X7616037Y8260994D01*
X7620253Y8262315D01*
X7624622Y8261705D01*
X7628331Y8259368D01*
X7662519Y8225129D01*
X7664551Y8222234D01*
X7665466Y8218830D01*
X7665161Y8215325D01*
X7663688Y8212124D01*
X7660081Y8206943D01*
X7655915Y8198053D01*
X7653375Y8188553D01*
X7652512Y8178749D01*
X7653375Y8168995D01*
X7655915Y8159496D01*
X7660081Y8150606D01*
X7665669Y8142528D01*
X7672628Y8135569D01*
X7680706Y8129981D01*
X7689596Y8125815D01*
X7699095Y8123275D01*
X7708900Y8122412D01*
X7718653Y8123275D01*
X7728153Y8125815D01*
X7737043Y8129981D01*
X7745120Y8135569D01*
X7752080Y8142528D01*
X7757668Y8150606D01*
X7761833Y8159496D01*
X7764221Y8168386D01*
X7765897Y8171840D01*
X7768793Y8174431D01*
X7772450Y8175752D01*
X7776311Y8175650D01*
X7781188Y8174532D01*
X7786979Y8174532D01*
X7792618Y8175802D01*
X7797800Y8178342D01*
X7802778Y8182305D01*
X7807452Y8186928D01*
X7779664Y8214766D01*
X7772095Y8207197D01*
X7768386Y8204809D01*
X7764018Y8204250D01*
X7759801Y8205571D01*
X7756601Y8208568D01*
X7752080Y8215020D01*
X7747762Y8219287D01*
X7745577Y8222589D01*
X7744815Y8226501D01*
X7744815Y8229041D01*
X7743952Y8237016D01*
X7741970Y8243062D01*
X7741564Y8247380D01*
X7742936Y8251444D01*
X7737551Y8256828D01*
X7735366Y8260130D01*
X7734553Y8264042D01*
X7735366Y8267903D01*
X7737551Y8271205D01*
X7751267Y8284921D01*
X7754569Y8287105D01*
X7758430Y8287918D01*
X7762341Y8287105D01*
X7765592Y8284921D01*
X7770825Y8279739D01*
X7794193Y8303107D01*
X7785100Y8312200D01*
X7780121Y8316163D01*
X7774482Y8318855D01*
X7771739Y8320836D01*
X7769758Y8323580D01*
X7767066Y8329218D01*
X7763103Y8334197D01*
X7750149Y8347151D01*
X7748117Y8350046D01*
X7746949Y8352485D01*
X7744866Y8355482D01*
X7743190Y8359546D01*
X7743393Y8363915D01*
X7745425Y8367826D01*
X7748930Y8370519D01*
X7753197Y8371484D01*
X7889544Y8371484D01*
X7893303Y8370722D01*
X7896555Y8368639D01*
X7898790Y8365490D01*
X7899653Y8361781D01*
X7899095Y8357971D01*
X7897977Y8354720D01*
X7897266Y8348421D01*
X7897266Y8335568D01*
X7930337Y8335568D01*
X7930337Y8341664D01*
X7931200Y8345728D01*
X7933639Y8349132D01*
X7937246Y8351266D01*
X7941360Y8351774D01*
X7950200Y8351012D01*
X7958988Y8351774D01*
X7963153Y8351266D01*
X7966760Y8349132D01*
X7969199Y8345728D01*
X7970012Y8341664D01*
X7970012Y8335568D01*
X8003082Y8335568D01*
X8003082Y8348421D01*
X8002371Y8354720D01*
X8000492Y8360206D01*
X7997088Y8365591D01*
X7995666Y8369300D01*
X7995767Y8373262D01*
X7997342Y8376869D01*
X7998968Y8379206D01*
X8003133Y8388096D01*
X8005673Y8397595D01*
X8006537Y8407349D01*
X8005673Y8417153D01*
X8003133Y8426653D01*
X7998968Y8435543D01*
X7993380Y8443620D01*
X7985963Y8450986D01*
X7983778Y8454288D01*
X7983016Y8458149D01*
X7983778Y8462060D01*
X7985963Y8465362D01*
X7993380Y8472728D01*
X7998968Y8480806D01*
X8003133Y8489696D01*
X8005673Y8499195D01*
X8006537Y8508949D01*
X8005673Y8518753D01*
X8003133Y8528253D01*
X7998968Y8537143D01*
X7993380Y8545220D01*
X7990128Y8549538D01*
X7989366Y8553399D01*
X7990128Y8557310D01*
X7993380Y8561628D01*
X7998968Y8569706D01*
X8003133Y8578596D01*
X8005673Y8588095D01*
X8006537Y8597849D01*
X8005673Y8607653D01*
X8003133Y8617153D01*
X7998968Y8626043D01*
X7993380Y8634120D01*
X7986420Y8641080D01*
X7978343Y8646668D01*
X7969453Y8650833D01*
X7959953Y8653373D01*
X7950200Y8654237D01*
X7940395Y8653373D01*
X7930896Y8650833D01*
X7922006Y8646668D01*
X7913928Y8641080D01*
X7906969Y8634120D01*
X7901381Y8626043D01*
X7897215Y8617153D01*
X7894675Y8607653D01*
X7893862Y8597442D01*
X7893253Y8593074D01*
X7890916Y8589365D01*
X7879130Y8577630D01*
X7875930Y8575446D01*
X7872120Y8574633D01*
X7868310Y8575344D01*
X7865059Y8577376D01*
X7862773Y8580526D01*
X7859268Y8587943D01*
X7853680Y8596020D01*
X7846720Y8602980D01*
X7838643Y8608568D01*
X7830769Y8612276D01*
X7827264Y8614968D01*
X7825231Y8618829D01*
X7825028Y8623249D01*
X7826705Y8627313D01*
X7829956Y8630259D01*
X7834172Y8631580D01*
X7840675Y8632190D01*
X7850174Y8634730D01*
X7859064Y8638895D01*
X7867142Y8644483D01*
X7874101Y8651443D01*
X7879689Y8659520D01*
X7883855Y8668410D01*
X7886395Y8677910D01*
X7887258Y8687663D01*
X7886395Y8697468D01*
X7883855Y8706967D01*
X7879689Y8715857D01*
X7874101Y8723934D01*
X7867142Y8730894D01*
X7859064Y8736482D01*
X7850174Y8740648D01*
X7840675Y8743188D01*
X7830921Y8744051D01*
X7824571Y8743492D01*
X7820202Y8744102D01*
X7816443Y8746439D01*
X7792110Y8770874D01*
X7789773Y8774582D01*
X7789214Y8778951D01*
X7790535Y8783116D01*
X7793481Y8786368D01*
X7797800Y8789365D01*
X7804759Y8796324D01*
X7810398Y8804402D01*
X7814564Y8813292D01*
X7817103Y8822791D01*
X7817967Y8832545D01*
X7817053Y8843060D01*
X7817510Y8847175D01*
X7819644Y8850782D01*
X7823047Y8853220D01*
X7827162Y8854084D01*
X7856220Y8854084D01*
X7864195Y8854948D01*
X7871307Y8857234D01*
X7875828Y8859875D01*
X7879842Y8861145D01*
X7884058Y8860739D01*
X7887716Y8858605D01*
X7890205Y8855202D01*
X7891068Y8851036D01*
X7891068Y8774074D01*
X7891780Y8767724D01*
X7893659Y8762288D01*
X7896758Y8757361D01*
X7900873Y8753297D01*
X7905750Y8750198D01*
X7911236Y8748318D01*
X7917535Y8747556D01*
X8036407Y8747556D01*
X8042706Y8748318D01*
X8048193Y8750198D01*
X8053070Y8753297D01*
X8057286Y8757462D01*
X8060588Y8759698D01*
X8064449Y8760460D01*
X8068360Y8759698D01*
X8071662Y8757462D01*
X8075828Y8753297D01*
X8080756Y8750198D01*
X8086191Y8748268D01*
X8092541Y8747556D01*
X8104581Y8747556D01*
X8108492Y8746794D01*
X8111794Y8744559D01*
X8113979Y8741206D01*
X8114741Y8737295D01*
X8114385Y8710980D01*
X8113725Y8707374D01*
X8111794Y8704275D01*
X8108899Y8702040D01*
X8104428Y8700871D01*
X8098942Y8698992D01*
X8094065Y8695893D01*
X8089950Y8691778D01*
X8086902Y8686901D01*
X8084972Y8681415D01*
X8084261Y8675116D01*
X8084261Y8622233D01*
X8084972Y8615934D01*
X8086902Y8610447D01*
X8089950Y8605570D01*
X8094065Y8601456D01*
X8098942Y8598408D01*
X8104428Y8596477D01*
X8110728Y8595766D01*
X8188604Y8595766D01*
X8194954Y8596477D01*
X8200847Y8598560D01*
X8204200Y8599119D01*
X8207552Y8598560D01*
X8213445Y8596477D01*
X8219744Y8595766D01*
X8232597Y8595766D01*
X8232597Y8628837D01*
X8225231Y8628837D01*
X8221370Y8629599D01*
X8218068Y8631783D01*
X8215884Y8635085D01*
X8215071Y8638997D01*
X8215071Y8658352D01*
X8215884Y8662263D01*
X8218068Y8665565D01*
X8221370Y8667750D01*
X8225231Y8668512D01*
X8232597Y8668512D01*
X8232597Y8701582D01*
X8219744Y8701582D01*
X8213445Y8700871D01*
X8207552Y8698839D01*
X8204200Y8698230D01*
X8200847Y8698839D01*
X8191449Y8702040D01*
X8188655Y8704326D01*
X8186826Y8707475D01*
X8186216Y8711082D01*
X8186521Y8737549D01*
X8187334Y8741410D01*
X8189569Y8744661D01*
X8192820Y8746794D01*
X8196681Y8747556D01*
X8211362Y8747556D01*
X8217712Y8748268D01*
X8223148Y8750198D01*
X8228075Y8753297D01*
X8232140Y8757361D01*
X8235238Y8762288D01*
X8237169Y8767724D01*
X8237880Y8774074D01*
X8237880Y8912910D01*
X8237169Y8919260D01*
X8235238Y8924696D01*
X8232140Y8929573D01*
X8228075Y8933688D01*
X8223148Y8936786D01*
X8217712Y8938666D01*
X8211362Y8939377D01*
X8133486Y8939377D01*
X8129574Y8940190D01*
X8126272Y8942374D01*
X8118449Y8950248D01*
X8116265Y8953550D01*
X8115503Y8957411D01*
X8116265Y8961323D01*
X8118449Y8964574D01*
X8121751Y8966809D01*
X8125663Y8967571D01*
X8211362Y8967571D01*
X8217712Y8968282D01*
X8223148Y8970213D01*
X8228075Y8973261D01*
X8232140Y8977376D01*
X8235238Y8982252D01*
X8237169Y8987739D01*
X8237880Y8994038D01*
X8237880Y9132925D01*
X8237169Y9139224D01*
X8235238Y9144711D01*
X8232140Y9149588D01*
X8228075Y9153702D01*
X8223148Y9156750D01*
X8217712Y9158681D01*
X8211362Y9159392D01*
X8092541Y9159392D01*
X8086191Y9158681D01*
X8080756Y9156750D01*
X8075828Y9153702D01*
X8071662Y9149486D01*
X8068360Y9147302D01*
X8064449Y9146489D01*
X8060588Y9147302D01*
X8057286Y9149486D01*
X8053070Y9153702D01*
X8048193Y9156750D01*
X8042706Y9158681D01*
X8036407Y9159392D01*
X8017967Y9159392D01*
X8014055Y9160154D01*
X8010753Y9162338D01*
X8008569Y9165640D01*
X8007807Y9169552D01*
X8007807Y9183268D01*
X8008467Y9186875D01*
X8010398Y9190024D01*
X8013293Y9192260D01*
X8017154Y9193377D01*
X8023047Y9195460D01*
X8026400Y9196019D01*
X8029752Y9195460D01*
X8035645Y9193377D01*
X8041944Y9192666D01*
X8054797Y9192666D01*
X8054797Y9225737D01*
X8047431Y9225737D01*
X8043570Y9226499D01*
X8040268Y9228683D01*
X8038084Y9231985D01*
X8037271Y9235897D01*
X8037271Y9255252D01*
X8038084Y9259163D01*
X8040268Y9262465D01*
X8043570Y9264650D01*
X8047431Y9265412D01*
X8054797Y9265412D01*
X8054797Y9298482D01*
X8041944Y9298482D01*
X8035645Y9297771D01*
X8029752Y9295739D01*
X8026400Y9295130D01*
X8023047Y9295739D01*
X8017154Y9297771D01*
X8010804Y9298482D01*
X7932928Y9298482D01*
X7926628Y9297771D01*
X7921142Y9295892D01*
X7916265Y9292793D01*
X7912150Y9288678D01*
X7909102Y9283801D01*
X7907172Y9278315D01*
X7906461Y9272016D01*
X7906461Y9219133D01*
X7907172Y9212834D01*
X7909102Y9207347D01*
X7912150Y9202470D01*
X7916265Y9198356D01*
X7921142Y9195308D01*
X7930489Y9192260D01*
X7933385Y9190024D01*
X7935315Y9186875D01*
X7935975Y9183268D01*
X7935975Y9169552D01*
X7935214Y9165640D01*
X7933029Y9162338D01*
X7929727Y9160154D01*
X7925816Y9159392D01*
X7917535Y9159392D01*
X7911185Y9158681D01*
X7905750Y9156750D01*
X7900873Y9153702D01*
X7896758Y9149588D01*
X7893659Y9144711D01*
X7891780Y9139224D01*
X7891068Y9132925D01*
X7891068Y9109557D01*
X7890256Y9105646D01*
X7888071Y9102344D01*
X7884769Y9100159D01*
X7880908Y9099397D01*
X7810296Y9099397D01*
X7802321Y9098534D01*
X7795209Y9096248D01*
X7788656Y9092438D01*
X7782610Y9087104D01*
X7779918Y9085376D01*
X7776819Y9084614D01*
X7773619Y9084818D01*
X7770774Y9085478D01*
X7764983Y9085478D01*
X7759344Y9084157D01*
X7754162Y9081668D01*
X7749184Y9077706D01*
X7738821Y9067342D01*
X7735570Y9065158D01*
X7731658Y9064396D01*
X7727746Y9065158D01*
X7724495Y9067342D01*
X7694930Y9096908D01*
X7689697Y9091726D01*
X7686395Y9089542D01*
X7682534Y9088780D01*
X7678623Y9089542D01*
X7675372Y9091726D01*
X7661656Y9105442D01*
X7659420Y9108744D01*
X7658658Y9112605D01*
X7659420Y9116517D01*
X7661656Y9119819D01*
X7666837Y9125000D01*
X7643469Y9148368D01*
X7634376Y9139326D01*
X7630414Y9134348D01*
X7627721Y9128709D01*
X7625740Y9125915D01*
X7622946Y9123934D01*
X7617358Y9121241D01*
X7612380Y9117279D01*
X7599375Y9104325D01*
X7596530Y9102293D01*
X7594142Y9101175D01*
X7590231Y9100261D01*
X7586218Y9100921D01*
X7582814Y9103106D01*
X7580528Y9106458D01*
X7579715Y9110421D01*
X7579715Y9113469D01*
X7580477Y9117380D01*
X7582662Y9120682D01*
X7592669Y9130639D01*
X7596631Y9135618D01*
X7599375Y9141256D01*
X7601305Y9144050D01*
X7604099Y9145981D01*
X7609738Y9148724D01*
X7614716Y9152686D01*
X7623759Y9161780D01*
X7600391Y9185148D01*
X7595209Y9179966D01*
X7591907Y9177731D01*
X7588046Y9176969D01*
X7584135Y9177731D01*
X7580833Y9179966D01*
X7567168Y9193631D01*
X7564932Y9196933D01*
X7564170Y9200845D01*
X7564932Y9204706D01*
X7567168Y9208008D01*
X7572349Y9213189D01*
X7548981Y9236557D01*
X7539888Y9227515D01*
X7535925Y9222536D01*
X7533182Y9216898D01*
X7531252Y9214104D01*
X7528458Y9212173D01*
X7522819Y9209430D01*
X7517841Y9205468D01*
X7508138Y9195765D01*
X7504836Y9193580D01*
X7500975Y9192818D01*
X7497064Y9193580D01*
X7493762Y9195765D01*
X7491577Y9199067D01*
X7490815Y9202978D01*
X7490815Y9340799D01*
X7491577Y9344710D01*
X7493762Y9348012D01*
X7503414Y9357614D01*
X7506512Y9359747D01*
X7510170Y9360611D01*
X7513878Y9360052D01*
X7516368Y9359188D01*
X7529982Y9356496D01*
X7543800Y9355582D01*
X7557617Y9356496D01*
X7571181Y9359188D01*
X7584287Y9363659D01*
X7596733Y9369806D01*
X7608265Y9377476D01*
X7618679Y9386620D01*
X7627772Y9397034D01*
X7635494Y9408515D01*
X7641590Y9420961D01*
X7646060Y9434068D01*
X7648752Y9447682D01*
X7649667Y9461500D01*
X7648752Y9475317D01*
X7646060Y9488881D01*
X7641590Y9501987D01*
X7635494Y9514433D01*
X7627772Y9525965D01*
X7618679Y9536379D01*
X7608265Y9545472D01*
X7596733Y9553194D01*
X7593431Y9554819D01*
X7589926Y9557664D01*
X7588046Y9561728D01*
X7588046Y9566198D01*
X7590028Y9570262D01*
X7593533Y9573056D01*
X7597952Y9574072D01*
X7743647Y9574072D01*
X7748016Y9573056D01*
X7751572Y9570262D01*
X7753502Y9566198D01*
X7753553Y9561728D01*
X7751622Y9557664D01*
X7748117Y9554819D01*
X7744866Y9553194D01*
X7733334Y9545472D01*
X7722920Y9536379D01*
X7713776Y9525965D01*
X7706106Y9514433D01*
X7699959Y9501987D01*
X7695488Y9488881D01*
X7692796Y9475317D01*
X7691881Y9461500D01*
X7692796Y9447682D01*
X7695488Y9434068D01*
X7699959Y9420961D01*
X7706106Y9408515D01*
X7713776Y9397034D01*
X7722920Y9386620D01*
X7733334Y9377476D01*
X7744866Y9369806D01*
X7757261Y9363659D01*
X7770368Y9359188D01*
X7783982Y9356496D01*
X7797800Y9355582D01*
X7811617Y9356496D01*
X7825181Y9359188D01*
X7838287Y9363659D01*
X7850733Y9369806D01*
X7862265Y9377476D01*
X7872679Y9386620D01*
X7881772Y9397034D01*
X7889494Y9408515D01*
X7895590Y9420961D01*
X7900060Y9434068D01*
X7902752Y9447682D01*
X7903667Y9461500D01*
X7902752Y9475317D01*
X7900060Y9488881D01*
X7895590Y9501987D01*
X7889494Y9514433D01*
X7881772Y9525965D01*
X7872679Y9536379D01*
X7862265Y9545472D01*
X7850733Y9553194D01*
X7847431Y9554819D01*
X7843926Y9557664D01*
X7842046Y9561728D01*
X7842046Y9566198D01*
X7844028Y9570262D01*
X7847533Y9573056D01*
X7851952Y9574072D01*
X7997647Y9574072D01*
X8002016Y9573056D01*
X8005572Y9570262D01*
X8007502Y9566198D01*
X8007553Y9561728D01*
X8005622Y9557664D01*
X8002117Y9554819D01*
X7998866Y9553194D01*
X7987334Y9545472D01*
X7976920Y9536379D01*
X7967776Y9525965D01*
X7960106Y9514433D01*
X7953959Y9501987D01*
X7949488Y9488881D01*
X7946796Y9475317D01*
X7945881Y9461500D01*
X7946796Y9447682D01*
X7949488Y9434068D01*
X7953959Y9420961D01*
X7960106Y9408515D01*
X7967776Y9397034D01*
X7976920Y9386620D01*
X7987334Y9377476D01*
X7998866Y9369806D01*
X8011261Y9363659D01*
X8024368Y9359188D01*
X8037982Y9356496D01*
X8051800Y9355582D01*
X8065617Y9356496D01*
X8079181Y9359188D01*
X8092287Y9363659D01*
X8104733Y9369806D01*
X8116265Y9377476D01*
X8126679Y9386620D01*
X8135772Y9397034D01*
X8143494Y9408515D01*
X8149590Y9420961D01*
X8154060Y9434068D01*
X8156752Y9447682D01*
X8157667Y9461500D01*
X8156752Y9475317D01*
X8154060Y9488881D01*
X8149590Y9501987D01*
X8143494Y9514433D01*
X8135772Y9525965D01*
X8126679Y9536379D01*
X8116265Y9545472D01*
X8104733Y9553194D01*
X8101431Y9554819D01*
X8097926Y9557664D01*
X8096046Y9561728D01*
X8096046Y9566198D01*
X8098028Y9570262D01*
X8101533Y9573056D01*
X8105952Y9574072D01*
X8251647Y9574072D01*
X8256016Y9573056D01*
X8259572Y9570262D01*
X8261502Y9566198D01*
X8261553Y9561728D01*
X8259622Y9557664D01*
X8256117Y9554819D01*
X8252866Y9553194D01*
X8241334Y9545472D01*
X8230920Y9536379D01*
X8221776Y9525965D01*
X8214106Y9514433D01*
X8207959Y9501987D01*
X8203488Y9488881D01*
X8200796Y9475317D01*
X8199881Y9461500D01*
X8200796Y9447682D01*
X8203488Y9434068D01*
X8207959Y9420961D01*
X8214106Y9408515D01*
X8221776Y9397034D01*
X8230920Y9386620D01*
X8241334Y9377476D01*
X8252866Y9369806D01*
X8265261Y9363659D01*
X8278368Y9359188D01*
X8291982Y9356496D01*
X8305800Y9355582D01*
X8319617Y9356496D01*
X8333181Y9359188D01*
X8346287Y9363659D01*
X8358733Y9369806D01*
X8370265Y9377476D01*
X8380679Y9386620D01*
X8389772Y9397034D01*
X8397494Y9408515D01*
X8403590Y9420961D01*
X8408060Y9434068D01*
X8410752Y9447682D01*
X8411667Y9461500D01*
X8410752Y9475317D01*
X8408060Y9488881D01*
X8403590Y9501987D01*
X8397494Y9514433D01*
X8389772Y9525965D01*
X8380679Y9536379D01*
X8370265Y9545472D01*
X8358733Y9553194D01*
X8355431Y9554819D01*
X8351926Y9557664D01*
X8350046Y9561728D01*
X8350046Y9566198D01*
X8352028Y9570262D01*
X8355533Y9573056D01*
X8359952Y9574072D01*
X8505647Y9574072D01*
X8510016Y9573056D01*
X8513572Y9570262D01*
X8515502Y9566198D01*
X8515553Y9561728D01*
X8513622Y9557664D01*
X8510117Y9554819D01*
X8506866Y9553194D01*
X8495334Y9545472D01*
X8484920Y9536379D01*
X8475776Y9525965D01*
X8468106Y9514433D01*
X8461959Y9501987D01*
X8457488Y9488881D01*
X8454796Y9475317D01*
X8453882Y9461500D01*
X8454796Y9447682D01*
X8457488Y9434068D01*
X8461959Y9420961D01*
X8468106Y9408515D01*
X8475776Y9397034D01*
X8484920Y9386620D01*
X8495334Y9377476D01*
X8506866Y9369806D01*
X8519261Y9363659D01*
X8532368Y9359188D01*
X8545982Y9356496D01*
X8559800Y9355582D01*
X8573617Y9356496D01*
X8587181Y9359188D01*
X8600287Y9363659D01*
X8612733Y9369806D01*
X8624265Y9377476D01*
X8634679Y9386620D01*
X8643772Y9397034D01*
X8651494Y9408515D01*
X8657590Y9420961D01*
X8662060Y9434068D01*
X8664752Y9447682D01*
X8665667Y9461500D01*
X8664752Y9475317D01*
X8662060Y9488881D01*
X8657590Y9501987D01*
X8651494Y9514433D01*
X8643772Y9525965D01*
X8634679Y9536379D01*
X8624265Y9545472D01*
X8612733Y9553194D01*
X8609431Y9554819D01*
X8605926Y9557664D01*
X8604046Y9561728D01*
X8604046Y9566198D01*
X8606028Y9570262D01*
X8609533Y9573056D01*
X8613952Y9574072D01*
X8676640Y9574072D01*
X8680500Y9573310D01*
X8683802Y9571075D01*
X8685987Y9567824D01*
X8686800Y9563912D01*
X8686800Y7641894D01*
X8686139Y7638338D01*
X8684260Y7635189D01*
X8681415Y7632953D01*
X8677960Y7631836D01*
X8675471Y7631480D01*
X8670290Y7629804D01*
X8665870Y7629398D01*
X8661654Y7630922D01*
X8658555Y7634071D01*
X8657082Y7638288D01*
X8657539Y7642707D01*
X8662060Y7656068D01*
X8664752Y7669682D01*
X8665667Y7683500D01*
X8664752Y7697317D01*
X8662060Y7710881D01*
X8657590Y7723987D01*
X8651494Y7736433D01*
X8643772Y7747965D01*
X8634679Y7758379D01*
X8624265Y7767472D01*
X8612733Y7775194D01*
X8600287Y7781290D01*
X8587181Y7785760D01*
X8573617Y7788452D01*
X8559800Y7789367D01*
X8545982Y7788452D01*
X8532368Y7785760D01*
X8519261Y7781290D01*
X8506866Y7775194D01*
X8495334Y7767472D01*
X8484920Y7758379D01*
X8475776Y7747965D01*
X8468106Y7736433D01*
X8461959Y7723987D01*
X8457488Y7710881D01*
X8454796Y7697317D01*
X8453882Y7683500D01*
X8454796Y7669682D01*
X8457488Y7656068D01*
X8461959Y7642910D01*
X8462518Y7639100D01*
X8461552Y7635392D01*
X8459317Y7632242D01*
X8456066Y7630210D01*
X8452256Y7629499D01*
X8439607Y7632293D01*
X8430514Y7632700D01*
X8421471Y7631480D01*
X8416290Y7629804D01*
X8411870Y7629398D01*
X8407654Y7630922D01*
X8404555Y7634071D01*
X8403082Y7638288D01*
X8403539Y7642707D01*
X8408060Y7656068D01*
X8410752Y7669682D01*
X8411667Y7683500D01*
X8410752Y7697317D01*
X8408060Y7710881D01*
X8403590Y7723987D01*
X8397494Y7736433D01*
X8389772Y7747965D01*
X8380679Y7758379D01*
X8370265Y7767472D01*
X8358733Y7775194D01*
X8346287Y7781290D01*
X8333181Y7785760D01*
X8319617Y7788452D01*
X8305800Y7789367D01*
X8291982Y7788452D01*
X8278368Y7785760D01*
X8265261Y7781290D01*
X8252866Y7775194D01*
X8241334Y7767472D01*
X8230920Y7758379D01*
X8221776Y7747965D01*
X8214106Y7736433D01*
X8207959Y7723987D01*
X8203488Y7710881D01*
X8200796Y7697317D01*
X8199881Y7683500D01*
X8200796Y7669682D01*
X8203488Y7656068D01*
X8207959Y7642910D01*
X8208518Y7639100D01*
X8207552Y7635392D01*
X8205317Y7632293D01*
X8202066Y7630210D01*
X8198307Y7629499D01*
X8185607Y7632293D01*
X8176514Y7632700D01*
X8167471Y7631480D01*
X8162290Y7629804D01*
X8157870Y7629398D01*
X8153653Y7630922D01*
X8150555Y7634071D01*
X8149081Y7638288D01*
X8149539Y7642707D01*
X8154060Y7656068D01*
X8156752Y7669682D01*
X8157667Y7683500D01*
X8156752Y7697317D01*
X8154060Y7710881D01*
X8149590Y7723987D01*
X8143494Y7736433D01*
X8135772Y7747965D01*
X8126679Y7758379D01*
X8116265Y7767472D01*
X8104733Y7775194D01*
X8092287Y7781290D01*
X8079181Y7785760D01*
X8065617Y7788452D01*
X8051800Y7789367D01*
X8037982Y7788452D01*
X8024368Y7785760D01*
X8011261Y7781290D01*
X7998866Y7775194D01*
X7987334Y7767472D01*
X7976920Y7758379D01*
X7967776Y7747965D01*
X7960106Y7736433D01*
X7953959Y7723987D01*
X7949488Y7710881D01*
X7946796Y7697317D01*
X7945881Y7683500D01*
X7946796Y7669682D01*
X7949488Y7656068D01*
X7953959Y7642910D01*
X7954518Y7639100D01*
X7953552Y7635392D01*
X7951317Y7632293D01*
X7948066Y7630210D01*
X7944307Y7629499D01*
X7931607Y7632293D01*
X7922514Y7632700D01*
X7913471Y7631480D01*
X7908290Y7629804D01*
X7903870Y7629398D01*
X7899653Y7630922D01*
X7896555Y7634071D01*
X7895081Y7638288D01*
X7895539Y7642707D01*
X7900060Y7656068D01*
X7902752Y7669682D01*
X7903667Y7683500D01*
X7902752Y7697317D01*
X7900060Y7710881D01*
X7895590Y7723987D01*
X7889494Y7736433D01*
X7881772Y7747965D01*
X7872679Y7758379D01*
X7862265Y7767472D01*
X7850733Y7775194D01*
X7838287Y7781290D01*
X7825181Y7785760D01*
X7811617Y7788452D01*
X7797800Y7789367D01*
X7783982Y7788452D01*
X7770368Y7785760D01*
X7757261Y7781290D01*
X7744866Y7775194D01*
X7733334Y7767472D01*
X7722920Y7758379D01*
X7713776Y7747965D01*
X7706106Y7736433D01*
X7699959Y7723987D01*
X7695488Y7710881D01*
X7692796Y7697317D01*
X7691881Y7683500D01*
X7692796Y7669682D01*
X7695488Y7656068D01*
X7699959Y7642910D01*
X7700518Y7639100D01*
X7699552Y7635392D01*
X7697317Y7632293D01*
X7694066Y7630210D01*
X7690307Y7629499D01*
X7677607Y7632293D01*
X7668514Y7632700D01*
X7659471Y7631480D01*
X7654290Y7629804D01*
X7649870Y7629398D01*
X7645653Y7630922D01*
X7642555Y7634071D01*
X7641081Y7638288D01*
X7641539Y7642707D01*
X7646060Y7656068D01*
X7648752Y7669682D01*
X7649667Y7683500D01*
X7648752Y7697317D01*
X7646060Y7710881D01*
X7641590Y7723987D01*
X7635494Y7736433D01*
X7627772Y7747965D01*
X7618679Y7758379D01*
X7608265Y7767472D01*
X7596733Y7775194D01*
X7584287Y7781290D01*
X7571181Y7785760D01*
X7557617Y7788452D01*
X7543800Y7789367D01*
X7529982Y7788452D01*
X7516368Y7785760D01*
X7503261Y7781290D01*
X7490866Y7775194D01*
X7479334Y7767472D01*
X7468920Y7758379D01*
X7459776Y7747965D01*
X7452106Y7736433D01*
X7445959Y7723987D01*
X7441488Y7710881D01*
X7438796Y7697317D01*
X7437881Y7683500D01*
X7438796Y7669682D01*
X7441488Y7656068D01*
X7445959Y7642910D01*
X7446518Y7639100D01*
X7445552Y7635392D01*
X7443317Y7632293D01*
X7440066Y7630210D01*
X7436307Y7629499D01*
X7423607Y7632293D01*
X7414514Y7632700D01*
X7405471Y7631480D01*
X7400290Y7629804D01*
X7395870Y7629398D01*
X7391653Y7630922D01*
X7388555Y7634071D01*
X7387081Y7638288D01*
X7387539Y7642707D01*
X7392060Y7656068D01*
X7394752Y7669682D01*
X7395667Y7683500D01*
X7394752Y7697317D01*
X7392060Y7710881D01*
X7387590Y7723987D01*
X7381494Y7736433D01*
X7373772Y7747965D01*
X7364679Y7758379D01*
X7354265Y7767472D01*
X7342733Y7775194D01*
X7330287Y7781290D01*
X7317181Y7785760D01*
X7303617Y7788452D01*
X7289800Y7789367D01*
X7275982Y7788452D01*
X7262368Y7785760D01*
X7249261Y7781290D01*
X7236866Y7775194D01*
X7225334Y7767472D01*
X7214920Y7758379D01*
X7205776Y7747965D01*
X7198106Y7736433D01*
X7191959Y7723987D01*
X7187488Y7710881D01*
X7184796Y7697317D01*
X7183881Y7683500D01*
X7184796Y7669682D01*
X7187488Y7656068D01*
X7191959Y7642910D01*
X7192518Y7639100D01*
X7191552Y7635392D01*
X7189317Y7632293D01*
X7186066Y7630210D01*
X7182307Y7629499D01*
X7169607Y7632293D01*
X7160514Y7632700D01*
X7151471Y7631480D01*
X7146290Y7629804D01*
X7141870Y7629398D01*
X7137653Y7630922D01*
X7134555Y7634071D01*
X7133081Y7638288D01*
X7133539Y7642707D01*
X7138060Y7656068D01*
X7140752Y7669682D01*
X7141667Y7683500D01*
X7140752Y7697317D01*
X7138060Y7710881D01*
X7133590Y7723987D01*
X7127494Y7736433D01*
X7119772Y7747965D01*
X7110679Y7758379D01*
X7100265Y7767472D01*
X7088733Y7775194D01*
X7076287Y7781290D01*
X7063181Y7785760D01*
X7049617Y7788452D01*
X7035800Y7789367D01*
X7021982Y7788452D01*
X7008368Y7785760D01*
X6995261Y7781290D01*
X6982866Y7775194D01*
X6971334Y7767472D01*
X6960920Y7758379D01*
X6951776Y7747965D01*
X6944106Y7736433D01*
X6937959Y7723987D01*
X6933488Y7710881D01*
X6930796Y7697317D01*
X6929881Y7683500D01*
X6930796Y7669682D01*
X6933488Y7656068D01*
X6937959Y7642910D01*
X6938518Y7639100D01*
X6937552Y7635392D01*
X6935317Y7632293D01*
X6932066Y7630210D01*
X6928307Y7629499D01*
X6915607Y7632293D01*
X6906514Y7632700D01*
X6897471Y7631480D01*
X6892290Y7629804D01*
X6887870Y7629398D01*
X6883653Y7630922D01*
X6880555Y7634071D01*
X6879081Y7638288D01*
X6879539Y7642707D01*
X6884060Y7656068D01*
X6886752Y7669682D01*
X6887667Y7683500D01*
X6886752Y7697317D01*
X6884060Y7710881D01*
X6879590Y7723987D01*
X6873494Y7736433D01*
X6865772Y7747965D01*
X6856679Y7758379D01*
X6846265Y7767472D01*
X6834733Y7775194D01*
X6822287Y7781290D01*
X6809181Y7785760D01*
X6795617Y7788452D01*
X6781800Y7789367D01*
X6767982Y7788452D01*
X6754368Y7785760D01*
X6741261Y7781290D01*
X6728866Y7775194D01*
X6717334Y7767472D01*
X6706920Y7758379D01*
X6697776Y7747965D01*
X6690106Y7736433D01*
X6683959Y7723987D01*
X6679488Y7710881D01*
X6676796Y7697317D01*
X6675881Y7683500D01*
X6676796Y7669682D01*
X6679488Y7656068D01*
X6683959Y7642910D01*
X6684518Y7639100D01*
X6683552Y7635392D01*
X6681317Y7632293D01*
X6678066Y7630210D01*
X6674307Y7629499D01*
X6661607Y7632293D01*
X6652514Y7632700D01*
X6643471Y7631480D01*
X6638290Y7629804D01*
X6633870Y7629398D01*
X6629653Y7630922D01*
X6626555Y7634071D01*
X6625081Y7638288D01*
X6625539Y7642707D01*
X6630060Y7656068D01*
X6632752Y7669682D01*
X6633667Y7683500D01*
X6632752Y7697317D01*
X6630060Y7710881D01*
X6625590Y7723987D01*
X6619494Y7736433D01*
X6611772Y7747965D01*
X6602679Y7758379D01*
X6592265Y7767472D01*
X6580733Y7775194D01*
X6568287Y7781290D01*
X6555181Y7785760D01*
X6541617Y7788452D01*
X6527800Y7789367D01*
X6513982Y7788452D01*
X6500368Y7785760D01*
X6487261Y7781290D01*
X6474866Y7775194D01*
X6463334Y7767472D01*
X6452920Y7758379D01*
X6443776Y7747965D01*
X6436106Y7736433D01*
X6429959Y7723987D01*
X6425488Y7710881D01*
X6422796Y7697317D01*
X6421882Y7683500D01*
X6422796Y7669682D01*
X6425488Y7656068D01*
X6429959Y7642910D01*
X6430518Y7639100D01*
X6429552Y7635392D01*
X6427317Y7632293D01*
X6424066Y7630210D01*
X6420307Y7629499D01*
X6407607Y7632293D01*
X6398514Y7632700D01*
X6389471Y7631480D01*
X6384290Y7629804D01*
X6379870Y7629398D01*
X6375654Y7630922D01*
X6372555Y7634071D01*
X6371082Y7638288D01*
X6371539Y7642707D01*
X6376060Y7656068D01*
X6378752Y7669682D01*
X6379667Y7683500D01*
X6378752Y7697317D01*
X6376060Y7710881D01*
X6371590Y7723987D01*
X6365494Y7736433D01*
X6357772Y7747965D01*
X6348679Y7758379D01*
X6338265Y7767472D01*
X6326733Y7775194D01*
X6314287Y7781290D01*
X6301181Y7785760D01*
X6287617Y7788452D01*
X6273800Y7789367D01*
X6259982Y7788452D01*
X6246368Y7785760D01*
X6233261Y7781290D01*
X6220866Y7775194D01*
X6209334Y7767472D01*
X6198920Y7758379D01*
X6189776Y7747965D01*
X6182106Y7736433D01*
X6175959Y7723987D01*
X6171488Y7710881D01*
X6168796Y7697317D01*
X6167882Y7683500D01*
X6168796Y7669682D01*
X6171488Y7656068D01*
X6175959Y7642910D01*
X6176518Y7639100D01*
X6175552Y7635392D01*
X6173317Y7632293D01*
X6170066Y7630210D01*
X6166307Y7629499D01*
X6153607Y7632293D01*
X6144514Y7632700D01*
X6135471Y7631480D01*
X6130290Y7629804D01*
X6125870Y7629398D01*
X6121654Y7630922D01*
X6118555Y7634071D01*
X6117082Y7638288D01*
X6117539Y7642707D01*
X6122060Y7656068D01*
X6124752Y7669682D01*
X6125667Y7683500D01*
X6124752Y7697317D01*
X6122060Y7710881D01*
X6117590Y7723987D01*
X6111494Y7736433D01*
X6103772Y7747965D01*
X6094679Y7758379D01*
X6084265Y7767472D01*
X6072733Y7775194D01*
X6060287Y7781290D01*
X6047181Y7785760D01*
X6033617Y7788452D01*
X6019800Y7789367D01*
X6005982Y7788452D01*
X5992368Y7785760D01*
X5979261Y7781290D01*
X5966866Y7775194D01*
X5955334Y7767472D01*
X5944920Y7758379D01*
X5935776Y7747965D01*
X5928106Y7736433D01*
X5921959Y7723987D01*
X5917488Y7710881D01*
X5914796Y7697317D01*
X5913882Y7683500D01*
X5914796Y7669682D01*
X5917488Y7656068D01*
X5921959Y7642910D01*
X5922518Y7639100D01*
X5921552Y7635392D01*
X5919317Y7632293D01*
X5916066Y7630210D01*
X5912307Y7629499D01*
X5899607Y7632293D01*
X5890514Y7632700D01*
X5881471Y7631480D01*
X5876290Y7629804D01*
X5871870Y7629398D01*
X5867654Y7630922D01*
X5864555Y7634071D01*
X5863082Y7638288D01*
X5863539Y7642707D01*
X5868060Y7656068D01*
X5870752Y7669682D01*
X5871667Y7683500D01*
X5870752Y7697317D01*
X5868060Y7710881D01*
X5863590Y7723987D01*
X5857494Y7736433D01*
X5849772Y7747965D01*
X5840679Y7758379D01*
X5830265Y7767472D01*
X5818733Y7775194D01*
X5806287Y7781290D01*
X5793181Y7785760D01*
X5779617Y7788452D01*
X5765800Y7789367D01*
X5751982Y7788452D01*
X5738368Y7785760D01*
X5725261Y7781290D01*
X5712866Y7775194D01*
X5701334Y7767472D01*
X5690920Y7758379D01*
X5681776Y7747965D01*
X5674106Y7736433D01*
X5667959Y7723987D01*
X5663488Y7710881D01*
X5660796Y7697317D01*
X5659882Y7683500D01*
X5660796Y7669682D01*
X5663488Y7656068D01*
X5667959Y7642961D01*
X5668518Y7639151D01*
X5667552Y7635392D01*
X5665317Y7632293D01*
X5662066Y7630210D01*
X5658307Y7629499D01*
X5645607Y7632293D01*
X5636514Y7632700D01*
X5627471Y7631480D01*
X5622290Y7629804D01*
X5617870Y7629398D01*
X5613654Y7630922D01*
X5610555Y7634071D01*
X5609082Y7638288D01*
X5609539Y7642707D01*
X5614060Y7656068D01*
X5616752Y7669682D01*
X5617667Y7683500D01*
X5616752Y7697317D01*
X5614060Y7710881D01*
X5609590Y7723987D01*
X5603494Y7736433D01*
X5595772Y7747965D01*
X5586679Y7758379D01*
X5576265Y7767472D01*
X5564733Y7775194D01*
X5552287Y7781290D01*
X5539181Y7785760D01*
X5525617Y7788452D01*
X5511800Y7789367D01*
X5497982Y7788452D01*
X5484368Y7785760D01*
X5471261Y7781290D01*
X5458866Y7775194D01*
X5447334Y7767472D01*
X5436920Y7758379D01*
X5427776Y7747965D01*
X5420106Y7736433D01*
X5413959Y7723987D01*
X5409488Y7710881D01*
X5406796Y7697317D01*
X5405882Y7683500D01*
X5406796Y7669682D01*
X5409488Y7656068D01*
X5413959Y7642961D01*
X5414518Y7639151D01*
X5413552Y7635392D01*
X5411317Y7632293D01*
X5408066Y7630210D01*
X5404307Y7629499D01*
X5391607Y7632293D01*
X5382514Y7632700D01*
X5373471Y7631480D01*
X5368290Y7629804D01*
X5363870Y7629398D01*
X5359654Y7630922D01*
X5356555Y7634071D01*
X5355082Y7638288D01*
X5355539Y7642707D01*
X5360060Y7656068D01*
X5362752Y7669682D01*
X5363667Y7683500D01*
X5362752Y7697317D01*
X5360060Y7710881D01*
X5355590Y7723987D01*
X5349494Y7736433D01*
X5341772Y7747965D01*
X5332679Y7758379D01*
X5322265Y7767472D01*
X5310733Y7775194D01*
X5298287Y7781290D01*
X5285181Y7785760D01*
X5271617Y7788452D01*
X5257800Y7789367D01*
X5243982Y7788452D01*
X5230368Y7785760D01*
X5217261Y7781290D01*
X5204866Y7775194D01*
X5193334Y7767472D01*
X5182920Y7758379D01*
X5173776Y7747965D01*
X5166106Y7736433D01*
X5159959Y7723987D01*
X5155488Y7710881D01*
X5152796Y7697317D01*
X5151882Y7683500D01*
X5152796Y7669682D01*
X5155488Y7656068D01*
X5159959Y7642961D01*
X5160518Y7639151D01*
X5159552Y7635392D01*
X5157317Y7632293D01*
X5154066Y7630210D01*
X5150307Y7629499D01*
X5137607Y7632293D01*
X5128514Y7632700D01*
X5119471Y7631480D01*
X5114290Y7629804D01*
X5109870Y7629398D01*
X5105654Y7630922D01*
X5102555Y7634071D01*
X5101082Y7638288D01*
X5101539Y7642707D01*
X5106060Y7656068D01*
X5108752Y7669682D01*
X5109667Y7683500D01*
X5108752Y7697317D01*
X5106060Y7710881D01*
X5101590Y7723987D01*
X5095494Y7736433D01*
X5087772Y7747965D01*
X5078679Y7758379D01*
X5068265Y7767472D01*
X5056733Y7775194D01*
X5044287Y7781290D01*
X5031181Y7785760D01*
X5017617Y7788452D01*
X5003800Y7789367D01*
X4989982Y7788452D01*
X4976368Y7785760D01*
X4963261Y7781290D01*
X4950866Y7775194D01*
X4939334Y7767472D01*
X4928920Y7758379D01*
X4919776Y7747965D01*
X4912106Y7736433D01*
X4905959Y7723987D01*
X4901488Y7710881D01*
X4898796Y7697317D01*
X4897882Y7683500D01*
X4898796Y7669682D01*
X4901488Y7656068D01*
X4905959Y7642961D01*
X4906518Y7639151D01*
X4905552Y7635392D01*
X4903317Y7632293D01*
X4900066Y7630210D01*
X4896307Y7629499D01*
X4883607Y7632293D01*
X4874514Y7632700D01*
X4865471Y7631480D01*
X4860290Y7629804D01*
X4855870Y7629398D01*
X4851654Y7630922D01*
X4848555Y7634071D01*
X4847082Y7638288D01*
X4847539Y7642707D01*
X4852060Y7656068D01*
X4854752Y7669682D01*
X4855667Y7683500D01*
X4854752Y7697317D01*
X4852060Y7710881D01*
X4847590Y7723987D01*
X4841494Y7736433D01*
X4833772Y7747965D01*
X4824679Y7758379D01*
X4814265Y7767472D01*
X4802733Y7775194D01*
X4790287Y7781290D01*
X4777181Y7785760D01*
X4763617Y7788452D01*
X4749800Y7789367D01*
X4735982Y7788452D01*
X4722368Y7785760D01*
X4709261Y7781290D01*
X4696866Y7775194D01*
X4685334Y7767472D01*
X4674920Y7758379D01*
X4665776Y7747965D01*
X4658106Y7736433D01*
X4651959Y7723987D01*
X4647488Y7710881D01*
X4644796Y7697317D01*
X4643882Y7683500D01*
X4644796Y7669682D01*
X4647488Y7656068D01*
X4651959Y7642961D01*
X4652518Y7639151D01*
X4651552Y7635392D01*
X4649317Y7632293D01*
X4646066Y7630210D01*
X4642307Y7629499D01*
X4629607Y7632293D01*
X4620514Y7632700D01*
X4611471Y7631480D01*
X4606290Y7629804D01*
X4601870Y7629398D01*
X4597654Y7630922D01*
X4594555Y7634071D01*
X4593082Y7638288D01*
X4593539Y7642707D01*
X4598060Y7656068D01*
X4600752Y7669682D01*
X4601667Y7683500D01*
X4600752Y7697317D01*
X4598060Y7710881D01*
X4593590Y7723987D01*
X4587494Y7736433D01*
X4579772Y7747965D01*
X4570679Y7758379D01*
X4560265Y7767472D01*
X4548733Y7775194D01*
X4536287Y7781290D01*
X4523181Y7785760D01*
X4509617Y7788452D01*
X4495800Y7789367D01*
X4481982Y7788452D01*
X4468368Y7785760D01*
X4455261Y7781290D01*
X4442866Y7775194D01*
X4431334Y7767472D01*
X4420920Y7758379D01*
X4411776Y7747965D01*
X4404106Y7736433D01*
X4397959Y7723987D01*
X4393488Y7710881D01*
X4390796Y7697317D01*
X4389882Y7683500D01*
X4390796Y7669682D01*
X4393488Y7656068D01*
X4397959Y7642961D01*
X4398518Y7639151D01*
X4397552Y7635392D01*
X4395317Y7632293D01*
X4392066Y7630210D01*
X4388307Y7629499D01*
X4375607Y7632293D01*
X4366514Y7632700D01*
X4357471Y7631480D01*
X4352290Y7629804D01*
X4347870Y7629398D01*
X4343654Y7630922D01*
X4340555Y7634071D01*
X4339082Y7638288D01*
X4339539Y7642707D01*
X4344060Y7656068D01*
X4346752Y7669682D01*
X4347667Y7683500D01*
X4346752Y7697317D01*
X4344060Y7710881D01*
X4339590Y7723987D01*
X4333494Y7736433D01*
X4325772Y7747965D01*
X4316679Y7758379D01*
X4306265Y7767472D01*
X4294733Y7775194D01*
X4282287Y7781290D01*
X4269181Y7785760D01*
X4255617Y7788452D01*
X4241800Y7789367D01*
X4227982Y7788452D01*
X4214368Y7785760D01*
X4201261Y7781290D01*
X4188866Y7775194D01*
X4177334Y7767472D01*
X4166920Y7758379D01*
X4157776Y7747965D01*
X4150106Y7736433D01*
X4143959Y7723987D01*
X4139488Y7710881D01*
X4136796Y7697317D01*
X4135882Y7683500D01*
X4136796Y7669682D01*
X4139488Y7656068D01*
X4143959Y7642961D01*
X4144518Y7639151D01*
X4143552Y7635392D01*
X4141317Y7632293D01*
X4138066Y7630210D01*
X4134307Y7629499D01*
X4121607Y7632293D01*
X4112514Y7632700D01*
X4103471Y7631480D01*
X4098290Y7629804D01*
G37*

%LPC*%
G36*
X5510530Y7919364D02*
G01*
X5546801Y7919364D01*
X5553151Y7920075D01*
X5558586Y7922006D01*
X5563514Y7925053D01*
X5567578Y7929168D01*
X5570677Y7934045D01*
X5572607Y7939531D01*
X5573318Y7945831D01*
X5573318Y7976057D01*
X5510530Y7976057D01*
G37*
G36*
X5375148Y7919364D02*
G01*
X5411419Y7919364D01*
X5411419Y7976057D01*
X5348681Y7976057D01*
X5348681Y7945831D01*
X5349392Y7939531D01*
X5351322Y7934045D01*
X5354370Y7929168D01*
X5358485Y7925053D01*
X5363362Y7922006D01*
X5368848Y7920075D01*
G37*
G36*
X5895289Y7935061D02*
G01*
X5908344Y7935061D01*
X5908344Y7974634D01*
X5868771Y7974634D01*
X5868771Y7961579D01*
X5869482Y7955229D01*
X5871413Y7949793D01*
X5874512Y7944866D01*
X5878576Y7940802D01*
X5883503Y7937703D01*
X5888939Y7935772D01*
G37*
G36*
X5961075Y7935061D02*
G01*
X5974130Y7935061D01*
X5980430Y7935772D01*
X5985916Y7937703D01*
X5990793Y7940802D01*
X5994908Y7944866D01*
X5998006Y7949793D01*
X5999886Y7955229D01*
X6000597Y7961579D01*
X6000597Y7974634D01*
X5961075Y7974634D01*
G37*
G36*
X4628235Y7935061D02*
G01*
X4641342Y7935061D01*
X4647641Y7935772D01*
X4653127Y7937703D01*
X4658004Y7940802D01*
X4662119Y7944866D01*
X4665167Y7949793D01*
X4667097Y7955229D01*
X4667808Y7961579D01*
X4667808Y7974634D01*
X4628235Y7974634D01*
G37*
G36*
X4562449Y7935061D02*
G01*
X4575556Y7935061D01*
X4575556Y7974634D01*
X4535982Y7974634D01*
X4535982Y7961579D01*
X4536694Y7955229D01*
X4538624Y7949793D01*
X4541672Y7944866D01*
X4545787Y7940802D01*
X4550664Y7937703D01*
X4556150Y7935772D01*
G37*
G36*
X4732629Y7935061D02*
G01*
X4811522Y7935061D01*
X4817821Y7935772D01*
X4823307Y7937703D01*
X4828184Y7940802D01*
X4832299Y7944866D01*
X4835347Y7949793D01*
X4838446Y7959547D01*
X4840681Y7962493D01*
X4843830Y7964373D01*
X4847488Y7965084D01*
X4950663Y7965084D01*
X4954016Y7964474D01*
X4957013Y7962849D01*
X4959299Y7960309D01*
X4960823Y7957870D01*
X4964938Y7953756D01*
X4969814Y7950708D01*
X4975250Y7948777D01*
X4981600Y7948066D01*
X5037023Y7948066D01*
X5043322Y7948777D01*
X5049215Y7950860D01*
X5052568Y7951419D01*
X5055971Y7950860D01*
X5061813Y7948777D01*
X5068163Y7948066D01*
X5074970Y7948066D01*
X5077612Y7947710D01*
X5086096Y7945475D01*
X5095900Y7944612D01*
X5105654Y7945475D01*
X5114137Y7947710D01*
X5116779Y7948066D01*
X5123586Y7948066D01*
X5129885Y7948777D01*
X5135372Y7950708D01*
X5140248Y7953756D01*
X5144363Y7957870D01*
X5147462Y7962747D01*
X5149342Y7968234D01*
X5150053Y7974533D01*
X5150053Y7984896D01*
X5150408Y7987538D01*
X5151374Y7991195D01*
X5152237Y8000949D01*
X5151374Y8010753D01*
X5150408Y8014411D01*
X5150053Y8017052D01*
X5150053Y8027416D01*
X5149342Y8033715D01*
X5147462Y8039201D01*
X5144363Y8044078D01*
X5140248Y8048193D01*
X5135372Y8051292D01*
X5129885Y8053171D01*
X5123586Y8053882D01*
X5116677Y8053882D01*
X5114036Y8054238D01*
X5105654Y8056473D01*
X5095900Y8057337D01*
X5086096Y8056473D01*
X5077714Y8054238D01*
X5075072Y8053882D01*
X5068163Y8053882D01*
X5061813Y8053171D01*
X5055971Y8051139D01*
X5052568Y8050530D01*
X5049215Y8051139D01*
X5043322Y8053171D01*
X5037023Y8053882D01*
X4981600Y8053882D01*
X4975250Y8053171D01*
X4969814Y8051292D01*
X4964938Y8048193D01*
X4960823Y8044078D01*
X4959299Y8041640D01*
X4957013Y8039100D01*
X4954016Y8037474D01*
X4950663Y8036864D01*
X4847488Y8036864D01*
X4843830Y8037525D01*
X4840681Y8039455D01*
X4838446Y8042402D01*
X4837277Y8046720D01*
X4835347Y8052206D01*
X4832299Y8057083D01*
X4828184Y8061198D01*
X4823307Y8064246D01*
X4817821Y8066176D01*
X4811522Y8066887D01*
X4732629Y8066887D01*
X4726330Y8066176D01*
X4720844Y8064246D01*
X4715967Y8061198D01*
X4711852Y8057083D01*
X4708804Y8052206D01*
X4706874Y8046720D01*
X4706162Y8040420D01*
X4706162Y7961579D01*
X4706874Y7955229D01*
X4708804Y7949793D01*
X4711852Y7944866D01*
X4715967Y7940802D01*
X4720844Y7937703D01*
X4726330Y7935772D01*
G37*
G36*
X5702300Y7939430D02*
G01*
X5712104Y7940294D01*
X5715762Y7941259D01*
X5718403Y7941614D01*
X5728716Y7941614D01*
X5735066Y7942325D01*
X5740501Y7944256D01*
X5745378Y7947304D01*
X5749493Y7951419D01*
X5752592Y7956296D01*
X5754471Y7961782D01*
X5755182Y7968081D01*
X5755182Y7974888D01*
X5755538Y7977530D01*
X5757824Y7986014D01*
X5758688Y7995767D01*
X5757824Y8005572D01*
X5755538Y8014055D01*
X5755182Y8016697D01*
X5755182Y8023504D01*
X5754471Y8029854D01*
X5752439Y8035747D01*
X5751830Y8039100D01*
X5752439Y8042452D01*
X5754471Y8048345D01*
X5755182Y8054644D01*
X5755182Y8061452D01*
X5755538Y8064093D01*
X5757824Y8072577D01*
X5758688Y8082330D01*
X5757824Y8092135D01*
X5755538Y8100618D01*
X5755182Y8103260D01*
X5755182Y8110067D01*
X5754471Y8116417D01*
X5752592Y8121853D01*
X5749493Y8126780D01*
X5745378Y8130844D01*
X5740501Y8133943D01*
X5735066Y8135823D01*
X5728716Y8136534D01*
X5718302Y8136534D01*
X5715711Y8136890D01*
X5712104Y8137855D01*
X5702300Y8138718D01*
X5692495Y8137855D01*
X5688888Y8136890D01*
X5686298Y8136534D01*
X5675884Y8136534D01*
X5669534Y8135823D01*
X5664098Y8133943D01*
X5659170Y8130844D01*
X5655106Y8126780D01*
X5652008Y8121853D01*
X5650077Y8116417D01*
X5649366Y8110067D01*
X5649366Y8103158D01*
X5649010Y8100517D01*
X5646775Y8092135D01*
X5645912Y8082330D01*
X5646775Y8072577D01*
X5649010Y8064195D01*
X5649366Y8061553D01*
X5649366Y8054644D01*
X5650077Y8048345D01*
X5652160Y8042452D01*
X5652719Y8039100D01*
X5652160Y8035747D01*
X5650077Y8029854D01*
X5649366Y8023504D01*
X5649366Y8016595D01*
X5649010Y8013953D01*
X5646775Y8005572D01*
X5645912Y7995767D01*
X5646775Y7986014D01*
X5649010Y7977631D01*
X5649366Y7974990D01*
X5649366Y7968081D01*
X5650077Y7961782D01*
X5652008Y7956296D01*
X5655106Y7951419D01*
X5659170Y7947304D01*
X5664098Y7944256D01*
X5669534Y7942325D01*
X5675884Y7941614D01*
X5686196Y7941614D01*
X5688838Y7941259D01*
X5692495Y7940294D01*
G37*
G36*
X7579512Y7967929D02*
G01*
X7584186Y7972552D01*
X7588148Y7977530D01*
X7590637Y7982762D01*
X7591958Y7988401D01*
X7591958Y7994192D01*
X7590637Y7999831D01*
X7588148Y8005064D01*
X7584186Y8010042D01*
X7575092Y8019084D01*
X7551724Y7995716D01*
G37*
G36*
X4628235Y8027314D02*
G01*
X4667808Y8027314D01*
X4667808Y8040420D01*
X4667097Y8046720D01*
X4665167Y8052206D01*
X4662119Y8057083D01*
X4658004Y8061198D01*
X4653127Y8064246D01*
X4647641Y8066176D01*
X4641342Y8066887D01*
X4628235Y8066887D01*
G37*
G36*
X4535982Y8027314D02*
G01*
X4575556Y8027314D01*
X4575556Y8066887D01*
X4562449Y8066887D01*
X4556150Y8066176D01*
X4550664Y8064246D01*
X4545787Y8061198D01*
X4541672Y8057083D01*
X4538624Y8052206D01*
X4536694Y8046720D01*
X4535982Y8040420D01*
G37*
G36*
X5868771Y8027314D02*
G01*
X5908344Y8027314D01*
X5908344Y8067497D01*
X5905347Y8066887D01*
X5895289Y8066887D01*
X5888939Y8066176D01*
X5883503Y8064246D01*
X5878576Y8061198D01*
X5874512Y8057083D01*
X5871413Y8052206D01*
X5869482Y8046720D01*
X5868771Y8040420D01*
G37*
G36*
X3877005Y8042097D02*
G01*
X3915054Y8042097D01*
X3921404Y8042808D01*
X3926840Y8044688D01*
X3931767Y8047786D01*
X3935831Y8051850D01*
X3938930Y8056778D01*
X3940860Y8062214D01*
X3941572Y8068564D01*
X3941572Y8106613D01*
X3877005Y8106613D01*
G37*
G36*
X3736187Y8042097D02*
G01*
X3774287Y8042097D01*
X3774287Y8106613D01*
X3709720Y8106613D01*
X3709720Y8068564D01*
X3710432Y8062214D01*
X3712362Y8056778D01*
X3715461Y8051850D01*
X3719525Y8047786D01*
X3724452Y8044688D01*
X3729888Y8042808D01*
G37*
G36*
X6784543Y8044535D02*
G01*
X6812330Y8072323D01*
X6751523Y8133130D01*
X6723735Y8105343D01*
X6728358Y8100720D01*
X6733336Y8096758D01*
X6738569Y8094218D01*
X6744208Y8092948D01*
X6749999Y8092948D01*
X6755638Y8094218D01*
X6760870Y8096758D01*
X6764832Y8099907D01*
X6768592Y8101787D01*
X6772808Y8101990D01*
X6776720Y8100466D01*
X6779666Y8097520D01*
X6781190Y8093608D01*
X6780987Y8089392D01*
X6779107Y8085632D01*
X6775958Y8081670D01*
X6773418Y8076438D01*
X6772148Y8070799D01*
X6772148Y8065008D01*
X6773418Y8059369D01*
X6775958Y8054136D01*
X6779920Y8049158D01*
G37*
G36*
X5348681Y8063026D02*
G01*
X5411419Y8063026D01*
X5411419Y8119668D01*
X5375148Y8119668D01*
X5368848Y8118957D01*
X5363362Y8117078D01*
X5358485Y8113979D01*
X5354370Y8109915D01*
X5351322Y8104987D01*
X5349392Y8099552D01*
X5348681Y8093202D01*
G37*
G36*
X5510530Y8063026D02*
G01*
X5573318Y8063026D01*
X5573318Y8093202D01*
X5572607Y8099552D01*
X5570677Y8104987D01*
X5567578Y8109915D01*
X5563514Y8113979D01*
X5558586Y8117078D01*
X5553151Y8118957D01*
X5546801Y8119668D01*
X5510530Y8119668D01*
G37*
G36*
X4378299Y8093202D02*
G01*
X4419041Y8093202D01*
X4425340Y8093913D01*
X4430826Y8095792D01*
X4435703Y8098891D01*
X4439818Y8102955D01*
X4442866Y8107883D01*
X4444593Y8112759D01*
X4378299Y8112759D01*
G37*
G36*
X4293158Y8093202D02*
G01*
X4333849Y8093202D01*
X4333849Y8112759D01*
X4267606Y8112759D01*
X4269282Y8107883D01*
X4272381Y8102955D01*
X4276496Y8098891D01*
X4281373Y8095792D01*
X4286859Y8093913D01*
G37*
G36*
X4584700Y8109712D02*
G01*
X4594504Y8110575D01*
X4604004Y8113115D01*
X4612894Y8117281D01*
X4620920Y8122920D01*
X4627880Y8129879D01*
X4633518Y8137906D01*
X4637684Y8146796D01*
X4640224Y8156295D01*
X4641088Y8166100D01*
X4640224Y8175904D01*
X4637684Y8185403D01*
X4633518Y8194294D01*
X4627880Y8202320D01*
X4620920Y8209280D01*
X4612894Y8214918D01*
X4604004Y8219084D01*
X4594504Y8221624D01*
X4584700Y8222488D01*
X4574895Y8221624D01*
X4565396Y8219084D01*
X4556506Y8214918D01*
X4548479Y8209280D01*
X4541520Y8202320D01*
X4535881Y8194294D01*
X4531715Y8185403D01*
X4529175Y8175904D01*
X4528312Y8166100D01*
X4529175Y8156295D01*
X4531715Y8146796D01*
X4535881Y8137906D01*
X4541520Y8129879D01*
X4548479Y8122920D01*
X4556506Y8117281D01*
X4565396Y8113115D01*
X4574895Y8110575D01*
G37*
G36*
X4118965Y8127085D02*
G01*
X4152036Y8127085D01*
X4158335Y8127796D01*
X4163822Y8129676D01*
X4168698Y8132775D01*
X4172813Y8136890D01*
X4175912Y8141766D01*
X4177792Y8147253D01*
X4178503Y8153552D01*
X4178503Y8199120D01*
X4118965Y8199120D01*
G37*
G36*
X3993184Y8127085D02*
G01*
X4026255Y8127085D01*
X4026255Y8199120D01*
X3966718Y8199120D01*
X3966718Y8153552D01*
X3967429Y8147253D01*
X3969308Y8141766D01*
X3972407Y8136890D01*
X3976471Y8132775D01*
X3981399Y8129676D01*
X3986834Y8127796D01*
G37*
G36*
X6695643Y8133435D02*
G01*
X6723430Y8161223D01*
X6700062Y8184591D01*
X6691020Y8175548D01*
X6687058Y8170570D01*
X6684518Y8165338D01*
X6683248Y8159699D01*
X6683248Y8153908D01*
X6684518Y8148269D01*
X6687058Y8143036D01*
X6691020Y8138058D01*
G37*
G36*
X8413953Y8194294D02*
G01*
X8424011Y8194294D01*
X8433917Y8195970D01*
X8443417Y8199221D01*
X8452256Y8203996D01*
X8460232Y8210194D01*
X8467039Y8217560D01*
X8472525Y8225993D01*
X8476538Y8235188D01*
X8479028Y8244941D01*
X8479840Y8254949D01*
X8479028Y8265007D01*
X8476538Y8274761D01*
X8472525Y8283956D01*
X8467039Y8292388D01*
X8460232Y8299754D01*
X8452256Y8305952D01*
X8443417Y8310727D01*
X8433917Y8313978D01*
X8424011Y8315655D01*
X8413953Y8315655D01*
X8404047Y8313978D01*
X8394547Y8310727D01*
X8385708Y8305952D01*
X8377732Y8299754D01*
X8370925Y8292388D01*
X8365439Y8283956D01*
X8361425Y8274761D01*
X8358936Y8265007D01*
X8358124Y8254949D01*
X8358936Y8244941D01*
X8361425Y8235188D01*
X8365439Y8225993D01*
X8370925Y8217560D01*
X8377732Y8210194D01*
X8385708Y8203996D01*
X8394547Y8199221D01*
X8404047Y8195970D01*
G37*
G36*
X8593937Y8194294D02*
G01*
X8603996Y8194294D01*
X8613902Y8195970D01*
X8623401Y8199221D01*
X8632240Y8203996D01*
X8640216Y8210194D01*
X8647023Y8217560D01*
X8652510Y8225993D01*
X8656523Y8235188D01*
X8659012Y8244941D01*
X8659825Y8254949D01*
X8659012Y8265007D01*
X8656523Y8274761D01*
X8652510Y8283956D01*
X8647023Y8292388D01*
X8640216Y8299754D01*
X8632240Y8305952D01*
X8623401Y8310727D01*
X8613902Y8313978D01*
X8603996Y8315655D01*
X8593937Y8315655D01*
X8584031Y8313978D01*
X8574532Y8310727D01*
X8565692Y8305952D01*
X8557717Y8299754D01*
X8550910Y8292388D01*
X8545423Y8283956D01*
X8541410Y8274761D01*
X8538921Y8265007D01*
X8538108Y8254949D01*
X8538921Y8244941D01*
X8541410Y8235188D01*
X8545423Y8225993D01*
X8550910Y8217560D01*
X8557717Y8210194D01*
X8565692Y8203996D01*
X8574532Y8199221D01*
X8584031Y8195970D01*
G37*
G36*
X3709720Y8209330D02*
G01*
X3774287Y8209330D01*
X3774287Y8273897D01*
X3736187Y8273897D01*
X3729888Y8273186D01*
X3724452Y8271256D01*
X3719525Y8268208D01*
X3715461Y8264093D01*
X3712362Y8259216D01*
X3710432Y8253730D01*
X3709720Y8247430D01*
G37*
G36*
X3877005Y8209330D02*
G01*
X3941572Y8209330D01*
X3941572Y8247430D01*
X3940860Y8253730D01*
X3938930Y8259216D01*
X3935831Y8264093D01*
X3931767Y8268208D01*
X3926840Y8271256D01*
X3921404Y8273186D01*
X3915054Y8273897D01*
X3877005Y8273897D01*
G37*
G36*
X7835493Y8215020D02*
G01*
X7840167Y8219694D01*
X7844129Y8224672D01*
X7846669Y8229853D01*
X7847939Y8235492D01*
X7847939Y8241284D01*
X7846669Y8246922D01*
X7844129Y8252155D01*
X7840167Y8257133D01*
X7831074Y8266175D01*
X7807706Y8242808D01*
G37*
G36*
X8153400Y8231530D02*
G01*
X8163153Y8232394D01*
X8166811Y8233359D01*
X8169452Y8233714D01*
X8179816Y8233714D01*
X8186115Y8234425D01*
X8191601Y8236356D01*
X8196478Y8239404D01*
X8200593Y8243519D01*
X8203692Y8248396D01*
X8205571Y8253882D01*
X8206282Y8260181D01*
X8206282Y8267090D01*
X8206638Y8269731D01*
X8208873Y8278114D01*
X8209737Y8287867D01*
X8208873Y8297672D01*
X8206638Y8306053D01*
X8206282Y8308695D01*
X8206282Y8315604D01*
X8205571Y8321954D01*
X8203539Y8327847D01*
X8202930Y8331200D01*
X8203539Y8334552D01*
X8205571Y8340445D01*
X8206282Y8346744D01*
X8206282Y8372297D01*
X8207044Y8376158D01*
X8209280Y8379459D01*
X8345728Y8515959D01*
X8349030Y8518144D01*
X8352942Y8518906D01*
X8356803Y8518144D01*
X8360105Y8515959D01*
X8362289Y8512657D01*
X8363102Y8508746D01*
X8363102Y8385556D01*
X8363813Y8379256D01*
X8365693Y8373770D01*
X8368792Y8368893D01*
X8372856Y8364778D01*
X8377783Y8361730D01*
X8383219Y8359800D01*
X8389569Y8359089D01*
X8478418Y8359089D01*
X8484768Y8359800D01*
X8490204Y8361730D01*
X8495131Y8364778D01*
X8499195Y8368893D01*
X8500364Y8370773D01*
X8503208Y8373719D01*
X8506968Y8375294D01*
X8511032Y8375294D01*
X8514791Y8373719D01*
X8517585Y8370773D01*
X8518753Y8368893D01*
X8522868Y8364778D01*
X8527745Y8361730D01*
X8533231Y8359800D01*
X8539530Y8359089D01*
X8555126Y8359089D01*
X8555126Y8409889D01*
X8515045Y8409889D01*
X8511184Y8410651D01*
X8507882Y8412886D01*
X8505698Y8416137D01*
X8504885Y8420049D01*
X8504885Y8474913D01*
X8505698Y8478824D01*
X8507882Y8482126D01*
X8511184Y8484311D01*
X8515045Y8485073D01*
X8555126Y8485073D01*
X8555126Y8535924D01*
X8539530Y8535924D01*
X8533231Y8535212D01*
X8527745Y8533282D01*
X8522868Y8530183D01*
X8518753Y8526119D01*
X8517585Y8524240D01*
X8514791Y8521293D01*
X8511032Y8519668D01*
X8506968Y8519668D01*
X8503208Y8521293D01*
X8500364Y8524240D01*
X8499195Y8526119D01*
X8495131Y8530183D01*
X8490204Y8533282D01*
X8484768Y8535212D01*
X8478418Y8535924D01*
X8390229Y8535924D01*
X8386318Y8536686D01*
X8383066Y8538870D01*
X8380831Y8542172D01*
X8380069Y8546084D01*
X8380831Y8549944D01*
X8383066Y8553246D01*
X8389620Y8559850D01*
X8392414Y8561832D01*
X8395665Y8562746D01*
X8399068Y8562543D01*
X8403742Y8560308D01*
X8409228Y8558377D01*
X8415528Y8557666D01*
X8493404Y8557666D01*
X8499754Y8558377D01*
X8505647Y8560460D01*
X8509000Y8561019D01*
X8512352Y8560460D01*
X8518245Y8558377D01*
X8524544Y8557666D01*
X8537397Y8557666D01*
X8537397Y8590737D01*
X8530031Y8590737D01*
X8526170Y8591499D01*
X8522868Y8593683D01*
X8520684Y8596985D01*
X8519871Y8600897D01*
X8519871Y8620252D01*
X8520684Y8624163D01*
X8522868Y8627465D01*
X8526170Y8629650D01*
X8530031Y8630412D01*
X8537397Y8630412D01*
X8537397Y8638590D01*
X8538159Y8642502D01*
X8540343Y8645804D01*
X8572246Y8677656D01*
X8574125Y8678926D01*
X8576868Y8682278D01*
X8580170Y8684514D01*
X8584031Y8685276D01*
X8628380Y8685276D01*
X8634730Y8685987D01*
X8640165Y8687866D01*
X8645093Y8690965D01*
X8649157Y8695080D01*
X8652256Y8699957D01*
X8654186Y8705443D01*
X8654897Y8711742D01*
X8654897Y8835593D01*
X8654186Y8841943D01*
X8652256Y8847378D01*
X8649157Y8852306D01*
X8645093Y8856370D01*
X8640165Y8859469D01*
X8634730Y8861348D01*
X8628380Y8862060D01*
X8539530Y8862060D01*
X8533231Y8861348D01*
X8527745Y8859469D01*
X8522868Y8856370D01*
X8518753Y8852306D01*
X8517585Y8850426D01*
X8514791Y8847480D01*
X8511032Y8845854D01*
X8506968Y8845854D01*
X8503208Y8847480D01*
X8500364Y8850426D01*
X8499195Y8852306D01*
X8495131Y8856370D01*
X8490204Y8859469D01*
X8484768Y8861348D01*
X8478418Y8862060D01*
X8389569Y8862060D01*
X8383219Y8861348D01*
X8377783Y8859469D01*
X8372856Y8856370D01*
X8368792Y8852306D01*
X8365693Y8847378D01*
X8363813Y8841943D01*
X8363102Y8835593D01*
X8363102Y8711742D01*
X8363813Y8705443D01*
X8365693Y8699957D01*
X8368792Y8695080D01*
X8372856Y8690965D01*
X8377783Y8687866D01*
X8383219Y8685987D01*
X8389569Y8685276D01*
X8453729Y8685276D01*
X8457641Y8684514D01*
X8460943Y8682278D01*
X8463127Y8678976D01*
X8463889Y8675116D01*
X8463127Y8671204D01*
X8460943Y8667902D01*
X8459470Y8666480D01*
X8456168Y8664244D01*
X8452307Y8663482D01*
X8415528Y8663482D01*
X8409228Y8662771D01*
X8403742Y8660892D01*
X8398865Y8657793D01*
X8394750Y8653678D01*
X8392922Y8650782D01*
X8389823Y8647633D01*
X8385606Y8646109D01*
X8382253Y8645702D01*
X8375040Y8643366D01*
X8368436Y8639556D01*
X8363966Y8635695D01*
X8341309Y8613038D01*
X8337803Y8610752D01*
X8333740Y8610092D01*
X8329675Y8611057D01*
X8326374Y8613597D01*
X8324392Y8617254D01*
X8324088Y8622233D01*
X8324088Y8628837D01*
X8284768Y8628837D01*
X8284768Y8595766D01*
X8298535Y8595868D01*
X8302650Y8595461D01*
X8306257Y8593480D01*
X8308797Y8590178D01*
X8309813Y8586165D01*
X8309102Y8582050D01*
X8306816Y8578596D01*
X8159851Y8431631D01*
X8156549Y8429447D01*
X8152688Y8428634D01*
X8126933Y8428634D01*
X8120634Y8427923D01*
X8115147Y8426043D01*
X8110270Y8422944D01*
X8106156Y8418880D01*
X8103108Y8413953D01*
X8101177Y8408517D01*
X8100466Y8402167D01*
X8100466Y8346744D01*
X8101177Y8340445D01*
X8103260Y8334552D01*
X8103819Y8331200D01*
X8103260Y8327847D01*
X8101177Y8321954D01*
X8100466Y8315604D01*
X8100466Y8308797D01*
X8100110Y8306155D01*
X8097875Y8297672D01*
X8097012Y8287867D01*
X8097875Y8278114D01*
X8100110Y8269630D01*
X8100466Y8266988D01*
X8100466Y8260181D01*
X8101177Y8253882D01*
X8103108Y8248396D01*
X8106156Y8243519D01*
X8110270Y8239404D01*
X8115147Y8236356D01*
X8120634Y8234425D01*
X8126933Y8233714D01*
X8137296Y8233714D01*
X8139938Y8233359D01*
X8143595Y8232394D01*
G37*
G36*
X5375148Y8237880D02*
G01*
X5546801Y8237880D01*
X5553151Y8238591D01*
X5558586Y8240522D01*
X5563514Y8243570D01*
X5567578Y8247684D01*
X5570677Y8252561D01*
X5572607Y8258048D01*
X5573318Y8264347D01*
X5573318Y8411718D01*
X5572607Y8418017D01*
X5570677Y8423503D01*
X5567578Y8428380D01*
X5563514Y8432495D01*
X5558586Y8435594D01*
X5553151Y8437473D01*
X5546801Y8438184D01*
X5375148Y8438184D01*
X5368848Y8437473D01*
X5363362Y8435594D01*
X5358485Y8432495D01*
X5354370Y8428380D01*
X5351322Y8423503D01*
X5349392Y8418017D01*
X5348681Y8411718D01*
X5348681Y8264347D01*
X5349392Y8258048D01*
X5351322Y8252561D01*
X5354370Y8247684D01*
X5358485Y8243570D01*
X5363362Y8240522D01*
X5368848Y8238591D01*
G37*
G36*
X6257798Y8276132D02*
G01*
X6258712Y8276437D01*
X6267043Y8280958D01*
X6274562Y8286750D01*
X6280962Y8293760D01*
X6286144Y8301685D01*
X6289954Y8310372D01*
X6292291Y8319516D01*
X6293104Y8329422D01*
X6293104Y8347405D01*
X6257798Y8347405D01*
G37*
G36*
X5079492Y8295081D02*
G01*
X5109718Y8295081D01*
X5116017Y8295792D01*
X5121503Y8297722D01*
X5126380Y8300770D01*
X5130495Y8304885D01*
X5133594Y8309762D01*
X5135473Y8315248D01*
X5136184Y8321548D01*
X5136184Y8357819D01*
X5079492Y8357819D01*
G37*
G36*
X4962347Y8295081D02*
G01*
X4992573Y8295081D01*
X4992573Y8357819D01*
X4935880Y8357819D01*
X4935880Y8321548D01*
X4936591Y8315248D01*
X4938522Y8309762D01*
X4941570Y8304885D01*
X4945684Y8300770D01*
X4950561Y8297722D01*
X4956048Y8295792D01*
G37*
G36*
X4118965Y8316823D02*
G01*
X4178503Y8316823D01*
X4178503Y8362391D01*
X4177792Y8368741D01*
X4175912Y8374176D01*
X4172813Y8379104D01*
X4169562Y8382355D01*
X4167327Y8385657D01*
X4166565Y8389620D01*
X4167378Y8393531D01*
X4169613Y8396833D01*
X4174896Y8401913D01*
X4177944Y8406790D01*
X4179824Y8412226D01*
X4180535Y8418576D01*
X4180535Y8421624D01*
X4127246Y8421624D01*
X4127246Y8381898D01*
X4126636Y8378444D01*
X4124909Y8375446D01*
X4122216Y8373160D01*
X4118965Y8371941D01*
G37*
G36*
X3966718Y8316823D02*
G01*
X4026255Y8316823D01*
X4026255Y8399068D01*
X4027017Y8402929D01*
X4029252Y8406231D01*
X4032504Y8408416D01*
X4036415Y8409228D01*
X4047032Y8409228D01*
X4047032Y8421624D01*
X3993743Y8421624D01*
X3993743Y8418576D01*
X3994454Y8412226D01*
X3996334Y8406790D01*
X3998010Y8404098D01*
X3999484Y8400288D01*
X3999280Y8396224D01*
X3997502Y8392515D01*
X3994454Y8389874D01*
X3990594Y8388603D01*
X3986834Y8388197D01*
X3981399Y8386267D01*
X3976471Y8383168D01*
X3972407Y8379104D01*
X3969308Y8374176D01*
X3967429Y8368741D01*
X3966718Y8362391D01*
G37*
G36*
X3877005Y8337042D02*
G01*
X3915054Y8337042D01*
X3921404Y8337753D01*
X3926840Y8339683D01*
X3931767Y8342782D01*
X3935831Y8346846D01*
X3938930Y8351774D01*
X3940860Y8357209D01*
X3941572Y8363559D01*
X3941572Y8401608D01*
X3877005Y8401608D01*
G37*
G36*
X3736187Y8337042D02*
G01*
X3774287Y8337042D01*
X3774287Y8401608D01*
X3709720Y8401608D01*
X3709720Y8363559D01*
X3710432Y8357209D01*
X3712362Y8351774D01*
X3715461Y8346846D01*
X3719525Y8342782D01*
X3724452Y8339683D01*
X3729888Y8337753D01*
G37*
G36*
X8612835Y8359089D02*
G01*
X8628380Y8359089D01*
X8634730Y8359800D01*
X8640165Y8361730D01*
X8645093Y8364778D01*
X8649157Y8368893D01*
X8652256Y8373770D01*
X8654186Y8379256D01*
X8654897Y8385556D01*
X8654897Y8409889D01*
X8612835Y8409889D01*
G37*
G36*
X6477508Y8359648D02*
G01*
X6483299Y8359648D01*
X6488938Y8360918D01*
X6494170Y8363407D01*
X6499148Y8367420D01*
X6508191Y8376462D01*
X6484823Y8399830D01*
X6457035Y8372043D01*
X6461658Y8367420D01*
X6466636Y8363407D01*
X6471869Y8360918D01*
G37*
G36*
X6428943Y8400135D02*
G01*
X6456730Y8427923D01*
X6433362Y8451291D01*
X6424320Y8442198D01*
X6420358Y8437270D01*
X6417818Y8432038D01*
X6416548Y8426399D01*
X6416548Y8420608D01*
X6417818Y8414969D01*
X6420358Y8409736D01*
X6424320Y8404758D01*
G37*
G36*
X4935880Y8456930D02*
G01*
X4992573Y8456930D01*
X4992573Y8519668D01*
X4962347Y8519668D01*
X4956048Y8518956D01*
X4950561Y8517077D01*
X4945684Y8513978D01*
X4941570Y8509914D01*
X4938522Y8504986D01*
X4936591Y8499551D01*
X4935880Y8493201D01*
G37*
G36*
X5079492Y8456930D02*
G01*
X5136184Y8456930D01*
X5136184Y8493201D01*
X5135473Y8499551D01*
X5133594Y8504986D01*
X5130495Y8509914D01*
X5126380Y8513978D01*
X5121503Y8517077D01*
X5116017Y8518956D01*
X5109718Y8519668D01*
X5079492Y8519668D01*
G37*
G36*
X6257798Y8472576D02*
G01*
X6293104Y8472576D01*
X6293104Y8490559D01*
X6292291Y8500414D01*
X6289954Y8509609D01*
X6286144Y8518296D01*
X6280962Y8526221D01*
X6274562Y8533180D01*
X6267043Y8539022D01*
X6258712Y8543544D01*
X6257798Y8543848D01*
G37*
G36*
X8612835Y8485073D02*
G01*
X8654897Y8485073D01*
X8654897Y8509406D01*
X8654186Y8515756D01*
X8652256Y8521192D01*
X8649157Y8526119D01*
X8645093Y8530183D01*
X8640165Y8533282D01*
X8634730Y8535212D01*
X8628380Y8535924D01*
X8612835Y8535924D01*
G37*
G36*
X3877005Y8504326D02*
G01*
X3941572Y8504326D01*
X3941572Y8542426D01*
X3940860Y8548725D01*
X3938930Y8554161D01*
X3935831Y8559088D01*
X3934155Y8560816D01*
X3931920Y8564067D01*
X3931158Y8567978D01*
X3931920Y8571890D01*
X3934155Y8575141D01*
X3935831Y8576868D01*
X3938930Y8581796D01*
X3940860Y8587232D01*
X3941572Y8593582D01*
X3941572Y8631631D01*
X3877005Y8631631D01*
G37*
G36*
X3709720Y8504326D02*
G01*
X3774287Y8504326D01*
X3774287Y8631631D01*
X3709720Y8631631D01*
X3709720Y8593582D01*
X3710432Y8587232D01*
X3712362Y8581796D01*
X3715461Y8576868D01*
X3717137Y8575141D01*
X3719372Y8571890D01*
X3720134Y8567978D01*
X3719372Y8564067D01*
X3717137Y8560816D01*
X3715461Y8559088D01*
X3712362Y8554161D01*
X3710432Y8548725D01*
X3709720Y8542426D01*
G37*
G36*
X8589568Y8557666D02*
G01*
X8602421Y8557666D01*
X8608720Y8558377D01*
X8614206Y8560308D01*
X8619083Y8563356D01*
X8623198Y8567470D01*
X8626297Y8572347D01*
X8628176Y8577834D01*
X8628888Y8584133D01*
X8628888Y8590737D01*
X8589568Y8590737D01*
G37*
G36*
X8589568Y8630412D02*
G01*
X8628888Y8630412D01*
X8628888Y8637016D01*
X8628176Y8643315D01*
X8626297Y8648801D01*
X8623198Y8653678D01*
X8619083Y8657793D01*
X8614206Y8660892D01*
X8608720Y8662771D01*
X8602421Y8663482D01*
X8589568Y8663482D01*
G37*
G36*
X8284768Y8668512D02*
G01*
X8324088Y8668512D01*
X8324088Y8675116D01*
X8323376Y8681415D01*
X8321497Y8686901D01*
X8318398Y8691778D01*
X8314283Y8695893D01*
X8309406Y8698992D01*
X8303971Y8700871D01*
X8297621Y8701582D01*
X8284768Y8701582D01*
G37*
G36*
X6534962Y8731758D02*
G01*
X6558330Y8755126D01*
X6530543Y8782964D01*
X6525920Y8778290D01*
X6521957Y8773312D01*
X6519418Y8768080D01*
X6518148Y8762441D01*
X6518148Y8756650D01*
X6519418Y8751011D01*
X6521957Y8745829D01*
X6525920Y8740851D01*
G37*
G36*
X3709720Y8734348D02*
G01*
X3774287Y8734348D01*
X3774287Y8798915D01*
X3736187Y8798915D01*
X3729888Y8798204D01*
X3724452Y8796274D01*
X3719525Y8793175D01*
X3715461Y8789111D01*
X3712362Y8784183D01*
X3710432Y8778748D01*
X3709720Y8772398D01*
G37*
G36*
X3877005Y8734348D02*
G01*
X3941572Y8734348D01*
X3941572Y8772398D01*
X3940860Y8778748D01*
X3938930Y8784183D01*
X3935831Y8789111D01*
X3931767Y8793175D01*
X3926840Y8796274D01*
X3921404Y8798204D01*
X3915054Y8798915D01*
X3877005Y8798915D01*
G37*
G36*
X6586423Y8783218D02*
G01*
X6609791Y8806586D01*
X6600748Y8815679D01*
X6595770Y8819642D01*
X6590538Y8822131D01*
X6584899Y8823452D01*
X6579108Y8823452D01*
X6573469Y8822131D01*
X6568236Y8819642D01*
X6563258Y8815679D01*
X6558635Y8811006D01*
G37*
G36*
X5184343Y8785656D02*
G01*
X5417210Y8785656D01*
X5423560Y8786368D01*
X5428996Y8788298D01*
X5433923Y8791397D01*
X5437987Y8795461D01*
X5441086Y8800388D01*
X5442966Y8805824D01*
X5443677Y8812174D01*
X5443677Y9171025D01*
X5442966Y9177324D01*
X5441086Y9182811D01*
X5437987Y9187688D01*
X5433923Y9191802D01*
X5428996Y9194850D01*
X5423560Y9196781D01*
X5417210Y9197492D01*
X5184343Y9197492D01*
X5178044Y9196781D01*
X5172557Y9194850D01*
X5167680Y9191802D01*
X5163566Y9187688D01*
X5160518Y9182811D01*
X5158587Y9177324D01*
X5157876Y9171025D01*
X5157876Y8812174D01*
X5158587Y8805824D01*
X5160518Y8800388D01*
X5163566Y8795461D01*
X5167680Y8791397D01*
X5172557Y8788298D01*
X5178044Y8786368D01*
G37*
G36*
X4939182Y8814003D02*
G01*
X4948986Y8814866D01*
X4958486Y8817406D01*
X4967376Y8821572D01*
X4975402Y8827211D01*
X4982362Y8834170D01*
X4988001Y8842197D01*
X4992166Y8851087D01*
X4994706Y8860586D01*
X4995570Y8870391D01*
X4994706Y8880195D01*
X4992166Y8889695D01*
X4988001Y8898585D01*
X4982362Y8906611D01*
X4975402Y8913571D01*
X4967376Y8919210D01*
X4958486Y8923375D01*
X4948986Y8925915D01*
X4939182Y8926779D01*
X4929378Y8925915D01*
X4919878Y8923375D01*
X4910988Y8919210D01*
X4902962Y8913571D01*
X4896002Y8906611D01*
X4890363Y8898585D01*
X4886198Y8889695D01*
X4883658Y8880195D01*
X4882794Y8870391D01*
X4883658Y8860586D01*
X4886198Y8851087D01*
X4890363Y8842197D01*
X4896002Y8834170D01*
X4902962Y8827211D01*
X4910988Y8821572D01*
X4919878Y8817406D01*
X4929378Y8814866D01*
G37*
G36*
X5934608Y8820302D02*
G01*
X5944362Y8821166D01*
X5953861Y8823706D01*
X5962751Y8827871D01*
X5970828Y8833510D01*
X5977788Y8840470D01*
X5983376Y8848496D01*
X5987542Y8857386D01*
X5990082Y8866886D01*
X5990945Y8876690D01*
X5990082Y8886494D01*
X5987542Y8895994D01*
X5983376Y8904884D01*
X5977788Y8912910D01*
X5970828Y8919870D01*
X5962751Y8925509D01*
X5953861Y8929674D01*
X5944362Y8932214D01*
X5934608Y8933078D01*
X5924804Y8932214D01*
X5915304Y8929674D01*
X5906414Y8925509D01*
X5898337Y8919870D01*
X5891377Y8912910D01*
X5885789Y8904884D01*
X5881624Y8895994D01*
X5879084Y8886494D01*
X5878220Y8876690D01*
X5879084Y8866886D01*
X5881624Y8857386D01*
X5885789Y8848496D01*
X5891377Y8840470D01*
X5898337Y8833510D01*
X5906414Y8827871D01*
X5915304Y8823706D01*
X5924804Y8821166D01*
G37*
G36*
X3736187Y8862060D02*
G01*
X3774287Y8862060D01*
X3774287Y8926626D01*
X3709720Y8926626D01*
X3709720Y8888526D01*
X3710432Y8882227D01*
X3712362Y8876792D01*
X3715461Y8871864D01*
X3719525Y8867800D01*
X3724452Y8864701D01*
X3729888Y8862771D01*
G37*
G36*
X3877005Y8862060D02*
G01*
X3915054Y8862060D01*
X3921404Y8862771D01*
X3926840Y8864701D01*
X3931767Y8867800D01*
X3935831Y8871864D01*
X3938930Y8876792D01*
X3940860Y8882227D01*
X3941572Y8888526D01*
X3941572Y8926626D01*
X3877005Y8926626D01*
G37*
G36*
X8413953Y8905494D02*
G01*
X8424011Y8905494D01*
X8433917Y8907170D01*
X8443417Y8910421D01*
X8452256Y8915196D01*
X8460232Y8921394D01*
X8467039Y8928760D01*
X8472525Y8937193D01*
X8476538Y8946388D01*
X8479028Y8956141D01*
X8479840Y8966149D01*
X8479028Y8976207D01*
X8476538Y8985961D01*
X8472525Y8995156D01*
X8467039Y9003588D01*
X8460232Y9010954D01*
X8452256Y9017152D01*
X8443417Y9021927D01*
X8433917Y9025178D01*
X8424011Y9026855D01*
X8413953Y9026855D01*
X8404047Y9025178D01*
X8394547Y9021927D01*
X8385708Y9017152D01*
X8377732Y9010954D01*
X8370925Y9003588D01*
X8365439Y8995156D01*
X8361425Y8985961D01*
X8358936Y8976207D01*
X8358124Y8966149D01*
X8358936Y8956141D01*
X8361425Y8946388D01*
X8365439Y8937193D01*
X8370925Y8928760D01*
X8377732Y8921394D01*
X8385708Y8915196D01*
X8394547Y8910421D01*
X8404047Y8907170D01*
G37*
G36*
X8593937Y8905494D02*
G01*
X8603996Y8905494D01*
X8613902Y8907170D01*
X8623401Y8910421D01*
X8632240Y8915196D01*
X8640216Y8921394D01*
X8647023Y8928760D01*
X8652510Y8937193D01*
X8656523Y8946388D01*
X8659012Y8956141D01*
X8659825Y8966149D01*
X8659012Y8976207D01*
X8656523Y8985961D01*
X8652510Y8995156D01*
X8647023Y9003588D01*
X8640216Y9010954D01*
X8632240Y9017152D01*
X8623401Y9021927D01*
X8613902Y9025178D01*
X8603996Y9026855D01*
X8593937Y9026855D01*
X8584031Y9025178D01*
X8574532Y9021927D01*
X8565692Y9017152D01*
X8557717Y9010954D01*
X8550910Y9003588D01*
X8545423Y8995156D01*
X8541410Y8985961D01*
X8538921Y8976207D01*
X8538108Y8966149D01*
X8538921Y8956141D01*
X8541410Y8946388D01*
X8545423Y8937193D01*
X8550910Y8928760D01*
X8557717Y8921394D01*
X8565692Y8915196D01*
X8574532Y8910421D01*
X8584031Y8907170D01*
G37*
G36*
X4582363Y8910675D02*
G01*
X4831232Y8910675D01*
X4837531Y8911386D01*
X4843018Y8913317D01*
X4847894Y8916365D01*
X4852009Y8920480D01*
X4855057Y8925356D01*
X4856988Y8930843D01*
X4857699Y8937142D01*
X4857699Y9046006D01*
X4856988Y9052356D01*
X4855057Y9057792D01*
X4852009Y9062720D01*
X4847894Y9066784D01*
X4843018Y9069882D01*
X4837531Y9071762D01*
X4831232Y9072473D01*
X4582363Y9072473D01*
X4576064Y9071762D01*
X4570577Y9069882D01*
X4565700Y9066784D01*
X4561586Y9062720D01*
X4558487Y9057792D01*
X4556607Y9052356D01*
X4555896Y9046006D01*
X4555896Y8937142D01*
X4556607Y8930843D01*
X4558487Y8925356D01*
X4561586Y8920480D01*
X4565700Y8916365D01*
X4570577Y8913317D01*
X4576064Y8911386D01*
G37*
G36*
X6537401Y8914993D02*
G01*
X6560769Y8938361D01*
X6532930Y8966149D01*
X6528307Y8961475D01*
X6524345Y8956497D01*
X6521805Y8951315D01*
X6520535Y8945676D01*
X6520535Y8939885D01*
X6521805Y8934246D01*
X6524345Y8929014D01*
X6528307Y8924036D01*
G37*
G36*
X3966718Y8936837D02*
G01*
X4026255Y8936837D01*
X4026255Y9008872D01*
X3993184Y9008872D01*
X3986834Y9008160D01*
X3981399Y9006230D01*
X3976471Y9003182D01*
X3972407Y8999067D01*
X3969308Y8994190D01*
X3967429Y8988704D01*
X3966718Y8982405D01*
G37*
G36*
X4118965Y8936837D02*
G01*
X4178503Y8936837D01*
X4178503Y8982405D01*
X4177792Y8988704D01*
X4175912Y8994190D01*
X4172813Y8999067D01*
X4168698Y9003182D01*
X4163822Y9006230D01*
X4158335Y9008160D01*
X4152036Y9008872D01*
X4118965Y9008872D01*
G37*
G36*
X6588810Y8966403D02*
G01*
X6612178Y8989771D01*
X6603136Y8998864D01*
X6598158Y9002826D01*
X6592925Y9005366D01*
X6587286Y9006636D01*
X6581495Y9006636D01*
X6575856Y9005366D01*
X6570675Y9002826D01*
X6565696Y8998864D01*
X6561023Y8994190D01*
G37*
G36*
X3709720Y9029344D02*
G01*
X3774287Y9029344D01*
X3774287Y9093911D01*
X3736187Y9093911D01*
X3729888Y9093200D01*
X3724452Y9091269D01*
X3719525Y9088170D01*
X3715461Y9084106D01*
X3712362Y9079179D01*
X3710432Y9073743D01*
X3709720Y9067393D01*
G37*
G36*
X3877005Y9029344D02*
G01*
X3941572Y9029344D01*
X3941572Y9067393D01*
X3940860Y9073743D01*
X3938930Y9079179D01*
X3935831Y9084106D01*
X3931767Y9088170D01*
X3926840Y9091269D01*
X3921404Y9093200D01*
X3915054Y9093911D01*
X3877005Y9093911D01*
G37*
G36*
X5545328Y9065666D02*
G01*
X5558180Y9065666D01*
X5558180Y9098737D01*
X5518861Y9098737D01*
X5518861Y9092133D01*
X5519572Y9085834D01*
X5521502Y9080347D01*
X5524550Y9075470D01*
X5528665Y9071356D01*
X5533542Y9068308D01*
X5539028Y9066377D01*
G37*
G36*
X8612835Y9070289D02*
G01*
X8628380Y9070289D01*
X8634730Y9071000D01*
X8640165Y9072880D01*
X8645093Y9075978D01*
X8649157Y9080093D01*
X8652256Y9084970D01*
X8654186Y9090456D01*
X8654897Y9096756D01*
X8654897Y9121089D01*
X8612835Y9121089D01*
G37*
G36*
X8389569Y9070289D02*
G01*
X8478418Y9070289D01*
X8484768Y9071000D01*
X8490204Y9072880D01*
X8495131Y9075978D01*
X8499195Y9080093D01*
X8500364Y9081973D01*
X8503208Y9084919D01*
X8506968Y9086494D01*
X8511032Y9086494D01*
X8514791Y9084919D01*
X8517585Y9081973D01*
X8518753Y9080093D01*
X8522868Y9075978D01*
X8527745Y9072880D01*
X8533231Y9071000D01*
X8539530Y9070289D01*
X8555126Y9070289D01*
X8555126Y9121089D01*
X8515045Y9121089D01*
X8511184Y9121851D01*
X8507882Y9124086D01*
X8505698Y9127337D01*
X8504885Y9131249D01*
X8504885Y9186113D01*
X8505698Y9190024D01*
X8507882Y9193326D01*
X8511184Y9195511D01*
X8515045Y9196273D01*
X8555126Y9196273D01*
X8555126Y9247073D01*
X8539530Y9247073D01*
X8533231Y9246362D01*
X8527745Y9244482D01*
X8522868Y9241383D01*
X8518753Y9237319D01*
X8517585Y9235440D01*
X8514791Y9232493D01*
X8511032Y9230868D01*
X8506968Y9230868D01*
X8503208Y9232493D01*
X8500364Y9235440D01*
X8499195Y9237319D01*
X8495131Y9241383D01*
X8490204Y9244482D01*
X8484768Y9246362D01*
X8478418Y9247073D01*
X8389569Y9247073D01*
X8383219Y9246362D01*
X8377783Y9244482D01*
X8372856Y9241383D01*
X8368792Y9237319D01*
X8365693Y9232392D01*
X8363813Y9226956D01*
X8363102Y9220606D01*
X8363102Y9096756D01*
X8363813Y9090456D01*
X8365693Y9084970D01*
X8368792Y9080093D01*
X8372856Y9075978D01*
X8377783Y9072880D01*
X8383219Y9071000D01*
G37*
G36*
X7755178Y9110472D02*
G01*
X7764272Y9119565D01*
X7768234Y9124492D01*
X7770723Y9129725D01*
X7772044Y9135364D01*
X7772044Y9141155D01*
X7770723Y9146794D01*
X7768234Y9152026D01*
X7764272Y9157004D01*
X7759598Y9161627D01*
X7731810Y9133840D01*
G37*
G36*
X5518861Y9138412D02*
G01*
X5558180Y9138412D01*
X5558180Y9171482D01*
X5545328Y9171482D01*
X5539028Y9170771D01*
X5533542Y9168892D01*
X5528665Y9165793D01*
X5524550Y9161678D01*
X5521502Y9156801D01*
X5519572Y9151315D01*
X5518861Y9145016D01*
G37*
G36*
X4582363Y9140698D02*
G01*
X4637938Y9140698D01*
X4637938Y9187738D01*
X4555896Y9187738D01*
X4555896Y9167164D01*
X4556607Y9160814D01*
X4558487Y9155379D01*
X4561586Y9150451D01*
X4565700Y9146387D01*
X4570577Y9143288D01*
X4576064Y9141409D01*
G37*
G36*
X4775657Y9140698D02*
G01*
X4831232Y9140698D01*
X4837531Y9141409D01*
X4843018Y9143288D01*
X4847894Y9146387D01*
X4852009Y9150451D01*
X4855057Y9155379D01*
X4856988Y9160814D01*
X4857699Y9167164D01*
X4857699Y9187738D01*
X4775657Y9187738D01*
G37*
G36*
X7703769Y9161932D02*
G01*
X7731556Y9189720D01*
X7726883Y9194342D01*
X7721904Y9198356D01*
X7716723Y9200845D01*
X7711084Y9202115D01*
X7705293Y9202115D01*
X7699654Y9200845D01*
X7694422Y9198356D01*
X7689443Y9194342D01*
X7680350Y9185300D01*
G37*
G36*
X8106968Y9192666D02*
G01*
X8119821Y9192666D01*
X8126171Y9193377D01*
X8131606Y9195308D01*
X8136483Y9198356D01*
X8140598Y9202470D01*
X8143697Y9207347D01*
X8145576Y9212834D01*
X8146288Y9219133D01*
X8146288Y9225737D01*
X8106968Y9225737D01*
G37*
G36*
X8612835Y9196273D02*
G01*
X8654897Y9196273D01*
X8654897Y9220606D01*
X8654186Y9226956D01*
X8652256Y9232392D01*
X8649157Y9237319D01*
X8645093Y9241383D01*
X8640165Y9244482D01*
X8634730Y9246362D01*
X8628380Y9247073D01*
X8612835Y9247073D01*
G37*
G36*
X7660690Y9198660D02*
G01*
X7669784Y9207754D01*
X7673746Y9212732D01*
X7676235Y9217914D01*
X7677556Y9223552D01*
X7677556Y9229344D01*
X7676235Y9234982D01*
X7673746Y9240215D01*
X7669784Y9245193D01*
X7665110Y9249867D01*
X7637322Y9222028D01*
G37*
G36*
X7609230Y9250121D02*
G01*
X7637068Y9277908D01*
X7632395Y9282582D01*
X7627416Y9286544D01*
X7622184Y9289034D01*
X7616545Y9290354D01*
X7610754Y9290354D01*
X7605115Y9289034D01*
X7599934Y9286544D01*
X7594955Y9282582D01*
X7585862Y9273489D01*
G37*
G36*
X4775657Y9255455D02*
G01*
X4857699Y9255455D01*
X4857699Y9276029D01*
X4856988Y9282328D01*
X4855057Y9287814D01*
X4852009Y9292691D01*
X4847894Y9296806D01*
X4843018Y9299854D01*
X4837531Y9301784D01*
X4831232Y9302496D01*
X4775657Y9302496D01*
G37*
G36*
X4555896Y9255455D02*
G01*
X4637938Y9255455D01*
X4637938Y9302496D01*
X4582363Y9302496D01*
X4576064Y9301784D01*
X4570577Y9299854D01*
X4565700Y9296806D01*
X4561586Y9292691D01*
X4558487Y9287814D01*
X4556607Y9282328D01*
X4555896Y9276029D01*
G37*
G36*
X8106968Y9265412D02*
G01*
X8146288Y9265412D01*
X8146288Y9272016D01*
X8145576Y9278315D01*
X8143697Y9283801D01*
X8140598Y9288678D01*
X8136483Y9292793D01*
X8131606Y9295892D01*
X8126171Y9297771D01*
X8119821Y9298482D01*
X8106968Y9298482D01*
G37*
G36*
X3780129Y9355582D02*
G01*
X3813200Y9355582D01*
X3819550Y9356293D01*
X3824986Y9358172D01*
X3829913Y9361271D01*
X3833977Y9365386D01*
X3837076Y9370263D01*
X3839006Y9375749D01*
X3839718Y9382048D01*
X3839718Y9415119D01*
X3780129Y9415119D01*
G37*
G36*
X5304129Y9366554D02*
G01*
X5310733Y9369806D01*
X5322265Y9377476D01*
X5332679Y9386620D01*
X5341772Y9397034D01*
X5349494Y9408515D01*
X5352745Y9415119D01*
X5304129Y9415119D01*
G37*
G36*
X4796129Y9366554D02*
G01*
X4802733Y9369806D01*
X4814265Y9377476D01*
X4824679Y9386620D01*
X4833772Y9397034D01*
X4841494Y9408515D01*
X4844745Y9415119D01*
X4796129Y9415119D01*
G37*
G36*
X4703419Y9366554D02*
G01*
X4703419Y9415119D01*
X4654854Y9415119D01*
X4658106Y9408515D01*
X4665776Y9397034D01*
X4674920Y9386620D01*
X4685334Y9377476D01*
X4696866Y9369806D01*
G37*
G36*
X5211419Y9366554D02*
G01*
X5211419Y9415119D01*
X5162854Y9415119D01*
X5166106Y9408515D01*
X5173776Y9397034D01*
X5182920Y9386620D01*
X5193334Y9377476D01*
X5204866Y9369806D01*
G37*
G36*
X5304129Y9507829D02*
G01*
X5352745Y9507829D01*
X5349494Y9514433D01*
X5341772Y9525965D01*
X5332679Y9536379D01*
X5322265Y9545472D01*
X5310733Y9553194D01*
X5307431Y9554819D01*
X5304129Y9557512D01*
G37*
G36*
X4796129Y9507829D02*
G01*
X4844745Y9507829D01*
X4841494Y9514433D01*
X4833772Y9525965D01*
X4824679Y9536379D01*
X4814265Y9545472D01*
X4802733Y9553194D01*
X4799431Y9554819D01*
X4796129Y9557512D01*
G37*
G36*
X5162854Y9507829D02*
G01*
X5211419Y9507829D01*
X5211419Y9557512D01*
X5208117Y9554819D01*
X5204866Y9553194D01*
X5193334Y9545472D01*
X5182920Y9536379D01*
X5173776Y9525965D01*
X5166106Y9514433D01*
G37*
G36*
X4654854Y9507829D02*
G01*
X4703419Y9507829D01*
X4703419Y9557512D01*
X4700117Y9554819D01*
X4696866Y9553194D01*
X4685334Y9545472D01*
X4674920Y9536379D01*
X4665776Y9525965D01*
X4658106Y9514433D01*
G37*

%LPD*%
D10*
X8153400Y8374379D02*
G01*
X8389620Y8610600D01*
X8454390Y8610600D01*
X8583929Y8740139D01*
X8583929Y8773668D01*
X7950184Y8200473D02*
G01*
X8131802Y8018856D01*
X8153374Y8018856D01*
X5854700Y7861274D02*
G01*
X5854687Y7861287D01*
X3886187Y7861287D01*
X3746487Y7721574D01*
X3733800Y7721574D01*
X8153400Y8018779D02*
G01*
X8262620Y8018779D01*
X8343900Y7937500D01*
X8470900Y7937500D01*
X8583929Y8050529D01*
X8583929Y8062468D01*
X6104890Y8000974D02*
G01*
X6332093Y8000974D01*
X4772075Y8000974D02*
G01*
X5009311Y8000974D01*
X7186929Y9063481D02*
G01*
X7112000Y9138412D01*
X7112000Y9194800D01*
X6858000Y9448800D01*
X6781800Y9448800D01*
X7102066Y8278644D02*
G01*
X7177201Y8353780D01*
X7181977Y8353780D01*
X7073900Y8306815D02*
G01*
X6997700Y8229600D01*
X7547559Y8420074D02*
G01*
X7619984Y8347649D01*
X7619984Y8318482D01*
X7708884Y8229582D01*
X7708884Y8178784D01*
X7519161Y8391905D02*
G01*
X7446772Y8462771D01*
X7490968Y8363508D02*
G01*
X7496423Y8363508D01*
X7568016Y8291916D01*
X7462774Y8335263D02*
G01*
X7390129Y8406129D01*
X7434402Y8306917D02*
G01*
X7439858Y8306917D01*
X7511450Y8235325D01*
X7406131Y8278621D02*
G01*
X7333741Y8349742D01*
X7377836Y8250377D02*
G01*
X7383292Y8250377D01*
X7454884Y8178784D01*
X7349490Y8221979D02*
G01*
X7277100Y8293100D01*
X7688834Y8561578D02*
G01*
X7688834Y8565134D01*
X7708900Y8585200D01*
X7785100Y8585200D01*
X7810500Y8559800D01*
X7808749Y8561499D02*
G01*
X7810474Y8559774D01*
X7604099Y8476642D02*
G01*
X7673355Y8407387D01*
X7673367Y8407374D01*
X7950174Y8407374D01*
X7632390Y8504938D02*
G01*
X7691846Y8445482D01*
X7886682Y8445482D01*
X7950174Y8508974D01*
X7660693Y8533203D02*
G01*
X7710314Y8483582D01*
X7835882Y8483582D01*
X7950174Y8597874D01*
X5854700Y9115983D02*
G01*
X5852109Y9118574D01*
X5693308Y9118574D01*
X7073900Y8950452D02*
G01*
X6924293Y9098026D01*
X6819214Y8695842D02*
G01*
X6670344Y8844711D01*
X6670344Y8856827D01*
X6847586Y8533129D02*
G01*
X6819138Y8561578D01*
D11*
X6819138Y8561578D02*
G01*
X6757415Y8623300D01*
X6718300Y8623300D01*
X6668008Y8673592D01*
D10*
X7575804Y8448294D02*
G01*
X7698231Y8324342D01*
X7321270Y8193786D02*
G01*
X7325563Y8193786D01*
X7442174Y8077174D01*
X7017232Y8363508D02*
G01*
X6921931Y8268208D01*
X6921931Y8153831D01*
X6988936Y8391804D02*
G01*
X6982104Y8391804D01*
X6833031Y8242731D01*
X6988936Y8391804D02*
G01*
X6960641Y8420074D01*
X6904075Y8476665D02*
G01*
X6852691Y8425281D01*
X6659981Y8425281D01*
X6932371Y8448370D02*
G01*
X6865983Y8381982D01*
X6794482Y8381982D01*
X6748881Y8336381D01*
X6875779Y8504936D02*
G01*
X6830059Y8460739D01*
X6753859Y8460739D01*
X6692900Y8521700D01*
X6578600Y8521700D01*
X6566408Y8509508D01*
X7490968Y8893835D02*
G01*
X7622235Y9025102D01*
X7622235Y9052331D01*
X7519263Y8865539D02*
G01*
X7613192Y8959469D01*
X7705775Y8959469D01*
X8151875Y8843518D02*
G01*
X8149590Y8648700D01*
X7976971Y9063481D02*
G01*
X7971891Y9068562D01*
X7971891Y9245574D01*
X7766989Y9020683D02*
G01*
X7809788Y9063481D01*
X7976971Y9063481D01*
D12*
X3987800Y9448800D02*
G01*
X4152900Y9283700D01*
X4330700Y9283700D01*
X4495800Y9448800D01*
X4717541Y8407374D02*
G01*
X4706797Y8418118D01*
X4706797Y8761577D01*
D11*
X4087139Y8502980D02*
G01*
X4285889Y8502980D01*
X4356087Y8432782D01*
X4356087Y8232124D01*
D10*
X7575829Y8808974D02*
G01*
X7416774Y8649919D01*
X7416774Y8635974D01*
X5854700Y8409939D02*
G01*
X5854700Y8191500D01*
X5930900Y8115300D01*
X6426200Y8115300D01*
X6667500Y7874000D01*
X6867143Y7874000D01*
X7186929Y8193786D01*
X5981700Y8409939D02*
G01*
X5981700Y8242300D01*
X6070600Y8153400D01*
X6451600Y8153400D01*
X6692900Y7912100D01*
X6848602Y7912100D01*
X7158736Y8221979D01*
X6108700Y8409939D02*
G01*
X6108700Y8242300D01*
X6159500Y8191500D01*
X6464300Y8191500D01*
X6705600Y7950200D01*
X6830059Y7950200D01*
X7130288Y8250428D01*
X8153374Y7932293D02*
G01*
X7950174Y7932293D01*
X7950200Y7932165D02*
G01*
X7904479Y7886700D01*
X7494015Y7886700D01*
X7186929Y8193786D01*
X7604099Y8780703D02*
G01*
X7655966Y8832570D01*
X7761579Y8832570D01*
X7632445Y8752331D02*
G01*
X7556500Y8674100D01*
X7688834Y8695944D02*
G01*
X7734300Y8648700D01*
X7321295Y9063481D02*
G01*
X7035800Y9348978D01*
X7035800Y9448800D01*
X7158634Y9035262D02*
G01*
X7073884Y9120012D01*
X7073884Y9169384D01*
X6908787Y9334482D01*
X6642092Y9334482D01*
X6527800Y9448774D01*
X5511800Y9448800D02*
G01*
X5702300Y9258300D01*
X6337300Y9258300D01*
X6527800Y9067800D01*
X6769100Y9067800D01*
X6896100Y8940800D01*
X6970268Y8940800D01*
X7017258Y8893810D01*
X6019800Y9448800D02*
G01*
X6134100Y9334500D01*
X6400800Y9334500D01*
X6477000Y9258300D01*
X6870700Y9258300D01*
X6997700Y9131300D01*
X6997700Y9083039D01*
X7102093Y8978645D01*
X5765800Y9448800D02*
G01*
X5918200Y9296400D01*
X6362700Y9296400D01*
X6540500Y9118600D01*
X6769100Y9118600D01*
X6908800Y8978900D01*
X6988809Y8978900D01*
X7045452Y8922004D01*
X6273800Y9448800D02*
G01*
X6362700Y9448800D01*
X6515100Y9296400D01*
X6883400Y9296400D01*
X7035800Y9144000D01*
X7035800Y9105900D01*
X7130288Y9011412D01*
X7130288Y9007094D01*
X7377831Y9006967D02*
G01*
X7327874Y8957010D01*
X7327874Y8902674D01*
X7434325Y8950452D02*
G01*
X7493000Y9008871D01*
X7493000Y9067800D01*
X7454900Y9105900D01*
X7454900Y9359900D01*
X7543800Y9448800D01*
X7462774Y8922004D02*
G01*
X7543800Y9003284D01*
X7543800Y9140444D01*
X7527797Y9140444D01*
X7406106Y8978696D02*
G01*
X7454884Y9027474D01*
X7454884Y9055082D01*
X7416784Y9093182D01*
X7416784Y9321789D01*
X7289800Y9448774D01*
X7349566Y9035262D02*
G01*
X7280485Y8966182D01*
X7251684Y8966182D01*
X6988906Y8865567D02*
G01*
X7053399Y8801074D01*
X7061174Y8801074D01*
X6960641Y8837269D02*
G01*
X6907928Y8889982D01*
X6845287Y8889982D01*
X6932340Y8808976D02*
G01*
X6938972Y8808976D01*
X7010374Y8737574D01*
X6904075Y8780703D02*
G01*
X6858297Y8826482D01*
X6781787Y8826482D01*
X6875785Y8752433D02*
G01*
X6881240Y8752433D01*
X6959600Y8674074D01*
X6847580Y8724137D02*
G01*
X6896100Y8675626D01*
X6896100Y8623300D01*
X6938822Y8580577D01*
X6980377Y8580577D01*
X7045497Y8335236D02*
G01*
X7125284Y8415022D01*
X7125284Y8416772D01*
X7547609Y8837168D02*
G01*
X7600188Y8890000D01*
X7856727Y8890000D01*
X7920227Y8953500D01*
X8064500Y8953500D01*
X8151875Y8865870D01*
X8151875Y8843518D01*
X7660640Y8724137D02*
G01*
X7706106Y8769604D01*
X7742681Y8769604D01*
X7824470Y8687562D01*
X7830820Y8687562D01*
X4087139Y8567978D02*
G01*
X4294682Y8567978D01*
X4321792Y8567983D01*
X4290291Y8630983D02*
G01*
X4311650Y8630920D01*
X4409991Y8662482D02*
G01*
X4406900Y8661400D01*
X4087113Y8632952D02*
G01*
X4311650Y8630920D01*
X4311700Y8630993D02*
G01*
X4376519Y8630993D01*
X4406900Y8661374D01*
X4311700Y8565995D02*
G01*
X4400420Y8565995D01*
X4406900Y8572474D01*
D12*
X4469528Y8864582D02*
G01*
X4245358Y9088752D01*
X4245358Y9283700D01*
X4318761Y8864600D02*
G01*
X4318761Y8737600D01*
X4311650Y8730487D01*
X4311650Y8697468D01*
X4469536Y8864574D02*
G01*
X4495672Y8838437D01*
X4495672Y8697442D01*
X4559808Y8761577D01*
X4706797Y8761577D01*
D13*
X4087113Y8697976D02*
G01*
X4311650Y8695944D01*
D14*
G01*
X4469517Y8864582D03*
G01*
X4318867Y8864582D03*
D15*
G01*
X8454476Y8610582D03*
G01*
X8563488Y8610582D03*
D16*
G01*
X7950184Y8200476D03*
D17*
G01*
X7950174Y8309483D03*
D18*
G01*
X8153384Y8287899D03*
D19*
G01*
X8153374Y8374456D03*
D20*
G01*
X8433993Y8062493D03*
G01*
X8433993Y8447481D03*
G01*
X8583980Y8447481D03*
G01*
X8583980Y8062493D03*
G01*
X8433993Y8773693D03*
G01*
X8433993Y9158681D03*
G01*
X8583980Y9158681D03*
G01*
X8583980Y8773693D03*
D18*
G01*
X8153384Y7932301D03*
D19*
G01*
X8153374Y8018856D03*
D18*
G01*
X7950184Y8018867D03*
D19*
G01*
X7950174Y7932293D03*
D21*
G01*
X4706797Y9221571D03*
G01*
X4706797Y8991574D03*
G01*
X4706797Y8761577D03*
D22*
G01*
X5300792Y8991582D03*
D23*
G01*
X4356092Y8150842D03*
G01*
X4356094Y8232122D03*
D24*
G01*
X4717539Y8407382D03*
G01*
X5036040Y8407382D03*
D25*
G01*
X5460989Y8338035D03*
D26*
G01*
X5461000Y8019542D03*
D27*
G01*
X7321266Y8193794D03*
D28*
G01*
X7349554Y8222081D03*
G01*
X7377842Y8250369D03*
G01*
X7406130Y8278657D03*
D29*
G01*
X7434400Y8306927D03*
G01*
X7462688Y8335215D03*
G01*
X7490976Y8363503D03*
G01*
X7519264Y8391791D03*
D28*
G01*
X7547552Y8420078D03*
D27*
G01*
X7575821Y8448348D03*
G01*
X7604108Y8476636D03*
G01*
X7632396Y8504924D03*
G01*
X7660684Y8533212D03*
D28*
G01*
X7688972Y8561499D03*
D30*
G01*
X7688954Y8695852D03*
D31*
G01*
X7660684Y8724122D03*
G01*
X7632396Y8752410D03*
G01*
X7604108Y8780698D03*
G01*
X7575820Y8808986D03*
D30*
G01*
X7547532Y8837273D03*
G01*
X7519262Y8865543D03*
G01*
X7490974Y8893831D03*
D32*
G01*
X7462687Y8922119D03*
G01*
X7434399Y8950406D03*
G01*
X7406112Y8978694D03*
G01*
X7377842Y9006964D03*
D30*
G01*
X7349554Y9035252D03*
D31*
G01*
X7321266Y9063540D03*
D33*
G01*
X7186914Y9063558D03*
G01*
X7158626Y9035271D03*
G01*
X7130338Y9006983D03*
G01*
X7102050Y8978695D03*
G01*
X7073762Y8950407D03*
G01*
X7045493Y8922137D03*
G01*
X7017205Y8893849D03*
G01*
X6988917Y8865561D03*
G01*
X6960629Y8837273D03*
G01*
X6932341Y8808985D03*
G01*
X6904073Y8780715D03*
G01*
X6875785Y8752427D03*
D34*
G01*
X6847497Y8724140D03*
D33*
G01*
X6819209Y8695852D03*
D35*
G01*
X6819226Y8561500D03*
G01*
X6847514Y8533213D03*
G01*
X6875801Y8504925D03*
G01*
X6904071Y8476655D03*
D36*
G01*
X6932359Y8448367D03*
D37*
G01*
X6960647Y8420079D03*
G01*
X6988935Y8391791D03*
G01*
X7017223Y8363503D03*
D36*
G01*
X7045493Y8335234D03*
G01*
X7073781Y8306946D03*
G01*
X7102069Y8278658D03*
G01*
X7130357Y8250370D03*
G01*
X7158645Y8222082D03*
D35*
G01*
X7186914Y8193813D03*
D38*
G01*
X7254090Y8628669D03*
D39*
G01*
X5854700Y8409965D03*
G01*
X5981700Y8409965D03*
G01*
X6108700Y8409965D03*
G01*
X6235700Y8409965D03*
G01*
X5854700Y9115983D03*
G01*
X5981700Y9115983D03*
G01*
X6108700Y9115983D03*
G01*
X6235700Y9115983D03*
D40*
G01*
X4601895Y8000974D03*
G01*
X4772075Y8000974D03*
G01*
X5934709Y8000974D03*
G01*
X6104890Y8000974D03*
D41*
G01*
X3825646Y8157971D03*
G01*
X3825646Y8452993D03*
G01*
X3825646Y8682989D03*
G01*
X3825646Y8977985D03*
D42*
G01*
X4072585Y8257971D03*
G01*
X4072585Y8877985D03*
D43*
G01*
X4087139Y8437981D03*
G01*
X4087139Y8502980D03*
G01*
X4087139Y8567978D03*
G01*
X4087139Y8632977D03*
G01*
X4087139Y8697976D03*
D44*
G01*
X4495672Y8630970D03*
G01*
X4495672Y8695969D03*
G01*
X4311700Y8695969D03*
G01*
X4311700Y8630970D03*
G01*
X4311700Y8565972D03*
G01*
X4495672Y8565972D03*
D45*
G01*
X8151977Y8843492D03*
G01*
X8151977Y9063481D03*
G01*
X7976971Y9063481D03*
G01*
X7976971Y8843492D03*
D46*
G01*
X6921929Y8153826D03*
D47*
G01*
X6844846Y8076744D03*
D48*
G01*
X7527742Y9140541D03*
D49*
G01*
X7604824Y9217624D03*
D15*
G01*
X8149678Y8648680D03*
G01*
X8258690Y8648680D03*
G01*
X7971878Y9245582D03*
G01*
X8080890Y9245582D03*
D48*
G01*
X6489246Y8432341D03*
G01*
X6566329Y8509424D03*
D50*
G01*
X6590846Y8750724D03*
G01*
X6667929Y8673640D03*
D51*
G01*
X7705779Y8959476D03*
D52*
G01*
X7766991Y9020686D03*
D18*
G01*
X5702289Y8082367D03*
D19*
G01*
X5702300Y7995793D03*
D53*
G01*
X6748891Y8336386D03*
G01*
X6687680Y8275176D03*
D54*
G01*
X6659991Y8425286D03*
D53*
G01*
X6598780Y8364076D03*
D55*
G01*
X5095873Y8000984D03*
G01*
X5009307Y8000984D03*
G01*
X6418670Y8000984D03*
G01*
X6332104Y8000984D03*
D56*
G01*
X5693295Y9118582D03*
G01*
X5584283Y9118582D03*
D57*
G01*
X7442144Y8077224D03*
D50*
G01*
X7519226Y8000140D03*
D58*
G01*
X6670329Y8856841D03*
G01*
X6593246Y8933924D03*
D50*
G01*
X7698141Y8324324D03*
G01*
X7775224Y8247240D03*
D58*
G01*
X6924325Y9098140D03*
G01*
X6847243Y9175224D03*
D48*
G01*
X7622245Y9052339D03*
G01*
X7699328Y9129422D03*
D46*
G01*
X6833029Y8242726D03*
G01*
X6755946Y8165642D03*
D59*
G01*
X8559800Y7683474D03*
G01*
X8305800Y7683474D03*
G01*
X8051800Y7683474D03*
G01*
X7797800Y7683474D03*
G01*
X7543800Y7683474D03*
G01*
X7289800Y7683474D03*
G01*
X7035800Y7683474D03*
G01*
X6781800Y7683474D03*
G01*
X6527800Y7683474D03*
G01*
X6273800Y7683474D03*
G01*
X6019800Y7683474D03*
G01*
X5765800Y7683474D03*
G01*
X5511800Y7683474D03*
G01*
X5257800Y7683474D03*
G01*
X5003800Y7683474D03*
G01*
X4749800Y7683474D03*
G01*
X4495800Y7683474D03*
G01*
X4241800Y7683474D03*
G01*
X3987800Y7683474D03*
D60*
G01*
X3733800Y7683474D03*
D59*
G01*
X8559800Y9461474D03*
G01*
X8305800Y9461474D03*
G01*
X8051800Y9461474D03*
G01*
X7797800Y9461474D03*
G01*
X7543800Y9461474D03*
G01*
X7289800Y9461474D03*
G01*
X7035800Y9461474D03*
G01*
X6781800Y9461474D03*
G01*
X6527800Y9461474D03*
G01*
X6273800Y9461474D03*
G01*
X6019800Y9461474D03*
G01*
X5765800Y9461474D03*
G01*
X5511800Y9461474D03*
G01*
X5257800Y9461474D03*
G01*
X5003800Y9461474D03*
G01*
X4749800Y9461474D03*
G01*
X4495800Y9461474D03*
G01*
X4241800Y9461474D03*
G01*
X3987800Y9461474D03*
D60*
G01*
X3733800Y9461474D03*
D59*
G01*
X8813774Y9461474D03*
G01*
X8813774Y9207474D03*
G01*
X8813774Y8953474D03*
G01*
X8813774Y8699474D03*
G01*
X8813774Y8445474D03*
G01*
X8813774Y8191474D03*
G01*
X8813774Y7937474D03*
G01*
X8813774Y7683474D03*
G01*
X3733800Y2857500D03*
G01*
X3733800Y3111500D03*
G01*
X3733800Y3365500D03*
G01*
X3733800Y3619500D03*
G01*
X3733800Y3873500D03*
G01*
X3733800Y4127500D03*
G01*
X3733800Y4381500D03*
G01*
X3733800Y4635500D03*
G01*
X3733800Y4889500D03*
G01*
X3733800Y5143500D03*
G01*
X3733800Y5397500D03*
G01*
X3733800Y5651500D03*
G01*
X3733800Y5905474D03*
G01*
X3733800Y6159474D03*
G01*
X3733800Y6413474D03*
G01*
X3733800Y6667474D03*
G01*
X3733800Y6921474D03*
G01*
X3733800Y7175474D03*
G01*
X3733800Y7429474D03*
G01*
X3987800Y7429474D03*
G01*
X3987800Y7175474D03*
G01*
X3987800Y6921474D03*
G01*
X3987800Y6667474D03*
G01*
X3987800Y6413474D03*
G01*
X3987800Y6159474D03*
G01*
X3987800Y5905474D03*
G01*
X3987800Y5651500D03*
G01*
X3987800Y5397500D03*
G01*
X3987800Y5143500D03*
G01*
X3987800Y4889500D03*
G01*
X3987800Y4635500D03*
G01*
X3987800Y4381500D03*
G01*
X3987800Y4127500D03*
G01*
X3987800Y3873500D03*
G01*
X3987800Y3619500D03*
G01*
X3987800Y3365500D03*
G01*
X3987800Y3111500D03*
G01*
X3987800Y2857500D03*
G01*
X4495800Y2857500D03*
G01*
X4495800Y3111500D03*
G01*
X4495800Y3365500D03*
G01*
X4495800Y3619500D03*
G01*
X4495800Y3873500D03*
G01*
X4495800Y4127500D03*
G01*
X4495800Y4381500D03*
G01*
X4495800Y4635500D03*
G01*
X4495800Y4889500D03*
G01*
X4495800Y5143500D03*
G01*
X4495800Y5397500D03*
G01*
X4495800Y5651500D03*
G01*
X4495800Y5905474D03*
G01*
X4495800Y6159474D03*
G01*
X4495800Y6413474D03*
G01*
X4495800Y6667474D03*
G01*
X4495800Y6921474D03*
G01*
X4495800Y7175474D03*
G01*
X4495800Y7429474D03*
G01*
X4241800Y7429474D03*
G01*
X4241800Y7175474D03*
G01*
X4241800Y6921474D03*
G01*
X4241800Y6667474D03*
G01*
X4241800Y6413474D03*
G01*
X4241800Y6159474D03*
G01*
X4241800Y5905474D03*
G01*
X4241800Y5651500D03*
G01*
X4241800Y5397500D03*
G01*
X4241800Y5143500D03*
G01*
X4241800Y4889500D03*
G01*
X4241800Y4635500D03*
G01*
X4241800Y4381500D03*
G01*
X4241800Y4127500D03*
G01*
X4241800Y3873500D03*
G01*
X4241800Y3619500D03*
G01*
X4241800Y3365500D03*
G01*
X4241800Y3111500D03*
G01*
X4241800Y2857500D03*
G01*
X5257800Y2857500D03*
G01*
X5257800Y3111500D03*
G01*
X5257800Y3365500D03*
G01*
X5257800Y3619500D03*
G01*
X5257800Y3873500D03*
G01*
X5257800Y4127500D03*
G01*
X5257800Y4381500D03*
G01*
X5257800Y4635500D03*
G01*
X5257800Y4889500D03*
G01*
X5257800Y5143500D03*
G01*
X5257800Y5397500D03*
G01*
X5257800Y5651500D03*
G01*
X5257800Y5905474D03*
G01*
X5257800Y6159474D03*
G01*
X5257800Y6413474D03*
G01*
X5257800Y6667474D03*
G01*
X5257800Y6921474D03*
G01*
X5257800Y7175474D03*
G01*
X5257800Y7429474D03*
G01*
X5511800Y7429474D03*
G01*
X5511800Y7175474D03*
G01*
X5511800Y6921474D03*
G01*
X5511800Y6667474D03*
G01*
X5511800Y6413474D03*
G01*
X5511800Y6159474D03*
G01*
X5511800Y5905474D03*
G01*
X5511800Y5651500D03*
G01*
X5511800Y5397500D03*
G01*
X5511800Y5143500D03*
G01*
X5511800Y4889500D03*
G01*
X5511800Y4635500D03*
G01*
X5511800Y4381500D03*
G01*
X5511800Y4127500D03*
G01*
X5511800Y3873500D03*
G01*
X5511800Y3619500D03*
G01*
X5511800Y3365500D03*
G01*
X5511800Y3111500D03*
G01*
X5511800Y2857500D03*
G01*
X5003800Y2857500D03*
G01*
X5003800Y3111500D03*
G01*
X5003800Y3365500D03*
G01*
X5003800Y3619500D03*
G01*
X5003800Y3873500D03*
G01*
X5003800Y4127500D03*
G01*
X5003800Y4381500D03*
G01*
X5003800Y4635500D03*
G01*
X5003800Y4889500D03*
G01*
X5003800Y5143500D03*
G01*
X5003800Y5397500D03*
G01*
X5003800Y5651500D03*
G01*
X5003800Y5905474D03*
G01*
X5003800Y6159474D03*
G01*
X5003800Y6413474D03*
G01*
X5003800Y6667474D03*
G01*
X5003800Y6921474D03*
G01*
X5003800Y7175474D03*
G01*
X5003800Y7429474D03*
G01*
X4749800Y7429474D03*
G01*
X4749800Y7175474D03*
G01*
X4749800Y6921474D03*
G01*
X4749800Y6667474D03*
G01*
X4749800Y6413474D03*
G01*
X4749800Y6159474D03*
G01*
X4749800Y5905474D03*
G01*
X4749800Y5651500D03*
G01*
X4749800Y5397500D03*
G01*
X4749800Y5143500D03*
G01*
X4749800Y4889500D03*
G01*
X4749800Y4635500D03*
G01*
X4749800Y4381500D03*
G01*
X4749800Y4127500D03*
G01*
X4749800Y3873500D03*
G01*
X4749800Y3619500D03*
G01*
X4749800Y3365500D03*
G01*
X4749800Y3111500D03*
G01*
X4749800Y2857500D03*
G01*
X6781774Y2857500D03*
G01*
X6781774Y3111500D03*
G01*
X6781774Y3365500D03*
G01*
X6781774Y3619500D03*
G01*
X6781774Y3873500D03*
G01*
X6781774Y4127500D03*
G01*
X6781774Y4381500D03*
G01*
X6781774Y4635500D03*
G01*
X6781774Y4889500D03*
G01*
X6781774Y5143500D03*
G01*
X6781774Y5397500D03*
G01*
X6781774Y5651500D03*
G01*
X6781774Y5905474D03*
G01*
X6781774Y6159474D03*
G01*
X6781774Y6413474D03*
G01*
X6781774Y6667474D03*
G01*
X6781774Y6921474D03*
G01*
X6781774Y7175474D03*
G01*
X6781774Y7429474D03*
G01*
X7035774Y7429474D03*
G01*
X7035774Y7175474D03*
G01*
X7035774Y6921474D03*
G01*
X7035774Y6667474D03*
G01*
X7035774Y6413474D03*
G01*
X7035774Y6159474D03*
G01*
X7035774Y5905474D03*
G01*
X7035774Y5651500D03*
G01*
X7035774Y5397500D03*
G01*
X7035774Y5143500D03*
G01*
X7035774Y4889500D03*
G01*
X7035774Y4635500D03*
G01*
X7035774Y4381500D03*
G01*
X7035774Y4127500D03*
G01*
X7035774Y3873500D03*
G01*
X7035774Y3619500D03*
G01*
X7035774Y3365500D03*
G01*
X7035774Y3111500D03*
G01*
X7035774Y2857500D03*
G01*
X7543774Y2857500D03*
G01*
X7543774Y3111500D03*
G01*
X7543774Y3365500D03*
G01*
X7543774Y3619500D03*
G01*
X7543774Y3873500D03*
G01*
X7543774Y4127500D03*
G01*
X7543774Y4381500D03*
G01*
X7543774Y4635500D03*
G01*
X7543774Y4889500D03*
G01*
X7543774Y5143500D03*
G01*
X7543774Y5397500D03*
G01*
X7543774Y5651500D03*
G01*
X7543774Y5905474D03*
G01*
X7543774Y6159474D03*
G01*
X7543774Y6413474D03*
G01*
X7543774Y6667474D03*
G01*
X7543774Y6921474D03*
G01*
X7543774Y7175474D03*
G01*
X7543774Y7429474D03*
G01*
X7289774Y7429474D03*
G01*
X7289774Y7175474D03*
G01*
X7289774Y6921474D03*
G01*
X7289774Y6667474D03*
G01*
X7289774Y6413474D03*
G01*
X7289774Y6159474D03*
G01*
X7289774Y5905474D03*
G01*
X7289774Y5651500D03*
G01*
X7289774Y5397500D03*
G01*
X7289774Y5143500D03*
G01*
X7289774Y4889500D03*
G01*
X7289774Y4635500D03*
G01*
X7289774Y4381500D03*
G01*
X7289774Y4127500D03*
G01*
X7289774Y3873500D03*
G01*
X7289774Y3619500D03*
G01*
X7289774Y3365500D03*
G01*
X7289774Y3111500D03*
G01*
X7289774Y2857500D03*
G01*
X6273800Y2857500D03*
G01*
X6273800Y3111500D03*
G01*
X6273800Y3365500D03*
G01*
X6273800Y3619500D03*
G01*
X6273800Y3873500D03*
G01*
X6273800Y4127500D03*
G01*
X6273800Y4381500D03*
G01*
X6273800Y4635500D03*
G01*
X6273800Y4889500D03*
G01*
X6273800Y5143500D03*
G01*
X6273800Y5397500D03*
G01*
X6273800Y5651500D03*
G01*
X6273800Y5905474D03*
G01*
X6273800Y6159474D03*
G01*
X6273800Y6413474D03*
G01*
X6273800Y6667474D03*
G01*
X6273800Y6921474D03*
G01*
X6273800Y7175474D03*
G01*
X6273800Y7429474D03*
G01*
X6527800Y7429474D03*
G01*
X6527800Y7175474D03*
G01*
X6527800Y6921474D03*
G01*
X6527800Y6667474D03*
G01*
X6527800Y6413474D03*
G01*
X6527800Y6159474D03*
G01*
X6527800Y5905474D03*
G01*
X6527800Y5651500D03*
G01*
X6527800Y5397500D03*
G01*
X6527800Y5143500D03*
G01*
X6527800Y4889500D03*
G01*
X6527800Y4635500D03*
G01*
X6527800Y4381500D03*
G01*
X6527800Y4127500D03*
G01*
X6527800Y3873500D03*
G01*
X6527800Y3619500D03*
G01*
X6527800Y3365500D03*
G01*
X6527800Y3111500D03*
G01*
X6527800Y2857500D03*
G01*
X6019800Y2857500D03*
G01*
X6019800Y3111500D03*
G01*
X6019800Y3365500D03*
G01*
X6019800Y3619500D03*
G01*
X6019800Y3873500D03*
G01*
X6019800Y4127500D03*
G01*
X6019800Y4381500D03*
G01*
X6019800Y4635500D03*
G01*
X6019800Y4889500D03*
G01*
X6019800Y5143500D03*
G01*
X6019800Y5397500D03*
G01*
X6019800Y5651500D03*
G01*
X6019800Y5905474D03*
G01*
X6019800Y6159474D03*
G01*
X6019800Y6413474D03*
G01*
X6019800Y6667474D03*
G01*
X6019800Y6921474D03*
G01*
X6019800Y7175474D03*
G01*
X6019800Y7429474D03*
G01*
X5765800Y7429474D03*
G01*
X5765800Y7175474D03*
G01*
X5765800Y6921474D03*
G01*
X5765800Y6667474D03*
G01*
X5765800Y6413474D03*
G01*
X5765800Y6159474D03*
G01*
X5765800Y5905474D03*
G01*
X5765800Y5651500D03*
G01*
X5765800Y5397500D03*
G01*
X5765800Y5143500D03*
G01*
X5765800Y4889500D03*
G01*
X5765800Y4635500D03*
G01*
X5765800Y4381500D03*
G01*
X5765800Y4127500D03*
G01*
X5765800Y3873500D03*
G01*
X5765800Y3619500D03*
G01*
X5765800Y3365500D03*
G01*
X5765800Y3111500D03*
G01*
X5765800Y2857500D03*
G01*
X8813774Y2857500D03*
G01*
X8813774Y3111500D03*
G01*
X8813774Y3365500D03*
G01*
X8813774Y3619500D03*
G01*
X8813774Y3873500D03*
G01*
X8813774Y4127500D03*
G01*
X8813774Y4381500D03*
G01*
X8813774Y4635500D03*
G01*
X8813774Y4889500D03*
G01*
X8813774Y5143500D03*
G01*
X8813774Y5397500D03*
G01*
X8813774Y5651500D03*
G01*
X8813774Y5905474D03*
G01*
X8813774Y6159474D03*
G01*
X8813774Y6413474D03*
G01*
X8813774Y6667474D03*
G01*
X8813774Y6921474D03*
G01*
X8813774Y7175474D03*
G01*
X8813774Y7429474D03*
G01*
X9067774Y7429474D03*
G01*
X9067774Y7175474D03*
G01*
X9067774Y6921474D03*
G01*
X9067774Y6667474D03*
G01*
X9067774Y6413474D03*
G01*
X9067774Y6159474D03*
G01*
X9067774Y5905474D03*
G01*
X9067774Y5651500D03*
G01*
X9067774Y5397500D03*
G01*
X9067774Y5143500D03*
G01*
X9067774Y4889500D03*
G01*
X9067774Y4635500D03*
G01*
X9067774Y4381500D03*
G01*
X9067774Y4127500D03*
G01*
X9067774Y3873500D03*
G01*
X9067774Y3619500D03*
G01*
X9067774Y3365500D03*
G01*
X9067774Y3111500D03*
G01*
X9067774Y2857500D03*
G01*
X9575774Y2857500D03*
G01*
X9575774Y3111500D03*
G01*
X9575774Y3365500D03*
G01*
X9575774Y3619500D03*
G01*
X9575774Y3873500D03*
G01*
X9575774Y4127500D03*
G01*
X9575774Y4381500D03*
G01*
X9575774Y4635500D03*
G01*
X9575774Y4889500D03*
G01*
X9575774Y5143500D03*
G01*
X9575774Y5397500D03*
G01*
X9575774Y5651500D03*
G01*
X9575774Y5905474D03*
G01*
X9575774Y6159474D03*
G01*
X9575774Y6413474D03*
G01*
X9575774Y6667474D03*
G01*
X9575774Y6921474D03*
G01*
X9575774Y7175474D03*
G01*
X9575774Y7429474D03*
G01*
X9321774Y7429474D03*
G01*
X9321774Y7175474D03*
G01*
X9321774Y6921474D03*
G01*
X9321774Y6667474D03*
G01*
X9321774Y6413474D03*
G01*
X9321774Y6159474D03*
G01*
X9321774Y5905474D03*
G01*
X9321774Y5651500D03*
G01*
X9321774Y5397500D03*
G01*
X9321774Y5143500D03*
G01*
X9321774Y4889500D03*
G01*
X9321774Y4635500D03*
G01*
X9321774Y4381500D03*
G01*
X9321774Y4127500D03*
G01*
X9321774Y3873500D03*
G01*
X9321774Y3619500D03*
G01*
X9321774Y3365500D03*
G01*
X9321774Y3111500D03*
G01*
X9321774Y2857500D03*
G01*
X8305774Y2857500D03*
G01*
X8305774Y3111500D03*
G01*
X8305774Y3365500D03*
G01*
X8305774Y3619500D03*
G01*
X8305774Y3873500D03*
G01*
X8305774Y4127500D03*
G01*
X8305774Y4381500D03*
G01*
X8305774Y4635500D03*
G01*
X8305774Y4889500D03*
G01*
X8305774Y5143500D03*
G01*
X8305774Y5397500D03*
G01*
X8305774Y5651500D03*
G01*
X8305774Y5905474D03*
G01*
X8305774Y6159474D03*
G01*
X8305774Y6413474D03*
G01*
X8305774Y6667474D03*
G01*
X8305774Y6921474D03*
G01*
X8305774Y7175474D03*
G01*
X8305774Y7429474D03*
G01*
X8559774Y7429474D03*
G01*
X8559774Y7175474D03*
G01*
X8559774Y6921474D03*
G01*
X8559774Y6667474D03*
G01*
X8559774Y6413474D03*
G01*
X8559774Y6159474D03*
G01*
X8559774Y5905474D03*
G01*
X8559774Y5651500D03*
G01*
X8559774Y5397500D03*
G01*
X8559774Y5143500D03*
G01*
X8559774Y4889500D03*
G01*
X8559774Y4635500D03*
G01*
X8559774Y4381500D03*
G01*
X8559774Y4127500D03*
G01*
X8559774Y3873500D03*
G01*
X8559774Y3619500D03*
G01*
X8559774Y3365500D03*
G01*
X8559774Y3111500D03*
G01*
X8559774Y2857500D03*
G01*
X8051774Y2857500D03*
G01*
X8051774Y3111500D03*
G01*
X8051774Y3365500D03*
G01*
X8051774Y3619500D03*
G01*
X8051774Y3873500D03*
G01*
X8051774Y4127500D03*
G01*
X8051774Y4381500D03*
G01*
X8051774Y4635500D03*
G01*
X8051774Y4889500D03*
G01*
X8051774Y5143500D03*
G01*
X8051774Y5397500D03*
G01*
X8051774Y5651500D03*
G01*
X8051774Y5905474D03*
G01*
X8051774Y6159474D03*
G01*
X8051774Y6413474D03*
G01*
X8051774Y6667474D03*
G01*
X8051774Y6921474D03*
G01*
X8051774Y7175474D03*
G01*
X8051774Y7429474D03*
G01*
X7797774Y7429474D03*
G01*
X7797774Y7175474D03*
G01*
X7797774Y6921474D03*
G01*
X7797774Y6667474D03*
G01*
X7797774Y6413474D03*
G01*
X7797774Y6159474D03*
G01*
X7797774Y5905474D03*
G01*
X7797774Y5651500D03*
G01*
X7797774Y5397500D03*
G01*
X7797774Y5143500D03*
G01*
X7797774Y4889500D03*
G01*
X7797774Y4635500D03*
G01*
X7797774Y4381500D03*
G01*
X7797774Y4127500D03*
G01*
X7797774Y3873500D03*
G01*
X7797774Y3619500D03*
G01*
X7797774Y3365500D03*
G01*
X7797774Y3111500D03*
G01*
X7797774Y2857500D03*
G01*
X9829774Y2857500D03*
G01*
X9829774Y3111500D03*
G01*
X9829774Y3365500D03*
G01*
X9829774Y3619500D03*
G01*
X9829774Y3873500D03*
G01*
X9829774Y4127500D03*
G01*
X9829774Y4381500D03*
G01*
X9829774Y4635500D03*
G01*
X9829774Y4889500D03*
G01*
X9829774Y5143500D03*
G01*
X9829774Y5397500D03*
G01*
X9829774Y5651500D03*
G01*
X9829774Y5905474D03*
G01*
X9829774Y6159474D03*
G01*
X9829774Y6413474D03*
G01*
X9829774Y6667474D03*
G01*
X9829774Y6921474D03*
G01*
X9829774Y7175474D03*
G01*
X9829774Y7429474D03*
G01*
X10083774Y2857500D03*
G01*
X10083774Y3111500D03*
G01*
X10083774Y3365500D03*
G01*
X10083774Y3619500D03*
G01*
X10083774Y3873500D03*
G01*
X10083774Y4127500D03*
G01*
X10083774Y4381500D03*
G01*
X10083774Y4635500D03*
G01*
X10083774Y4889500D03*
G01*
X10083774Y5143500D03*
G01*
X10083774Y5397500D03*
G01*
X10083774Y5651500D03*
G01*
X10083774Y5905474D03*
G01*
X10083774Y6159474D03*
G01*
X10083774Y6413474D03*
G01*
X10083774Y6667474D03*
G01*
X10083774Y6921474D03*
G01*
X10083774Y7175474D03*
G01*
X10083774Y7429474D03*
G01*
X10337774Y2857500D03*
G01*
X10337774Y3111500D03*
G01*
X10337774Y3365500D03*
G01*
X10337774Y3619500D03*
G01*
X10337774Y3873500D03*
G01*
X10337774Y4127500D03*
G01*
X10337774Y4381500D03*
G01*
X10337774Y4635500D03*
G01*
X10337774Y4889500D03*
G01*
X10337774Y5143500D03*
G01*
X10337774Y5397500D03*
G01*
X10337774Y5651500D03*
G01*
X10337774Y5905474D03*
G01*
X10337774Y6159474D03*
G01*
X10337774Y6413474D03*
G01*
X10337774Y6667474D03*
G01*
X10337774Y6921474D03*
G01*
X10337774Y7175474D03*
G01*
X10337774Y7429474D03*
G01*
X9067774Y7683474D03*
G01*
X9067774Y7937474D03*
G01*
X9067774Y8191474D03*
G01*
X9067774Y8445474D03*
G01*
X9067774Y8699474D03*
G01*
X9067774Y8953474D03*
G01*
X9067774Y9207474D03*
G01*
X9067774Y9461474D03*
G01*
X9575774Y9461474D03*
G01*
X9575774Y9207474D03*
G01*
X9575774Y8953474D03*
G01*
X9575774Y8699474D03*
G01*
X9575774Y8445474D03*
G01*
X9575774Y8191474D03*
G01*
X9575774Y7937474D03*
G01*
X9575774Y7683474D03*
G01*
X9321774Y7683474D03*
G01*
X9321774Y7937474D03*
G01*
X9321774Y8191474D03*
G01*
X9321774Y8445474D03*
G01*
X9321774Y8699474D03*
G01*
X9321774Y8953474D03*
G01*
X9321774Y9207474D03*
G01*
X9321774Y9461474D03*
G01*
X10083774Y9461474D03*
G01*
X10083774Y9207474D03*
G01*
X10083774Y8953474D03*
G01*
X10083774Y8699474D03*
G01*
X10083774Y8445474D03*
G01*
X10083774Y8191474D03*
G01*
X10083774Y7937474D03*
G01*
X10083774Y7683474D03*
G01*
X10337774Y7683474D03*
G01*
X10337774Y7937474D03*
G01*
X10337774Y8191474D03*
G01*
X10337774Y8445474D03*
G01*
X10337774Y8699474D03*
G01*
X10337774Y8953474D03*
G01*
X10337774Y9207474D03*
G01*
X10337774Y9461474D03*
G01*
X9829774Y9461474D03*
G01*
X9829774Y9207474D03*
G01*
X9829774Y8953474D03*
G01*
X9829774Y8699474D03*
G01*
X9829774Y8445474D03*
G01*
X9829774Y8191474D03*
G01*
X9829774Y7937474D03*
G01*
X9829774Y7683474D03*
D61*
G01*
X7111974Y8635974D03*
G01*
X7264374Y8788374D03*
G01*
X7264374Y8483574D03*
G01*
X7416774Y8635974D03*
G01*
X7188174Y8712174D03*
G01*
X7340574Y8559774D03*
G01*
X7188174Y8559774D03*
G01*
X7340574Y8712174D03*
G01*
X7264374Y8623274D03*
G01*
X5584291Y9118574D03*
G01*
X5981700Y9115983D03*
G01*
X6108700Y9115983D03*
G01*
X6235700Y9115983D03*
G01*
X7527747Y9140545D03*
G01*
X7622235Y9052331D03*
G01*
X6924319Y9098127D03*
G01*
X6670344Y8856827D03*
G01*
X6667931Y8673642D03*
G01*
X6566331Y8509431D03*
G01*
X6598767Y8364067D03*
G01*
X6687667Y8275167D03*
G01*
X6833031Y8242731D03*
G01*
X7698155Y8324316D03*
G01*
X7950174Y8018856D03*
G01*
X6418681Y8000974D03*
G01*
X5854700Y9115983D03*
G01*
X7442174Y8077174D03*
G01*
X4706797Y8991574D03*
G01*
X5300802Y8991574D03*
G01*
X5461000Y8338032D03*
G01*
X5702300Y8082356D03*
G01*
X5095875Y8000974D03*
G01*
X6921931Y8153831D03*
G01*
X4406900Y8661374D03*
G01*
X4406900Y8572474D03*
G01*
X7761579Y8832570D03*
G01*
X7556474Y8674074D03*
G01*
X7830896Y8687688D03*
G01*
X7734274Y8648674D03*
G01*
X6578600Y9182074D03*
G01*
X6667500Y9182074D03*
G01*
X7327874Y8902674D03*
G01*
X7251674Y8966174D03*
G01*
X6980377Y8580577D03*
G01*
X6959600Y8674074D03*
G01*
X6781800Y8826474D03*
G01*
X7010374Y8737574D03*
G01*
X6845300Y8889974D03*
G01*
X7061174Y8801074D03*
G01*
X6997674Y8229574D03*
G01*
X7125284Y8416772D03*
G01*
X7181977Y8353780D03*
G01*
X7950174Y8508974D03*
G01*
X7950174Y8597874D03*
G01*
X7950174Y8407374D03*
G01*
X7810474Y8559774D03*
G01*
X7708874Y8178774D03*
G01*
X7446772Y8462797D03*
G01*
X7568006Y8291906D03*
G01*
X7390206Y8406206D03*
G01*
X7511440Y8235314D03*
G01*
X7333640Y8349640D03*
G01*
X7454874Y8178774D03*
G01*
X7277074Y8293074D03*
G01*
X7648193Y9166479D03*
G01*
X8153374Y8287893D03*
G01*
X4939182Y8870391D03*
G01*
X5702300Y7995793D03*
G01*
X4584700Y8166100D03*
G01*
X5934583Y8876690D03*
G01*
X5934709Y8000974D03*
G01*
X5854700Y7861274D03*
G01*
X5080000Y9143974D03*
G01*
X4876800Y9347174D03*
G01*
X5486400Y8991574D03*
G01*
X3708400Y8991574D03*
G01*
X3708400Y8686774D03*
G01*
X3708400Y8483574D03*
G01*
X3708400Y8178774D03*
G01*
X4064000Y8127974D03*
G01*
X5153380Y8252993D03*
G01*
X4876800Y7721574D03*
G01*
X4826000Y8229574D03*
G01*
X5283200Y8026374D03*
G01*
X5638800Y7721574D03*
G01*
X5384800Y7721574D03*
G01*
X5130800Y7721574D03*
G01*
X4622800Y7721574D03*
G01*
X4368800Y7721574D03*
G01*
X4114800Y7721574D03*
G01*
X6146800Y7721574D03*
G01*
X6654800Y7721574D03*
G01*
X8432774Y7721574D03*
G01*
X8178774Y7721574D03*
G01*
X7924774Y7721574D03*
G01*
X7670774Y7721574D03*
G01*
X7416774Y7721574D03*
G01*
X7162774Y7721574D03*
G01*
X5613400Y8356574D03*
G01*
X5765800Y8254974D03*
G01*
X8432774Y9448774D03*
G01*
X8178774Y9448774D03*
G01*
X7924774Y9448774D03*
G01*
X3860800Y9448774D03*
G01*
X4114800Y9448774D03*
G01*
X4368800Y9448774D03*
G01*
X4622800Y9448774D03*
G01*
X4876800Y9448774D03*
G01*
X5130800Y9448774D03*
G01*
X4495800Y9270974D03*
G01*
X4622800Y9321774D03*
G01*
X4521200Y9093174D03*
G01*
X5384800Y9448774D03*
G01*
X5638800Y9448774D03*
G01*
X5892800Y9448774D03*
G01*
X6146800Y9448774D03*
G01*
X6654800Y9448774D03*
G01*
X7162774Y9448774D03*
G01*
X7416774Y9448774D03*
G01*
X7670774Y9448774D03*
G01*
X7150481Y8807373D03*
G01*
X7062292Y8504986D03*
G01*
X7442174Y8762974D03*
G01*
X7503286Y8561679D03*
G01*
X7213574Y9321774D03*
G01*
X4953000Y9093174D03*
G01*
X4572000Y8280374D03*
G01*
X8559774Y7899374D03*
G01*
X8153374Y8153374D03*
G01*
X6908800Y9499574D03*
G01*
X6400800Y9499574D03*
G01*
X8563483Y8610574D03*
G01*
X7370978Y8819972D03*
G01*
X7194575Y8889288D03*
G01*
X7830896Y8958579D03*
G01*
X7830896Y9134983D03*
G01*
X8177377Y9210573D03*
G01*
X8259292Y8712885D03*
G01*
X4863591Y8517585D03*
G01*
X5021097Y8712885D03*
G01*
X5184902Y8511286D03*
G01*
X5480989Y8700287D03*
G01*
X5480989Y8504986D03*
G01*
X5613298Y8498687D03*
G01*
X5613298Y8700287D03*
G01*
X5184902Y8700287D03*
G01*
X5814898Y8700287D03*
G01*
X5814898Y8876690D03*
G01*
X6029096Y8700287D03*
G01*
X5764479Y8492388D03*
G01*
X6224397Y8700287D03*
G01*
X6325184Y8265591D03*
G01*
X6235700Y8409965D03*
G01*
X6438595Y8637270D03*
M02*
